<?xml version="1.0" encoding="utf-8"?>
<svg width="1494px" height="335px" viewBox="0 0 1494 335" version="1.1" xmlns:xlink="http://www.w3.org/1999/xlink" xmlns="http://www.w3.org/2000/svg">
  <defs>
    <path d="M0 0L1454 0L1454 295L0 295L0 0Z" id="path_1" />
    <path d="M594.061 99.1498C594.061 108.723 592.401 116.985 589.082 123.938C585.763 130.89 581.221 136.619 575.457 141.126C569.692 145.633 562.95 148.952 555.229 151.083C547.508 153.214 539.211 154.28 530.337 154.28C526.912 154.28 523.157 153.825 519.069 152.917C514.983 152.009 510.842 150.874 506.649 149.511C502.458 148.148 498.422 146.681 494.544 145.109C490.666 143.536 487.225 142.052 484.221 140.654L488.832 99.5691C494.771 103.133 501.357 105.84 508.588 107.692C515.821 109.544 522.93 110.469 529.917 110.469C531.245 110.469 532.852 110.417 534.739 110.312C536.625 110.207 538.425 109.893 540.136 109.369C541.848 108.845 543.298 108.059 544.486 107.011C545.674 105.962 546.268 104.46 546.268 102.504C546.268 101.176 545.848 100.041 545.01 99.0975C544.171 98.1542 543.089 97.3855 541.761 96.7917C540.433 96.1978 538.932 95.7436 537.254 95.4291C535.577 95.1147 533.935 94.8876 532.327 94.7479C530.721 94.6081 529.219 94.5383 527.821 94.5383C526.423 94.5383 525.306 94.5383 524.468 94.5383C518.459 94.5383 512.991 93.5949 508.065 91.7084C503.139 89.8219 498.911 87.1492 495.383 83.6905C491.854 80.2318 489.111 76.0394 487.155 71.1133C485.199 66.1872 484.221 60.7197 484.221 54.7106C484.221 46.4655 485.88 39.0766 489.198 32.5433C492.518 26.0102 496.954 20.4553 502.51 15.8786C508.065 11.302 514.44 7.79085 521.638 5.34529C528.835 2.89973 536.276 1.67696 543.961 1.67696C547.385 1.67696 550.914 1.79923 554.547 2.04379C558.181 2.28835 561.797 2.72505 565.396 3.35391C568.994 3.98277 572.505 4.78631 575.929 5.76452C579.352 6.74275 582.602 7.96553 585.676 9.43287L581.693 51.9856C576.942 50.3785 571.964 49.0335 566.759 47.9505C561.552 46.8674 556.47 46.3259 551.508 46.3259C550.6 46.3259 549.429 46.3433 547.997 46.3783C546.565 46.4132 545.062 46.518 543.49 46.6927C541.917 46.8674 540.328 47.1294 538.722 47.4788C537.114 47.8281 535.682 48.2997 534.424 48.8937C533.167 49.4876 532.153 50.2737 531.384 51.2519C530.616 52.2301 530.267 53.383 530.337 54.7106C530.406 56.2479 530.984 57.4357 532.066 58.2742C533.149 59.1126 534.547 59.724 536.258 60.1083C537.97 60.4927 539.857 60.6848 541.917 60.6848C543.979 60.6848 546.023 60.6323 548.049 60.5275C550.075 60.4228 551.962 60.318 553.709 60.2132C555.456 60.1083 556.888 60.0908 558.007 60.1607C563.596 60.5101 568.627 61.6979 573.099 63.7242C577.571 65.7505 581.362 68.4407 584.471 71.7946C587.58 75.1485 589.956 79.1488 591.598 83.7953C593.24 88.4418 594.061 93.56 594.061 99.1498L594.061 99.1498L594.061 99.1498ZM479.923 99.1498C479.923 108.723 478.264 116.985 474.944 123.938C471.626 130.89 467.085 136.619 461.32 141.126C455.555 145.633 448.812 148.952 441.092 151.083C433.37 153.214 425.073 154.28 416.199 154.28C412.776 154.28 409.019 153.825 404.931 152.917C400.845 152.009 396.704 150.874 392.512 149.511C388.32 148.148 384.284 146.681 380.406 145.109C376.528 143.536 373.087 142.052 370.083 140.654L374.694 99.5691C380.633 103.133 387.219 105.84 394.451 107.692C401.683 109.544 408.793 110.469 415.78 110.469C417.107 110.469 418.714 110.417 420.601 110.312C422.487 110.207 424.287 109.893 425.998 109.369C427.711 108.845 429.161 108.059 430.348 107.011C431.536 105.962 432.13 104.46 432.13 102.504C432.13 101.176 431.71 100.041 430.872 99.0975C430.034 98.1542 428.951 97.3855 427.624 96.7917C426.295 96.1978 424.794 95.7436 423.116 95.4291C421.439 95.1147 419.797 94.8876 418.191 94.7479C416.583 94.6081 415.081 94.5383 413.683 94.5383C412.286 94.5383 411.168 94.5383 410.33 94.5383C404.321 94.5383 398.853 93.5949 393.927 91.7084C389.001 89.8219 384.773 87.1492 381.245 83.6905C377.716 80.2318 374.973 76.0394 373.018 71.1133C371.061 66.1872 370.083 60.7197 370.083 54.7106C370.083 46.4655 371.742 39.0766 375.062 32.5433C378.38 26.0102 382.818 20.4553 388.372 15.8786C393.927 11.302 400.303 7.79085 407.5 5.34529C414.697 2.89973 422.138 1.67696 429.824 1.67696C433.249 1.67696 436.777 1.79923 440.41 2.04379C444.043 2.28835 447.66 2.72505 451.258 3.35391C454.857 3.98277 458.367 4.78631 461.791 5.76452C465.215 6.74275 468.464 7.96553 471.539 9.43287L467.556 51.9856C462.805 50.3785 457.826 49.0335 452.621 47.9505C447.414 46.8674 442.332 46.3259 437.371 46.3259C436.462 46.3259 435.291 46.3433 433.859 46.3783C432.427 46.4132 430.924 46.518 429.353 46.6927C427.781 46.8674 426.191 47.1294 424.584 47.4788C422.976 47.8281 421.544 48.2997 420.286 48.8937C419.029 49.4876 418.016 50.2737 417.248 51.2519C416.478 52.2301 416.129 53.383 416.199 54.7106C416.269 56.2479 416.846 57.4357 417.928 58.2742C419.011 59.1126 420.409 59.724 422.12 60.1083C423.833 60.4927 425.719 60.6848 427.781 60.6848C429.842 60.6848 431.886 60.6323 433.912 60.5275C435.938 60.4228 437.824 60.318 439.571 60.2132C441.318 60.1083 442.75 60.0908 443.869 60.1607C449.458 60.5101 454.489 61.6979 458.961 63.7242C463.433 65.7505 467.224 68.4407 470.333 71.7946C473.443 75.1485 475.818 79.1488 477.461 83.7953C479.103 88.4418 479.923 93.56 479.923 99.1498L479.923 99.1498L479.923 99.1498ZM365.68 68.1262C365.68 74.2053 365.262 80.2841 364.423 86.3631C352.475 87.1317 340.596 88.3719 328.788 90.0839C316.98 91.7957 305.17 93.4901 293.362 95.1671C295.178 100.198 298.026 104.216 301.904 107.22C305.782 110.225 310.411 111.727 315.791 111.727C318.586 111.727 321.644 111.203 324.962 110.155C328.281 109.107 331.583 107.797 334.867 106.224C338.15 104.652 341.295 102.958 344.3 101.141C347.304 99.3246 349.889 97.6826 352.056 96.2152L347.025 143.799C344.3 145.895 341.347 147.677 338.168 149.144C334.989 150.612 331.688 151.799 328.263 152.708C324.84 153.616 321.381 154.28 317.887 154.7C314.394 155.118 310.97 155.328 307.616 155.328C300.699 155.328 294.375 154.385 288.646 152.498C282.916 150.612 277.729 147.974 273.081 144.585C268.435 141.196 264.364 137.196 260.871 132.585C257.377 127.972 254.477 122.942 252.172 117.492C249.866 112.041 248.119 106.277 246.931 100.198C245.743 94.119 245.149 87.9702 245.149 81.7515C245.149 75.2533 245.743 68.7552 246.931 62.2569C248.119 55.7587 249.918 49.5051 252.33 43.496C254.74 37.487 257.779 31.9145 261.447 26.7789C265.115 21.6432 269.395 17.1539 274.287 13.3108C279.177 9.46781 284.715 6.46327 290.899 4.29721C297.083 2.13114 303.914 1.04811 311.389 1.04811C317.608 1.04811 323.286 1.90405 328.421 3.61594C333.557 5.32783 338.134 7.70352 342.151 10.743C346.169 13.7825 349.663 17.3984 352.632 21.5908C355.601 25.7832 358.047 30.3773 359.968 35.3733C361.891 40.3691 363.323 45.6446 364.266 51.1995C365.209 56.7544 365.68 62.3966 365.68 68.1262L365.68 68.1262L365.68 68.1262ZM323.757 62.6762C323.757 60.7197 323.547 58.7108 323.128 56.6496C322.708 54.5884 322.028 52.7192 321.084 51.0422C320.141 49.3653 318.901 47.9854 317.364 46.9024C315.827 45.8193 313.904 45.2778 311.599 45.2778C308.804 45.2778 306.341 46.0288 304.21 47.5312C302.078 49.0335 300.244 50.92 298.707 53.1909C297.17 55.4618 295.913 57.9248 294.934 60.58C293.956 63.2352 293.223 65.6806 292.734 67.9166L323.757 64.982L323.757 62.6762L323.757 62.6762ZM238.757 148.62L186.352 151.135L185.932 106.906L161.826 106.906L160.359 152.813L113.404 152.813L117.387 5.4501L167.276 7.75591L164.132 83.0092L187.399 83.0092L187.609 4.19239L235.402 5.4501L238.757 148.62L238.757 148.62ZM107.744 5.4501L101.875 49.6798C99.8487 49.1207 97.8222 48.7364 95.796 48.5269C93.7697 48.3172 91.7434 48.2124 89.7171 48.2124C84.5464 48.2124 79.6204 48.8937 74.9389 50.2563C70.2574 51.6187 66.1174 53.6975 62.519 56.4923C58.9205 59.2873 56.0556 62.781 53.9245 66.9733C51.7934 71.1657 50.7279 76.0918 50.7279 81.7515C50.7279 85.3849 51.3043 88.5292 52.4573 91.1844C53.6102 93.8395 55.2347 96.0405 57.3309 97.7874C59.4271 99.5342 61.9076 100.827 64.7723 101.665C67.6372 102.504 70.7815 102.923 74.2052 102.923C76.7905 102.923 79.4806 102.644 82.2755 102.085C85.0705 101.526 87.8304 100.792 90.5555 99.8836C93.2806 98.9751 95.9357 97.927 98.5211 96.7392C101.106 95.5515 103.482 94.3287 105.648 93.0709L101.456 142.331C98.7307 143.728 95.7785 144.969 92.5993 146.053C89.42 147.135 86.1535 148.079 82.7996 148.882C79.4457 149.685 76.0918 150.297 72.7379 150.717C69.384 151.135 66.1698 151.345 63.0954 151.345C54.2215 151.345 45.9416 149.703 38.2555 146.419C30.5695 143.135 23.8966 138.628 18.2369 132.898C12.5772 127.169 8.12275 120.409 4.87364 112.618C1.62454 104.827 0 96.4248 0 87.4112C0 75.463 1.71189 64.1959 5.13567 53.6102C8.55944 43.0243 13.5903 33.7487 20.2283 25.7832C26.8662 17.8176 35.0937 11.5291 44.9109 6.91743C54.7281 2.30581 66.0301 0 78.8169 0C83.6381 0 88.5816 0.384302 93.6474 1.15291C98.7132 1.92151 103.412 3.35391 107.744 5.4501L107.744 5.4501L107.744 5.4501Z" id="path_2" />
    <path d="M606.01 67.0782C606.01 73.1572 605.59 79.236 604.752 85.3151C592.803 86.0836 580.924 87.3238 569.116 89.0358C557.308 90.7476 545.499 92.442 533.691 94.119C535.508 99.1499 538.354 103.168 542.233 106.172C546.11 109.177 550.74 110.679 556.12 110.679C558.914 110.679 561.972 110.155 565.291 109.107C568.609 108.059 571.911 106.749 575.196 105.176C578.48 103.604 581.623 101.91 584.628 100.093C587.632 98.2765 590.218 96.6345 592.384 95.1671L587.353 142.751C584.628 144.847 581.676 146.629 578.497 148.095C575.317 149.563 572.016 150.751 568.593 151.66C565.169 152.567 561.71 153.232 558.216 153.651C554.723 154.07 551.299 154.28 547.945 154.28C541.027 154.28 534.704 153.336 528.974 151.45C523.244 149.563 518.057 146.926 513.41 143.536C508.764 140.147 504.694 136.148 501.2 131.536C497.706 126.925 494.807 121.894 492.5 116.444C490.194 110.993 488.448 105.229 487.261 99.1499C486.072 93.071 485.478 86.9221 485.478 80.7034C485.478 74.2053 486.072 67.7071 487.261 61.2088C488.448 54.7106 490.247 48.457 492.658 42.4479C495.068 36.4388 498.108 30.8664 501.776 25.7307C505.445 20.5951 509.724 16.1058 514.615 12.2627C519.507 8.41971 525.044 5.41517 531.228 3.2491C537.411 1.08303 544.242 0 551.718 0C557.937 0 563.614 0.855945 568.749 2.56784C573.885 4.27973 578.462 6.6554 582.479 9.69489C586.497 12.7344 589.991 16.3503 592.96 20.5427C595.93 24.7351 598.375 29.3292 600.298 34.3252C602.219 39.321 603.651 44.5965 604.594 50.1514C605.538 55.7063 606.01 61.3485 606.01 67.0782L606.01 67.0782L606.01 67.0782ZM564.085 61.6281C564.085 59.6717 563.876 57.6628 563.457 55.6015C563.037 53.5403 562.356 51.6712 561.413 49.9941C560.469 48.3172 559.229 46.9373 557.692 45.8542C556.155 44.7712 554.234 44.2297 551.927 44.2296C549.132 44.2296 546.67 44.9808 544.539 46.4831C542.408 47.9854 540.574 49.8719 539.035 52.1428C537.498 54.4137 536.241 56.8767 535.262 59.5319C534.284 62.187 533.551 64.6326 533.062 66.8685L564.085 63.9339L564.085 61.6281L564.085 61.6281ZM483.068 55.1299C483.068 61.9076 482.054 67.9166 480.028 73.1572C478.002 78.3976 475.225 82.9917 471.696 86.9396C468.167 90.8874 464.027 94.2063 459.276 96.8965C454.524 99.5867 449.442 101.788 444.026 103.5C438.611 105.211 433.003 106.469 427.204 107.273C421.405 108.076 415.711 108.513 410.12 108.583L410.12 153.232L361.279 153.232C361.279 145.266 361.297 137.511 361.331 129.963C361.366 122.417 361.402 114.924 361.436 107.482C361.471 100.041 361.505 92.5469 361.541 85.0006C361.576 77.4543 361.628 69.6635 361.699 61.6281C361.838 53.1036 361.873 44.579 361.802 36.0545C361.733 27.5301 361.907 18.9356 362.327 10.2714C371.271 7.6162 380.215 5.62482 389.158 4.29722C398.102 2.96963 407.325 2.30584 416.828 2.30584C422.208 2.30584 427.588 2.74254 432.968 3.61596C438.349 4.48937 443.502 5.86936 448.428 7.75594C453.354 9.64251 457.931 12.0007 462.158 14.8305C466.386 17.6605 470.036 21.0318 473.11 24.9447C476.185 28.8576 478.614 33.3294 480.395 38.3604C482.177 43.3912 483.068 48.981 483.068 55.1299L483.068 55.1299L483.068 55.1299ZM436.532 58.6934C436.532 54.1517 435.152 50.6056 432.392 48.0553C429.632 45.5049 426.051 44.2297 421.649 44.2296C420.182 44.2296 418.662 44.352 417.09 44.5965C415.517 44.841 414.033 45.1381 412.635 45.4873L411.378 76.0918C412.356 76.2315 413.299 76.3014 414.208 76.3014C415.115 76.3014 416.059 76.3014 417.038 76.3014C419.553 76.3014 421.981 75.8821 424.322 75.0437C426.662 74.2053 428.741 72.9999 430.558 71.4278C432.375 69.8556 433.825 68.004 434.907 65.8729C435.99 63.7417 436.532 61.3485 436.532 58.6934L436.532 58.6934L436.532 58.6934ZM358.764 142.751L306.778 149.458L300.489 125.772L276.592 125.772L271.352 149.458L217.9 144.219L259.613 4.61165L317.887 1.67699L358.764 142.751L358.764 142.751ZM296.716 93.6998L288.751 57.2261L280.995 93.6998L296.716 93.6998L296.716 93.6998ZM216.537 8.59441L212.764 52.8241C210.738 52.265 208.746 51.8808 206.789 51.6712C204.833 51.4615 202.842 51.3567 200.815 51.3567C195.854 51.3567 191.121 51.9856 186.613 53.2434C182.107 54.501 178.124 56.4226 174.666 59.0078C171.206 61.5931 168.447 64.8597 166.385 68.8075C164.324 72.7554 163.294 77.4194 163.294 82.7996C163.294 86.7125 163.87 90.1188 165.023 93.0185C166.176 95.9183 167.818 98.3289 169.949 100.25C172.08 102.172 174.666 103.622 177.705 104.6C180.744 105.578 184.116 106.067 187.819 106.067C190.404 106.067 193.06 105.805 195.785 105.281C198.51 104.757 201.234 104.041 203.959 103.133C206.684 102.224 209.305 101.176 211.82 99.9884C214.335 98.8006 216.676 97.5428 218.843 96.2153L217.165 145.476C214.44 146.873 211.506 148.113 208.362 149.196C205.217 150.28 201.986 151.223 198.667 152.026C195.347 152.83 192.028 153.441 188.71 153.86C185.391 154.28 182.23 154.49 179.224 154.49C169.303 154.49 160.271 152.638 152.131 148.935C143.991 145.231 137.004 140.183 131.169 133.789C125.335 127.396 120.811 119.972 117.596 111.517C114.382 103.063 112.775 94.0492 112.775 84.4766C112.775 73.0174 114.4 62.3268 117.649 52.4048C120.898 42.4828 125.685 33.871 132.007 26.5693C138.331 19.2675 146.156 13.538 155.485 9.38048C164.813 5.22304 175.522 3.1443 187.609 3.1443C192.43 3.1443 197.322 3.52861 202.283 4.29722C207.243 5.06582 211.994 6.49822 216.537 8.59441L216.537 8.59441L216.537 8.59441ZM109.84 98.1018C109.84 107.674 108.181 115.937 104.862 122.89C101.543 129.842 97.0013 135.572 91.2368 140.078C85.4723 144.585 78.7295 147.903 71.0085 150.034C63.2876 152.167 54.9901 153.232 46.1162 153.232C42.6925 153.232 38.9369 152.777 34.8491 151.87C30.7616 150.961 26.6216 149.826 22.4293 148.463C18.2369 147.1 14.2017 145.633 10.3237 144.061C6.44579 142.488 3.00454 141.004 0 139.606L4.61162 98.5211C10.5508 102.085 17.1364 104.792 24.3682 106.644C31.6001 108.495 38.7096 109.421 45.697 109.421C47.0246 109.421 48.6316 109.369 50.5182 109.264C52.4048 109.159 54.2041 108.845 55.916 108.321C57.6278 107.797 59.0777 107.011 60.2655 105.963C61.4534 104.914 62.0474 103.412 62.0474 101.456C62.0474 100.128 61.6281 98.9927 60.7897 98.0494C59.951 97.1062 58.868 96.3375 57.5406 95.7436C56.2129 95.1496 54.7106 94.6955 53.0337 94.381C51.3567 94.0666 49.7148 93.8395 48.1076 93.6998C46.5005 93.56 44.9983 93.4901 43.6008 93.4901C42.2033 93.4901 41.0854 93.4901 40.2469 93.4901C34.2377 93.4901 28.7702 92.5469 23.8442 90.6603C18.9182 88.7738 14.6907 86.1012 11.1622 82.6424C7.63364 79.1837 4.89112 74.9912 2.93467 70.0652C0.978223 65.1392 0 59.6717 0 53.6625C0 45.4174 1.65949 38.0285 4.97846 31.4953C8.29743 24.9621 12.7344 19.4072 18.2893 14.8305C23.8442 10.2539 30.2201 6.74275 37.4171 4.2972C44.614 1.85164 52.0554 0.628866 59.7416 0.628857C63.1652 0.628857 66.6938 0.751135 70.3273 0.99569C73.9607 1.24025 77.5766 1.67695 81.1751 2.30581C84.7735 2.93467 88.2847 3.73822 91.7084 4.71643C95.1322 5.69465 98.3813 6.91743 101.456 8.38477L97.473 50.9374C92.7216 49.3304 87.7431 47.9854 82.5376 46.9024C77.332 45.8193 72.2487 45.2778 67.2878 45.2778C66.3795 45.2778 65.2091 45.2952 63.7766 45.3302C62.3443 45.3651 60.842 45.4699 59.2698 45.6446C57.6977 45.8193 56.1081 46.0813 54.501 46.4306C52.8939 46.78 51.4615 47.2517 50.2038 47.8456C48.9461 48.4395 47.9329 49.2256 47.1643 50.2038C46.3958 51.182 46.0464 52.3349 46.1162 53.6625C46.1861 55.1998 46.7626 56.3876 47.8456 57.2261C48.9286 58.0645 50.326 58.6759 52.038 59.0603C53.7498 59.4445 55.6364 59.6367 57.6977 59.6367C59.759 59.6367 61.8027 59.5843 63.8291 59.4794C65.8554 59.3746 67.7419 59.2699 69.4888 59.1651C71.2356 59.0603 72.668 59.0427 73.786 59.1126C79.3758 59.462 84.4068 60.6499 88.8786 62.6762C93.3504 64.7025 97.1411 67.3926 100.25 70.7465C103.36 74.1004 105.735 78.1007 107.377 82.7473C109.019 87.3937 109.84 92.5119 109.84 98.1018L109.84 98.1018L109.84 98.1018Z" id="path_3" />
    <clipPath id="mask_1">
      <use xlink:href="#path_1" />
    </clipPath>
    <clipPath id="mask_2">
      <use xlink:href="#path_2" />
    </clipPath>
    <clipPath id="mask_3">
      <use xlink:href="#path_3" />
    </clipPath>
  </defs>
  <g id="banner" transform="translate(20 20)">
    <path d="M0 0L1454 0L1454 295L0 295L0 0Z" id="Background" fill="none" fill-rule="evenodd" stroke="none" />
    <g clip-path="url(#mask_1)">
      <g id="banner" transform="translate(27 26.87616)">
        <g id="chess" transform="translate(0 53.867447)">
          <g id="text">
            <path d="M594.061 99.1498C594.061 108.723 592.401 116.985 589.082 123.938C585.763 130.89 581.221 136.619 575.457 141.126C569.692 145.633 562.95 148.952 555.229 151.083C547.508 153.214 539.211 154.28 530.337 154.28C526.912 154.28 523.157 153.825 519.069 152.917C514.983 152.009 510.842 150.874 506.649 149.511C502.458 148.148 498.422 146.681 494.544 145.109C490.666 143.536 487.225 142.052 484.221 140.654L488.832 99.5691C494.771 103.133 501.357 105.84 508.588 107.692C515.821 109.544 522.93 110.469 529.917 110.469C531.245 110.469 532.852 110.417 534.739 110.312C536.625 110.207 538.425 109.893 540.136 109.369C541.848 108.845 543.298 108.059 544.486 107.011C545.674 105.962 546.268 104.46 546.268 102.504C546.268 101.176 545.848 100.041 545.01 99.0975C544.171 98.1542 543.089 97.3855 541.761 96.7917C540.433 96.1978 538.932 95.7436 537.254 95.4291C535.577 95.1147 533.935 94.8876 532.327 94.7479C530.721 94.6081 529.219 94.5383 527.821 94.5383C526.423 94.5383 525.306 94.5383 524.468 94.5383C518.459 94.5383 512.991 93.5949 508.065 91.7084C503.139 89.8219 498.911 87.1492 495.383 83.6905C491.854 80.2318 489.111 76.0394 487.155 71.1133C485.199 66.1872 484.221 60.7197 484.221 54.7106C484.221 46.4655 485.88 39.0766 489.198 32.5433C492.518 26.0102 496.954 20.4553 502.51 15.8786C508.065 11.302 514.44 7.79085 521.638 5.34529C528.835 2.89973 536.276 1.67696 543.961 1.67696C547.385 1.67696 550.914 1.79923 554.547 2.04379C558.181 2.28835 561.797 2.72505 565.396 3.35391C568.994 3.98277 572.505 4.78631 575.929 5.76452C579.352 6.74275 582.602 7.96553 585.676 9.43287L581.693 51.9856C576.942 50.3785 571.964 49.0335 566.759 47.9505C561.552 46.8674 556.47 46.3259 551.508 46.3259C550.6 46.3259 549.429 46.3433 547.997 46.3783C546.565 46.4132 545.062 46.518 543.49 46.6927C541.917 46.8674 540.328 47.1294 538.722 47.4788C537.114 47.8281 535.682 48.2997 534.424 48.8937C533.167 49.4876 532.153 50.2737 531.384 51.2519C530.616 52.2301 530.267 53.383 530.337 54.7106C530.406 56.2479 530.984 57.4357 532.066 58.2742C533.149 59.1126 534.547 59.724 536.258 60.1083C537.97 60.4927 539.857 60.6848 541.917 60.6848C543.979 60.6848 546.023 60.6323 548.049 60.5275C550.075 60.4228 551.962 60.318 553.709 60.2132C555.456 60.1083 556.888 60.0908 558.007 60.1607C563.596 60.5101 568.627 61.6979 573.099 63.7242C577.571 65.7505 581.362 68.4407 584.471 71.7946C587.58 75.1485 589.956 79.1488 591.598 83.7953C593.24 88.4418 594.061 93.56 594.061 99.1498L594.061 99.1498L594.061 99.1498ZM479.923 99.1498C479.923 108.723 478.264 116.985 474.944 123.938C471.626 130.89 467.085 136.619 461.32 141.126C455.555 145.633 448.812 148.952 441.092 151.083C433.37 153.214 425.073 154.28 416.199 154.28C412.776 154.28 409.019 153.825 404.931 152.917C400.845 152.009 396.704 150.874 392.512 149.511C388.32 148.148 384.284 146.681 380.406 145.109C376.528 143.536 373.087 142.052 370.083 140.654L374.694 99.5691C380.633 103.133 387.219 105.84 394.451 107.692C401.683 109.544 408.793 110.469 415.78 110.469C417.107 110.469 418.714 110.417 420.601 110.312C422.487 110.207 424.287 109.893 425.998 109.369C427.711 108.845 429.161 108.059 430.348 107.011C431.536 105.962 432.13 104.46 432.13 102.504C432.13 101.176 431.71 100.041 430.872 99.0975C430.034 98.1542 428.951 97.3855 427.624 96.7917C426.295 96.1978 424.794 95.7436 423.116 95.4291C421.439 95.1147 419.797 94.8876 418.191 94.7479C416.583 94.6081 415.081 94.5383 413.683 94.5383C412.286 94.5383 411.168 94.5383 410.33 94.5383C404.321 94.5383 398.853 93.5949 393.927 91.7084C389.001 89.8219 384.773 87.1492 381.245 83.6905C377.716 80.2318 374.973 76.0394 373.018 71.1133C371.061 66.1872 370.083 60.7197 370.083 54.7106C370.083 46.4655 371.742 39.0766 375.062 32.5433C378.38 26.0102 382.818 20.4553 388.372 15.8786C393.927 11.302 400.303 7.79085 407.5 5.34529C414.697 2.89973 422.138 1.67696 429.824 1.67696C433.249 1.67696 436.777 1.79923 440.41 2.04379C444.043 2.28835 447.66 2.72505 451.258 3.35391C454.857 3.98277 458.367 4.78631 461.791 5.76452C465.215 6.74275 468.464 7.96553 471.539 9.43287L467.556 51.9856C462.805 50.3785 457.826 49.0335 452.621 47.9505C447.414 46.8674 442.332 46.3259 437.371 46.3259C436.462 46.3259 435.291 46.3433 433.859 46.3783C432.427 46.4132 430.924 46.518 429.353 46.6927C427.781 46.8674 426.191 47.1294 424.584 47.4788C422.976 47.8281 421.544 48.2997 420.286 48.8937C419.029 49.4876 418.016 50.2737 417.248 51.2519C416.478 52.2301 416.129 53.383 416.199 54.7106C416.269 56.2479 416.846 57.4357 417.928 58.2742C419.011 59.1126 420.409 59.724 422.12 60.1083C423.833 60.4927 425.719 60.6848 427.781 60.6848C429.842 60.6848 431.886 60.6323 433.912 60.5275C435.938 60.4228 437.824 60.318 439.571 60.2132C441.318 60.1083 442.75 60.0908 443.869 60.1607C449.458 60.5101 454.489 61.6979 458.961 63.7242C463.433 65.7505 467.224 68.4407 470.333 71.7946C473.443 75.1485 475.818 79.1488 477.461 83.7953C479.103 88.4418 479.923 93.56 479.923 99.1498L479.923 99.1498L479.923 99.1498ZM365.68 68.1262C365.68 74.2053 365.262 80.2841 364.423 86.3631C352.475 87.1317 340.596 88.3719 328.788 90.0839C316.98 91.7957 305.17 93.4901 293.362 95.1671C295.178 100.198 298.026 104.216 301.904 107.22C305.782 110.225 310.411 111.727 315.791 111.727C318.586 111.727 321.644 111.203 324.962 110.155C328.281 109.107 331.583 107.797 334.867 106.224C338.15 104.652 341.295 102.958 344.3 101.141C347.304 99.3246 349.889 97.6826 352.056 96.2152L347.025 143.799C344.3 145.895 341.347 147.677 338.168 149.144C334.989 150.612 331.688 151.799 328.263 152.708C324.84 153.616 321.381 154.28 317.887 154.7C314.394 155.118 310.97 155.328 307.616 155.328C300.699 155.328 294.375 154.385 288.646 152.498C282.916 150.612 277.729 147.974 273.081 144.585C268.435 141.196 264.364 137.196 260.871 132.585C257.377 127.972 254.477 122.942 252.172 117.492C249.866 112.041 248.119 106.277 246.931 100.198C245.743 94.119 245.149 87.9702 245.149 81.7515C245.149 75.2533 245.743 68.7552 246.931 62.2569C248.119 55.7587 249.918 49.5051 252.33 43.496C254.74 37.487 257.779 31.9145 261.447 26.7789C265.115 21.6432 269.395 17.1539 274.287 13.3108C279.177 9.46781 284.715 6.46327 290.899 4.29721C297.083 2.13114 303.914 1.04811 311.389 1.04811C317.608 1.04811 323.286 1.90405 328.421 3.61594C333.557 5.32783 338.134 7.70352 342.151 10.743C346.169 13.7825 349.663 17.3984 352.632 21.5908C355.601 25.7832 358.047 30.3773 359.968 35.3733C361.891 40.3691 363.323 45.6446 364.266 51.1995C365.209 56.7544 365.68 62.3966 365.68 68.1262L365.68 68.1262L365.68 68.1262ZM323.757 62.6762C323.757 60.7197 323.547 58.7108 323.128 56.6496C322.708 54.5884 322.028 52.7192 321.084 51.0422C320.141 49.3653 318.901 47.9854 317.364 46.9024C315.827 45.8193 313.904 45.2778 311.599 45.2778C308.804 45.2778 306.341 46.0288 304.21 47.5312C302.078 49.0335 300.244 50.92 298.707 53.1909C297.17 55.4618 295.913 57.9248 294.934 60.58C293.956 63.2352 293.223 65.6806 292.734 67.9166L323.757 64.982L323.757 62.6762L323.757 62.6762ZM238.757 148.62L186.352 151.135L185.932 106.906L161.826 106.906L160.359 152.813L113.404 152.813L117.387 5.4501L167.276 7.75591L164.132 83.0092L187.399 83.0092L187.609 4.19239L235.402 5.4501L238.757 148.62L238.757 148.62ZM107.744 5.4501L101.875 49.6798C99.8487 49.1207 97.8222 48.7364 95.796 48.5269C93.7697 48.3172 91.7434 48.2124 89.7171 48.2124C84.5464 48.2124 79.6204 48.8937 74.9389 50.2563C70.2574 51.6187 66.1174 53.6975 62.519 56.4923C58.9205 59.2873 56.0556 62.781 53.9245 66.9733C51.7934 71.1657 50.7279 76.0918 50.7279 81.7515C50.7279 85.3849 51.3043 88.5292 52.4573 91.1844C53.6102 93.8395 55.2347 96.0405 57.3309 97.7874C59.4271 99.5342 61.9076 100.827 64.7723 101.665C67.6372 102.504 70.7815 102.923 74.2052 102.923C76.7905 102.923 79.4806 102.644 82.2755 102.085C85.0705 101.526 87.8304 100.792 90.5555 99.8836C93.2806 98.9751 95.9357 97.927 98.5211 96.7392C101.106 95.5515 103.482 94.3287 105.648 93.0709L101.456 142.331C98.7307 143.728 95.7785 144.969 92.5993 146.053C89.42 147.135 86.1535 148.079 82.7996 148.882C79.4457 149.685 76.0918 150.297 72.7379 150.717C69.384 151.135 66.1698 151.345 63.0954 151.345C54.2215 151.345 45.9416 149.703 38.2555 146.419C30.5695 143.135 23.8966 138.628 18.2369 132.898C12.5772 127.169 8.12275 120.409 4.87364 112.618C1.62454 104.827 0 96.4248 0 87.4112C0 75.463 1.71189 64.1959 5.13567 53.6102C8.55944 43.0243 13.5903 33.7487 20.2283 25.7832C26.8662 17.8176 35.0937 11.5291 44.9109 6.91743C54.7281 2.30581 66.0301 0 78.8169 0C83.6381 0 88.5816 0.384302 93.6474 1.15291C98.7132 1.92151 103.412 3.35391 107.744 5.4501L107.744 5.4501L107.744 5.4501Z" id="path_2" fill="none" fill-rule="evenodd" stroke="#FFFEFD" stroke-width="40" />
            <path d="M594.061 99.1498C594.061 108.723 592.401 116.985 589.082 123.938C585.763 130.89 581.221 136.619 575.457 141.126C569.692 145.633 562.95 148.952 555.229 151.083C547.508 153.214 539.211 154.28 530.337 154.28C526.912 154.28 523.157 153.825 519.069 152.917C514.983 152.009 510.842 150.874 506.649 149.511C502.458 148.148 498.422 146.681 494.544 145.109C490.666 143.536 487.225 142.052 484.221 140.654L488.832 99.5691C494.771 103.133 501.357 105.84 508.588 107.692C515.821 109.544 522.93 110.469 529.917 110.469C531.245 110.469 532.852 110.417 534.739 110.312C536.625 110.207 538.425 109.893 540.136 109.369C541.848 108.845 543.298 108.059 544.486 107.011C545.674 105.962 546.268 104.46 546.268 102.504C546.268 101.176 545.848 100.041 545.01 99.0975C544.171 98.1542 543.089 97.3855 541.761 96.7917C540.433 96.1978 538.932 95.7436 537.254 95.4291C535.577 95.1147 533.935 94.8876 532.327 94.7479C530.721 94.6081 529.219 94.5383 527.821 94.5383C526.423 94.5383 525.306 94.5383 524.468 94.5383C518.459 94.5383 512.991 93.5949 508.065 91.7084C503.139 89.8219 498.911 87.1492 495.383 83.6905C491.854 80.2318 489.111 76.0394 487.155 71.1133C485.199 66.1872 484.221 60.7197 484.221 54.7106C484.221 46.4655 485.88 39.0766 489.198 32.5433C492.518 26.0102 496.954 20.4553 502.51 15.8786C508.065 11.302 514.44 7.79085 521.638 5.34529C528.835 2.89973 536.276 1.67696 543.961 1.67696C547.385 1.67696 550.914 1.79923 554.547 2.04379C558.181 2.28835 561.797 2.72505 565.396 3.35391C568.994 3.98277 572.505 4.78631 575.929 5.76452C579.352 6.74275 582.602 7.96553 585.676 9.43287L581.693 51.9856C576.942 50.3785 571.964 49.0335 566.759 47.9505C561.552 46.8674 556.47 46.3259 551.508 46.3259C550.6 46.3259 549.429 46.3433 547.997 46.3783C546.565 46.4132 545.062 46.518 543.49 46.6927C541.917 46.8674 540.328 47.1294 538.722 47.4788C537.114 47.8281 535.682 48.2997 534.424 48.8937C533.167 49.4876 532.153 50.2737 531.384 51.2519C530.616 52.2301 530.267 53.383 530.337 54.7106C530.406 56.2479 530.984 57.4357 532.066 58.2742C533.149 59.1126 534.547 59.724 536.258 60.1083C537.97 60.4927 539.857 60.6848 541.917 60.6848C543.979 60.6848 546.023 60.6323 548.049 60.5275C550.075 60.4228 551.962 60.318 553.709 60.2132C555.456 60.1083 556.888 60.0908 558.007 60.1607C563.596 60.5101 568.627 61.6979 573.099 63.7242C577.571 65.7505 581.362 68.4407 584.471 71.7946C587.58 75.1485 589.956 79.1488 591.598 83.7953C593.24 88.4418 594.061 93.56 594.061 99.1498L594.061 99.1498L594.061 99.1498ZM479.923 99.1498C479.923 108.723 478.264 116.985 474.944 123.938C471.626 130.89 467.085 136.619 461.32 141.126C455.555 145.633 448.812 148.952 441.092 151.083C433.37 153.214 425.073 154.28 416.199 154.28C412.776 154.28 409.019 153.825 404.931 152.917C400.845 152.009 396.704 150.874 392.512 149.511C388.32 148.148 384.284 146.681 380.406 145.109C376.528 143.536 373.087 142.052 370.083 140.654L374.694 99.5691C380.633 103.133 387.219 105.84 394.451 107.692C401.683 109.544 408.793 110.469 415.78 110.469C417.107 110.469 418.714 110.417 420.601 110.312C422.487 110.207 424.287 109.893 425.998 109.369C427.711 108.845 429.161 108.059 430.348 107.011C431.536 105.962 432.13 104.46 432.13 102.504C432.13 101.176 431.71 100.041 430.872 99.0975C430.034 98.1542 428.951 97.3855 427.624 96.7917C426.295 96.1978 424.794 95.7436 423.116 95.4291C421.439 95.1147 419.797 94.8876 418.191 94.7479C416.583 94.6081 415.081 94.5383 413.683 94.5383C412.286 94.5383 411.168 94.5383 410.33 94.5383C404.321 94.5383 398.853 93.5949 393.927 91.7084C389.001 89.8219 384.773 87.1492 381.245 83.6905C377.716 80.2318 374.973 76.0394 373.018 71.1133C371.061 66.1872 370.083 60.7197 370.083 54.7106C370.083 46.4655 371.742 39.0766 375.062 32.5433C378.38 26.0102 382.818 20.4553 388.372 15.8786C393.927 11.302 400.303 7.79085 407.5 5.34529C414.697 2.89973 422.138 1.67696 429.824 1.67696C433.249 1.67696 436.777 1.79923 440.41 2.04379C444.043 2.28835 447.66 2.72505 451.258 3.35391C454.857 3.98277 458.367 4.78631 461.791 5.76452C465.215 6.74275 468.464 7.96553 471.539 9.43287L467.556 51.9856C462.805 50.3785 457.826 49.0335 452.621 47.9505C447.414 46.8674 442.332 46.3259 437.371 46.3259C436.462 46.3259 435.291 46.3433 433.859 46.3783C432.427 46.4132 430.924 46.518 429.353 46.6927C427.781 46.8674 426.191 47.1294 424.584 47.4788C422.976 47.8281 421.544 48.2997 420.286 48.8937C419.029 49.4876 418.016 50.2737 417.248 51.2519C416.478 52.2301 416.129 53.383 416.199 54.7106C416.269 56.2479 416.846 57.4357 417.928 58.2742C419.011 59.1126 420.409 59.724 422.12 60.1083C423.833 60.4927 425.719 60.6848 427.781 60.6848C429.842 60.6848 431.886 60.6323 433.912 60.5275C435.938 60.4228 437.824 60.318 439.571 60.2132C441.318 60.1083 442.75 60.0908 443.869 60.1607C449.458 60.5101 454.489 61.6979 458.961 63.7242C463.433 65.7505 467.224 68.4407 470.333 71.7946C473.443 75.1485 475.818 79.1488 477.461 83.7953C479.103 88.4418 479.923 93.56 479.923 99.1498L479.923 99.1498L479.923 99.1498ZM365.68 68.1262C365.68 74.2053 365.262 80.2841 364.423 86.3631C352.475 87.1317 340.596 88.3719 328.788 90.0839C316.98 91.7957 305.17 93.4901 293.362 95.1671C295.178 100.198 298.026 104.216 301.904 107.22C305.782 110.225 310.411 111.727 315.791 111.727C318.586 111.727 321.644 111.203 324.962 110.155C328.281 109.107 331.583 107.797 334.867 106.224C338.15 104.652 341.295 102.958 344.3 101.141C347.304 99.3246 349.889 97.6826 352.056 96.2152L347.025 143.799C344.3 145.895 341.347 147.677 338.168 149.144C334.989 150.612 331.688 151.799 328.263 152.708C324.84 153.616 321.381 154.28 317.887 154.7C314.394 155.118 310.97 155.328 307.616 155.328C300.699 155.328 294.375 154.385 288.646 152.498C282.916 150.612 277.729 147.974 273.081 144.585C268.435 141.196 264.364 137.196 260.871 132.585C257.377 127.972 254.477 122.942 252.172 117.492C249.866 112.041 248.119 106.277 246.931 100.198C245.743 94.119 245.149 87.9702 245.149 81.7515C245.149 75.2533 245.743 68.7552 246.931 62.2569C248.119 55.7587 249.918 49.5051 252.33 43.496C254.74 37.487 257.779 31.9145 261.447 26.7789C265.115 21.6432 269.395 17.1539 274.287 13.3108C279.177 9.46781 284.715 6.46327 290.899 4.29721C297.083 2.13114 303.914 1.04811 311.389 1.04811C317.608 1.04811 323.286 1.90405 328.421 3.61594C333.557 5.32783 338.134 7.70352 342.151 10.743C346.169 13.7825 349.663 17.3984 352.632 21.5908C355.601 25.7832 358.047 30.3773 359.968 35.3733C361.891 40.3691 363.323 45.6446 364.266 51.1995C365.209 56.7544 365.68 62.3966 365.68 68.1262L365.68 68.1262L365.68 68.1262ZM323.757 62.6762C323.757 60.7197 323.547 58.7108 323.128 56.6496C322.708 54.5884 322.028 52.7192 321.084 51.0422C320.141 49.3653 318.901 47.9854 317.364 46.9024C315.827 45.8193 313.904 45.2778 311.599 45.2778C308.804 45.2778 306.341 46.0288 304.21 47.5312C302.078 49.0335 300.244 50.92 298.707 53.1909C297.17 55.4618 295.913 57.9248 294.934 60.58C293.956 63.2352 293.223 65.6806 292.734 67.9166L323.757 64.982L323.757 62.6762L323.757 62.6762ZM238.757 148.62L186.352 151.135L185.932 106.906L161.826 106.906L160.359 152.813L113.404 152.813L117.387 5.4501L167.276 7.75591L164.132 83.0092L187.399 83.0092L187.609 4.19239L235.402 5.4501L238.757 148.62L238.757 148.62ZM107.744 5.4501L101.875 49.6798C99.8487 49.1207 97.8222 48.7364 95.796 48.5269C93.7697 48.3172 91.7434 48.2124 89.7171 48.2124C84.5464 48.2124 79.6204 48.8937 74.9389 50.2563C70.2574 51.6187 66.1174 53.6975 62.519 56.4923C58.9205 59.2873 56.0556 62.781 53.9245 66.9733C51.7934 71.1657 50.7279 76.0918 50.7279 81.7515C50.7279 85.3849 51.3043 88.5292 52.4573 91.1844C53.6102 93.8395 55.2347 96.0405 57.3309 97.7874C59.4271 99.5342 61.9076 100.827 64.7723 101.665C67.6372 102.504 70.7815 102.923 74.2052 102.923C76.7905 102.923 79.4806 102.644 82.2755 102.085C85.0705 101.526 87.8304 100.792 90.5555 99.8836C93.2806 98.9751 95.9357 97.927 98.5211 96.7392C101.106 95.5515 103.482 94.3287 105.648 93.0709L101.456 142.331C98.7307 143.728 95.7785 144.969 92.5993 146.053C89.42 147.135 86.1535 148.079 82.7996 148.882C79.4457 149.685 76.0918 150.297 72.7379 150.717C69.384 151.135 66.1698 151.345 63.0954 151.345C54.2215 151.345 45.9416 149.703 38.2555 146.419C30.5695 143.135 23.8966 138.628 18.2369 132.898C12.5772 127.169 8.12275 120.409 4.87364 112.618C1.62454 104.827 0 96.4248 0 87.4112C0 75.463 1.71189 64.1959 5.13567 53.6102C8.55944 43.0243 13.5903 33.7487 20.2283 25.7832C26.8662 17.8176 35.0937 11.5291 44.9109 6.91743C54.7281 2.30581 66.0301 0 78.8169 0C83.6381 0 88.5816 0.384302 93.6474 1.15291C98.7132 1.92151 103.412 3.35391 107.744 5.4501L107.744 5.4501L107.744 5.4501Z" id="path_2" fill="none" fill-rule="evenodd" stroke="#32291D" stroke-width="30" />
            <path d="M594.061 99.1498C594.061 108.723 592.401 116.985 589.082 123.938C585.763 130.89 581.221 136.619 575.457 141.126C569.692 145.633 562.95 148.952 555.229 151.083C547.508 153.214 539.211 154.28 530.337 154.28C526.912 154.28 523.157 153.825 519.069 152.917C514.983 152.009 510.842 150.874 506.649 149.511C502.458 148.148 498.422 146.681 494.544 145.109C490.666 143.536 487.225 142.052 484.221 140.654L488.832 99.5691C494.771 103.133 501.357 105.84 508.588 107.692C515.821 109.544 522.93 110.469 529.917 110.469C531.245 110.469 532.852 110.417 534.739 110.312C536.625 110.207 538.425 109.893 540.136 109.369C541.848 108.845 543.298 108.059 544.486 107.011C545.674 105.962 546.268 104.46 546.268 102.504C546.268 101.176 545.848 100.041 545.01 99.0975C544.171 98.1542 543.089 97.3855 541.761 96.7917C540.433 96.1978 538.932 95.7436 537.254 95.4291C535.577 95.1147 533.935 94.8876 532.327 94.7479C530.721 94.6081 529.219 94.5383 527.821 94.5383C526.423 94.5383 525.306 94.5383 524.468 94.5383C518.459 94.5383 512.991 93.5949 508.065 91.7084C503.139 89.8219 498.911 87.1492 495.383 83.6905C491.854 80.2318 489.111 76.0394 487.155 71.1133C485.199 66.1872 484.221 60.7197 484.221 54.7106C484.221 46.4655 485.88 39.0766 489.198 32.5433C492.518 26.0102 496.954 20.4553 502.51 15.8786C508.065 11.302 514.44 7.79085 521.638 5.34529C528.835 2.89973 536.276 1.67696 543.961 1.67696C547.385 1.67696 550.914 1.79923 554.547 2.04379C558.181 2.28835 561.797 2.72505 565.396 3.35391C568.994 3.98277 572.505 4.78631 575.929 5.76452C579.352 6.74275 582.602 7.96553 585.676 9.43287L581.693 51.9856C576.942 50.3785 571.964 49.0335 566.759 47.9505C561.552 46.8674 556.47 46.3259 551.508 46.3259C550.6 46.3259 549.429 46.3433 547.997 46.3783C546.565 46.4132 545.062 46.518 543.49 46.6927C541.917 46.8674 540.328 47.1294 538.722 47.4788C537.114 47.8281 535.682 48.2997 534.424 48.8937C533.167 49.4876 532.153 50.2737 531.384 51.2519C530.616 52.2301 530.267 53.383 530.337 54.7106C530.406 56.2479 530.984 57.4357 532.066 58.2742C533.149 59.1126 534.547 59.724 536.258 60.1083C537.97 60.4927 539.857 60.6848 541.917 60.6848C543.979 60.6848 546.023 60.6323 548.049 60.5275C550.075 60.4228 551.962 60.318 553.709 60.2132C555.456 60.1083 556.888 60.0908 558.007 60.1607C563.596 60.5101 568.627 61.6979 573.099 63.7242C577.571 65.7505 581.362 68.4407 584.471 71.7946C587.58 75.1485 589.956 79.1488 591.598 83.7953C593.24 88.4418 594.061 93.56 594.061 99.1498L594.061 99.1498L594.061 99.1498ZM479.923 99.1498C479.923 108.723 478.264 116.985 474.944 123.938C471.626 130.89 467.085 136.619 461.32 141.126C455.555 145.633 448.812 148.952 441.092 151.083C433.37 153.214 425.073 154.28 416.199 154.28C412.776 154.28 409.019 153.825 404.931 152.917C400.845 152.009 396.704 150.874 392.512 149.511C388.32 148.148 384.284 146.681 380.406 145.109C376.528 143.536 373.087 142.052 370.083 140.654L374.694 99.5691C380.633 103.133 387.219 105.84 394.451 107.692C401.683 109.544 408.793 110.469 415.78 110.469C417.107 110.469 418.714 110.417 420.601 110.312C422.487 110.207 424.287 109.893 425.998 109.369C427.711 108.845 429.161 108.059 430.348 107.011C431.536 105.962 432.13 104.46 432.13 102.504C432.13 101.176 431.71 100.041 430.872 99.0975C430.034 98.1542 428.951 97.3855 427.624 96.7917C426.295 96.1978 424.794 95.7436 423.116 95.4291C421.439 95.1147 419.797 94.8876 418.191 94.7479C416.583 94.6081 415.081 94.5383 413.683 94.5383C412.286 94.5383 411.168 94.5383 410.33 94.5383C404.321 94.5383 398.853 93.5949 393.927 91.7084C389.001 89.8219 384.773 87.1492 381.245 83.6905C377.716 80.2318 374.973 76.0394 373.018 71.1133C371.061 66.1872 370.083 60.7197 370.083 54.7106C370.083 46.4655 371.742 39.0766 375.062 32.5433C378.38 26.0102 382.818 20.4553 388.372 15.8786C393.927 11.302 400.303 7.79085 407.5 5.34529C414.697 2.89973 422.138 1.67696 429.824 1.67696C433.249 1.67696 436.777 1.79923 440.41 2.04379C444.043 2.28835 447.66 2.72505 451.258 3.35391C454.857 3.98277 458.367 4.78631 461.791 5.76452C465.215 6.74275 468.464 7.96553 471.539 9.43287L467.556 51.9856C462.805 50.3785 457.826 49.0335 452.621 47.9505C447.414 46.8674 442.332 46.3259 437.371 46.3259C436.462 46.3259 435.291 46.3433 433.859 46.3783C432.427 46.4132 430.924 46.518 429.353 46.6927C427.781 46.8674 426.191 47.1294 424.584 47.4788C422.976 47.8281 421.544 48.2997 420.286 48.8937C419.029 49.4876 418.016 50.2737 417.248 51.2519C416.478 52.2301 416.129 53.383 416.199 54.7106C416.269 56.2479 416.846 57.4357 417.928 58.2742C419.011 59.1126 420.409 59.724 422.12 60.1083C423.833 60.4927 425.719 60.6848 427.781 60.6848C429.842 60.6848 431.886 60.6323 433.912 60.5275C435.938 60.4228 437.824 60.318 439.571 60.2132C441.318 60.1083 442.75 60.0908 443.869 60.1607C449.458 60.5101 454.489 61.6979 458.961 63.7242C463.433 65.7505 467.224 68.4407 470.333 71.7946C473.443 75.1485 475.818 79.1488 477.461 83.7953C479.103 88.4418 479.923 93.56 479.923 99.1498L479.923 99.1498L479.923 99.1498ZM365.68 68.1262C365.68 74.2053 365.262 80.2841 364.423 86.3631C352.475 87.1317 340.596 88.3719 328.788 90.0839C316.98 91.7957 305.17 93.4901 293.362 95.1671C295.178 100.198 298.026 104.216 301.904 107.22C305.782 110.225 310.411 111.727 315.791 111.727C318.586 111.727 321.644 111.203 324.962 110.155C328.281 109.107 331.583 107.797 334.867 106.224C338.15 104.652 341.295 102.958 344.3 101.141C347.304 99.3246 349.889 97.6826 352.056 96.2152L347.025 143.799C344.3 145.895 341.347 147.677 338.168 149.144C334.989 150.612 331.688 151.799 328.263 152.708C324.84 153.616 321.381 154.28 317.887 154.7C314.394 155.118 310.97 155.328 307.616 155.328C300.699 155.328 294.375 154.385 288.646 152.498C282.916 150.612 277.729 147.974 273.081 144.585C268.435 141.196 264.364 137.196 260.871 132.585C257.377 127.972 254.477 122.942 252.172 117.492C249.866 112.041 248.119 106.277 246.931 100.198C245.743 94.119 245.149 87.9702 245.149 81.7515C245.149 75.2533 245.743 68.7552 246.931 62.2569C248.119 55.7587 249.918 49.5051 252.33 43.496C254.74 37.487 257.779 31.9145 261.447 26.7789C265.115 21.6432 269.395 17.1539 274.287 13.3108C279.177 9.46781 284.715 6.46327 290.899 4.29721C297.083 2.13114 303.914 1.04811 311.389 1.04811C317.608 1.04811 323.286 1.90405 328.421 3.61594C333.557 5.32783 338.134 7.70352 342.151 10.743C346.169 13.7825 349.663 17.3984 352.632 21.5908C355.601 25.7832 358.047 30.3773 359.968 35.3733C361.891 40.3691 363.323 45.6446 364.266 51.1995C365.209 56.7544 365.68 62.3966 365.68 68.1262L365.68 68.1262L365.68 68.1262ZM323.757 62.6762C323.757 60.7197 323.547 58.7108 323.128 56.6496C322.708 54.5884 322.028 52.7192 321.084 51.0422C320.141 49.3653 318.901 47.9854 317.364 46.9024C315.827 45.8193 313.904 45.2778 311.599 45.2778C308.804 45.2778 306.341 46.0288 304.21 47.5312C302.078 49.0335 300.244 50.92 298.707 53.1909C297.17 55.4618 295.913 57.9248 294.934 60.58C293.956 63.2352 293.223 65.6806 292.734 67.9166L323.757 64.982L323.757 62.6762L323.757 62.6762ZM238.757 148.62L186.352 151.135L185.932 106.906L161.826 106.906L160.359 152.813L113.404 152.813L117.387 5.4501L167.276 7.75591L164.132 83.0092L187.399 83.0092L187.609 4.19239L235.402 5.4501L238.757 148.62L238.757 148.62ZM107.744 5.4501L101.875 49.6798C99.8487 49.1207 97.8222 48.7364 95.796 48.5269C93.7697 48.3172 91.7434 48.2124 89.7171 48.2124C84.5464 48.2124 79.6204 48.8937 74.9389 50.2563C70.2574 51.6187 66.1174 53.6975 62.519 56.4923C58.9205 59.2873 56.0556 62.781 53.9245 66.9733C51.7934 71.1657 50.7279 76.0918 50.7279 81.7515C50.7279 85.3849 51.3043 88.5292 52.4573 91.1844C53.6102 93.8395 55.2347 96.0405 57.3309 97.7874C59.4271 99.5342 61.9076 100.827 64.7723 101.665C67.6372 102.504 70.7815 102.923 74.2052 102.923C76.7905 102.923 79.4806 102.644 82.2755 102.085C85.0705 101.526 87.8304 100.792 90.5555 99.8836C93.2806 98.9751 95.9357 97.927 98.5211 96.7392C101.106 95.5515 103.482 94.3287 105.648 93.0709L101.456 142.331C98.7307 143.728 95.7785 144.969 92.5993 146.053C89.42 147.135 86.1535 148.079 82.7996 148.882C79.4457 149.685 76.0918 150.297 72.7379 150.717C69.384 151.135 66.1698 151.345 63.0954 151.345C54.2215 151.345 45.9416 149.703 38.2555 146.419C30.5695 143.135 23.8966 138.628 18.2369 132.898C12.5772 127.169 8.12275 120.409 4.87364 112.618C1.62454 104.827 0 96.4248 0 87.4112C0 75.463 1.71189 64.1959 5.13567 53.6102C8.55944 43.0243 13.5903 33.7487 20.2283 25.7832C26.8662 17.8176 35.0937 11.5291 44.9109 6.91743C54.7281 2.30581 66.0301 0 78.8169 0C83.6381 0 88.5816 0.384302 93.6474 1.15291C98.7132 1.92151 103.412 3.35391 107.744 5.4501L107.744 5.4501L107.744 5.4501Z" id="path_2" fill="#7DAA4A" fill-rule="evenodd" stroke="none" />
          </g>
          <g id="Mask-group">
            <path d="M594.061 99.1498C594.061 108.723 592.401 116.985 589.082 123.938C585.763 130.89 581.221 136.619 575.457 141.126C569.692 145.633 562.95 148.952 555.229 151.083C547.508 153.214 539.211 154.28 530.337 154.28C526.912 154.28 523.157 153.825 519.069 152.917C514.983 152.009 510.842 150.874 506.649 149.511C502.458 148.148 498.422 146.681 494.544 145.109C490.666 143.536 487.225 142.052 484.221 140.654L488.832 99.5691C494.771 103.133 501.357 105.84 508.588 107.692C515.821 109.544 522.93 110.469 529.917 110.469C531.245 110.469 532.852 110.417 534.739 110.312C536.625 110.207 538.425 109.893 540.136 109.369C541.848 108.845 543.298 108.059 544.486 107.011C545.674 105.962 546.268 104.46 546.268 102.504C546.268 101.176 545.848 100.041 545.01 99.0975C544.171 98.1542 543.089 97.3855 541.761 96.7917C540.433 96.1978 538.932 95.7436 537.254 95.4291C535.577 95.1147 533.935 94.8876 532.327 94.7479C530.721 94.6081 529.219 94.5383 527.821 94.5383C526.423 94.5383 525.306 94.5383 524.468 94.5383C518.459 94.5383 512.991 93.5949 508.065 91.7084C503.139 89.8219 498.911 87.1492 495.383 83.6905C491.854 80.2318 489.111 76.0394 487.155 71.1133C485.199 66.1872 484.221 60.7197 484.221 54.7106C484.221 46.4655 485.88 39.0766 489.198 32.5433C492.518 26.0102 496.954 20.4553 502.51 15.8786C508.065 11.302 514.44 7.79085 521.638 5.34529C528.835 2.89973 536.276 1.67696 543.961 1.67696C547.385 1.67696 550.914 1.79923 554.547 2.04379C558.181 2.28835 561.797 2.72505 565.396 3.35391C568.994 3.98277 572.505 4.78631 575.929 5.76452C579.352 6.74275 582.602 7.96553 585.676 9.43287L581.693 51.9856C576.942 50.3785 571.964 49.0335 566.759 47.9505C561.552 46.8674 556.47 46.3259 551.508 46.3259C550.6 46.3259 549.429 46.3433 547.997 46.3783C546.565 46.4132 545.062 46.518 543.49 46.6927C541.917 46.8674 540.328 47.1294 538.722 47.4788C537.114 47.8281 535.682 48.2997 534.424 48.8937C533.167 49.4876 532.153 50.2737 531.384 51.2519C530.616 52.2301 530.267 53.383 530.337 54.7106C530.406 56.2479 530.984 57.4357 532.066 58.2742C533.149 59.1126 534.547 59.724 536.258 60.1083C537.97 60.4927 539.857 60.6848 541.917 60.6848C543.979 60.6848 546.023 60.6323 548.049 60.5275C550.075 60.4228 551.962 60.318 553.709 60.2132C555.456 60.1083 556.888 60.0908 558.007 60.1607C563.596 60.5101 568.627 61.6979 573.099 63.7242C577.571 65.7505 581.362 68.4407 584.471 71.7946C587.58 75.1485 589.956 79.1488 591.598 83.7953C593.24 88.4418 594.061 93.56 594.061 99.1498L594.061 99.1498L594.061 99.1498ZM479.923 99.1498C479.923 108.723 478.264 116.985 474.944 123.938C471.626 130.89 467.085 136.619 461.32 141.126C455.555 145.633 448.812 148.952 441.092 151.083C433.37 153.214 425.073 154.28 416.199 154.28C412.776 154.28 409.019 153.825 404.931 152.917C400.845 152.009 396.704 150.874 392.512 149.511C388.32 148.148 384.284 146.681 380.406 145.109C376.528 143.536 373.087 142.052 370.083 140.654L374.694 99.5691C380.633 103.133 387.219 105.84 394.451 107.692C401.683 109.544 408.793 110.469 415.78 110.469C417.107 110.469 418.714 110.417 420.601 110.312C422.487 110.207 424.287 109.893 425.998 109.369C427.711 108.845 429.161 108.059 430.348 107.011C431.536 105.962 432.13 104.46 432.13 102.504C432.13 101.176 431.71 100.041 430.872 99.0975C430.034 98.1542 428.951 97.3855 427.624 96.7917C426.295 96.1978 424.794 95.7436 423.116 95.4291C421.439 95.1147 419.797 94.8876 418.191 94.7479C416.583 94.6081 415.081 94.5383 413.683 94.5383C412.286 94.5383 411.168 94.5383 410.33 94.5383C404.321 94.5383 398.853 93.5949 393.927 91.7084C389.001 89.8219 384.773 87.1492 381.245 83.6905C377.716 80.2318 374.973 76.0394 373.018 71.1133C371.061 66.1872 370.083 60.7197 370.083 54.7106C370.083 46.4655 371.742 39.0766 375.062 32.5433C378.38 26.0102 382.818 20.4553 388.372 15.8786C393.927 11.302 400.303 7.79085 407.5 5.34529C414.697 2.89973 422.138 1.67696 429.824 1.67696C433.249 1.67696 436.777 1.79923 440.41 2.04379C444.043 2.28835 447.66 2.72505 451.258 3.35391C454.857 3.98277 458.367 4.78631 461.791 5.76452C465.215 6.74275 468.464 7.96553 471.539 9.43287L467.556 51.9856C462.805 50.3785 457.826 49.0335 452.621 47.9505C447.414 46.8674 442.332 46.3259 437.371 46.3259C436.462 46.3259 435.291 46.3433 433.859 46.3783C432.427 46.4132 430.924 46.518 429.353 46.6927C427.781 46.8674 426.191 47.1294 424.584 47.4788C422.976 47.8281 421.544 48.2997 420.286 48.8937C419.029 49.4876 418.016 50.2737 417.248 51.2519C416.478 52.2301 416.129 53.383 416.199 54.7106C416.269 56.2479 416.846 57.4357 417.928 58.2742C419.011 59.1126 420.409 59.724 422.12 60.1083C423.833 60.4927 425.719 60.6848 427.781 60.6848C429.842 60.6848 431.886 60.6323 433.912 60.5275C435.938 60.4228 437.824 60.318 439.571 60.2132C441.318 60.1083 442.75 60.0908 443.869 60.1607C449.458 60.5101 454.489 61.6979 458.961 63.7242C463.433 65.7505 467.224 68.4407 470.333 71.7946C473.443 75.1485 475.818 79.1488 477.461 83.7953C479.103 88.4418 479.923 93.56 479.923 99.1498L479.923 99.1498L479.923 99.1498ZM365.68 68.1262C365.68 74.2053 365.262 80.2841 364.423 86.3631C352.475 87.1317 340.596 88.3719 328.788 90.0839C316.98 91.7957 305.17 93.4901 293.362 95.1671C295.178 100.198 298.026 104.216 301.904 107.22C305.782 110.225 310.411 111.727 315.791 111.727C318.586 111.727 321.644 111.203 324.962 110.155C328.281 109.107 331.583 107.797 334.867 106.224C338.15 104.652 341.295 102.958 344.3 101.141C347.304 99.3246 349.889 97.6826 352.056 96.2152L347.025 143.799C344.3 145.895 341.347 147.677 338.168 149.144C334.989 150.612 331.688 151.799 328.263 152.708C324.84 153.616 321.381 154.28 317.887 154.7C314.394 155.118 310.97 155.328 307.616 155.328C300.699 155.328 294.375 154.385 288.646 152.498C282.916 150.612 277.729 147.974 273.081 144.585C268.435 141.196 264.364 137.196 260.871 132.585C257.377 127.972 254.477 122.942 252.172 117.492C249.866 112.041 248.119 106.277 246.931 100.198C245.743 94.119 245.149 87.9702 245.149 81.7515C245.149 75.2533 245.743 68.7552 246.931 62.2569C248.119 55.7587 249.918 49.5051 252.33 43.496C254.74 37.487 257.779 31.9145 261.447 26.7789C265.115 21.6432 269.395 17.1539 274.287 13.3108C279.177 9.46781 284.715 6.46327 290.899 4.29721C297.083 2.13114 303.914 1.04811 311.389 1.04811C317.608 1.04811 323.286 1.90405 328.421 3.61594C333.557 5.32783 338.134 7.70352 342.151 10.743C346.169 13.7825 349.663 17.3984 352.632 21.5908C355.601 25.7832 358.047 30.3773 359.968 35.3733C361.891 40.3691 363.323 45.6446 364.266 51.1995C365.209 56.7544 365.68 62.3966 365.68 68.1262L365.68 68.1262L365.68 68.1262ZM323.757 62.6762C323.757 60.7197 323.547 58.7108 323.128 56.6496C322.708 54.5884 322.028 52.7192 321.084 51.0422C320.141 49.3653 318.901 47.9854 317.364 46.9024C315.827 45.8193 313.904 45.2778 311.599 45.2778C308.804 45.2778 306.341 46.0288 304.21 47.5312C302.078 49.0335 300.244 50.92 298.707 53.1909C297.17 55.4618 295.913 57.9248 294.934 60.58C293.956 63.2352 293.223 65.6806 292.734 67.9166L323.757 64.982L323.757 62.6762L323.757 62.6762ZM238.757 148.62L186.352 151.135L185.932 106.906L161.826 106.906L160.359 152.813L113.404 152.813L117.387 5.4501L167.276 7.75591L164.132 83.0092L187.399 83.0092L187.609 4.19239L235.402 5.4501L238.757 148.62L238.757 148.62ZM107.744 5.4501L101.875 49.6798C99.8487 49.1207 97.8222 48.7364 95.796 48.5269C93.7697 48.3172 91.7434 48.2124 89.7171 48.2124C84.5464 48.2124 79.6204 48.8937 74.9389 50.2563C70.2574 51.6187 66.1174 53.6975 62.519 56.4923C58.9205 59.2873 56.0556 62.781 53.9245 66.9733C51.7934 71.1657 50.7279 76.0918 50.7279 81.7515C50.7279 85.3849 51.3043 88.5292 52.4573 91.1844C53.6102 93.8395 55.2347 96.0405 57.3309 97.7874C59.4271 99.5342 61.9076 100.827 64.7723 101.665C67.6372 102.504 70.7815 102.923 74.2052 102.923C76.7905 102.923 79.4806 102.644 82.2755 102.085C85.0705 101.526 87.8304 100.792 90.5555 99.8836C93.2806 98.9751 95.9357 97.927 98.5211 96.7392C101.106 95.5515 103.482 94.3287 105.648 93.0709L101.456 142.331C98.7307 143.728 95.7785 144.969 92.5993 146.053C89.42 147.135 86.1535 148.079 82.7996 148.882C79.4457 149.685 76.0918 150.297 72.7379 150.717C69.384 151.135 66.1698 151.345 63.0954 151.345C54.2215 151.345 45.9416 149.703 38.2555 146.419C30.5695 143.135 23.8966 138.628 18.2369 132.898C12.5772 127.169 8.12275 120.409 4.87364 112.618C1.62454 104.827 0 96.4248 0 87.4112C0 75.463 1.71189 64.1959 5.13567 53.6102C8.55944 43.0243 13.5903 33.7487 20.2283 25.7832C26.8662 17.8176 35.0937 11.5291 44.9109 6.91743C54.7281 2.30581 66.0301 0 78.8169 0C83.6381 0 88.5816 0.384302 93.6474 1.15291C98.7132 1.92151 103.412 3.35391 107.744 5.4501L107.744 5.4501L107.744 5.4501Z" id="path_2" fill="none" fill-rule="evenodd" stroke="none" />
            <g clip-path="url(#mask_2)">
              <g id="Group" transform="translate(-71.15521 -168.93231)">
                <path d="M0 197.285L90.4477 493.126L151.998 474.308L61.5507 178.467L0 197.285L0 197.285L0 197.285ZM97.2902 167.54L187.738 463.381L249.288 444.563L158.841 148.722L97.2902 167.54L97.2902 167.54L97.2902 167.54ZM291.87 108.051L382.318 403.892L443.868 385.074L353.421 89.2333L291.87 108.051L291.87 108.051L291.87 108.051ZM389.159 78.3069L479.607 374.148L541.159 355.33L450.711 59.4887L389.159 78.3069L389.159 78.3069L389.159 78.3069ZM583.739 18.8179L674.187 314.659L735.737 295.841L645.29 0L583.739 18.8179L583.739 18.8179L583.739 18.8179ZM194.783 138.457L285.231 434.298L346.781 415.48L256.334 119.639L194.783 138.457L194.783 138.457L194.783 138.457ZM486.652 49.2241L577.1 345.065L638.65 326.247L548.203 30.4062L486.652 49.2241L486.652 49.2241L486.652 49.2241Z" id="overlay" fill="#253D0A" fill-opacity="0.047058824" fill-rule="evenodd" stroke="none" />
              </g>
            </g>
          </g>
        </g>
        <g id="scape" transform="translate(795.37463 53.90104)">
          <g id="text#1">
            <path d="M606.01 67.0782C606.01 73.1572 605.59 79.236 604.752 85.3151C592.803 86.0836 580.924 87.3238 569.116 89.0358C557.308 90.7476 545.499 92.442 533.691 94.119C535.508 99.1499 538.354 103.168 542.233 106.172C546.11 109.177 550.74 110.679 556.12 110.679C558.914 110.679 561.972 110.155 565.291 109.107C568.609 108.059 571.911 106.749 575.196 105.176C578.48 103.604 581.623 101.91 584.628 100.093C587.632 98.2765 590.218 96.6345 592.384 95.1671L587.353 142.751C584.628 144.847 581.676 146.629 578.497 148.095C575.317 149.563 572.016 150.751 568.593 151.66C565.169 152.567 561.71 153.232 558.216 153.651C554.723 154.07 551.299 154.28 547.945 154.28C541.027 154.28 534.704 153.336 528.974 151.45C523.244 149.563 518.057 146.926 513.41 143.536C508.764 140.147 504.694 136.148 501.2 131.536C497.706 126.925 494.807 121.894 492.5 116.444C490.194 110.993 488.448 105.229 487.261 99.1499C486.072 93.071 485.478 86.9221 485.478 80.7034C485.478 74.2053 486.072 67.7071 487.261 61.2088C488.448 54.7106 490.247 48.457 492.658 42.4479C495.068 36.4388 498.108 30.8664 501.776 25.7307C505.445 20.5951 509.724 16.1058 514.615 12.2627C519.507 8.41971 525.044 5.41517 531.228 3.2491C537.411 1.08303 544.242 0 551.718 0C557.937 0 563.614 0.855945 568.749 2.56784C573.885 4.27973 578.462 6.6554 582.479 9.69489C586.497 12.7344 589.991 16.3503 592.96 20.5427C595.93 24.7351 598.375 29.3292 600.298 34.3252C602.219 39.321 603.651 44.5965 604.594 50.1514C605.538 55.7063 606.01 61.3485 606.01 67.0782L606.01 67.0782L606.01 67.0782ZM564.085 61.6281C564.085 59.6717 563.876 57.6628 563.457 55.6015C563.037 53.5403 562.356 51.6712 561.413 49.9941C560.469 48.3172 559.229 46.9373 557.692 45.8542C556.155 44.7712 554.234 44.2297 551.927 44.2296C549.132 44.2296 546.67 44.9808 544.539 46.4831C542.408 47.9854 540.574 49.8719 539.035 52.1428C537.498 54.4137 536.241 56.8767 535.262 59.5319C534.284 62.187 533.551 64.6326 533.062 66.8685L564.085 63.9339L564.085 61.6281L564.085 61.6281ZM483.068 55.1299C483.068 61.9076 482.054 67.9166 480.028 73.1572C478.002 78.3976 475.225 82.9917 471.696 86.9396C468.167 90.8874 464.027 94.2063 459.276 96.8965C454.524 99.5867 449.442 101.788 444.026 103.5C438.611 105.211 433.003 106.469 427.204 107.273C421.405 108.076 415.711 108.513 410.12 108.583L410.12 153.232L361.279 153.232C361.279 145.266 361.297 137.511 361.331 129.963C361.366 122.417 361.402 114.924 361.436 107.482C361.471 100.041 361.505 92.5469 361.541 85.0006C361.576 77.4543 361.628 69.6635 361.699 61.6281C361.838 53.1036 361.873 44.579 361.802 36.0545C361.733 27.5301 361.907 18.9356 362.327 10.2714C371.271 7.6162 380.215 5.62482 389.158 4.29722C398.102 2.96963 407.325 2.30584 416.828 2.30584C422.208 2.30584 427.588 2.74254 432.968 3.61596C438.349 4.48937 443.502 5.86936 448.428 7.75594C453.354 9.64251 457.931 12.0007 462.158 14.8305C466.386 17.6605 470.036 21.0318 473.11 24.9447C476.185 28.8576 478.614 33.3294 480.395 38.3604C482.177 43.3912 483.068 48.981 483.068 55.1299L483.068 55.1299L483.068 55.1299ZM436.532 58.6934C436.532 54.1517 435.152 50.6056 432.392 48.0553C429.632 45.5049 426.051 44.2297 421.649 44.2296C420.182 44.2296 418.662 44.352 417.09 44.5965C415.517 44.841 414.033 45.1381 412.635 45.4873L411.378 76.0918C412.356 76.2315 413.299 76.3014 414.208 76.3014C415.115 76.3014 416.059 76.3014 417.038 76.3014C419.553 76.3014 421.981 75.8821 424.322 75.0437C426.662 74.2053 428.741 72.9999 430.558 71.4278C432.375 69.8556 433.825 68.004 434.907 65.8729C435.99 63.7417 436.532 61.3485 436.532 58.6934L436.532 58.6934L436.532 58.6934ZM358.764 142.751L306.778 149.458L300.489 125.772L276.592 125.772L271.352 149.458L217.9 144.219L259.613 4.61165L317.887 1.67699L358.764 142.751L358.764 142.751ZM296.716 93.6998L288.751 57.2261L280.995 93.6998L296.716 93.6998L296.716 93.6998ZM216.537 8.59441L212.764 52.8241C210.738 52.265 208.746 51.8808 206.789 51.6712C204.833 51.4615 202.842 51.3567 200.815 51.3567C195.854 51.3567 191.121 51.9856 186.613 53.2434C182.107 54.501 178.124 56.4226 174.666 59.0078C171.206 61.5931 168.447 64.8597 166.385 68.8075C164.324 72.7554 163.294 77.4194 163.294 82.7996C163.294 86.7125 163.87 90.1188 165.023 93.0185C166.176 95.9183 167.818 98.3289 169.949 100.25C172.08 102.172 174.666 103.622 177.705 104.6C180.744 105.578 184.116 106.067 187.819 106.067C190.404 106.067 193.06 105.805 195.785 105.281C198.51 104.757 201.234 104.041 203.959 103.133C206.684 102.224 209.305 101.176 211.82 99.9884C214.335 98.8006 216.676 97.5428 218.843 96.2153L217.165 145.476C214.44 146.873 211.506 148.113 208.362 149.196C205.217 150.28 201.986 151.223 198.667 152.026C195.347 152.83 192.028 153.441 188.71 153.86C185.391 154.28 182.23 154.49 179.224 154.49C169.303 154.49 160.271 152.638 152.131 148.935C143.991 145.231 137.004 140.183 131.169 133.789C125.335 127.396 120.811 119.972 117.596 111.517C114.382 103.063 112.775 94.0492 112.775 84.4766C112.775 73.0174 114.4 62.3268 117.649 52.4048C120.898 42.4828 125.685 33.871 132.007 26.5693C138.331 19.2675 146.156 13.538 155.485 9.38048C164.813 5.22304 175.522 3.1443 187.609 3.1443C192.43 3.1443 197.322 3.52861 202.283 4.29722C207.243 5.06582 211.994 6.49822 216.537 8.59441L216.537 8.59441L216.537 8.59441ZM109.84 98.1018C109.84 107.674 108.181 115.937 104.862 122.89C101.543 129.842 97.0013 135.572 91.2368 140.078C85.4723 144.585 78.7295 147.903 71.0085 150.034C63.2876 152.167 54.9901 153.232 46.1162 153.232C42.6925 153.232 38.9369 152.777 34.8491 151.87C30.7616 150.961 26.6216 149.826 22.4293 148.463C18.2369 147.1 14.2017 145.633 10.3237 144.061C6.44579 142.488 3.00454 141.004 0 139.606L4.61162 98.5211C10.5508 102.085 17.1364 104.792 24.3682 106.644C31.6001 108.495 38.7096 109.421 45.697 109.421C47.0246 109.421 48.6316 109.369 50.5182 109.264C52.4048 109.159 54.2041 108.845 55.916 108.321C57.6278 107.797 59.0777 107.011 60.2655 105.963C61.4534 104.914 62.0474 103.412 62.0474 101.456C62.0474 100.128 61.6281 98.9927 60.7897 98.0494C59.951 97.1062 58.868 96.3375 57.5406 95.7436C56.2129 95.1496 54.7106 94.6955 53.0337 94.381C51.3567 94.0666 49.7148 93.8395 48.1076 93.6998C46.5005 93.56 44.9983 93.4901 43.6008 93.4901C42.2033 93.4901 41.0854 93.4901 40.2469 93.4901C34.2377 93.4901 28.7702 92.5469 23.8442 90.6603C18.9182 88.7738 14.6907 86.1012 11.1622 82.6424C7.63364 79.1837 4.89112 74.9912 2.93467 70.0652C0.978223 65.1392 0 59.6717 0 53.6625C0 45.4174 1.65949 38.0285 4.97846 31.4953C8.29743 24.9621 12.7344 19.4072 18.2893 14.8305C23.8442 10.2539 30.2201 6.74275 37.4171 4.2972C44.614 1.85164 52.0554 0.628866 59.7416 0.628857C63.1652 0.628857 66.6938 0.751135 70.3273 0.99569C73.9607 1.24025 77.5766 1.67695 81.1751 2.30581C84.7735 2.93467 88.2847 3.73822 91.7084 4.71643C95.1322 5.69465 98.3813 6.91743 101.456 8.38477L97.473 50.9374C92.7216 49.3304 87.7431 47.9854 82.5376 46.9024C77.332 45.8193 72.2487 45.2778 67.2878 45.2778C66.3795 45.2778 65.2091 45.2952 63.7766 45.3302C62.3443 45.3651 60.842 45.4699 59.2698 45.6446C57.6977 45.8193 56.1081 46.0813 54.501 46.4306C52.8939 46.78 51.4615 47.2517 50.2038 47.8456C48.9461 48.4395 47.9329 49.2256 47.1643 50.2038C46.3958 51.182 46.0464 52.3349 46.1162 53.6625C46.1861 55.1998 46.7626 56.3876 47.8456 57.2261C48.9286 58.0645 50.326 58.6759 52.038 59.0603C53.7498 59.4445 55.6364 59.6367 57.6977 59.6367C59.759 59.6367 61.8027 59.5843 63.8291 59.4794C65.8554 59.3746 67.7419 59.2699 69.4888 59.1651C71.2356 59.0603 72.668 59.0427 73.786 59.1126C79.3758 59.462 84.4068 60.6499 88.8786 62.6762C93.3504 64.7025 97.1411 67.3926 100.25 70.7465C103.36 74.1004 105.735 78.1007 107.377 82.7473C109.019 87.3937 109.84 92.5119 109.84 98.1018L109.84 98.1018L109.84 98.1018Z" id="path_3" fill="none" fill-rule="evenodd" stroke="#FFFFFF" stroke-width="40" />
            <path d="M606.01 67.0782C606.01 73.1572 605.59 79.236 604.752 85.3151C592.803 86.0836 580.924 87.3238 569.116 89.0358C557.308 90.7476 545.499 92.442 533.691 94.119C535.508 99.1499 538.354 103.168 542.233 106.172C546.11 109.177 550.74 110.679 556.12 110.679C558.914 110.679 561.972 110.155 565.291 109.107C568.609 108.059 571.911 106.749 575.196 105.176C578.48 103.604 581.623 101.91 584.628 100.093C587.632 98.2765 590.218 96.6345 592.384 95.1671L587.353 142.751C584.628 144.847 581.676 146.629 578.497 148.095C575.317 149.563 572.016 150.751 568.593 151.66C565.169 152.567 561.71 153.232 558.216 153.651C554.723 154.07 551.299 154.28 547.945 154.28C541.027 154.28 534.704 153.336 528.974 151.45C523.244 149.563 518.057 146.926 513.41 143.536C508.764 140.147 504.694 136.148 501.2 131.536C497.706 126.925 494.807 121.894 492.5 116.444C490.194 110.993 488.448 105.229 487.261 99.1499C486.072 93.071 485.478 86.9221 485.478 80.7034C485.478 74.2053 486.072 67.7071 487.261 61.2088C488.448 54.7106 490.247 48.457 492.658 42.4479C495.068 36.4388 498.108 30.8664 501.776 25.7307C505.445 20.5951 509.724 16.1058 514.615 12.2627C519.507 8.41971 525.044 5.41517 531.228 3.2491C537.411 1.08303 544.242 0 551.718 0C557.937 0 563.614 0.855945 568.749 2.56784C573.885 4.27973 578.462 6.6554 582.479 9.69489C586.497 12.7344 589.991 16.3503 592.96 20.5427C595.93 24.7351 598.375 29.3292 600.298 34.3252C602.219 39.321 603.651 44.5965 604.594 50.1514C605.538 55.7063 606.01 61.3485 606.01 67.0782L606.01 67.0782L606.01 67.0782ZM564.085 61.6281C564.085 59.6717 563.876 57.6628 563.457 55.6015C563.037 53.5403 562.356 51.6712 561.413 49.9941C560.469 48.3172 559.229 46.9373 557.692 45.8542C556.155 44.7712 554.234 44.2297 551.927 44.2296C549.132 44.2296 546.67 44.9808 544.539 46.4831C542.408 47.9854 540.574 49.8719 539.035 52.1428C537.498 54.4137 536.241 56.8767 535.262 59.5319C534.284 62.187 533.551 64.6326 533.062 66.8685L564.085 63.9339L564.085 61.6281L564.085 61.6281ZM483.068 55.1299C483.068 61.9076 482.054 67.9166 480.028 73.1572C478.002 78.3976 475.225 82.9917 471.696 86.9396C468.167 90.8874 464.027 94.2063 459.276 96.8965C454.524 99.5867 449.442 101.788 444.026 103.5C438.611 105.211 433.003 106.469 427.204 107.273C421.405 108.076 415.711 108.513 410.12 108.583L410.12 153.232L361.279 153.232C361.279 145.266 361.297 137.511 361.331 129.963C361.366 122.417 361.402 114.924 361.436 107.482C361.471 100.041 361.505 92.5469 361.541 85.0006C361.576 77.4543 361.628 69.6635 361.699 61.6281C361.838 53.1036 361.873 44.579 361.802 36.0545C361.733 27.5301 361.907 18.9356 362.327 10.2714C371.271 7.6162 380.215 5.62482 389.158 4.29722C398.102 2.96963 407.325 2.30584 416.828 2.30584C422.208 2.30584 427.588 2.74254 432.968 3.61596C438.349 4.48937 443.502 5.86936 448.428 7.75594C453.354 9.64251 457.931 12.0007 462.158 14.8305C466.386 17.6605 470.036 21.0318 473.11 24.9447C476.185 28.8576 478.614 33.3294 480.395 38.3604C482.177 43.3912 483.068 48.981 483.068 55.1299L483.068 55.1299L483.068 55.1299ZM436.532 58.6934C436.532 54.1517 435.152 50.6056 432.392 48.0553C429.632 45.5049 426.051 44.2297 421.649 44.2296C420.182 44.2296 418.662 44.352 417.09 44.5965C415.517 44.841 414.033 45.1381 412.635 45.4873L411.378 76.0918C412.356 76.2315 413.299 76.3014 414.208 76.3014C415.115 76.3014 416.059 76.3014 417.038 76.3014C419.553 76.3014 421.981 75.8821 424.322 75.0437C426.662 74.2053 428.741 72.9999 430.558 71.4278C432.375 69.8556 433.825 68.004 434.907 65.8729C435.99 63.7417 436.532 61.3485 436.532 58.6934L436.532 58.6934L436.532 58.6934ZM358.764 142.751L306.778 149.458L300.489 125.772L276.592 125.772L271.352 149.458L217.9 144.219L259.613 4.61165L317.887 1.67699L358.764 142.751L358.764 142.751ZM296.716 93.6998L288.751 57.2261L280.995 93.6998L296.716 93.6998L296.716 93.6998ZM216.537 8.59441L212.764 52.8241C210.738 52.265 208.746 51.8808 206.789 51.6712C204.833 51.4615 202.842 51.3567 200.815 51.3567C195.854 51.3567 191.121 51.9856 186.613 53.2434C182.107 54.501 178.124 56.4226 174.666 59.0078C171.206 61.5931 168.447 64.8597 166.385 68.8075C164.324 72.7554 163.294 77.4194 163.294 82.7996C163.294 86.7125 163.87 90.1188 165.023 93.0185C166.176 95.9183 167.818 98.3289 169.949 100.25C172.08 102.172 174.666 103.622 177.705 104.6C180.744 105.578 184.116 106.067 187.819 106.067C190.404 106.067 193.06 105.805 195.785 105.281C198.51 104.757 201.234 104.041 203.959 103.133C206.684 102.224 209.305 101.176 211.82 99.9884C214.335 98.8006 216.676 97.5428 218.843 96.2153L217.165 145.476C214.44 146.873 211.506 148.113 208.362 149.196C205.217 150.28 201.986 151.223 198.667 152.026C195.347 152.83 192.028 153.441 188.71 153.86C185.391 154.28 182.23 154.49 179.224 154.49C169.303 154.49 160.271 152.638 152.131 148.935C143.991 145.231 137.004 140.183 131.169 133.789C125.335 127.396 120.811 119.972 117.596 111.517C114.382 103.063 112.775 94.0492 112.775 84.4766C112.775 73.0174 114.4 62.3268 117.649 52.4048C120.898 42.4828 125.685 33.871 132.007 26.5693C138.331 19.2675 146.156 13.538 155.485 9.38048C164.813 5.22304 175.522 3.1443 187.609 3.1443C192.43 3.1443 197.322 3.52861 202.283 4.29722C207.243 5.06582 211.994 6.49822 216.537 8.59441L216.537 8.59441L216.537 8.59441ZM109.84 98.1018C109.84 107.674 108.181 115.937 104.862 122.89C101.543 129.842 97.0013 135.572 91.2368 140.078C85.4723 144.585 78.7295 147.903 71.0085 150.034C63.2876 152.167 54.9901 153.232 46.1162 153.232C42.6925 153.232 38.9369 152.777 34.8491 151.87C30.7616 150.961 26.6216 149.826 22.4293 148.463C18.2369 147.1 14.2017 145.633 10.3237 144.061C6.44579 142.488 3.00454 141.004 0 139.606L4.61162 98.5211C10.5508 102.085 17.1364 104.792 24.3682 106.644C31.6001 108.495 38.7096 109.421 45.697 109.421C47.0246 109.421 48.6316 109.369 50.5182 109.264C52.4048 109.159 54.2041 108.845 55.916 108.321C57.6278 107.797 59.0777 107.011 60.2655 105.963C61.4534 104.914 62.0474 103.412 62.0474 101.456C62.0474 100.128 61.6281 98.9927 60.7897 98.0494C59.951 97.1062 58.868 96.3375 57.5406 95.7436C56.2129 95.1496 54.7106 94.6955 53.0337 94.381C51.3567 94.0666 49.7148 93.8395 48.1076 93.6998C46.5005 93.56 44.9983 93.4901 43.6008 93.4901C42.2033 93.4901 41.0854 93.4901 40.2469 93.4901C34.2377 93.4901 28.7702 92.5469 23.8442 90.6603C18.9182 88.7738 14.6907 86.1012 11.1622 82.6424C7.63364 79.1837 4.89112 74.9912 2.93467 70.0652C0.978223 65.1392 0 59.6717 0 53.6625C0 45.4174 1.65949 38.0285 4.97846 31.4953C8.29743 24.9621 12.7344 19.4072 18.2893 14.8305C23.8442 10.2539 30.2201 6.74275 37.4171 4.2972C44.614 1.85164 52.0554 0.628866 59.7416 0.628857C63.1652 0.628857 66.6938 0.751135 70.3273 0.99569C73.9607 1.24025 77.5766 1.67695 81.1751 2.30581C84.7735 2.93467 88.2847 3.73822 91.7084 4.71643C95.1322 5.69465 98.3813 6.91743 101.456 8.38477L97.473 50.9374C92.7216 49.3304 87.7431 47.9854 82.5376 46.9024C77.332 45.8193 72.2487 45.2778 67.2878 45.2778C66.3795 45.2778 65.2091 45.2952 63.7766 45.3302C62.3443 45.3651 60.842 45.4699 59.2698 45.6446C57.6977 45.8193 56.1081 46.0813 54.501 46.4306C52.8939 46.78 51.4615 47.2517 50.2038 47.8456C48.9461 48.4395 47.9329 49.2256 47.1643 50.2038C46.3958 51.182 46.0464 52.3349 46.1162 53.6625C46.1861 55.1998 46.7626 56.3876 47.8456 57.2261C48.9286 58.0645 50.326 58.6759 52.038 59.0603C53.7498 59.4445 55.6364 59.6367 57.6977 59.6367C59.759 59.6367 61.8027 59.5843 63.8291 59.4794C65.8554 59.3746 67.7419 59.2699 69.4888 59.1651C71.2356 59.0603 72.668 59.0427 73.786 59.1126C79.3758 59.462 84.4068 60.6499 88.8786 62.6762C93.3504 64.7025 97.1411 67.3926 100.25 70.7465C103.36 74.1004 105.735 78.1007 107.377 82.7473C109.019 87.3937 109.84 92.5119 109.84 98.1018L109.84 98.1018L109.84 98.1018Z" id="path_3" fill="none" fill-rule="evenodd" stroke="#32291D" stroke-width="30" />
            <path d="M606.01 67.0782C606.01 73.1572 605.59 79.236 604.752 85.3151C592.803 86.0836 580.924 87.3238 569.116 89.0358C557.308 90.7476 545.499 92.442 533.691 94.119C535.508 99.1499 538.354 103.168 542.233 106.172C546.11 109.177 550.74 110.679 556.12 110.679C558.914 110.679 561.972 110.155 565.291 109.107C568.609 108.059 571.911 106.749 575.196 105.176C578.48 103.604 581.623 101.91 584.628 100.093C587.632 98.2765 590.218 96.6345 592.384 95.1671L587.353 142.751C584.628 144.847 581.676 146.629 578.497 148.095C575.317 149.563 572.016 150.751 568.593 151.66C565.169 152.567 561.71 153.232 558.216 153.651C554.723 154.07 551.299 154.28 547.945 154.28C541.027 154.28 534.704 153.336 528.974 151.45C523.244 149.563 518.057 146.926 513.41 143.536C508.764 140.147 504.694 136.148 501.2 131.536C497.706 126.925 494.807 121.894 492.5 116.444C490.194 110.993 488.448 105.229 487.261 99.1499C486.072 93.071 485.478 86.9221 485.478 80.7034C485.478 74.2053 486.072 67.7071 487.261 61.2088C488.448 54.7106 490.247 48.457 492.658 42.4479C495.068 36.4388 498.108 30.8664 501.776 25.7307C505.445 20.5951 509.724 16.1058 514.615 12.2627C519.507 8.41971 525.044 5.41517 531.228 3.2491C537.411 1.08303 544.242 0 551.718 0C557.937 0 563.614 0.855945 568.749 2.56784C573.885 4.27973 578.462 6.6554 582.479 9.69489C586.497 12.7344 589.991 16.3503 592.96 20.5427C595.93 24.7351 598.375 29.3292 600.298 34.3252C602.219 39.321 603.651 44.5965 604.594 50.1514C605.538 55.7063 606.01 61.3485 606.01 67.0782L606.01 67.0782L606.01 67.0782ZM564.085 61.6281C564.085 59.6717 563.876 57.6628 563.457 55.6015C563.037 53.5403 562.356 51.6712 561.413 49.9941C560.469 48.3172 559.229 46.9373 557.692 45.8542C556.155 44.7712 554.234 44.2297 551.927 44.2296C549.132 44.2296 546.67 44.9808 544.539 46.4831C542.408 47.9854 540.574 49.8719 539.035 52.1428C537.498 54.4137 536.241 56.8767 535.262 59.5319C534.284 62.187 533.551 64.6326 533.062 66.8685L564.085 63.9339L564.085 61.6281L564.085 61.6281ZM483.068 55.1299C483.068 61.9076 482.054 67.9166 480.028 73.1572C478.002 78.3976 475.225 82.9917 471.696 86.9396C468.167 90.8874 464.027 94.2063 459.276 96.8965C454.524 99.5867 449.442 101.788 444.026 103.5C438.611 105.211 433.003 106.469 427.204 107.273C421.405 108.076 415.711 108.513 410.12 108.583L410.12 153.232L361.279 153.232C361.279 145.266 361.297 137.511 361.331 129.963C361.366 122.417 361.402 114.924 361.436 107.482C361.471 100.041 361.505 92.5469 361.541 85.0006C361.576 77.4543 361.628 69.6635 361.699 61.6281C361.838 53.1036 361.873 44.579 361.802 36.0545C361.733 27.5301 361.907 18.9356 362.327 10.2714C371.271 7.6162 380.215 5.62482 389.158 4.29722C398.102 2.96963 407.325 2.30584 416.828 2.30584C422.208 2.30584 427.588 2.74254 432.968 3.61596C438.349 4.48937 443.502 5.86936 448.428 7.75594C453.354 9.64251 457.931 12.0007 462.158 14.8305C466.386 17.6605 470.036 21.0318 473.11 24.9447C476.185 28.8576 478.614 33.3294 480.395 38.3604C482.177 43.3912 483.068 48.981 483.068 55.1299L483.068 55.1299L483.068 55.1299ZM436.532 58.6934C436.532 54.1517 435.152 50.6056 432.392 48.0553C429.632 45.5049 426.051 44.2297 421.649 44.2296C420.182 44.2296 418.662 44.352 417.09 44.5965C415.517 44.841 414.033 45.1381 412.635 45.4873L411.378 76.0918C412.356 76.2315 413.299 76.3014 414.208 76.3014C415.115 76.3014 416.059 76.3014 417.038 76.3014C419.553 76.3014 421.981 75.8821 424.322 75.0437C426.662 74.2053 428.741 72.9999 430.558 71.4278C432.375 69.8556 433.825 68.004 434.907 65.8729C435.99 63.7417 436.532 61.3485 436.532 58.6934L436.532 58.6934L436.532 58.6934ZM358.764 142.751L306.778 149.458L300.489 125.772L276.592 125.772L271.352 149.458L217.9 144.219L259.613 4.61165L317.887 1.67699L358.764 142.751L358.764 142.751ZM296.716 93.6998L288.751 57.2261L280.995 93.6998L296.716 93.6998L296.716 93.6998ZM216.537 8.59441L212.764 52.8241C210.738 52.265 208.746 51.8808 206.789 51.6712C204.833 51.4615 202.842 51.3567 200.815 51.3567C195.854 51.3567 191.121 51.9856 186.613 53.2434C182.107 54.501 178.124 56.4226 174.666 59.0078C171.206 61.5931 168.447 64.8597 166.385 68.8075C164.324 72.7554 163.294 77.4194 163.294 82.7996C163.294 86.7125 163.87 90.1188 165.023 93.0185C166.176 95.9183 167.818 98.3289 169.949 100.25C172.08 102.172 174.666 103.622 177.705 104.6C180.744 105.578 184.116 106.067 187.819 106.067C190.404 106.067 193.06 105.805 195.785 105.281C198.51 104.757 201.234 104.041 203.959 103.133C206.684 102.224 209.305 101.176 211.82 99.9884C214.335 98.8006 216.676 97.5428 218.843 96.2153L217.165 145.476C214.44 146.873 211.506 148.113 208.362 149.196C205.217 150.28 201.986 151.223 198.667 152.026C195.347 152.83 192.028 153.441 188.71 153.86C185.391 154.28 182.23 154.49 179.224 154.49C169.303 154.49 160.271 152.638 152.131 148.935C143.991 145.231 137.004 140.183 131.169 133.789C125.335 127.396 120.811 119.972 117.596 111.517C114.382 103.063 112.775 94.0492 112.775 84.4766C112.775 73.0174 114.4 62.3268 117.649 52.4048C120.898 42.4828 125.685 33.871 132.007 26.5693C138.331 19.2675 146.156 13.538 155.485 9.38048C164.813 5.22304 175.522 3.1443 187.609 3.1443C192.43 3.1443 197.322 3.52861 202.283 4.29722C207.243 5.06582 211.994 6.49822 216.537 8.59441L216.537 8.59441L216.537 8.59441ZM109.84 98.1018C109.84 107.674 108.181 115.937 104.862 122.89C101.543 129.842 97.0013 135.572 91.2368 140.078C85.4723 144.585 78.7295 147.903 71.0085 150.034C63.2876 152.167 54.9901 153.232 46.1162 153.232C42.6925 153.232 38.9369 152.777 34.8491 151.87C30.7616 150.961 26.6216 149.826 22.4293 148.463C18.2369 147.1 14.2017 145.633 10.3237 144.061C6.44579 142.488 3.00454 141.004 0 139.606L4.61162 98.5211C10.5508 102.085 17.1364 104.792 24.3682 106.644C31.6001 108.495 38.7096 109.421 45.697 109.421C47.0246 109.421 48.6316 109.369 50.5182 109.264C52.4048 109.159 54.2041 108.845 55.916 108.321C57.6278 107.797 59.0777 107.011 60.2655 105.963C61.4534 104.914 62.0474 103.412 62.0474 101.456C62.0474 100.128 61.6281 98.9927 60.7897 98.0494C59.951 97.1062 58.868 96.3375 57.5406 95.7436C56.2129 95.1496 54.7106 94.6955 53.0337 94.381C51.3567 94.0666 49.7148 93.8395 48.1076 93.6998C46.5005 93.56 44.9983 93.4901 43.6008 93.4901C42.2033 93.4901 41.0854 93.4901 40.2469 93.4901C34.2377 93.4901 28.7702 92.5469 23.8442 90.6603C18.9182 88.7738 14.6907 86.1012 11.1622 82.6424C7.63364 79.1837 4.89112 74.9912 2.93467 70.0652C0.978223 65.1392 0 59.6717 0 53.6625C0 45.4174 1.65949 38.0285 4.97846 31.4953C8.29743 24.9621 12.7344 19.4072 18.2893 14.8305C23.8442 10.2539 30.2201 6.74275 37.4171 4.2972C44.614 1.85164 52.0554 0.628866 59.7416 0.628857C63.1652 0.628857 66.6938 0.751135 70.3273 0.99569C73.9607 1.24025 77.5766 1.67695 81.1751 2.30581C84.7735 2.93467 88.2847 3.73822 91.7084 4.71643C95.1322 5.69465 98.3813 6.91743 101.456 8.38477L97.473 50.9374C92.7216 49.3304 87.7431 47.9854 82.5376 46.9024C77.332 45.8193 72.2487 45.2778 67.2878 45.2778C66.3795 45.2778 65.2091 45.2952 63.7766 45.3302C62.3443 45.3651 60.842 45.4699 59.2698 45.6446C57.6977 45.8193 56.1081 46.0813 54.501 46.4306C52.8939 46.78 51.4615 47.2517 50.2038 47.8456C48.9461 48.4395 47.9329 49.2256 47.1643 50.2038C46.3958 51.182 46.0464 52.3349 46.1162 53.6625C46.1861 55.1998 46.7626 56.3876 47.8456 57.2261C48.9286 58.0645 50.326 58.6759 52.038 59.0603C53.7498 59.4445 55.6364 59.6367 57.6977 59.6367C59.759 59.6367 61.8027 59.5843 63.8291 59.4794C65.8554 59.3746 67.7419 59.2699 69.4888 59.1651C71.2356 59.0603 72.668 59.0427 73.786 59.1126C79.3758 59.462 84.4068 60.6499 88.8786 62.6762C93.3504 64.7025 97.1411 67.3926 100.25 70.7465C103.36 74.1004 105.735 78.1007 107.377 82.7473C109.019 87.3937 109.84 92.5119 109.84 98.1018L109.84 98.1018L109.84 98.1018Z" id="path_3" fill="#E3E3E3" fill-rule="evenodd" stroke="none" />
          </g>
          <g id="Mask-group">
            <path d="M606.01 67.0782C606.01 73.1572 605.59 79.236 604.752 85.3151C592.803 86.0836 580.924 87.3238 569.116 89.0358C557.308 90.7476 545.499 92.442 533.691 94.119C535.508 99.1499 538.354 103.168 542.233 106.172C546.11 109.177 550.74 110.679 556.12 110.679C558.914 110.679 561.972 110.155 565.291 109.107C568.609 108.059 571.911 106.749 575.196 105.176C578.48 103.604 581.623 101.91 584.628 100.093C587.632 98.2765 590.218 96.6345 592.384 95.1671L587.353 142.751C584.628 144.847 581.676 146.629 578.497 148.095C575.317 149.563 572.016 150.751 568.593 151.66C565.169 152.567 561.71 153.232 558.216 153.651C554.723 154.07 551.299 154.28 547.945 154.28C541.027 154.28 534.704 153.336 528.974 151.45C523.244 149.563 518.057 146.926 513.41 143.536C508.764 140.147 504.694 136.148 501.2 131.536C497.706 126.925 494.807 121.894 492.5 116.444C490.194 110.993 488.448 105.229 487.261 99.1499C486.072 93.071 485.478 86.9221 485.478 80.7034C485.478 74.2053 486.072 67.7071 487.261 61.2088C488.448 54.7106 490.247 48.457 492.658 42.4479C495.068 36.4388 498.108 30.8664 501.776 25.7307C505.445 20.5951 509.724 16.1058 514.615 12.2627C519.507 8.41971 525.044 5.41517 531.228 3.2491C537.411 1.08303 544.242 0 551.718 0C557.937 0 563.614 0.855945 568.749 2.56784C573.885 4.27973 578.462 6.6554 582.479 9.69489C586.497 12.7344 589.991 16.3503 592.96 20.5427C595.93 24.7351 598.375 29.3292 600.298 34.3252C602.219 39.321 603.651 44.5965 604.594 50.1514C605.538 55.7063 606.01 61.3485 606.01 67.0782L606.01 67.0782L606.01 67.0782ZM564.085 61.6281C564.085 59.6717 563.876 57.6628 563.457 55.6015C563.037 53.5403 562.356 51.6712 561.413 49.9941C560.469 48.3172 559.229 46.9373 557.692 45.8542C556.155 44.7712 554.234 44.2297 551.927 44.2296C549.132 44.2296 546.67 44.9808 544.539 46.4831C542.408 47.9854 540.574 49.8719 539.035 52.1428C537.498 54.4137 536.241 56.8767 535.262 59.5319C534.284 62.187 533.551 64.6326 533.062 66.8685L564.085 63.9339L564.085 61.6281L564.085 61.6281ZM483.068 55.1299C483.068 61.9076 482.054 67.9166 480.028 73.1572C478.002 78.3976 475.225 82.9917 471.696 86.9396C468.167 90.8874 464.027 94.2063 459.276 96.8965C454.524 99.5867 449.442 101.788 444.026 103.5C438.611 105.211 433.003 106.469 427.204 107.273C421.405 108.076 415.711 108.513 410.12 108.583L410.12 153.232L361.279 153.232C361.279 145.266 361.297 137.511 361.331 129.963C361.366 122.417 361.402 114.924 361.436 107.482C361.471 100.041 361.505 92.5469 361.541 85.0006C361.576 77.4543 361.628 69.6635 361.699 61.6281C361.838 53.1036 361.873 44.579 361.802 36.0545C361.733 27.5301 361.907 18.9356 362.327 10.2714C371.271 7.6162 380.215 5.62482 389.158 4.29722C398.102 2.96963 407.325 2.30584 416.828 2.30584C422.208 2.30584 427.588 2.74254 432.968 3.61596C438.349 4.48937 443.502 5.86936 448.428 7.75594C453.354 9.64251 457.931 12.0007 462.158 14.8305C466.386 17.6605 470.036 21.0318 473.11 24.9447C476.185 28.8576 478.614 33.3294 480.395 38.3604C482.177 43.3912 483.068 48.981 483.068 55.1299L483.068 55.1299L483.068 55.1299ZM436.532 58.6934C436.532 54.1517 435.152 50.6056 432.392 48.0553C429.632 45.5049 426.051 44.2297 421.649 44.2296C420.182 44.2296 418.662 44.352 417.09 44.5965C415.517 44.841 414.033 45.1381 412.635 45.4873L411.378 76.0918C412.356 76.2315 413.299 76.3014 414.208 76.3014C415.115 76.3014 416.059 76.3014 417.038 76.3014C419.553 76.3014 421.981 75.8821 424.322 75.0437C426.662 74.2053 428.741 72.9999 430.558 71.4278C432.375 69.8556 433.825 68.004 434.907 65.8729C435.99 63.7417 436.532 61.3485 436.532 58.6934L436.532 58.6934L436.532 58.6934ZM358.764 142.751L306.778 149.458L300.489 125.772L276.592 125.772L271.352 149.458L217.9 144.219L259.613 4.61165L317.887 1.67699L358.764 142.751L358.764 142.751ZM296.716 93.6998L288.751 57.2261L280.995 93.6998L296.716 93.6998L296.716 93.6998ZM216.537 8.59441L212.764 52.8241C210.738 52.265 208.746 51.8808 206.789 51.6712C204.833 51.4615 202.842 51.3567 200.815 51.3567C195.854 51.3567 191.121 51.9856 186.613 53.2434C182.107 54.501 178.124 56.4226 174.666 59.0078C171.206 61.5931 168.447 64.8597 166.385 68.8075C164.324 72.7554 163.294 77.4194 163.294 82.7996C163.294 86.7125 163.87 90.1188 165.023 93.0185C166.176 95.9183 167.818 98.3289 169.949 100.25C172.08 102.172 174.666 103.622 177.705 104.6C180.744 105.578 184.116 106.067 187.819 106.067C190.404 106.067 193.06 105.805 195.785 105.281C198.51 104.757 201.234 104.041 203.959 103.133C206.684 102.224 209.305 101.176 211.82 99.9884C214.335 98.8006 216.676 97.5428 218.843 96.2153L217.165 145.476C214.44 146.873 211.506 148.113 208.362 149.196C205.217 150.28 201.986 151.223 198.667 152.026C195.347 152.83 192.028 153.441 188.71 153.86C185.391 154.28 182.23 154.49 179.224 154.49C169.303 154.49 160.271 152.638 152.131 148.935C143.991 145.231 137.004 140.183 131.169 133.789C125.335 127.396 120.811 119.972 117.596 111.517C114.382 103.063 112.775 94.0492 112.775 84.4766C112.775 73.0174 114.4 62.3268 117.649 52.4048C120.898 42.4828 125.685 33.871 132.007 26.5693C138.331 19.2675 146.156 13.538 155.485 9.38048C164.813 5.22304 175.522 3.1443 187.609 3.1443C192.43 3.1443 197.322 3.52861 202.283 4.29722C207.243 5.06582 211.994 6.49822 216.537 8.59441L216.537 8.59441L216.537 8.59441ZM109.84 98.1018C109.84 107.674 108.181 115.937 104.862 122.89C101.543 129.842 97.0013 135.572 91.2368 140.078C85.4723 144.585 78.7295 147.903 71.0085 150.034C63.2876 152.167 54.9901 153.232 46.1162 153.232C42.6925 153.232 38.9369 152.777 34.8491 151.87C30.7616 150.961 26.6216 149.826 22.4293 148.463C18.2369 147.1 14.2017 145.633 10.3237 144.061C6.44579 142.488 3.00454 141.004 0 139.606L4.61162 98.5211C10.5508 102.085 17.1364 104.792 24.3682 106.644C31.6001 108.495 38.7096 109.421 45.697 109.421C47.0246 109.421 48.6316 109.369 50.5182 109.264C52.4048 109.159 54.2041 108.845 55.916 108.321C57.6278 107.797 59.0777 107.011 60.2655 105.963C61.4534 104.914 62.0474 103.412 62.0474 101.456C62.0474 100.128 61.6281 98.9927 60.7897 98.0494C59.951 97.1062 58.868 96.3375 57.5406 95.7436C56.2129 95.1496 54.7106 94.6955 53.0337 94.381C51.3567 94.0666 49.7148 93.8395 48.1076 93.6998C46.5005 93.56 44.9983 93.4901 43.6008 93.4901C42.2033 93.4901 41.0854 93.4901 40.2469 93.4901C34.2377 93.4901 28.7702 92.5469 23.8442 90.6603C18.9182 88.7738 14.6907 86.1012 11.1622 82.6424C7.63364 79.1837 4.89112 74.9912 2.93467 70.0652C0.978223 65.1392 0 59.6717 0 53.6625C0 45.4174 1.65949 38.0285 4.97846 31.4953C8.29743 24.9621 12.7344 19.4072 18.2893 14.8305C23.8442 10.2539 30.2201 6.74275 37.4171 4.2972C44.614 1.85164 52.0554 0.628866 59.7416 0.628857C63.1652 0.628857 66.6938 0.751135 70.3273 0.99569C73.9607 1.24025 77.5766 1.67695 81.1751 2.30581C84.7735 2.93467 88.2847 3.73822 91.7084 4.71643C95.1322 5.69465 98.3813 6.91743 101.456 8.38477L97.473 50.9374C92.7216 49.3304 87.7431 47.9854 82.5376 46.9024C77.332 45.8193 72.2487 45.2778 67.2878 45.2778C66.3795 45.2778 65.2091 45.2952 63.7766 45.3302C62.3443 45.3651 60.842 45.4699 59.2698 45.6446C57.6977 45.8193 56.1081 46.0813 54.501 46.4306C52.8939 46.78 51.4615 47.2517 50.2038 47.8456C48.9461 48.4395 47.9329 49.2256 47.1643 50.2038C46.3958 51.182 46.0464 52.3349 46.1162 53.6625C46.1861 55.1998 46.7626 56.3876 47.8456 57.2261C48.9286 58.0645 50.326 58.6759 52.038 59.0603C53.7498 59.4445 55.6364 59.6367 57.6977 59.6367C59.759 59.6367 61.8027 59.5843 63.8291 59.4794C65.8554 59.3746 67.7419 59.2699 69.4888 59.1651C71.2356 59.0603 72.668 59.0427 73.786 59.1126C79.3758 59.462 84.4068 60.6499 88.8786 62.6762C93.3504 64.7025 97.1411 67.3926 100.25 70.7465C103.36 74.1004 105.735 78.1007 107.377 82.7473C109.019 87.3937 109.84 92.5119 109.84 98.1018L109.84 98.1018L109.84 98.1018Z" id="path_3" fill="none" fill-rule="evenodd" stroke="none" />
            <g clip-path="url(#mask_3)">
              <g id="Group" transform="translate(-66.36954 -175.48306)">
                <path d="M95.5969 0L0 294.217L61.2129 314.106L156.81 19.8893L95.5969 0L95.5969 0L95.5969 0ZM192.353 31.4378L96.756 325.655L157.969 345.544L253.566 51.3271L192.353 31.4378L192.353 31.4378L192.353 31.4378ZM385.865 94.314L290.268 388.531L351.481 408.42L447.078 114.203L385.865 94.314L385.865 94.314L385.865 94.314ZM482.621 125.751L387.024 419.969L448.236 439.858L543.833 145.641L482.621 125.751L482.621 125.751L482.621 125.751ZM676.133 188.627L580.536 482.845L641.748 502.734L737.345 208.517L676.133 188.627L676.133 188.627L676.133 188.627ZM288.895 63.534L193.298 357.751L254.512 377.64L350.109 83.4236L288.895 63.534L288.895 63.534L288.895 63.534ZM579.162 157.847L483.565 452.064L544.778 471.953L640.375 177.736L579.162 157.847L579.162 157.847L579.162 157.847Z" id="overlay#1" fill="#C6C6C6" fill-opacity="0.24705882" fill-rule="evenodd" stroke="none" />
              </g>
            </g>
          </g>
        </g>
        <g id="Mask" transform="translate(592.8684 0)">
          <path d="M76.1191 23.8116C76.1191 12.4913 77.583 5.26978 80.6083 2.24455C82.072 0.780713 84.0238 0 86.366 0C91.8309 0 102.956 6.14809 109.787 13.0768C115.447 18.6394 116.716 20.6888 124.23 36.8886C125.011 38.4499 128.329 40.5969 134.281 43.4269C150.189 50.8437 158.777 58.6507 165.705 72.0205C172.537 85.1949 175.66 100.321 175.66 120.229C175.66 140.138 173.318 150.286 162.777 176.636C159.07 186.004 155.361 196.543 154.58 200.056C152.726 209.035 152.921 221.819 155.068 227.869L156.728 232.749L162.094 233.432C165.023 233.725 169.999 234.017 173.318 234.115C179.661 234.213 183.857 236.164 181.905 238.116C181.32 238.702 178.197 239.678 175.075 240.166C164.925 241.727 107.445 242.313 82.072 241.141C27.4224 238.507 -8.09989 233.236 28.7887 233.236L43.8173 233.236L41.4752 228.65C38.0596 221.722 36.1079 212.939 36.1079 204.253C36.1079 184.541 45.086 168.341 68.7025 144.919C84.219 129.695 88.8056 122.767 88.8056 115.057C88.8056 109.982 87.8298 109.69 67.2386 109.787L48.3064 109.885L37.1814 115.447C22.0551 122.962 16.2973 122.864 7.31913 115.057C2.53734 110.861 0 105.298 0 98.9549C0 91.2454 3.22042 87.4394 20.4936 75.1433C23.9093 72.7035 33.5706 63.9205 41.9631 55.4304C57.9677 39.5234 64.6037 34.6439 71.9228 33.5704L76.1191 32.9849L76.1191 23.8116L76.1191 23.8116L76.1191 23.8116ZM76.32 50.2043C69.734 50.2043 64.395 55.5433 64.395 62.1293C64.395 68.7153 69.734 74.0543 76.32 74.0543C82.906 74.0543 88.245 68.7153 88.245 62.1293C88.245 55.5433 82.906 50.2043 76.32 50.2043L76.32 50.2043L76.32 50.2043Z" id="path_4" fill="none" fill-rule="evenodd" stroke="#FFFEFD" stroke-width="40" />
          <path d="M76.1191 23.8116C76.1191 12.4913 77.583 5.26978 80.6083 2.24455C82.072 0.780713 84.0238 0 86.366 0C91.8309 0 102.956 6.14809 109.787 13.0768C115.447 18.6394 116.716 20.6888 124.23 36.8886C125.011 38.4499 128.329 40.5969 134.281 43.4269C150.189 50.8437 158.777 58.6507 165.705 72.0205C172.537 85.1949 175.66 100.321 175.66 120.229C175.66 140.138 173.318 150.286 162.777 176.636C159.07 186.004 155.361 196.543 154.58 200.056C152.726 209.035 152.921 221.819 155.068 227.869L156.728 232.749L162.094 233.432C165.023 233.725 169.999 234.017 173.318 234.115C179.661 234.213 183.857 236.164 181.905 238.116C181.32 238.702 178.197 239.678 175.075 240.166C164.925 241.727 107.445 242.313 82.072 241.141C27.4224 238.507 -8.09989 233.236 28.7887 233.236L43.8173 233.236L41.4752 228.65C38.0596 221.722 36.1079 212.939 36.1079 204.253C36.1079 184.541 45.086 168.341 68.7025 144.919C84.219 129.695 88.8056 122.767 88.8056 115.057C88.8056 109.982 87.8298 109.69 67.2386 109.787L48.3064 109.885L37.1814 115.447C22.0551 122.962 16.2973 122.864 7.31913 115.057C2.53734 110.861 0 105.298 0 98.9549C0 91.2454 3.22042 87.4394 20.4936 75.1433C23.9093 72.7035 33.5706 63.9205 41.9631 55.4304C57.9677 39.5234 64.6037 34.6439 71.9228 33.5704L76.1191 32.9849L76.1191 23.8116L76.1191 23.8116L76.1191 23.8116ZM76.32 50.2043C69.734 50.2043 64.395 55.5433 64.395 62.1293C64.395 68.7153 69.734 74.0543 76.32 74.0543C82.906 74.0543 88.245 68.7153 88.245 62.1293C88.245 55.5433 82.906 50.2043 76.32 50.2043L76.32 50.2043L76.32 50.2043Z" id="path_4" fill="none" fill-rule="evenodd" stroke="#32291D" stroke-width="30" />
          <path d="M76.1191 23.8116C76.1191 12.4913 77.583 5.26978 80.6083 2.24455C82.072 0.780713 84.0238 0 86.366 0C91.8309 0 102.956 6.14809 109.787 13.0768C115.447 18.6394 116.716 20.6888 124.23 36.8886C125.011 38.4499 128.329 40.5969 134.281 43.4269C150.189 50.8437 158.777 58.6507 165.705 72.0205C172.537 85.1949 175.66 100.321 175.66 120.229C175.66 140.138 173.318 150.286 162.777 176.636C159.07 186.004 155.361 196.543 154.58 200.056C152.726 209.035 152.921 221.819 155.068 227.869L156.728 232.749L162.094 233.432C165.023 233.725 169.999 234.017 173.318 234.115C179.661 234.213 183.857 236.164 181.905 238.116C181.32 238.702 178.197 239.678 175.075 240.166C164.925 241.727 107.445 242.313 82.072 241.141C27.4224 238.507 -8.09989 233.236 28.7887 233.236L43.8173 233.236L41.4752 228.65C38.0596 221.722 36.1079 212.939 36.1079 204.253C36.1079 184.541 45.086 168.341 68.7025 144.919C84.219 129.695 88.8056 122.767 88.8056 115.057C88.8056 109.982 87.8298 109.69 67.2386 109.787L48.3064 109.885L37.1814 115.447C22.0551 122.962 16.2973 122.864 7.31913 115.057C2.53734 110.861 0 105.298 0 98.9549C0 91.2454 3.22042 87.4394 20.4936 75.1433C23.9093 72.7035 33.5706 63.9205 41.9631 55.4304C57.9677 39.5234 64.6037 34.6439 71.9228 33.5704L76.1191 32.9849L76.1191 23.8116L76.1191 23.8116L76.1191 23.8116ZM76.32 50.2043C69.734 50.2043 64.395 55.5433 64.395 62.1293C64.395 68.7153 69.734 74.0543 76.32 74.0543C82.906 74.0543 88.245 68.7153 88.245 62.1293C88.245 55.5433 82.906 50.2043 76.32 50.2043L76.32 50.2043L76.32 50.2043Z" id="path_4" fill="#CFCC99" fill-rule="evenodd" stroke="none" />
        </g>
      </g>
    </g>
  </g>
</svg>