<?xml version="1.0" encoding="utf-8"?>
<svg width="150px" height="150px" viewBox="0 0 150 150" version="1.1" xmlns:xlink="http://www.w3.org/1999/xlink" xmlns="http://www.w3.org/2000/svg">
  <defs>
    <path d="M0 0L150 0L150 150L0 150L0 0Z" id="path_1" />
    <clipPath id="mask_1">
      <use xlink:href="#path_1" />
    </clipPath>
  </defs>
  <g id="music_icon">
    <path d="M0 0L150 0L150 150L0 150L0 0Z" id="Background" fill="none" fill-rule="evenodd" stroke="none" />
    <g clip-path="url(#mask_1)">
      <path d="M71.875 0C32.5 0 0 32.5 0 71.875C0 111.25 32.5 143.75 71.875 143.75C111.25 143.75 143.75 111.25 143.75 71.875C143.75 32.5 111.25 0 71.875 0L71.875 0ZM101.875 51.8751L101.875 83.1251L101.875 85.6251L101.875 93.1251C101.875 98.1251 98.1251 101.875 93.1251 101.875L89.3751 101.875C84.3751 101.875 80.6251 98.1251 80.6251 93.1251L80.6251 89.3751C80.6251 84.3751 84.3751 80.6251 89.3751 80.6251L96.2501 80.6251L96.2501 55.6251L63.7501 65.6251L63.7501 92.5001L63.7501 97.5001L63.7501 102.5C63.7501 107.5 60.0001 111.25 55.0001 111.25L50.6251 111.25C45.6251 111.25 41.8751 107.5 41.8751 102.5L41.8751 98.7501C41.8751 93.7501 45.6251 90.0001 50.6251 90.0001L57.5001 90.0001L57.5001 64.3751L57.5001 47.5001C57.5001 46.2501 58.1251 45.0001 59.3751 44.3751L98.1251 32.5001C98.7501 32.5001 100 32.5001 100.625 33.1251C101.25 33.7501 101.875 34.3751 101.875 35.6251L101.875 51.8751L101.875 51.8751Z" transform="translate(3.125 3.125)" id="Shape" fill="#F3F4F6" fill-rule="evenodd" stroke="none" />
    </g>
  </g>
</svg>