<?xml version="1.0" encoding="utf-8"?>
<svg width="100px" height="100px" viewBox="0 0 100 100" version="1.1" xmlns:xlink="http://www.w3.org/1999/xlink" xmlns="http://www.w3.org/2000/svg">
  <defs>
    <path d="M0 0L100 0L100 100L0 100L0 0L0 0Z" id="path_1" />
    <clipPath id="mask_1">
      <use xlink:href="#path_1" />
    </clipPath>
  </defs>
  <g id="review_icon">
    <g id="review_icon">
      <path d="M0 0L100 0L100 100L0 100L0 0L0 0Z" id="Background" fill="none" fill-rule="evenodd" stroke="none" />
      <g id="Mask-group">
        <path d="M0 0L100 0L100 100L0 100L0 0L0 0Z" id="path_1" fill="none" fill-rule="evenodd" stroke="none" />
        <g clip-path="url(#mask_1)">
          <g id="Group" transform="translate(8.3333435 12.6041565)">
            <path d="M49.3502 26.3061C48.9819 26.3061 48.6663 26.6218 48.6663 26.99L48.6663 32.8826L55.2428 32.8826L55.2428 26.3061L49.3502 26.3061L49.3502 26.3061ZM68.3958 26.3061L61.8193 26.3061L61.8193 32.8826L68.3958 32.8826L68.3958 26.3061L68.3958 26.3061ZM61.8193 32.8826L55.2428 32.8826L55.2428 39.4591L61.8193 39.4591L61.8193 32.8826L61.8193 32.8826ZM74.9724 39.4591L74.9724 32.8826L68.3958 32.8826L68.3958 39.4591L74.9724 39.4591L74.9724 39.4591ZM48.6663 39.4591L48.6663 46.0357L55.2428 46.0357L55.2428 39.4591L48.6663 39.4591L48.6663 39.4591ZM61.8193 39.4591L61.8193 46.0357L68.3958 46.0357L68.3958 39.4591L61.8193 39.4591L61.8193 39.4591ZM55.2428 52.5596L61.8193 52.5596L61.8193 46.0357L55.2428 46.0357L55.2428 52.5596L55.2428 52.5596ZM74.341 52.5596C74.7093 52.5596 74.9724 52.2965 74.9724 51.9282L74.9724 46.0357L68.3958 46.0357L68.3958 52.5596L74.341 52.5596L74.341 52.5596ZM2.63061 68.3958L81.5489 68.3958C84.1795 68.3958 84.1795 68.3958 84.1795 65.7652L84.1795 13.153C84.1795 10.5224 84.1795 10.5224 81.5489 10.5224L44.7204 10.5224C37.6177 3.68285 23.0441 0 7.94444 0L7.94444 10.5224L2.63061 10.5224C0 10.5224 0 10.5224 0 13.153L0 65.7652C0 68.3958 0 68.3958 2.63061 68.3958L2.63061 68.3958L2.63061 68.3958ZM39.4591 62.5559C33.6192 59.7674 22.9915 57.8734 13.2057 57.4525L13.2057 5.36644C23.3598 5.94517 34.1453 8.68101 39.4591 12.6269L39.4591 62.5559L39.4591 62.5559ZM44.7204 63.1346L44.7204 15.7837L78.9183 15.7837L78.9183 63.1346L44.7204 63.1346L44.7204 63.1346Z" id="Shape" fill="#F3F4F6" fill-rule="evenodd" stroke="none" />
          </g>
        </g>
      </g>
    </g>
  </g>
</svg>