<?xml version="1.0" encoding="utf-8"?>
<svg width="505px" height="505px" viewBox="0 0 505 505" version="1.1" xmlns:xlink="http://www.w3.org/1999/xlink" xmlns="http://www.w3.org/2000/svg">
  <defs>
    <filter filterUnits="userSpaceOnUse" color-interpolation-filters="sRGB" id="filter_1">
      <feFlood flood-opacity="0" result="BackgroundImageFix" />
      <feBlend mode="normal" in="SourceGraphic" in2="BackgroundImageFix" result="shape" />
      <feColorMatrix in="SourceAlpha" type="matrix" values="0 0 0 0 0 0 0 0 0 0 0 0 0 0 0 0 0 0 127 0" result="hardAlpha" />
      <feOffset dx="0" dy="1" />
      <feGaussianBlur stdDeviation="1.5" />
      <feComposite in2="hardAlpha" operator="arithmetic" k2="-1" k3="1" />
      <feColorMatrix type="matrix" values="0 0 0 0 0 0 0 0 0 0 0 0 0 0 0 0 0 0 0.49803922 0" />
      <feBlend mode="normal" in2="shape" result="effect0_innerShadow" />
    </filter>
    <path d="M0 0L505 0L505 505L0 505L0 0Z" id="path_1" />
    <path d="M0 0L0 52.0062L343.567 52.0062L343.567 0L0 0L0 0Z" transform="translate(0 36.65576)" id="path_2" />
    <path d="M0 0L0 52.0062L153.567 52.0062L153.567 0L0 0L0 0Z" transform="translate(0 22.472107)" id="path_3" />
    <path d="M0 0L0 52.0062L354.567 52.0062L354.567 0L0 0L0 0Z" transform="translate(0 32.240112)" id="path_4" />
    <clipPath id="mask_1">
      <use xlink:href="#path_1" />
    </clipPath>
  </defs>
  <g id="custom">
    <g id="icon">
      <path d="M0 0L505 0L505 505L0 505L0 0Z" id="Background" fill="none" fill-rule="evenodd" stroke="none" />
      <g clip-path="url(#mask_1)">
        <g id="toggles" transform="translate(20.855011 62.599976)">
          <g id="toggle-3" transform="translate(0.01720047 270.24426)">
            <path d="M0 0L0 52.0062L832.028 52.0062L832.028 0L0 0L0 0Z" transform="translate(0 36.65576)" id="track" fill="#262626" fill-rule="evenodd" stroke="none" />
            <g id="slid">
              <use stroke="none" fill="#4446E6" xlink:href="#path_2" fill-rule="evenodd" filter="url(#filter_1)" />
            </g>
            <path d="M0 55.3779C0 24.7935 24.7935 0 55.3779 0C85.9623 0 110.756 24.7935 110.756 55.3779C110.756 85.9623 85.9623 110.756 55.3779 110.756C24.7935 110.756 0 85.9623 0 55.3779L0 55.3779Z" transform="translate(250.9481 0)" id="switch" fill="#EEEEEE" fill-rule="evenodd" stroke="none" />
          </g>
          <g id="toggle-2" transform="translate(0 144.768)">
            <path d="M0 0L0 52.0062L832.028 52.0062L832.028 0L0 0L0 0Z" transform="translate(0 22.472107)" id="track" fill="#262626" fill-rule="evenodd" stroke="none" />
            <g id="slid">
              <use stroke="none" fill="#4446E6" xlink:href="#path_3" fill-rule="evenodd" filter="url(#filter_1)" />
            </g>
            <path d="M0 55.3779C0 24.7935 24.7935 0 55.3779 0C85.9623 0 110.756 24.7935 110.756 55.3779C110.756 85.9623 85.9623 110.756 55.3779 110.756C24.7935 110.756 0 85.9623 0 55.3779L0 55.3779Z" transform="translate(79.035675 0)" id="switch" fill="#EEEEEE" fill-rule="evenodd" stroke="none" />
          </g>
          <g id="toggle-1" transform="translate(0.01720047 0)">
            <path d="M0 0L0 52.0062L832.028 52.0062L832.028 0L0 0L0 0Z" transform="translate(0 32.240112)" id="track" fill="#262626" fill-rule="evenodd" stroke="none" />
            <g id="slid">
              <use stroke="none" fill="#4446E6" xlink:href="#path_4" fill-rule="evenodd" filter="url(#filter_1)" />
            </g>
            <path d="M0 55.3779C0 24.7935 24.7935 0 55.3779 0C85.9623 0 110.756 24.7935 110.756 55.3779C110.756 85.9623 85.9623 110.756 55.3779 110.756C24.7935 110.756 0 85.9623 0 55.3779L0 55.3779Z" transform="translate(299.8283 0)" id="switch" fill="#EEEEEE" fill-rule="evenodd" stroke="none" />
          </g>
        </g>
      </g>
    </g>
  </g>
</svg>