<?xml version="1.0" encoding="utf-8"?>
<svg width="384px" height="384px" viewBox="0 0 384 384" version="1.1" xmlns:xlink="http://www.w3.org/1999/xlink" xmlns="http://www.w3.org/2000/svg">
  <defs>
    <path d="M0 0L384 0L384 384L0 384L0 0Z" id="path_1" />
    <path d="M0 0L383.186 0L383.186 383.186L0 383.186L0 0L0 0Z" id="path_2" />
    <clipPath id="mask_1">
      <use xlink:href="#path_1" />
    </clipPath>
    <clipPath id="mask_2">
      <use xlink:href="#path_2" />
    </clipPath>
  </defs>
  <g id="forever">
    <path d="M0 0L384 0L384 384L0 384L0 0Z" id="Background" fill="none" fill-rule="evenodd" stroke="none" />
    <g clip-path="url(#mask_1)">
      <g id="icon">
        <path d="M0 0L383.186 0L383.186 383.186L0 383.186L0 0L0 0Z" id="Background" fill="none" fill-rule="evenodd" stroke="none" />
        <g id="Mask-group">
          <path d="M0 0L383.186 0L383.186 383.186L0 383.186L0 0L0 0Z" id="path_1" fill="none" fill-rule="evenodd" stroke="none" />
          <g clip-path="url(#mask_2)">
            <g id="Group" transform="translate(54.136475 47.93901)">
              <g id="moon" transform="translate(0 4.4728546)">
                <path d="M270.941 196.73C269.384 195.891 267.543 195.753 265.878 196.349L265.94 196.352C196.929 220.751 121.206 184.586 96.8074 115.575C84.4322 80.5723 87.3059 41.9827 104.729 9.19885C106.364 6.16502 105.229 2.3807 102.195 0.746298C100.638 -0.0929331 98.7968 -0.230799 97.1315 0.365356C21.4936 26.9014 -18.3125 109.73 8.22282 185.368C34.7581 261.006 117.586 300.812 193.225 274.277C227.723 262.175 256.383 237.5 273.476 205.182C275.11 202.149 273.975 198.364 270.941 196.73L270.941 196.73L270.941 196.73Z" transform="translate(0.20915222 0)" id="shape" fill="#CAEDE7" fill-rule="evenodd" stroke="none" />
                <path d="M29.6867 0C29.6867 0 11.4082 24.9118 12.8301 59.2554C14.2522 93.5987 23.3928 134.64 56.7401 170.479C90.0873 206.317 116.663 212.016 134.635 218.054C152.608 224.091 195.084 224.294 195.084 224.294C195.084 224.294 80.4336 271.609 12.8301 150.252C-23.8152 62.3639 29.6867 0 29.6867 0L29.6867 0Z" transform="translate(0 49.3976)" id="shadow" fill="#95BFB9" fill-rule="evenodd" stroke="none" />
              </g>
              <g id="zs" transform="translate(127.69886 0)">
                <path d="M43.9464 38.7425C42.731 37.7716 41.195 37.2931 39.6436 37.4014L16.0061 37.4014L38.079 12.758L40.1465 10.467L41.4877 8.84644C41.8558 8.32814 42.1562 7.76445 42.3817 7.17001C42.6353 6.52948 42.7673 5.84704 42.7729 5.15832C42.9287 3.5287 42.1212 1.95706 40.7053 1.13492C38.8683 0.294613 36.8551 -0.0888667 34.8378 0.017312L7.12113 0.017312C5.65706 -0.0825727 4.20697 0.354689 3.04187 1.24669C2.07931 2.06603 1.54356 3.28003 1.58897 4.54363C1.58897 6.44357 2.20365 7.56118 3.48891 8.00822C5.30502 8.52232 7.191 8.74864 9.07698 8.67879L26.9588 8.67879C26.2134 9.72164 25.2264 10.951 23.9971 12.367L19.3589 17.6197L13.3239 24.3253L6.11529 32.3163C3.60066 35.1103 1.98013 37.0102 1.1978 37.9043C-0.576391 40.0592 -0.355674 43.2255 1.70073 45.1129C3.18017 46.3094 5.05426 46.908 6.9535 46.7892L39.5877 46.7892C41.1489 46.9115 42.701 46.454 43.9464 45.504C44.8957 44.6749 45.428 43.4672 45.3993 42.2071C45.4475 40.8946 44.9159 39.6275 43.9464 38.7425L43.9464 38.7425L43.9464 38.7425Z" transform="translate(0 78.0263)" id="Shape" fill="#B6E9E3" fill-rule="evenodd" stroke="none" />
                <path d="M30.4412 27.1765C29.5831 26.4901 28.4964 26.1573 27.4012 26.2449L10.9265 26.2449L26.3715 8.98572L27.8425 7.36768L28.7741 6.23995C29.0358 5.87651 29.2503 5.48119 29.4115 5.06319C29.5948 4.61088 29.6946 4.12913 29.7057 3.64128C29.8288 2.497 29.273 1.38582 28.2838 0.797438C26.9949 0.205375 25.5815 -0.0642898 24.1651 0.0129323L4.94467 0.0129323C3.92173 -0.0440718 2.91169 0.269114 2.10082 0.895498C1.42297 1.4655 1.04357 2.31497 1.07117 3.19999C1.07117 4.52385 1.51246 5.30836 2.39503 5.65158C3.66802 6.02422 4.99249 6.19032 6.31756 6.14189L18.6735 6.14189C18.1342 6.87737 17.4477 7.7109 16.6143 8.74059L13.3781 12.4179L9.16138 17.3212L4.25825 22.9107C2.49309 24.872 1.33287 26.2124 0.776987 26.9313C-0.378329 28.4133 -0.23 30.5278 1.1202 31.8345C2.13578 32.5424 3.3677 32.8722 4.60146 32.7661L27.4502 32.7661C28.5375 32.8531 29.6186 32.5393 30.4902 31.8836C31.1387 31.2958 31.4966 30.4537 31.4708 29.5791C31.4935 28.667 31.1178 27.79 30.4412 27.1765L30.4412 27.1765L30.4412 27.1765Z" transform="translate(75.229416 149.44292)" id="Shape#1" fill="#9ECFC9" fill-opacity="0.8" fill-rule="evenodd" stroke="none" />
                <path d="M48.9273 43.6946C47.5701 42.6104 45.8549 42.0762 44.1226 42.197L17.7904 42.197L42.4378 14.6793L44.6842 11.8713L46.1817 10.0618C46.5913 9.48145 46.9266 8.85283 47.1801 8.18985C47.4632 7.47459 47.6107 6.71256 47.6169 5.94349C47.7909 4.1238 46.8892 2.36884 45.3082 1.4508C43.1788 0.399384 40.8171 -0.0943447 38.4444 0.0156317L7.86906 0.0156317C6.2342 -0.0959045 4.61497 0.392363 3.31395 1.3884C2.23915 2.30332 1.6409 3.65893 1.6916 5.06991C1.6916 7.19146 2.37799 8.43944 3.81316 8.93863C5.84112 9.51187 7.94705 9.7646 10.053 9.68742L30.0206 9.68742C29.1883 10.852 28.1072 12.2247 26.7758 13.8057L21.5968 19.6712L14.8577 27.159L6.80826 36.082C4.00033 39.2019 2.19077 41.3234 1.31718 42.3219C0.503659 43.3085 0.0419096 44.5377 0.00681736 45.8162C-0.0766299 47.5368 0.609761 49.2059 1.87877 50.3713C3.52452 51.6114 5.56498 52.2097 7.61943 52.0561L44.0602 52.0561C45.8035 52.1925 47.5365 51.6817 48.9272 50.6208C49.9872 49.6951 50.5816 48.3464 50.5496 46.9394C50.435 45.6922 49.8563 44.5339 48.9273 43.6946L48.9273 43.6946L48.9273 43.6946Z" transform="translate(46.005085 0)" id="Shape#2" fill="#CEF5F1" fill-rule="evenodd" stroke="none" />
              </g>
            </g>
          </g>
        </g>
      </g>
    </g>
  </g>
</svg>