<?xml version="1.0" encoding="utf-8"?>
<svg width="384px" height="384px" viewBox="0 0 384 384" version="1.1" xmlns:xlink="http://www.w3.org/1999/xlink" xmlns="http://www.w3.org/2000/svg">
  <defs>
    <path d="M0 0L383.186 0L383.186 383.186L0 383.186L0 0Z" id="path_1" />
    <clipPath id="mask_1">
      <use xlink:href="#path_1" />
    </clipPath>
  </defs>
  <g id="icon">
    <path d="M0 0L383.186 0L383.186 383.186L0 383.186L0 0Z" id="Background" fill="none" fill-rule="evenodd" stroke="none" />
    <g clip-path="url(#mask_1)">
      <g id="moon" transform="translate(40.13646 37.894577)">
        <path d="M300.181 217.961C298.456 217.032 296.417 216.879 294.572 217.539L294.641 217.543C218.182 244.575 134.287 204.507 107.255 128.048C93.5442 89.2677 96.728 46.5135 116.032 10.1916C117.843 6.83036 116.585 2.63763 113.224 0.826839C111.499 -0.102963 109.459 -0.255706 107.614 0.404784C23.8132 29.8046 -20.2888 121.572 9.11021 205.373C38.5092 289.174 130.276 333.276 214.078 303.877C252.299 290.469 284.052 263.131 302.99 227.326C304.8 223.965 303.543 219.772 300.181 217.961L300.181 217.961Z" transform="translate(0.23175049 0)" id="shape" fill="#CAEDE7" fill-rule="evenodd" stroke="none" />
        <path d="M32.8905 0C32.8905 0 12.6394 27.6003 14.2148 65.6503C15.7903 103.7 44.17 159.491 44.17 159.491C44.17 159.491 69.6261 193.85 88.2421 209.181C106.858 224.511 129.253 234.897 149.165 241.587C169.078 248.275 216.138 248.5 216.138 248.5C216.138 248.5 89.1141 300.921 14.2148 166.467C-26.3854 69.0943 32.8905 0 32.8905 0Z" transform="translate(0 54.728645)" id="shadow" fill="#95BFB9" fill-rule="evenodd" stroke="none" />
        <g id="craters" transform="translate(6.719681 25.434624)">
          <path d="M0.00783249 5.3232C0.170192 2.22525 2.81318 -0.154514 5.91113 0.00783249C9.00908 0.170205 11.3888 2.81318 11.2265 5.91113C11.0641 9.00908 8.42113 11.3889 5.32318 11.2265C2.22523 11.0642 -0.154527 8.42114 0.00783249 5.3232Z" transform="translate(33.317276 188.85683)" id="Ellipse-16" fill="#78A8A0" fill-rule="evenodd" stroke="none" />
          <path d="M0.00543263 3.6853C0.11783 1.54057 1.9476 -0.106965 4.09233 0.00543263C6.23706 0.11783 7.8846 1.94763 7.7722 4.09236C7.6598 6.23709 5.83001 7.8846 3.68528 7.7722C1.54055 7.6598 -0.106965 5.83003 0.00543263 3.6853Z" transform="translate(177.8923 242.97581)" id="Ellipse-11" fill="#B1CFCB" fill-rule="evenodd" stroke="none" />
          <path d="M0.00541945 3.6853C0.11783 1.54057 1.9476 -0.106965 4.09233 0.00543263C6.23706 0.11783 7.8846 1.94763 7.77219 4.09236C7.65979 6.23709 5.83002 7.8846 3.68529 7.7722C1.54056 7.6598 -0.106978 5.83003 0.00541945 3.6853Z" transform="translate(11.896912 171.97917)" id="Ellipse-12" fill="#78A8A0" fill-rule="evenodd" stroke="none" />
          <path d="M0.0144519 9.21602C0.294602 3.87044 4.57858 -0.250402 9.58294 0.0118674C14.5873 0.274137 18.4171 4.8202 18.1369 10.1658C17.8568 15.5114 13.5728 19.6322 8.56843 19.3699C3.56407 19.1077 -0.265698 14.5616 0.0144519 9.21602Z" transform="translate(232.30557 222.74266)" id="Ellipse-4" fill="#B1CFCB" fill-rule="evenodd" stroke="none" />
          <path d="M0.0343891 21.9429C0.701417 9.21528 10.9013 -0.596245 22.8165 0.0282181C34.7317 0.652655 43.8501 11.4766 43.1831 24.2042C42.5161 36.9318 32.3162 46.7433 20.401 46.1189C8.48581 45.4944 -0.632639 34.6705 0.0343891 21.9429Z" transform="translate(81.23346 220.3834)" id="Ellipse-2" fill="#A7D4CC" fill-rule="evenodd" stroke="none" />
          <path d="M0.0257523 16.4338C0.525317 6.90168 8.16438 -0.446531 17.0881 0.0211372C26.0118 0.488806 32.8409 8.59526 32.3414 18.1274C31.8418 27.6596 24.2027 35.0078 15.279 34.5401C6.35531 34.0724 -0.4738 25.966 0.0257523 16.4338Z" transform="translate(0 115.63231)" id="Ellipse" fill="#AED9D2" fill-rule="evenodd" stroke="none" />
          <path d="M0.0153206 9.77686C0.312523 4.10596 4.85717 -0.265651 10.1661 0.012575C15.475 0.290801 19.5378 5.11351 19.2406 10.7844C18.9434 16.4553 14.3988 20.8269 9.08983 20.5487C3.78092 20.2705 -0.281874 15.4477 0.0153206 9.77686Z" transform="translate(93.22983 150.39552)" id="Ellipse-17" fill="#AED9D2" fill-rule="evenodd" stroke="none" />
          <path d="M0.0144387 9.21601C0.294589 3.87042 4.57854 -0.250416 9.58292 0.0118542C14.5873 0.274117 18.417 4.82018 18.1369 10.1658C17.8567 15.5113 13.5728 19.6322 8.5684 19.3699C3.56402 19.1077 -0.265711 14.5616 0.0144387 9.21601Z" transform="translate(60.525696 0)" id="Ellipse-7" fill="#B1CFCB" fill-rule="evenodd" stroke="none" />
        </g>
      </g>
      <g id="zs" transform="translate(181.61673 32.93902)">
        <path d="M48.6891 42.9236C47.3426 41.8479 45.6408 41.3178 43.922 41.4378L17.7335 41.4378L42.1885 14.1349L44.4792 11.5966L45.9651 9.80115C46.3729 9.22692 46.7057 8.60239 46.9556 7.94381C47.2366 7.23415 47.3828 6.47806 47.389 5.71501C47.5616 3.90952 46.667 2.16827 45.0983 1.2574C43.063 0.326408 40.8326 -0.0984544 38.5976 0.0191772L7.88967 0.0191772C6.2676 -0.0914873 4.66101 0.392967 3.37016 1.38123C2.30373 2.289 1.71016 3.63402 1.76047 5.03399C1.76047 7.13897 2.44149 8.37719 3.86545 8.87248C5.87757 9.44206 7.96707 9.6928 10.0566 9.61541L29.8682 9.61541C29.0424 10.7708 27.9489 12.1329 26.5869 13.7016L21.4482 19.5212L14.7618 26.9505L6.77527 35.8039C3.98926 38.8994 2.19384 41.0044 1.32709 41.995C-0.638587 44.3824 -0.394042 47.8905 1.88429 49.9815C3.52339 51.3072 5.59973 51.9704 7.70395 51.8388L43.8601 51.8388C45.5897 51.9743 47.3093 51.4674 48.6892 50.4149C49.7409 49.4963 50.3306 48.1582 50.2989 46.7621C50.3522 45.308 49.7633 43.9042 48.6891 42.9236L48.6891 42.9236Z" transform="translate(0 86.44699)" id="Shape" fill="#B6E9E3" fill-rule="evenodd" stroke="none" />
        <path d="M33.7264 30.1094C32.7757 29.3489 31.5718 28.9802 30.3584 29.0773L12.1057 29.0773L29.2176 9.95548L30.8473 8.16281L31.8794 6.91338C32.1694 6.51071 32.407 6.07272 32.5856 5.60962C32.7887 5.10849 32.8993 4.57476 32.9116 4.03425C33.048 2.76648 32.4322 1.53538 31.3362 0.883496C29.9082 0.22754 28.3423 -0.0712342 26.773 0.0143246L5.4783 0.0143246C4.34498 -0.0488278 3.22592 0.298163 2.32755 0.992145C1.57653 1.62365 1.1562 2.56481 1.18677 3.54534C1.18677 5.01207 1.67568 5.88124 2.6535 6.26151C4.06386 6.67436 5.53128 6.85838 6.99936 6.80474L20.6888 6.80474C20.0913 7.61959 19.3307 8.54308 18.4073 9.68388L14.8219 13.7581L10.1501 19.1905L4.71779 25.3833C2.76215 27.5562 1.47673 29.0413 0.860841 29.8378C-0.419147 31.4797 -0.254827 33.8224 1.2411 35.2701C2.36627 36.0544 3.73115 36.4198 5.09805 36.3023L30.4127 36.3023C31.6173 36.3987 32.8151 36.051 33.7807 35.3245C34.4992 34.6733 34.8957 33.7403 34.8672 32.7713C34.8923 31.7608 34.4761 30.7891 33.7264 30.1094L33.7264 30.1094Z" transform="translate(83.34827 165.57095)" id="Shape" fill="#9ECFC9" fill-rule="evenodd" stroke="none" />
        <path d="M54.2076 48.4102C52.7039 47.209 50.8036 46.6171 48.8843 46.751L19.7103 46.751L47.0177 16.2635L49.5065 13.1525L51.1657 11.1477C51.6194 10.5047 51.991 9.80823 52.2718 9.0737C52.5855 8.28126 52.7489 7.43698 52.7558 6.58492C52.9485 4.56884 51.9495 2.62448 50.1979 1.60737C47.8387 0.442483 45.2221 -0.104529 42.5933 0.0173165L8.71827 0.0173165C6.90699 -0.106259 5.11301 0.434703 3.67159 1.53823C2.48079 2.55189 1.81798 4.0538 1.87415 5.61706C1.87415 7.96757 2.63462 9.35023 4.22467 9.90329C6.47148 10.5384 8.80469 10.8184 11.1379 10.7329L33.2604 10.7329C32.3383 12.0231 31.1406 13.544 29.6655 15.2956L23.9275 21.7941L16.4611 30.09L7.543 39.976C4.43203 43.4326 2.42718 45.7831 1.45932 46.8893C0.558006 47.9824 0.0464148 49.3443 0.0075424 50.7607C-0.0849179 52.667 0.675546 54.5163 2.08152 55.8074C3.90488 57.1814 6.16554 57.8442 8.44171 57.674L48.8152 57.674C50.7466 57.8252 52.6667 57.2592 54.2075 56.0839C55.3819 55.0582 56.0404 53.564 56.005 52.0051C55.878 50.6233 55.2368 49.34 54.2076 48.4102L54.2076 48.4102Z" transform="translate(50.97003 0)" id="Shape" fill="#CEF5F1" fill-rule="evenodd" stroke="none" />
      </g>
    </g>
  </g>
</svg>