<?xml version="1.0" encoding="utf-8"?>
<svg width="384px" height="384px" viewBox="0 0 384 384" version="1.1" xmlns:xlink="http://www.w3.org/1999/xlink" xmlns="http://www.w3.org/2000/svg">
  <defs>
    <path d="M0 0L383.186 0L383.186 383.186L0 383.186L0 0Z" id="path_1" />
    <clipPath id="mask_1">
      <use xlink:href="#path_1" />
    </clipPath>
  </defs>
  <g id="icon">
    <path d="M0 0L383.186 0L383.186 383.186L0 383.186L0 0Z" id="Background" fill="none" fill-rule="evenodd" stroke="none" />
    <g clip-path="url(#mask_1)">
      <g id="moon" transform="matrix(0.9986295 0.052335918 -0.052335918 0.9986295 9.4104 3.0880623)">
        <path d="M351.132 240.368C349.082 239.398 346.716 239.345 344.624 240.22L344.704 240.22C257.985 276.089 158.608 234.867 122.739 148.148C104.546 104.163 105.636 54.5629 125.744 11.4199C127.633 7.42593 125.926 2.65693 121.932 0.767927C119.882 -0.202073 117.516 -0.255073 115.424 0.619927C20.363 39.6699 -25.044 148.388 14.005 243.449C53.054 338.51 161.772 383.917 256.834 344.868C300.19 327.058 335.228 293.543 354.945 251.02C356.833 247.026 355.126 242.257 351.132 240.368L351.132 240.368Z" transform="matrix(1 -6.0072103E-10 6.0072103E-10 1 0.22836304 0)" id="shape" fill="#CAEDE7" fill-rule="evenodd" stroke="none" />
        <path d="M32.3228 0C32.3228 0 10.5919 33.1216 14.717 76.9971C18.842 120.873 55.0168 183.627 55.0168 183.627C55.0168 183.627 86.5149 221.79 108.956 238.379C131.398 254.967 157.906 265.614 181.322 272.138C204.738 278.662 259.135 276.071 259.135 276.071C259.135 276.071 115.52 344.343 20.8227 193.502C-31.9924 83.4359 32.3228 0 32.3228 0Z" transform="matrix(1 -6.0072103E-10 6.0072103E-10 1 0 67.936646)" id="shadow" fill="#95BFB9" fill-rule="evenodd" stroke="none" />
        <path d="M0 2.5C0 1.11929 1.11929 0 2.5 0C3.88071 0 5 1.11929 5 2.5C5 3.88071 3.88071 5 2.5 5C1.11929 5 0 3.88071 0 2.5Z" transform="matrix(1 -6.0072103E-10 6.0072103E-10 1 170.79594 351.04745)" id="Ellipse-12" fill="#78A8A0" fill-rule="evenodd" stroke="none" />
        <g id="craters" transform="matrix(1 -6.0072103E-10 6.0072103E-10 1 2.824524 31.436878)">
          <path d="M0 6.5C0 2.91015 2.91015 0 6.5 0C10.0899 0 13 2.91015 13 6.5C13 10.0899 10.0899 13 6.5 13C2.91015 13 0 10.0899 0 6.5Z" transform="matrix(1 -6.0072103E-10 6.0072103E-10 1 38.09572 197.27046)" id="Ellipse-16" fill="#78A8A0" fill-rule="evenodd" stroke="none" />
          <path d="M0 4.5C0 2.01472 2.01472 0 4.5 0C6.98528 0 9 2.01472 9 4.5C9 6.98528 6.98528 9 4.5 9C2.01472 9 0 6.98528 0 4.5Z" transform="matrix(1 -6.0072103E-10 6.0072103E-10 1 0 109.199875)" id="Ellipse-15" fill="#78A8A0" fill-rule="evenodd" stroke="none" />
          <path d="M0 4.5C0 2.01472 2.01472 0 4.5 0C6.98528 0 9 2.01472 9 4.5C9 6.98528 6.98528 9 4.5 9C2.01472 9 0 6.98528 0 4.5Z" transform="matrix(1 -6.0072103E-10 6.0072103E-10 1 17.999771 211.99986)" id="Ellipse-14" fill="#78A8A0" fill-rule="evenodd" stroke="none" />
          <path d="M0 4.5C0 2.01472 2.01472 0 4.5 0C6.98528 0 9 2.01472 9 4.5C9 6.98528 6.98528 9 4.5 9C2.01472 9 0 6.98528 0 4.5Z" transform="matrix(1 -6.0072103E-10 6.0072103E-10 1 67.82384 97.15645)" id="Ellipse-13" fill="#B1CFCB" fill-rule="evenodd" stroke="none" />
          <path d="M0 4.5C0 2.01472 2.01472 0 4.5 0C6.98528 0 9 2.01472 9 4.5C9 6.98528 6.98528 9 4.5 9C2.01472 9 0 6.98528 0 4.5Z" transform="matrix(1 -6.0072103E-10 6.0072103E-10 1 217.99974 274.00214)" id="Ellipse-11" fill="#B1CFCB" fill-rule="evenodd" stroke="none" />
          <path d="M0 11.2159C0 5.02153 4.70101 0 10.5 0C16.299 0 21 5.02153 21 11.2159C21 17.4103 16.299 22.4318 10.5 22.4318C4.70101 22.4318 0 17.4103 0 11.2159Z" transform="matrix(1 -6.0072103E-10 6.0072103E-10 1 86.28853 183.19847)" id="Ellipse-8" fill="#BCE3DE" fill-rule="evenodd" stroke="none" />
          <path d="M0 4.5C0 2.01472 2.01472 0 4.5 0C6.98528 0 9 2.01472 9 4.5C9 6.98528 6.98528 9 4.5 9C2.01472 9 0 6.98528 0 4.5Z" transform="matrix(1 -6.0072103E-10 6.0072103E-10 1 43.999435 50.999893)" id="Ellipse-6" fill="#BDE1DC" fill-rule="evenodd" stroke="none" />
          <path d="M0 4.5C0 2.01472 2.01472 0 4.5 0C6.98528 0 9 2.01472 9 4.5C9 6.98528 6.98528 9 4.5 9C2.01472 9 0 6.98528 0 4.5Z" transform="matrix(1 -6.0072103E-10 6.0072103E-10 1 40.157547 241.32683)" id="Ellipse-12" fill="#78A8A0" fill-rule="evenodd" stroke="none" />
          <path d="M0 7.5C0 3.35786 3.35786 0 7.5 0C11.6421 0 15 3.35786 15 7.5C15 11.6421 11.6421 15 7.5 15C3.35786 15 0 11.6421 0 7.5Z" transform="matrix(1 -6.0072103E-10 6.0072103E-10 1 245.99974 239.99983)" id="Ellipse-5" fill="#B1CFCB" fill-rule="evenodd" stroke="none" />
          <path d="M0 11.2159C0 5.02153 4.70101 0 10.5 0C16.299 0 21 5.02153 21 11.2159C21 17.4103 16.299 22.4318 10.5 22.4318C4.70101 22.4318 0 17.4103 0 11.2159Z" transform="matrix(1 -6.0072103E-10 6.0072103E-10 1 280.00024 247.00005)" id="Ellipse-4" fill="#B1CFCB" fill-rule="evenodd" stroke="none" />
          <path d="M0 26.7045C0 11.956 11.1929 0 25 0C38.8071 0 50 11.956 50 26.7045C50 41.4531 38.8071 53.4091 25 53.4091C11.1929 53.4091 0 41.4531 0 26.7045Z" transform="matrix(1 -6.0072103E-10 6.0072103E-10 1 106.070786 252.64049)" id="Ellipse-2" fill="#A7D4CC" fill-rule="evenodd" stroke="none" />
          <path d="M0 20C0 8.9543 8.38275 0 18.7234 0C29.0641 0 37.4468 8.9543 37.4468 20C37.4468 31.0457 29.0641 40 18.7234 40C8.38275 40 0 31.0457 0 20Z" transform="matrix(1 -6.0072103E-10 6.0072103E-10 1 5.5089874 136.8476)" id="Ellipse" fill="#AED9D2" fill-rule="evenodd" stroke="none" />
          <path d="M0 11.2159C0 5.02153 4.70101 0 10.5 0C16.299 0 21 5.02153 21 11.2159C21 17.4103 16.299 22.4318 10.5 22.4318C4.70101 22.4318 0 17.4103 0 11.2159Z" transform="matrix(1 -6.0072103E-10 6.0072103E-10 1 67.99982 0)" id="Ellipse-7" fill="#B1CFCB" fill-rule="evenodd" stroke="none" />
          <path d="M0 11.2159C0 5.02153 4.70101 0 10.5 0C16.299 0 21 5.02153 21 11.2159C21 17.4103 16.299 22.4318 10.5 22.4318C4.70101 22.4318 0 17.4103 0 11.2159Z" transform="matrix(1 -6.0072103E-10 6.0072103E-10 1 171.79576 211.82607)" id="Ellipse-9" fill="#B1CFCB" fill-rule="evenodd" stroke="none" />
        </g>
      </g>
      <g id="zs" transform="translate(163.793 3.556961)">
        <path d="M56.3429 49.671C54.7846 48.4262 52.8153 47.8128 50.8263 47.9516L20.5212 47.9516L48.8203 16.3569L51.4711 13.4195L53.1906 11.3418C53.6625 10.6774 54.0476 9.95464 54.3368 9.19254C54.6619 8.37133 54.8312 7.49639 54.8384 6.61338C55.0381 4.52408 54.0028 2.50911 52.1875 1.45506C49.8323 0.377718 47.2513 -0.113931 44.665 0.0221918L9.12989 0.0221918C7.25284 -0.105869 5.39369 0.45474 3.89993 1.59835C2.66587 2.64882 1.97899 4.20527 2.0372 5.82531C2.0372 8.26118 2.82528 9.69405 4.47308 10.2672C6.80149 10.9263 9.21945 11.2165 11.6374 11.1269L34.5633 11.1269C33.6077 12.464 32.3424 14.0401 30.7662 15.8554L24.8198 22.5898L17.0823 31.187L7.84031 41.4321C4.61635 45.0142 2.5387 47.4501 1.5357 48.5964C-0.73897 51.3591 -0.455984 55.4186 2.18049 57.8384C4.07725 59.3724 6.47998 60.1399 8.91497 59.9877L50.7547 59.9877C52.7562 60.1444 54.7461 59.5578 56.3429 58.3399C57.5599 57.2769 58.2423 55.7285 58.2056 54.1129C58.2674 52.4302 57.5859 50.8057 56.3429 49.671L56.3429 49.671Z" transform="translate(0 100.03605)" id="Shape" fill="#6CB9AF" fill-rule="evenodd" stroke="none" />
        <path d="M39.028 34.8425C37.9279 33.9624 36.5347 33.5357 35.1306 33.6481L14.0087 33.6481L33.8104 11.5204L35.6963 9.44597L36.8907 8.00013C37.2262 7.53416 37.5013 7.02733 37.7079 6.49143C37.9429 5.91152 38.071 5.29389 38.0851 4.66841C38.243 3.20136 37.5304 1.77673 36.2621 1.02238C34.6096 0.263309 32.7976 -0.0824319 30.9816 0.0165763L6.33947 0.0165763C5.02799 -0.0565033 3.73302 0.345033 2.69343 1.14811C1.82435 1.87888 1.33795 2.96798 1.37332 4.10265C1.37332 5.79995 1.93909 6.80575 3.07062 7.24578C4.70268 7.72354 6.40077 7.93649 8.09962 7.87441L23.941 7.87441C23.2495 8.81735 22.3694 9.88602 21.3008 11.2061L17.1519 15.9208L11.7457 22.2071L5.4594 29.3734C3.19634 31.8879 1.70886 33.6064 0.996161 34.5282C-0.485035 36.4282 -0.294884 39.1391 1.4362 40.8144C2.73824 41.722 4.31767 42.1448 5.89944 42.0088L35.1934 42.0088C36.5874 42.1204 37.9735 41.7181 39.0909 40.8773C39.9223 40.1237 40.3812 39.0441 40.3482 37.9228C40.3772 36.7535 39.8955 35.629 39.028 34.8425L39.028 34.8425Z" transform="translate(96.450226 191.59793)" id="Shape" fill="#76BBB2" fill-rule="evenodd" stroke="none" />
        <path d="M62.7287 56.02C60.9887 54.63 58.7897 53.945 56.5687 54.1L22.8087 54.1L54.4087 18.82L57.2887 15.22L59.2087 12.9C59.7337 12.156 60.1637 11.35 60.4887 10.5C60.8517 9.58304 61.0407 8.60604 61.0487 7.62004C61.2717 5.28704 60.1157 3.03704 58.0887 1.86004C55.3587 0.512039 52.3308 -0.12096 49.2888 0.0200386L10.0887 0.0200386C7.99274 -0.122963 5.91675 0.503036 4.24875 1.78004C2.87076 2.95303 2.10376 4.69104 2.16876 6.50004C2.16876 9.22004 3.04877 10.82 4.88876 11.46C7.48877 12.195 10.1888 12.519 12.8888 12.42L38.4888 12.42C37.4218 13.913 36.0358 15.673 34.3288 17.7L27.6888 25.22L19.0487 34.82L8.72873 46.26C5.12872 50.26 2.80872 52.98 1.68872 54.26C0.645721 55.525 0.0537109 57.101 0.00872803 58.74C-0.0982666 60.946 0.781738 63.086 2.40872 64.58C4.51871 66.17 7.13474 66.937 9.76871 66.74L56.4887 66.74C58.7237 66.915 60.9457 66.26 62.7287 64.9C64.0877 63.7131 64.8497 61.984 64.8087 60.18C64.6617 58.581 63.9197 57.096 62.7287 56.02L62.7287 56.02Z" transform="translate(58.9823 0)" id="Shape" fill="#7CB9B2" fill-rule="evenodd" stroke="none" />
      </g>
    </g>
  </g>
</svg>