<?xml version="1.0" encoding="utf-8"?>
<svg width="512px" height="512px" viewBox="0 0 512 512" version="1.1" xmlns:xlink="http://www.w3.org/1999/xlink" xmlns="http://www.w3.org/2000/svg">
  <defs>
    <path d="M0 0L512 0L512 512L0 512L0 0Z" id="path_1" />
    <clipPath id="mask_1">
      <use xlink:href="#path_1" />
    </clipPath>
  </defs>
  <g id="rapid">
    <path d="M0 0L512 0L512 512L0 512L0 0Z" id="Background" fill="none" fill-rule="evenodd" stroke="none" />
    <g clip-path="url(#mask_1)">
      <g id="icon" transform="translate(83.01509 65)">
        <g id="start" transform="translate(138.51164 0)">
          <path d="M0 32.0703L70 32.0704L70 0L0 0L0 32.0703Z" id="button" fill="#B1AFAF" fill-rule="evenodd" stroke="none" />
        </g>
        <g id="stop" transform="translate(276.3781 34.56465)">
          <path d="M11.6667 11.851L0 23.5198L9.11458 33.1829C14.0365 38.4703 24.0625 48.8628 31.3542 56.3381L44.8438 69.83L57.4219 57.2497L70 44.6693L47.7604 22.4258C35.3646 10.0278 24.974 0 24.4271 0C23.8802 0 18.2292 5.28738 11.6667 11.851L11.6667 11.851Z" id="button" fill="#E58F29" fill-rule="evenodd" stroke="none" />
        </g>
        <g id="time" transform="translate(0 40.581394)">
          <path d="M0 173.209C0 77.5484 77.5484 0 173.209 0C268.87 0 346.419 77.5484 346.419 173.209C346.419 268.87 268.87 346.419 173.209 346.419C77.5484 346.419 0 268.87 0 173.209Z" id="circle" fill="#4E82BC" fill-rule="evenodd" stroke="none" />
          <path d="M0 138.709C0 62.1023 62.1023 0 138.709 0C215.316 0 277.419 62.1023 277.419 138.709C277.419 215.316 215.316 277.419 138.709 277.419C62.1023 277.419 0 215.316 0 138.709Z" transform="translate(35 34)" id="empty" fill="#FFFFFF" fill-rule="evenodd" stroke="none" />
          <path d="M31.2558 96.1833L109.395 96.1833L109.395 127.628L0 127.628L0 0L31.2558 0L31.2558 96.1833Z" transform="translate(155.7116 74.63721)" id="hand" fill="#9A7800" fill-rule="evenodd" stroke="none" />
        </g>
      </g>
    </g>
  </g>
</svg>