<?xml version="1.0" encoding="utf-8"?>
<svg width="100px" height="100px" viewBox="0 0 100 100" version="1.1" xmlns:xlink="http://www.w3.org/1999/xlink" xmlns="http://www.w3.org/2000/svg">
  <defs>
    <linearGradient x1="0.23404622" y1="0.18893754" x2="1.08255" y2="0.88310766" id="gradient_1">
      <stop offset="0" stop-color="#000000" stop-opacity="0.101960786" />
      <stop offset="1" stop-color="#000000" stop-opacity="0" />
    </linearGradient>
    <linearGradient x1="0.20748901" y1="-0.20748901" x2="1.2074885" y2="0.7925105" id="gradient_2">
      <stop offset="0" stop-color="#000000" stop-opacity="0.101960786" />
      <stop offset="1" stop-color="#000000" stop-opacity="0" />
    </linearGradient>
    <linearGradient x1="0.100097656" y1="-0.025390625" x2="1.1748047" y2="1.0244141" id="gradient_3">
      <stop offset="0" stop-color="#000000" stop-opacity="0.101960786" />
      <stop offset="1" stop-color="#000000" stop-opacity="0" />
    </linearGradient>
    <path d="M0 0L100 0L100 100L0 100L0 0Z" id="path_1" />
    <clipPath id="mask_1">
      <use xlink:href="#path_1" />
    </clipPath>
  </defs>
  <g id="add_music">
    <path d="M0 0L100 0L100 100L0 100L0 0Z" id="Background" fill="none" fill-rule="evenodd" stroke="none" />
    <g clip-path="url(#mask_1)">
      <g id="Group" transform="translate(16.666656 4.1666718)">
        <path d="M0 0L9.55417 9.55417L4.16667 9.55417C1.87084 9.55417 0 7.68333 0 5.3875L0 0L0 0Z" transform="translate(37.5 2.9458313)" id="Shape" fill="#E6E6E6" fill-rule="evenodd" stroke="none" />
        <path d="M4.16667 70.8333L45.8333 70.8333C48.1292 70.8333 50 68.9625 50 66.6667L50 16.6667L41.6667 16.6667C37.0708 16.6667 33.3333 12.9292 33.3333 8.33333L33.3333 0L4.16667 0C1.87083 0 0 1.87083 0 4.16667L0 66.6667C0 68.9625 1.87083 70.8333 4.16667 70.8333ZM37.5 41.8958L37.5 25.4583L20.8333 28.7916L20.8333 50C20.8333 52.4166 18.2042 54.1666 14.5833 54.1666C10.9625 54.1666 8.33334 52.4166 8.33334 50C8.33334 47.5833 10.9625 45.8333 14.5833 45.8333C15.3292 45.8333 16.0208 45.925 16.6667 46.0625L16.6667 27.0833C16.6667 26.0916 17.3667 25.2375 18.3417 25.0375L39.175 20.8708C39.7917 20.7583 40.425 20.9083 40.9042 21.3041C41.3875 21.7 41.6667 22.2916 41.6667 22.9166L41.6667 45.8333C41.6667 48.25 39.0375 50 35.4167 50C31.7958 50 29.1667 48.25 29.1667 45.8333C29.1667 43.4166 31.7958 41.6666 35.4167 41.6666C36.1625 41.6666 36.8542 41.7583 37.5 41.8958Z" id="Shape-Difference" fill="#FFFFFF" fill-rule="evenodd" stroke="none" />
        <path d="M31.425 0C31.9083 0.395834 32.1875 0.9875 32.1875 1.6125L32.1875 24.5292C32.1875 26.9458 29.5583 28.6958 25.9375 28.6958C22.3167 28.6958 19.6875 26.9458 19.6875 24.5292C19.6875 22.1125 22.3167 20.3625 25.9375 20.3625C26.6833 20.3625 27.375 20.4542 28.0208 20.5917L28.0208 4.15417L11.3542 7.4875L11.3542 28.6958C11.3542 31.1125 8.725 32.8625 5.10417 32.8625C2.92083 32.8625 1.1125 32.2167 0.00833273 31.1833L0 31.1875L18.3417 49.5292L36.3542 49.5292C38.65 49.5292 40.5208 47.6583 40.5208 45.3625L40.5208 9.09583L31.425 0L31.425 0Z" transform="translate(9.4791565 21.3042)" id="Shape" fill="url(#gradient_1)" fill-rule="evenodd" stroke="none" />
        <path d="M0 0L14.1875 14.1875L14.1875 2.4125L5.85417 2.4125C3.57083 2.4125 1.50417 1.4875 0 0L0 0Z" transform="translate(35.8125 14.254181)" id="Shape" fill="url(#gradient_2)" fill-rule="evenodd" stroke="none" />
        <path d="M0.0166702 0.0166674L0.00416855 0L0 0L0.0166702 0.0166674Z" transform="translate(35.729218 14.170837)" id="Polygon" fill="url(#gradient_3)" fill-rule="evenodd" stroke="none" />
        <path d="M0 18.75C0 8.39466 8.39466 0 18.75 0C29.1053 0 37.5 8.39466 37.5 18.75C37.5 29.1053 29.1053 37.5 18.75 37.5C8.39466 37.5 0 29.1053 0 18.75Z" transform="translate(29.166656 54.16667)" id="Circle" fill="#64972B" fill-rule="evenodd" stroke="none" />
        <path d="M2.08333 20.8333C2.08333 10.4958 10.4958 2.08333 20.8333 2.08333C25.4708 2.08333 29.6667 3.8375 32.9458 6.6375C29.5042 2.6125 24.45 0 18.75 0C8.4125 0 0 8.4125 0 18.75C0 24.45 2.6125 29.5042 6.6375 32.9458C3.8375 29.6667 2.08333 25.4708 2.08333 20.8333L2.08333 20.8333Z" transform="translate(29.166656 54.16667)" id="Shape" fill="#FFFFFF" fill-opacity="0.2" fill-rule="evenodd" stroke="none" />
        <path d="M18.75 8.33333L12.5 8.33333L12.5 2.08333C12.5 0.933337 11.5667 0 10.4167 0C9.26667 0 8.33333 0.933337 8.33333 2.08333L8.33333 8.33333L2.08333 8.33333C0.933333 8.33333 0 9.26667 0 10.4167C0 11.5667 0.933333 12.5 2.08333 12.5L8.33333 12.5L8.33333 18.75C8.33333 19.9 9.26667 20.8333 10.4167 20.8333C11.5667 20.8333 12.5 19.9 12.5 18.75L12.5 12.5L18.75 12.5C19.9 12.5 20.8333 11.5667 20.8333 10.4167C20.8333 9.26667 19.9 8.33333 18.75 8.33333L18.75 8.33333Z" transform="translate(37.5 62.5)" id="Shape" fill="#F3F4F6" fill-rule="evenodd" stroke="none" />
      </g>
    </g>
  </g>
</svg>