<?xml version="1.0" ?><svg id="Layer_1" style="enable-background:new 0 0 24 24;" version="1.1" viewBox="0 0 24 24" xml:space="preserve" xmlns="http://www.w3.org/2000/svg" xmlns:xlink="http://www.w3.org/1999/xlink"><g><path d="M16.854,4.146l-4-4C12.76,0.053,12.633,0,12.5,0H5C3.897,0,3,0.897,3,2v15c0,1.103,0.897,2,2,2h10   c1.103,0,2-0.897,2-2V4.5C17,4.367,16.947,4.24,16.854,4.146z" style="fill:#303C42;"/><path d="M13,1.707L15.293,4H14c-0.551,0-1-0.449-1-1V1.707z" style="fill:#E6E6E6;"/><path d="M15,18H5c-0.551,0-1-0.449-1-1V2c0-0.551,0.449-1,1-1h7v2c0,1.103,0.897,2,2,2h2v12   C16,17.551,15.551,18,15,18z" style="fill:#FFFFFF;"/><linearGradient gradientTransform="matrix(1 0 0 -1 0 24)" gradientUnits="userSpaceOnUse" id="SVGID_1_" x1="8.5511" x2="16.8028" y1="15.6411" y2="7.3895"><stop offset="0" style="stop-color:#000000;stop-opacity:0.1"/><stop offset="1" style="stop-color:#000000;stop-opacity:0"/></linearGradient><path d="M13.817,6.113C13.933,6.208,14,6.35,14,6.5V12c0,0.58-0.631,1-1.5,1S11,12.58,11,12   s0.631-1,1.5-1c0.179,0,0.345,0.022,0.5,0.055V7.11l-4,0.8V13c0,0.58-0.631,1-1.5,1c-0.524,0-0.958-0.155-1.223-0.403l-0.002,0.001   L10.677,18H15c0.551,0,1-0.449,1-1V8.296L13.817,6.113z" style="fill:url(#SVGID_1_);"/><linearGradient gradientTransform="matrix(1 0 0 -1 0 24)" gradientUnits="userSpaceOnUse" id="SVGID_2_" x1="13.3015" x2="16.7065" y1="20.2855" y2="16.8805"><stop offset="0" style="stop-color:#000000;stop-opacity:0.1"/><stop offset="1" style="stop-color:#000000;stop-opacity:0"/></linearGradient><path d="M12.595,4.421L16,7.826V5h-2C13.452,5,12.956,4.778,12.595,4.421z" style="fill:url(#SVGID_2_);"/><path d="M13,7.11v3.945C12.845,11.022,12.679,11,12.5,11c-0.869,0-1.5,0.42-1.5,1s0.631,1,1.5,1   s1.5-0.42,1.5-1V6.5c0-0.15-0.067-0.292-0.183-0.387c-0.115-0.095-0.267-0.131-0.415-0.104l-5,1C8.168,7.057,8,7.262,8,7.5v4.555   C7.845,12.022,7.679,12,7.5,12C6.631,12,6,12.42,6,13s0.631,1,1.5,1S9,13.58,9,13V7.91L13,7.11z" style="fill:#303C42;"/><linearGradient gradientTransform="matrix(1 0 0 -1 0 24)" gradientUnits="userSpaceOnUse" id="SVGID_3_" x1="12.5754" x2="12.5797" y1="19.5991" y2="19.5949"><stop offset="0" style="stop-color:#000000;stop-opacity:0.1"/><stop offset="1" style="stop-color:#000000;stop-opacity:0"/></linearGradient><polygon points="12.579,4.405 12.576,4.401 12.575,4.401  " style="fill:url(#SVGID_3_);"/><circle cx="15.5" cy="18.5" r="5.5" style="fill:#303C42;"/><circle cx="15.5" cy="18.5" r="4.5" style="fill:#7CB342;"/><path d="M11.5,19c0-2.481,2.019-4.5,4.5-4.5   c1.113,0,2.12,0.421,2.907,1.093C18.081,14.627,16.868,14,15.5,14c-2.481,0-4.5,2.019-4.5,4.5c0,1.368,0.627,2.581,1.593,3.407   C11.921,21.12,11.5,20.113,11.5,19z" style="opacity:0.2;fill:#FFFFFF;enable-background:new    ;"/><path d="M17.5,18H16v-1.5c0-0.276-0.224-0.5-0.5-0.5S15,16.224,15,16.5V18h-1.5c-0.276,0-0.5,0.224-0.5,0.5   s0.224,0.5,0.5,0.5H15v1.5c0,0.276,0.224,0.5,0.5,0.5s0.5-0.224,0.5-0.5V19h1.5c0.276,0,0.5-0.224,0.5-0.5S17.776,18,17.5,18z" style="fill:#303C42;"/><linearGradient gradientTransform="matrix(1 0 0 -1 0 24)" gradientUnits="userSpaceOnUse" id="SVGID_4_" x1="0.8658" x2="22.6074" y1="17.8665" y2="7.7283"><stop offset="0" style="stop-color:#FFFFFF;stop-opacity:0.2"/><stop offset="1" style="stop-color:#FFFFFF;stop-opacity:0"/></linearGradient><path d="M17,13.213V4.5c0-0.133-0.053-0.26-0.146-0.354l-4-4C12.76,0.053,12.633,0,12.5,0H5   C3.897,0,3,0.897,3,2v15c0,1.103,0.897,2,2,2h5.025c0.254,2.799,2.611,5,5.475,5c3.033,0,5.5-2.467,5.5-5.5   C21,15.988,19.305,13.868,17,13.213z" style="fill:url(#SVGID_4_);"/></g></svg>