<svg xmlns="http://www.w3.org/2000/svg" viewBox="0 0 50 50" width="50" height="50" preserveAspectRatio="xMidYMid meet" style="width: 100%; height: 100%; transform: translate3d(0px, 0px, 0px);"><defs><clipPath id="__lottie_element_24"><rect width="50" height="50" x="0" y="0"></rect></clipPath></defs><g clip-path="url(#__lottie_element_24)"><g transform="matrix(1,0,0,1,0,0)" opacity="1" style="display: block;"><g opacity="1" transform="matrix(1,0,0,1,5.5,25)"><path stroke-linecap="butt" stroke-linejoin="round" fill-opacity="0" stroke="rgb(0,0,0)" stroke-opacity="1" stroke-width="2.08" d=" M4.5,8 C4.5,8 -2.5,8 -2.5,8 C-3.6029999256134033,8 -4.5,7.1020002365112305 -4.5,6 C-4.5,6 -4.5,-6 -4.5,-6 C-4.5,-7.1020002365112305 -3.6029999256134033,-8 -2.5,-8 C-2.5,-8 4.5,-8 4.5,-8"></path></g><g opacity="1" transform="matrix(1,0,0,1,17.5,25.0939998626709)"><path stroke-linecap="butt" stroke-linejoin="round" fill-opacity="0" stroke="rgb(0,0,0)" stroke-opacity="1" stroke-width="1.98" d=" M-7.895999908447266,7.335000038146973 C-8.244000434875488,7.033999919891357 -8.5,6.296999931335449 -8.5,5.659999847412109 C-8.5,5.659999847412109 -8.5,-5.8480000495910645 -8.5,-5.8480000495910645 C-8.5,-6.485000133514404 -8.244000434875488,-7.235000133514404 -7.895999908447266,-7.535999774932861 C-7.895999908447266,-7.535999774932861 4.77400016784668,-20.16900062561035 4.77400016784668,-20.16900062561035 C6.40500020980835,-21.825000762939453 8.5,-21.19700050354004 8.5,-18.76799964904785 C8.5,-18.76799964904785 8.5,-0.19200000166893005 8.5,-0.19200000166893005 C8.5,-0.19200000166893005 8.5,18.22100067138672 8.5,18.22100067138672 C8.5,20.833999633789062 6.604000091552734,21.823999404907227 4.715000152587891,19.9060001373291 C4.715000152587891,19.9060001373291 -7.895999908447266,7.335000038146973 -7.895999908447266,7.335000038146973z"></path></g></g><g style="display: none;"><g><path stroke-linecap="round" stroke-linejoin="miter" fill-opacity="0" stroke-miterlimit="10"></path></g><g><path stroke-linecap="round" stroke-linejoin="miter" fill-opacity="0" stroke-miterlimit="10"></path></g></g><g style="display: none;"><g><path stroke-linecap="round" stroke-linejoin="miter" fill-opacity="0" stroke-miterlimit="10"></path></g><g><path stroke-linecap="round" stroke-linejoin="miter" fill-opacity="0" stroke-miterlimit="10"></path></g></g><g transform="matrix(1,0,0,1,1.75,0)" opacity="1" style="display: block;"><g opacity="1" transform="matrix(1,0,0,1,32.84400177001953,25)"><path stroke-linecap="round" stroke-linejoin="round" fill-opacity="0" stroke="rgb(0,0,0)" stroke-opacity="1" stroke-width="2" d=" M-2.1559998989105225,-5.583000183105469 C0.3230000138282776,-4.935999870300293 2.1559998989105225,-2.680999994277954 2.1559998989105225,-0.0010000000474974513 C2.1559998989105225,2.678999900817871 0.3230000138282776,4.934999942779541 -2.1559998989105225,5.583000183105469"></path></g></g><g style="display: none;"><g><path stroke-linecap="round" stroke-linejoin="round" fill-opacity="0"></path></g></g></g></svg>