<svg xmlns="http://www.w3.org/2000/svg" viewBox="0 0 50 50" width="50" height="50" preserveAspectRatio="xMidYMid meet" style="width: 100%; height: 100%; transform: translate3d(0px, 0px, 0px);"><defs><clipPath id="__lottie_element_3"><rect width="50" height="50" x="0" y="0"></rect></clipPath><filter id="__lottie_element_5" filterUnits="objectBoundingBox" x="0%" y="0%" width="100%" height="100%"><feComponentTransfer in="SourceGraphic"><feFuncA type="table" tableValues="1.0 0.0"></feFuncA></feComponentTransfer></filter><mask id="__lottie_element_4" mask-type="alpha"><g filter="url(#__lottie_element_5)"><rect width="50" height="50" x="0" y="0" fill="#ffffff" opacity="0"></rect><g style="display: none;"><g><path></path><path stroke-linecap="butt" stroke-linejoin="miter" fill-opacity="0" stroke-miterlimit="4"></path></g></g></g></mask><filter id="__lottie_element_15" filterUnits="objectBoundingBox" x="0%" y="0%" width="100%" height="100%"><feComponentTransfer in="SourceGraphic"><feFuncA type="table" tableValues="1.0 0.0"></feFuncA></feComponentTransfer></filter><mask id="__lottie_element_14" mask-type="alpha"><g filter="url(#__lottie_element_15)"><rect width="50" height="50" x="0" y="0" fill="#ffffff" opacity="0"></rect><g transform="matrix(1,0,0,1,25,25)" opacity="1" style="display: block;"><g opacity="1" transform="matrix(1,0,0,1,0,0)"><path fill="rgb(39,179,99)" fill-opacity="1" d=" M-7.375,-12.5 C-7.375,-12.5 -7.375,12.875 -7.375,12.875 C-7.375,12.875 13.75,0 13.75,0 C13.75,0 -7.375,-12.5 -7.375,-12.5z"></path><path stroke-linecap="butt" stroke-linejoin="miter" fill-opacity="0" stroke-miterlimit="4" stroke="rgb(63,80,181)" stroke-opacity="1" stroke-width="0" d=" M-7.375,-12.5 C-7.375,-12.5 -7.375,12.875 -7.375,12.875 C-7.375,12.875 13.75,0 13.75,0 C13.75,0 -7.375,-12.5 -7.375,-12.5z"></path></g></g></g></mask></defs><g clip-path="url(#__lottie_element_3)"><g transform="matrix(1,0,0,1,0,0)" opacity="1" style="display: block;"><g opacity="1" transform="matrix(1,0,0,1,26.304000854492188,25)"><path stroke-linecap="butt" stroke-linejoin="miter" fill-opacity="0" stroke-miterlimit="10" stroke="rgb(0,0,0)" stroke-opacity="1" stroke-width="2" d=" M-15.303999900817871,-18.009000778198242 C-15.303999900817871,-18.009000778198242 15.303999900817871,0 15.303999900817871,0 C15.303999900817871,0 -15.303999900817871,18.009000778198242 -15.303999900817871,18.009000778198242 C-15.303999900817871,18.009000778198242 -15.303999900817871,-18.009000778198242 -15.303999900817871,-18.009000778198242z"></path></g></g><g mask="url(#__lottie_element_14)" style="display: none;"><g><g><path stroke-linecap="butt" stroke-linejoin="miter" fill-opacity="0" stroke-miterlimit="10"></path></g></g></g><g style="display: none;"><g><path stroke-linecap="butt" stroke-linejoin="miter" fill-opacity="0" stroke-miterlimit="10"></path></g></g><g mask="url(#__lottie_element_4)" style="display: none;"><g><g><path stroke-linecap="butt" stroke-linejoin="miter" fill-opacity="0" stroke-miterlimit="10"></path></g></g></g></g></svg>