<?xml version="1.0" standalone="no"?>
<!DOCTYPE svg PUBLIC "-//W3C//DTD SVG 20010904//EN"
 "http://www.w3.org/TR/2001/REC-SVG-20010904/DTD/svg10.dtd">
<svg version="1.0" xmlns="http://www.w3.org/2000/svg"
 width="700.000000pt" height="700.000000pt" viewBox="0 0 700.000000 700.000000"
 preserveAspectRatio="xMidYMid meet">
<metadata>
Created by potrace 1.14, written by Peter Selinger 2001-2017
</metadata>
<g transform="translate(0.000000,700.000000) scale(0.100000,-0.100000)"
fill="#000000" stroke="none">
<path d="M3320 6825 c-10 -12 -11 -44 -4 -143 9 -137 11 -488 3 -537 -7 -40
-48 -60 -194 -91 -64 -13 -138 -34 -163 -45 -57 -26 -196 -117 -237 -155 -17
-16 -60 -54 -95 -86 -80 -69 -158 -144 -370 -351 -148 -145 -256 -246 -375
-349 -22 -19 -111 -87 -198 -152 -209 -155 -307 -249 -349 -334 -29 -59 -33
-76 -34 -161 -3 -161 53 -292 172 -400 181 -165 312 -192 549 -109 33 11 155
67 272 125 l212 104 368 2 c528 3 611 -6 633 -66 29 -86 -7 -229 -92 -358 -77
-118 -132 -180 -390 -444 -97 -99 -187 -192 -200 -206 -13 -14 -41 -46 -63
-70 -34 -37 -125 -145 -168 -199 -139 -175 -262 -393 -322 -572 -50 -150 -68
-267 -68 -443 -1 -155 10 -247 44 -374 16 -58 17 -76 7 -88 -18 -22 -125 -95
-193 -132 -109 -60 -221 -199 -241 -301 l-6 -30 1942 0 1943 0 -7 32 c-20 100
-142 251 -246 303 -60 30 -168 104 -189 129 -19 23 -25 80 -25 246 0 207 21
448 50 595 2 11 7 34 10 50 13 77 66 248 94 310 49 105 171 456 214 615 66
244 81 380 81 740 -1 291 -9 451 -30 530 -2 8 -7 35 -10 60 -22 168 -102 416
-192 595 -159 316 -333 523 -598 709 -44 31 -84 60 -90 64 -86 68 -322 177
-480 222 -60 18 -116 37 -124 43 -7 6 -31 50 -53 97 -131 281 -176 349 -281
427 -82 61 -193 113 -356 168 -73 25 -135 45 -136 45 -1 0 -8 -7 -15 -15z
m-270 -1177 c91 -46 129 -163 82 -253 -24 -49 -46 -70 -95 -90 -131 -55 -267
38 -267 181 0 138 153 226 280 162z"/>
<path d="M2027 644 c-1 -1 -67 -4 -146 -7 -85 -3 -148 -10 -155 -17 -21 -21
-19 -168 4 -300 28 -160 31 -233 14 -282 l-13 -38 2008 0 2009 0 -13 37 c-16
46 -11 127 18 302 23 134 23 259 0 282 -5 5 -38 12 -74 15 -57 5 -3646 13
-3652 8z"/>
</g>
</svg>
