<svg width="19" height="19" xmlns:xlink="http://www.w3.org/1999/xlink" xmlns="http://www.w3.org/2000/svg"><defs><filter id="filter_1"><feColorMatrix in="SourceGraphic" values="0 0 0 0 0.7921569 0 0 0 0 0.92941177 0 0 0 0 0.90588236 0 0 0 1 0"/></filter><filter id="filter_2"><feColorMatrix in="SourceGraphic" values="0 0 0 0 0.9764706 0 0 0 0 0.9764706 0 0 0 0 0.9764706 0 0 0 1 0"/></filter><clipPath id="mask_1"><use xlink:href="#path_1"/></clipPath><path d="M0 0h19v19H0V0Z" id="path_1"/></defs><g id="lock"><g id="lock" filter="url('#filter_2')"><path d="M0 0h17v17H0V0Z" id="Background" fill="none" fill-rule="evenodd" stroke="none"/><g id="Mask-group"><path d="M0 0h19v19H0V0Z" id="path_1" fill="none" fill-rule="evenodd" stroke="none"/><g clip-path="url('#mask_1')"><g id="Group" transform="translate(2.25)" filter="url('#filter_1')"><path d="M2.458 4.917v2.458h-.307A2.151 2.151 0 0 0 0 9.526v8.912h14.75V9.525a2.151 2.151 0 0 0-2.151-2.151h-.307V4.917a4.917 4.917 0 0 0-9.834 0Zm7.99 2.458V4.917a3.073 3.073 0 1 0-6.146 0v2.458h6.146Zm1.844 1.844h.307c.17 0 .307.137.307.307v6.76c0 .17-.137.308-.307.308H2.151a.307.307 0 0 1-.307-.308v-6.76c0-.17.137-.307.307-.307h10.14Z" id="Shape" fill="#000" fill-rule="evenodd" stroke="none"/></g></g></g></g></g></svg>