<svg version="1.0" xmlns="http://www.w3.org/2000/svg" width="933.333" height="933.333" viewBox="0 0 700 700"><path d="M332 17.5c-1 1.2-1.1 4.4-.4 14.3.9 13.7 1.1 48.8.3 53.7-.7 4-4.8 6-19.4 9.1-6.4 1.3-13.8 3.4-16.3 4.5-5.7 2.6-19.6 11.7-23.7 15.5-1.7 1.6-6 5.4-9.5 8.6-8 6.9-15.8 14.4-37 35.1-14.8 14.5-25.6 24.6-37.5 34.9-2.2 1.9-11.1 8.7-19.8 15.2-20.9 15.5-30.7 24.9-34.9 33.4-2.9 5.9-3.3 7.6-3.4 16.1-.3 16.1 5.3 29.2 17.2 40 18.1 16.5 31.2 19.2 54.9 10.9 3.3-1.1 15.5-6.7 27.2-12.5l21.2-10.4 36.8-.2c52.8-.3 61.1.6 63.3 6.6 2.9 8.6-.7 22.9-9.2 35.8-7.7 11.8-13.2 18-39 44.4-9.7 9.9-18.7 19.2-20 20.6-1.3 1.4-4.1 4.6-6.3 7-3.4 3.7-12.5 14.5-16.8 19.9-13.9 17.5-26.2 39.3-32.2 57.2-5 15-6.8 26.7-6.8 44.3-.1 15.5 1 24.7 4.4 37.4 1.6 5.8 1.7 7.6.7 8.8-1.8 2.2-12.5 9.5-19.3 13.2-10.9 6-22.1 19.9-24.1 30.1l-.6 3h388.5l-.7-3.2c-2-10-14.2-25.1-24.6-30.3-6-3-16.8-10.4-18.9-12.9-1.9-2.3-2.5-8-2.5-24.6 0-20.7 2.1-44.8 5-59.5.2-1.1.7-3.4 1-5 1.3-7.7 6.6-24.8 9.4-31 4.9-10.5 17.1-45.6 21.4-61.5 6.6-24.4 8.1-38 8.1-74-.1-29.1-.9-45.1-3-53-.2-.8-.7-3.5-1-6-2.2-16.8-10.2-41.6-19.2-59.5-15.9-31.6-33.3-52.3-59.8-70.9-4.4-3.1-8.4-6-9-6.4-8.6-6.8-32.2-17.7-48-22.2-6-1.8-11.6-3.7-12.4-4.3-.7-.6-3.1-5-5.3-9.7-13.1-28.1-17.6-34.9-28.1-42.7-8.2-6.1-19.3-11.3-35.6-16.8-7.3-2.5-13.5-4.5-13.6-4.5-.1 0-.8.7-1.5 1.5zm-27 117.7c9.1 4.6 12.9 16.3 8.2 25.3-2.4 4.9-4.6 7-9.5 9-13.1 5.5-26.7-3.8-26.7-18.1 0-13.8 15.3-22.6 28-16.2zM202.7 635.6c-.1.1-6.7.4-14.6.7-8.5.3-14.8 1-15.5 1.7-2.1 2.1-1.9 16.8.4 30 2.8 16 3.1 23.3 1.4 28.2l-1.3 3.8H574.8l-1.3-3.7c-1.6-4.6-1.1-12.7 1.8-30.2 2.3-13.4 2.3-25.9 0-28.2-.5-.5-3.8-1.2-7.4-1.5-5.7-.5-364.6-1.3-365.2-.8z"/></svg>