<?xml version="1.0" encoding="utf-8"?>
<svg width="505px" height="505px" viewBox="0 0 505 505" version="1.1" xmlns:xlink="http://www.w3.org/1999/xlink" xmlns="http://www.w3.org/2000/svg">
  <defs>
    <path d="M0 0L500 0L500 500L0 500L0 0Z" id="path_1" />
    <clipPath id="mask_1">
      <use xlink:href="#path_1" />
    </clipPath>
  </defs>
  <g id="custom" transform="translate(2.5 2.5)">
    <path d="M0 0L500 0L500 500L0 500L0 0Z" id="Background" fill="none" fill-rule="evenodd" stroke="none" />
    <g clip-path="url(#mask_1)">
      <g id="Group" transform="translate(93.874 89.2)">
        <path d="M0 0L0 19.642L314.245 19.642L314.245 0L0 0Z" transform="translate(0 32.724014)" id="Shape" fill="#262626" fill-rule="evenodd" stroke="none" />
        <path d="M0 42.5C0 19.0279 19.0279 0 42.5 0C65.9721 0 85 19.0279 85 42.5C85 65.9721 65.9721 85 42.5 85C19.0279 85 0 65.9721 0 42.5Z" transform="translate(94.62023 0)" id="Ellipse" fill="#FFFFFF" fill-rule="evenodd" stroke="#262626" stroke-width="5" />
      </g>
      <g id="Group-2" transform="translate(93.855 306.23187)">
        <path d="M0 0L0 19.642L314.245 19.642L314.245 0L0 0Z" transform="translate(0 32.69214)" id="Shape" fill="#262626" fill-rule="evenodd" stroke="none" />
        <path d="M0 42.5C0 19.0279 19.0279 0 42.5 0C65.9721 0 85 19.0279 85 42.5C85 65.9721 65.9721 85 42.5 85C19.0279 85 0 65.9721 0 42.5Z" transform="translate(47.62023 0)" id="Ellipse" fill="#FFFFFF" fill-rule="evenodd" stroke="#262626" stroke-width="5" />
      </g>
      <g id="Group-3" transform="translate(93.855 208.19998)">
        <path d="M0 0L0 19.642L314.245 19.642L314.245 0L0 0Z" transform="translate(0 32.72403)" id="Shape" fill="#262626" fill-rule="evenodd" stroke="none" />
        <path d="M0 42.5C0 19.0279 19.0279 0 42.5 0C65.9721 0 85 19.0279 85 42.5C85 65.9721 65.9721 85 42.5 85C19.0279 85 0 65.9721 0 42.5Z" transform="translate(197.14502 0)" id="Ellipse" fill="#FFFEFE" fill-rule="evenodd" stroke="#262626" stroke-width="5" />
      </g>
    </g>
  </g>
</svg>