<?xml version="1.0" encoding="utf-8"?>
<svg width="78px" height="78px" viewBox="0 0 78 78" version="1.1" xmlns:xlink="http://www.w3.org/1999/xlink" xmlns="http://www.w3.org/2000/svg">
  <defs>
    <path d="M0 0L78 0L78 78L0 78L0 0Z" id="path_1" />
    <clipPath id="mask_1">
      <use xlink:href="#path_1" />
    </clipPath>
  </defs>
  <g id="chess_queen_black">
    <path d="M0 0L78 0L78 78L0 78L0 0Z" id="Background" fill="none" fill-rule="evenodd" stroke="none" />
    <g clip-path="url(#mask_1)">
      <g id="icon" transform="translate(9.963379 4.163925)">
        <g id="piece">
          <path d="M28.6192 0C28.6188 0.0151152 28.6185 0.0439799 28.6183 0.084131C28.618 0.0441568 28.6177 0.0154135 28.6174 0.000340913C26.3419 0.188303 21.9149 13.4054 21.9149 13.4054C21.9149 13.4054 14.9558 1.95056 13.5364 2.2345C12.1171 2.51844 10.7437 13.4054 10.7437 13.4054C10.7437 13.4054 1.71598 3.98758 0.131049 5.58556C-1.45388 7.18355 11.8608 37.4234 11.8608 37.4234C11.8608 37.4234 3.3944 52.5288 5.71665 52.5045C8.03889 52.4803 28.6174 52.5045 28.6174 52.5045L28.6192 52.5042C28.6192 52.5042 49.1977 52.4799 51.5199 52.5042C53.8422 52.5284 45.3758 37.423 45.3758 37.423C45.3758 37.423 58.6904 7.1832 57.1055 5.58522C55.5206 3.98724 46.4929 13.4051 46.4929 13.4051C46.4929 13.4051 45.1195 2.5181 43.7001 2.23416C42.2808 1.95022 35.3217 13.4051 35.3217 13.4051C35.3217 13.4051 30.8947 0.187962 28.6192 0L28.6192 0Z" transform="translate(0 18.431519)" id="Vector-shape" fill="#E5D1A0" fill-rule="evenodd" stroke="none" />
          <path d="M0 7.26117C0 3.25094 3.25094 0 7.26117 0C11.2714 0 14.5223 3.25094 14.5223 7.26117C14.5223 11.2714 11.2714 14.5223 7.26117 14.5223C3.25094 14.5223 0 11.2714 0 7.26117Z" transform="translate(20.688751 0)" id="halo" fill="#E5D1A0" fill-rule="evenodd" stroke="none" />
        </g>
      </g>
    </g>
  </g>
</svg>