<?xml version="1.0" encoding="utf-8"?>
<svg width="78px" height="78px" viewBox="0 0 78 78" version="1.1" xmlns:xlink="http://www.w3.org/1999/xlink" xmlns="http://www.w3.org/2000/svg">
  <defs>
    <path d="M0 0L78 0L78 78L0 78L0 0Z" id="path_1" />
    <clipPath id="mask_1">
      <use xlink:href="#path_1" />
    </clipPath>
  </defs>
  <g id="chess_queen_white">
    <path d="M0 0L78 0L78 78L0 78L0 0Z" id="Background" fill="none" fill-rule="evenodd" stroke="none" />
    <g clip-path="url(#mask_1)">
      <g id="icon" transform="translate(-2.8000183 1.5258789E-05)">
        <g id="piece" transform="translate(15.182587 0)">
          <path d="M25.6175 0C25.6213 0.158249 25.6175 1.99996 25.6175 1.99996L25.6175 47.0003C25.6175 47.0003 7.19619 46.9786 5.11738 47.0003C3.03858 47.022 10.6175 33.5001 10.6175 33.5001C10.6175 33.5001 -1.30147 6.4302 0.117314 4.99973C1.5361 3.56927 9.61743 11.9998 9.61743 11.9998C9.61743 11.9998 10.8469 2.25413 12.1174 1.99995C13.388 1.74578 19.6176 11.9998 19.6176 11.9998C19.6176 11.9998 23.5805 0.16826 25.6175 0Z" transform="translate(0 16.499985)" id="left" fill="#E5D1A0" fill-rule="evenodd" stroke="none" />
          <path d="M25.6175 0C25.6213 0.158249 25.6175 1.99996 25.6175 1.99996L25.6175 47.0003C25.6175 47.0003 7.19619 46.9786 5.11738 47.0003C3.03858 47.022 10.6175 33.5001 10.6175 33.5001C10.6175 33.5001 -1.30147 6.4302 0.117314 4.99973C1.5361 3.56927 9.61743 11.9998 9.61743 11.9998C9.61743 11.9998 10.8469 2.25413 12.1174 1.99995C13.388 1.74578 19.6176 11.9998 19.6176 11.9998C19.6176 11.9998 23.5805 0.16826 25.6175 0Z" transform="matrix(-1 0 0 1 51.236572 16.49968)" id="right" fill="#D2BF90" fill-rule="evenodd" stroke="none" />
          <path d="M0 6.5C0 2.91015 2.91015 0 6.5 0C10.0898 0 13 2.91015 13 6.5C13 10.0898 10.0898 13 6.5 13C2.91015 13 0 10.0898 0 6.5Z" transform="translate(19.119995 0)" id="halo" fill="#E5D1A0" fill-rule="evenodd" stroke="none" />
        </g>
        <g id="white" fill="#E5D1A0" transform="translate(0 45.999954)">
          <path d="M38.4375 30.8281Q38.4375 31.1172 38.2734 31.1172Q38.0313 31.1172 37.5391 31.1094C37.2109 31.1042 36.9661 31.1016 36.8047 31.1016Q36.6094 31.1016 36.6094 30.8438Q36.6094 30.4688 36.6367 29.7109Q36.6641 28.9531 36.6641 28.5703Q36.6641 28.2109 36.6367 27.4805Q36.6094 26.75 36.6094 26.3828Q36.6094 24.9766 35.2813 24.9766Q34.8516 24.9766 34.1563 25.4063Q33.4141 25.8672 33.4141 26.25L33.4141 30.8906Q33.4141 31.1172 33.25 31.1172Q33.0078 31.1172 32.5234 31.1094C32.2005 31.1042 31.9583 31.1016 31.7969 31.1016Q31.6172 31.1016 31.6172 30.8906L31.6172 27.1172Q31.6172 26.1953 31.5156 23.1953Q31.5 22.2656 31.3828 20.4453Q31.3672 20.3516 31.3672 20.3203Q31.3672 20.1875 31.4609 20.1563Q31.5938 20.1094 32.3438 20.1094Q32.5078 20.1094 32.8359 20.0508Q33.1641 19.9922 33.3125 19.9922Q33.4141 19.9922 33.4141 20.1406Q33.4141 20.875 33.3555 22.3477Q33.2969 23.8203 33.2969 24.5547Q33.2969 24.7344 33.3594 24.7422Q33.7578 24.4063 34.3906 23.9297Q35.1563 23.4531 36.0078 23.4531Q37.4766 23.4531 38.0313 24.3281Q38.4297 24.9688 38.4297 26.3594Q38.4297 26.6016 38.418 27.1055Q38.4063 27.6094 38.4063 27.8516Q38.4063 28.3516 38.4219 29.3438Q38.4375 30.3359 38.4375 30.8281ZM44.8984 22.7188Q45.9688 22.7188 45.9688 21.7578Q45.9688 21.3281 45.6523 21.0547Q45.3359 20.7813 44.8984 20.7813Q44.4609 20.7813 44.1484 21.0469Q43.8125 21.3281 43.8125 21.7578Q43.8125 22.7188 44.8984 22.7188ZM55.8125 29.6641Q55.8125 29.8359 55.7813 30.1328Q55.7422 30.5 55.7344 30.6094Q55.7266 30.75 55.7109 30.7813Q55.6797 30.8359 55.5625 30.8906Q54.9219 31.1953 53.5469 31.1953Q51.7188 31.1953 51.7188 29.5391Q51.7188 28.875 51.75 27.543Q51.7813 26.2109 51.7813 25.5469Q51.7813 25.2266 51.4609 25.2031Q51.1719 25.2031 50.8906 25.1953Q50.7266 25.1563 50.7266 24.5547Q50.7266 24.3281 50.7578 24.0781Q50.7813 23.8906 51.0078 23.8516Q51.2031 23.8516 51.3906 23.8438Q51.75 23.8281 51.75 23.5234Q51.75 23.2109 51.7305 22.5703Q51.7109 21.9297 51.7109 21.6094Q51.7109 21.0391 51.9297 21.0391Q52 21.0391 53.3984 21.2813Q53.5781 21.3047 53.5781 21.4531Q53.5781 21.7969 53.5273 22.4844Q53.4766 23.1719 53.4766 23.5156Q53.4766 23.7422 53.6875 23.7422L55.5625 23.7422Q55.6953 23.7422 55.6953 23.8359Q55.6953 23.9297 55.668 24.1367Q55.6406 24.3438 55.6406 24.4453Q55.6406 24.5625 55.6484 24.8047Q55.6563 25.0469 55.6563 25.1641Q55.6563 25.3125 55.4375 25.3125Q55.125 25.3125 54.4922 25.2695Q53.8594 25.2266 53.5469 25.2266Q53.4844 25.2266 53.4531 25.6719Q53.4141 26.2266 53.4141 27.2266L53.4141 28.3906Q53.4141 29.0625 53.5391 29.3281Q53.7266 29.7344 54.3125 29.7344Q54.5547 29.7344 55.0234 29.6289Q55.4922 29.5234 55.7188 29.5234Q55.8125 29.5234 55.8125 29.6641ZM67.0469 27.6797Q67.5469 27.4844 67.5469 26.9063Q67.5469 25.4063 66.5859 24.3594Q65.6016 23.2813 64.1328 23.2813Q62.5547 23.2813 61.4688 24.5234Q60.4375 25.7188 60.4375 27.3281Q60.4375 29.1328 61.5156 30.2148Q62.5938 31.2969 64.4063 31.2969Q66.2031 31.2969 67.3516 30.0781Q67.4766 29.9453 67.4766 29.8984Q67.4766 29.8594 67.2031 29.332Q66.9297 28.8047 66.9102 28.7891Q66.8906 28.7734 66.8281 28.7734L66.5781 28.9766Q65.5469 29.7734 64.3125 29.7734Q63.5938 29.7734 62.9688 29.3125Q62.3125 28.8281 62.2109 28.1406Q66.7109 27.8047 67.0469 27.6797ZM26.4375 25.5Q26.4375 26.9688 26.2734 27.3438Q26.0547 27.8594 25.1172 29.3984Q24.1016 31.0625 23.8906 31.1172Q23.8281 31.1328 23.2656 31.1328Q22.8828 31.1328 22.8203 31.1172Q22.5781 31.0547 20.9609 28.4297Q20.5156 29.1641 20.0625 29.9063Q19.3281 31.0625 19.125 31.1172Q19.0625 31.1328 18.6094 31.1328Q18.1484 31.1328 18.0859 31.1172C17.9245 31.0807 17.5156 30.513 16.8594 29.4141Q15.9297 27.8594 15.7344 27.3438Q15.5547 26.875 15.5547 25.5Q15.5547 24.3516 15.6328 23.9297Q15.6719 23.7578 15.8281 23.7578Q16.0625 23.7578 16.5313 23.7734Q17 23.7891 17.2344 23.7891Q17.3828 23.7891 17.3828 24.0313Q17.3828 24.2031 17.3672 24.5508Q17.3516 24.8984 17.3516 25.0703Q17.3516 26.4297 17.4297 26.9922Q17.5 27.4844 18.6563 29.0547Q18.7969 29.2422 18.8203 29.2422Q18.8438 29.2422 18.9609 29.0703Q19.9766 27.5938 20.1172 27.0547Q20.2109 26.6797 20.2109 25.375Q20.2109 25.1094 20.1797 24.5859Q20.1484 24.0625 20.1484 23.8047Q20.1484 23.6328 20.2891 23.6328L21.7813 23.6328Q21.9063 23.6328 21.9063 23.8359Q21.9063 24.0859 21.8828 24.5898Q21.8594 25.0938 21.8594 25.3438Q21.8594 26.7266 21.9063 26.9414Q21.9531 27.1563 22.6406 28.168Q23.3281 29.1797 23.4297 29.1797Q23.4531 29.1797 23.5703 28.9922Q24.5625 27.4844 24.6406 26.9766Q24.7109 26.5547 24.7109 25.5469Q24.7109 25.25 24.6641 24.6914Q24.6172 24.1328 24.6172 23.8906Q24.6172 23.7734 24.7734 23.7734Q25.0078 23.7734 25.4688 23.7578Q25.9297 23.7422 26.1641 23.7422Q26.3359 23.7422 26.375 23.8984Q26.4375 24.2031 26.4375 25.5ZM45.8398 25.6914Q45.9141 24.4766 45.9141 23.875Q45.9141 23.7266 45.7813 23.7266Q45.6328 23.7266 45.3398 23.7656Q45.0469 23.8047 44.8984 23.8047Q44.75 23.8047 44.457 23.7656Q44.1641 23.7266 44.0234 23.7266Q43.8594 23.7266 43.8594 23.8594Q43.8594 24.4688 43.9492 25.6875Q44.0391 26.9063 44.0391 27.5156Q44.0391 28.0625 44.0117 29.1445Q43.9844 30.2266 43.9844 30.7656Q43.9844 31.0859 44.1484 31.0859L45.6719 31.0859Q45.8125 31.0859 45.8125 30.9219Q45.8125 30.3594 45.7891 29.2227Q45.7656 28.0859 45.7656 27.5156Q45.7656 26.9063 45.8398 25.6914ZM65.1758 25.2813Q65.6875 25.7813 65.6875 26.4297Q65.6875 26.5234 65.2344 26.5859Q63.625 26.8203 62.4688 26.8203Q62.1875 26.8203 62.1875 26.6563Q62.1875 25.9375 62.7461 25.3594Q63.3047 24.7813 64.0234 24.7813Q64.6641 24.7813 65.1758 25.2813Z" />
        </g>
      </g>
    </g>
  </g>
</svg>