<?xml version="1.0" encoding="utf-8"?>
<svg width="78px" height="78px" viewBox="0 0 78 78" version="1.1" xmlns:xlink="http://www.w3.org/1999/xlink" xmlns="http://www.w3.org/2000/svg">
  <defs>
    <path d="M0 0L78 0L78 78L0 78L0 0Z" id="path_1" />
    <clipPath id="mask_1">
      <use xlink:href="#path_1" />
    </clipPath>
  </defs>
  <g id="chess_queen_black">
    <path d="M0 0L78 0L78 78L0 78L0 0Z" id="Background" fill="none" fill-rule="evenodd" stroke="none" />
    <g clip-path="url(#mask_1)">
      <g id="icon" transform="translate(-2.8000183 -27)">
        <g id="piece" transform="translate(15.182587 0)">
          <path d="M25.6175 0C25.6213 0.158249 25.6175 1.99996 25.6175 1.99996L25.6175 47.0003C25.6175 47.0003 7.19619 46.9786 5.11738 47.0003C3.03858 47.022 10.6175 33.5001 10.6175 33.5001C10.6175 33.5001 -1.30147 6.4302 0.117314 4.99973C1.5361 3.56927 9.61743 11.9998 9.61743 11.9998C9.61743 11.9998 10.8469 2.25413 12.1174 1.99995C13.388 1.74578 19.6176 11.9998 19.6176 11.9998C19.6176 11.9998 23.5805 0.16826 25.6175 0Z" transform="translate(0 43.5)" id="left" fill="#322922" fill-rule="evenodd" stroke="none" />
          <path d="M25.6175 0C25.6213 0.158249 25.6175 1.99996 25.6175 1.99996L25.6175 47.0003C25.6175 47.0003 7.19619 46.9786 5.11738 47.0003C3.03858 47.022 10.6175 33.5001 10.6175 33.5001C10.6175 33.5001 -1.30147 6.4302 0.117314 4.99973C1.5361 3.56927 9.61743 11.9998 9.61743 11.9998C9.61743 11.9998 10.8469 2.25413 12.1174 1.99995C13.388 1.74578 19.6176 11.9998 19.6176 11.9998C19.6176 11.9998 23.5805 0.16826 25.6175 0Z" transform="matrix(-1 0 0 1 51.236572 43.499695)" id="right" fill="#3E3229" fill-rule="evenodd" stroke="none" />
          <path d="M0 6.5C0 2.91015 2.91015 0 6.5 0C10.0898 0 13 2.91015 13 6.5C13 10.0898 10.0898 13 6.5 13C2.91015 13 0 10.0898 0 6.5Z" transform="translate(19.119995 27.000015)" id="halo" fill="#322922" fill-rule="evenodd" stroke="none" />
        </g>
        <g id="black" fill="#322922" transform="translate(0 72.99997)">
          <path d="M23.8281 27.3281Q23.8281 28.875 22.8672 30.0234Q21.8438 31.2422 20.3203 31.2422Q19.3047 31.2422 18.5313 30.7266Q18.2188 30.4609 17.9063 30.2031Q17.8203 30.2266 17.793 30.6719Q17.7656 31.1172 17.6641 31.1172L16.0156 31.1172Q15.9219 31.1172 15.9219 31.0156L15.9219 31.016Q15.9226 31.0161 15.9375 30.875Q16.0625 29.625 16.0625 26.0938Q16.0625 24.6484 15.9375 21.8516Q15.8679 20.2648 15.8603 20.2651L15.8601 20.2655Q15.8715 20.0845 16.0625 20.0625Q16.3438 20.0547 16.8984 20.0313Q17.0078 20.0234 17.3438 19.9766Q17.625 19.9297 17.7969 19.9297Q17.9219 19.9297 17.9219 20.1094Q17.9219 20.375 17.8828 20.9219Q17.8438 21.4688 17.8438 21.7422Q17.8438 22.1484 17.8086 22.9648Q17.7734 23.7813 17.7734 24.1875Q17.7734 24.4844 17.8828 24.4844Q17.9375 24.4844 18 24.3984Q18.8594 23.3281 20.2734 23.3281Q21.8906 23.3281 22.8906 24.5391Q23.8281 25.6797 23.8281 27.3281ZM15.8601 20.2655Q15.8594 20.277 15.8594 20.2891Q15.8594 20.268 15.8601 20.2655ZM65.5625 28.4609Q67.4453 27.7734 67.4453 25.7422Q67.4453 24.6172 66.6484 23.9688Q65.9141 23.375 64.7578 23.375Q63.5703 23.375 62.2578 24.3906Q61.8828 24.6953 61.6953 24.8516Q61.625 24.8516 61.625 24.6875L61.625 22.6719Q61.625 22.25 61.6641 21.4141Q61.7031 20.5781 61.7031 20.1563Q61.7031 19.9688 61.5938 19.9688Q61.4219 19.9688 61.1406 20.0078Q60.7891 20.0547 60.6797 20.0625Q60.1563 20.0859 59.8984 20.0938Q59.75 20.1094 59.75 20.25Q59.75 21.2031 59.8242 23.1016Q59.8984 25 59.8984 25.9531L59.8984 30.8125Q59.8984 31.1172 60.0703 31.1172Q60.3203 31.1172 60.8086 31.125Q61.2969 31.1328 61.5469 31.1328Q61.7188 31.1328 61.7188 30.8906L61.7188 28.9609L62.0234 28.9531Q63.625 28.9297 63.7188 29.0703Q64.5078 30.2656 64.875 30.8906Q65.0156 31.125 65.5703 31.125Q65.8281 31.125 66.3438 31.1016Q67.125 31.0625 67.125 30.9453L66.3438 29.9023Q65.5625 28.8594 65.5625 28.4609ZM30.9219 20.2656L30.9141 20.3672Q30.7422 23.2734 30.7422 25.3594Q30.7422 26.2891 30.7734 28.1445Q30.8047 30 30.8047 30.9219Q30.8047 31.1016 30.6797 31.1016L29.1875 31.1016Q29.0469 31.1016 29.0469 30.9219Q29.0469 30 29.0625 28.1445Q29.0781 26.2891 29.0781 25.3594Q29.0781 24.5156 28.9961 22.8242Q28.9141 21.1328 28.9141 20.2969Q28.9141 20.1406 29.0781 20.1406Q29.2188 20.1406 29.5 20.1641Q29.7813 20.1875 29.9219 20.1875Q30.0703 20.1875 30.3594 20.1641Q30.6484 20.1406 30.7891 20.1406Q30.867 20.1406 30.8994 20.179Q30.9254 20.2099 30.9219 20.2656ZM54.7891 24.0156Q54.7891 24.1875 54.6094 24.7813Q54.4297 25.375 54.3594 25.375Q54.0078 25.2188 53.6523 25.0625Q53.2969 24.9063 52.875 24.9063Q51.9141 24.9063 51.2734 25.6172Q50.6328 26.3281 50.6328 27.2969Q50.6328 28.25 51.2734 28.9453Q51.9297 29.6641 52.875 29.6641Q53.3984 29.6641 53.9063 29.4063Q54.3679 29.1719 54.3582 29.1506Q54.3573 29.1484 54.3516 29.1484Q54.4531 29.1484 54.5781 29.8047Q54.6953 30.3984 54.6953 30.625Q54.6953 30.8672 53.7813 31.1016Q53.0156 31.2969 52.6484 31.2969Q51.0391 31.2969 49.9297 30.0938Q48.8438 28.9219 48.8438 27.2969Q48.8438 25.6406 49.9063 24.4844Q51 23.2969 52.6328 23.2969Q53.7266 23.2969 54.6328 23.8516Q54.7891 23.9453 54.7891 24.0156ZM44.0391 24.1719Q44.0625 24.0625 44.0625 24.0313Q44.0625 23.9219 43.4219 23.7813Q42.8438 23.6641 42.6328 23.6641Q42.5 23.6641 42.4141 24.1563Q42.3281 24.6484 42.2813 24.6484Q42.2578 24.6484 42.2344 24.625Q41.9531 24.3281 41.8203 24.1719Q40.9297 23.3438 39.7344 23.3438Q38.0391 23.3438 37 24.5234Q36.0078 25.6563 36.0078 27.3906Q36.0078 28.9297 36.9922 30.0859Q38.0313 31.2969 39.5469 31.2969Q40.1641 31.2969 40.7813 30.9844Q41.1797 30.7891 41.6406 30.4141Q42.0156 30.1094 42.0625 30.1094Q42.1328 30.1094 42.2109 30.6563Q42.2891 31.2031 42.4375 31.2031Q42.6484 31.2031 43.082 31.1523C43.3711 31.1185 43.5872 31.1016 43.7305 31.1016C43.8737 31.1016 43.9427 31.026 43.9375 30.875L43.9297 30.7656Q43.7344 27.3359 43.7344 27.2578Q43.7344 25.9609 44.0391 24.1719ZM22.0625 27.2578Q22.0625 26.3281 21.4766 25.6172Q20.8516 24.8594 19.9375 24.8594Q19 24.8594 18.375 25.6016Q17.7734 26.3047 17.7734 27.2578Q17.7734 28.2266 18.375 28.9297Q19 29.6641 19.9531 29.6641Q20.875 29.6641 21.4922 28.9063Q22.0625 28.2031 22.0625 27.2578ZM41.5 25.6484Q42.0703 26.3359 42.0703 27.2969Q42.0703 28.2266 41.4922 28.9219Q40.875 29.6641 39.9609 29.6641Q39.0234 29.6641 38.3984 28.9375Q37.7969 28.2422 37.7969 27.2969Q37.7969 26.3438 38.3984 25.6406Q39.0234 24.9063 39.9609 24.9063Q40.8984 24.9063 41.5 25.6484ZM64.1172 24.9922Q65.5625 24.9922 65.5625 26.1094Q65.5625 26.9375 64.7656 27.3672Q64.125 27.7109 63.2188 27.7109Q62.3203 27.7109 61.6875 27.5938L61.6875 26.4297Q63.0391 24.9922 64.1172 24.9922Z" />
        </g>
      </g>
    </g>
  </g>
</svg>