<?xml version="1.0" encoding="utf-8"?>
<svg width="78px" height="78px" viewBox="0 0 78 78" version="1.1" xmlns:xlink="http://www.w3.org/1999/xlink" xmlns="http://www.w3.org/2000/svg">
  <defs>
    <filter id="filter_1">
      <feColorMatrix in="SourceGraphic" type="matrix" values="0 0 0 0 0.9764706 0 0 0 0 0.9764706 0 0 0 0 0.9764706 0 0 0 1 0" />
    </filter>
    <path d="M0 0L78 0L78 78L0 78L0 0Z" id="path_1" />
    <clipPath id="mask_1">
      <use xlink:href="#path_1" />
    </clipPath>
  </defs>
  <g id="chess_queen_black">
    <path d="M0 0L78 0L78 78L0 78L0 0Z" id="Background" fill="none" fill-rule="evenodd" stroke="none" />
    <g clip-path="url(#mask_1)">
      <g id="icon" transform="translate(-2.8000183 -3.0517578E-05)">
        <g id="piece" transform="translate(15.182587 16.499725)">
          <path d="M25.6175 0C25.6213 0.158249 25.6175 1.99996 25.6175 1.99996L25.6175 47.0003C25.6175 47.0003 7.19619 46.9786 5.11738 47.0003C3.03858 47.022 10.6175 33.5001 10.6175 33.5001C10.6175 33.5001 -1.30147 6.4302 0.117314 4.99973C1.5361 3.56927 9.61743 11.9998 9.61743 11.9998C9.61743 11.9998 10.8469 2.25413 12.1174 1.99995C13.388 1.74578 19.6176 11.9998 19.6176 11.9998C19.6176 11.9998 23.5805 0.16826 25.6175 0Z" transform="translate(0 0.00030517578)" id="left" fill="#322922" fill-rule="evenodd" stroke="none" />
          <path d="M25.6175 0C25.6213 0.158249 25.6175 1.99996 25.6175 1.99996L25.6175 47.0003C25.6175 47.0003 7.19619 46.9786 5.11738 47.0003C3.03858 47.022 10.6175 33.5001 10.6175 33.5001C10.6175 33.5001 -1.30147 6.4302 0.117314 4.99973C1.5361 3.56927 9.61743 11.9998 9.61743 11.9998C9.61743 11.9998 10.8469 2.25413 12.1174 1.99995C13.388 1.74578 19.6176 11.9998 19.6176 11.9998C19.6176 11.9998 23.5805 0.16826 25.6175 0Z" transform="matrix(-1 0 0 1 51.236572 0)" id="right" fill="#E5D1A0" fill-rule="evenodd" stroke="none" />
        </g>
        <g id="question" transform="translate(37.133636 0)" filter="url(#filter_1)">
          <path d="M8.56481 3.76288L8.56481 3.72754C8.56481 1.42002 6.73635 0 4.12733 0C2.62234 0 1.42595 0.424298 0.467586 1.08121C-0.0895344 1.46302 -0.13969 2.30009 0.26847 2.83877L0.566109 3.23159C0.974269 3.77003 1.70514 3.82122 2.2968 3.49441C2.83599 3.19654 3.38286 3.0353 3.8965 3.0353C4.74844 3.0353 5.22774 3.40789 5.22774 4.01159L5.22774 4.02923C5.22774 4.79262 4.49992 5.88352 2.44091 6.0609L2.37001 6.14074C2.33086 6.18478 2.38027 6.76237 2.48006 7.43053L2.56197 7.97537C2.66177 8.64353 3.22373 9.18503 3.81671 9.18503C4.40968 9.18503 4.93833 8.93067 4.99672 8.61718C5.05582 8.30345 5.10343 8.04905 5.10343 8.04905C7.07337 7.56951 8.56481 5.9995 8.56481 3.76288L8.56481 3.76288Z" id="Shape" fill="#9695AE" fill-rule="evenodd" stroke="none" />
          <path d="M1.22297 0C0.547381 0 0 0.547663 0 1.22326L0 1.79444C0 2.47004 0.547663 3.0177 1.22297 3.0177L2.27323 3.0177C2.94882 3.0177 3.49648 2.47004 3.49648 1.79444L3.49648 1.22326C3.49648 0.547664 2.94858 0 2.27323 0L1.22297 0L1.22297 0Z" transform="translate(2.0151062 11.182343)" id="Shape" fill="#2D22F8" fill-rule="evenodd" stroke="none" />
        </g>
        <g id="Random" fill="#F9F9F9" transform="translate(0 46)">
          <path d="M49.8359 23.2227Q49.9258 21.2109 49.9258 20.2031Q49.9258 20.0391 49.793 20.0391Q49.5117 20.0391 48.9414 20.0898Q48.3711 20.1406 48.082 20.1406Q47.957 20.1406 47.957 20.3281Q47.957 20.5938 47.9805 21.1172Q48.0039 21.6406 48.0039 21.8984L48.0039 24.4297Q48.0039 24.5156 47.9414 24.5391Q47.6133 24.2422 47.2773 23.9531Q46.543 23.375 45.5586 23.375Q43.9258 23.375 42.9102 24.5625Q41.9414 25.6953 41.9414 27.3594Q41.9414 28.9609 42.9023 30.0938Q43.918 31.2969 45.4961 31.2969Q46.8867 31.2969 47.957 30.1406Q48.0273 30.0625 48.0742 30.0391Q48.1133 30.0469 48.1328 30.5898Q48.1523 31.1328 48.2617 31.1328Q48.3789 31.1328 48.6055 31.1094Q48.832 31.0859 48.9492 31.0859L48.9477 31.086Q48.9476 31.0875 49.2539 31.1094Q49.5273 31.125 49.6758 31.1094Q49.8945 31.0859 49.8867 31.0078L49.8789 30.9063Q49.7461 29.3203 49.7461 26.2344Q49.7461 25.2344 49.8359 23.2227ZM12.0117 31.1016C12.0951 31.1016 12.1367 31.0807 12.1367 31.0391Q12.1367 30.9141 11.2031 28.9453Q10.2695 26.9766 10.2695 26.8672Q10.2695 26.7734 10.418 26.6719Q11.3086 26.0391 11.6367 25.3359Q11.9492 24.6719 11.9492 23.5156Q11.9492 21.8359 10.793 20.9219Q9.74609 20.0938 8.01172 20.0938Q7.34766 20.0938 6.00781 20.1289Q4.66797 20.1641 3.99609 20.1641Q3.72401 20.1641 3.67742 20.2666Q3.66648 20.2906 3.66797 20.3203L3.67578 20.4453Q3.85547 23.2422 3.85547 25.7109Q3.85547 26.5781 3.77344 28.3164Q3.69141 30.0547 3.69141 30.9219Q3.69141 31.1016 3.88672 31.1016Q4.01953 31.1016 4.29297 31.0781Q4.56641 31.0547 4.69922 31.0547Q4.86328 31.0547 5.17969 31.0898Q5.49609 31.125 5.65234 31.125Q5.80859 31.125 5.80859 30.9609Q5.80859 30.4219 5.75781 29.332Q5.70703 28.2422 5.70703 27.6953Q5.70703 27.3203 5.87109 27.2969Q6.07422 27.2656 7.15234 27.2656Q7.76172 27.2656 7.86328 27.2734Q8.31641 27.3359 8.43359 27.6172Q9.60547 30.375 9.85547 30.9063Q9.94922 31.1016 10.1289 31.1016Q10.293 31.1016 10.6172 31.0781Q10.9414 31.0547 11.1055 31.0547Q11.2539 31.0547 11.5586 31.0781Q11.8633 31.1016 12.0117 31.1016ZM9.18359 22.0625Q9.99609 22.5391 9.99609 23.9531Q9.99609 25.7734 7.83984 25.7734Q6.98047 25.7734 6.23828 25.7344Q5.91797 25.7109 5.77734 25.6953Q5.69922 25.6797 5.67578 25.6641L5.67578 24.1719Q5.67578 22.3359 5.73047 21.9141Q5.75391 21.7109 7.01953 21.7109Q8.58203 21.7109 9.18359 22.0625ZM24.7539 24.1719Q24.7773 24.0625 24.7773 24.0313Q24.7773 23.9219 24.1367 23.7813Q23.5586 23.6641 23.3477 23.6641Q23.2148 23.6641 23.1289 24.1563Q23.043 24.6484 22.9961 24.6484Q22.9727 24.6484 22.9492 24.625Q22.668 24.3281 22.5352 24.1719Q21.6445 23.3438 20.4492 23.3438Q18.7539 23.3438 17.7148 24.5234Q16.7227 25.6563 16.7227 27.3906Q16.7227 28.9297 17.707 30.0859Q18.7461 31.2969 20.2617 31.2969Q20.8789 31.2969 21.4961 30.9844Q21.8945 30.7891 22.3555 30.4141Q22.7305 30.1094 22.7773 30.1094Q22.8477 30.1094 22.9258 30.6563Q23.0039 31.2031 23.1523 31.2031Q23.3633 31.2031 23.7969 31.1523C24.0859 31.1185 24.3021 31.1016 24.4453 31.1016C24.5885 31.1016 24.6576 31.026 24.6523 30.875L24.6445 30.7656Q24.4492 27.3359 24.4492 27.2578Q24.4492 25.9609 24.7539 24.1719ZM62.3945 27.2969Q62.3945 28.9297 61.3242 30.0859Q60.2305 31.2813 58.6133 31.2813Q56.9883 31.2813 55.8945 30.0938Q54.8242 28.9453 54.8242 27.3125Q54.8242 25.6797 55.8945 24.5313Q56.9961 23.3594 58.6133 23.3594Q60.2227 23.3594 61.3164 24.5313Q62.3945 25.6719 62.3945 27.2969ZM79.1914 31.1172Q79.3711 31.1172 79.3711 30.8125Q79.3711 30.3203 79.3477 29.332Q79.3242 28.3438 79.3242 27.8516Q79.3242 27.5938 79.3398 27.0547Q79.3555 26.5156 79.3555 26.2578Q79.3555 24.9063 78.957 24.2813Q78.4023 23.4375 76.957 23.4375Q76.207 23.4375 75.4414 23.875Q74.7227 24.2813 74.2383 24.9063Q73.7461 23.4375 71.9492 23.4375Q71.2852 23.4375 70.6211 23.7813Q70.1602 24.0156 69.6992 24.4141L69.3086 24.7578Q69.2461 24.7578 69.1641 24.207Q69.082 23.6563 68.9883 23.6563L68.9258 23.6641Q68.4102 23.7578 68.1523 23.8359Q67.5977 23.9219 67.3086 23.9531Q67.2383 23.9688 67.2383 24.0703Q67.2383 24.1328 67.2617 24.2344Q67.5664 25.6563 67.5664 27.0859Q67.5664 27.7188 67.5586 28.9883Q67.5508 30.2578 67.5508 30.8906Q67.5508 31.1016 67.707 31.1016L69.1602 31.1016C69.2799 31.1016 69.3398 31.026 69.3398 30.875Q69.3398 30.4922 69.332 29.7188Q69.3242 28.9453 69.3242 28.5547L69.3242 26.2734Q69.3242 25.8125 70.0742 25.3594Q70.7539 24.9453 71.2461 24.9453Q72.082 24.9453 72.3789 25.4766Q72.5898 25.8516 72.5898 26.7344L72.5898 28.6172Q72.5898 28.9922 72.5664 29.7461Q72.543 30.5 72.543 30.875C72.543 31.026 72.5951 31.1016 72.6992 31.1016C72.7826 31.1016 72.9049 31.0964 73.0664 31.0859Q73.3086 31.0703 73.4336 31.0703Q73.5742 31.0703 73.8438 31.0938Q74.1133 31.1172 74.2539 31.1172Q74.3945 31.1172 74.3945 30.9063Q74.3945 30.5234 74.3633 29.7578Q74.332 28.9922 74.332 28.6094Q74.332 26.9922 74.3633 26.3828Q74.3867 25.9063 75.0273 25.4141Q75.6445 24.9453 76.1367 24.9453Q76.918 24.9453 77.2227 25.2734Q77.4883 25.5781 77.5508 26.3828Q77.5664 26.6094 77.5664 28.5859Q77.5664 28.9453 77.5391 29.6602Q77.5117 30.375 77.5117 30.7344Q77.5117 31.1016 77.6758 31.1016Q77.8086 31.1016 78.0742 31.0859Q78.3398 31.0703 78.4727 31.0703Q78.5977 31.0703 78.8359 31.0938Q79.0742 31.1172 79.1914 31.1172ZM36.9336 30.9453Q36.9336 31.1172 36.7773 31.1172Q36.5195 31.1172 36.0078 31.1094C35.6667 31.1042 35.4102 31.1016 35.2383 31.1016Q35.0977 31.1016 35.0977 30.875Q35.0977 30.4922 35.1211 29.7109Q35.1445 28.9297 35.1445 28.5391Q35.1445 28.2266 35.1367 27.6055Q35.1289 26.9844 35.1289 26.6719Q35.1289 25.7813 34.8711 25.4141Q34.5586 24.9766 33.7148 24.9766Q33.3242 24.9766 32.6289 25.4141Q31.8945 25.875 31.8945 26.2344L31.8945 30.9219Q31.8945 31.1172 31.7461 31.1172Q31.4961 31.1172 30.9961 31.1094Q30.4961 31.1016 30.2461 31.1016Q30.082 31.1016 30.082 30.9219Q30.082 30.3047 30.1016 29.0703Q30.1211 27.8359 30.1211 27.2109Q30.1211 25.5469 29.7695 24.1406Q29.7461 24.0703 29.7461 24.0391Q29.7461 23.9609 29.8477 23.9297Q29.9023 23.9219 30.7422 23.7852Q31.582 23.6484 31.6211 23.6484Q31.668 23.6484 31.6836 23.7734Q31.7227 24.2578 31.8633 24.75Q32.2695 24.4297 32.9336 23.9531Q33.7539 23.4531 34.5195 23.4531Q35.9883 23.4531 36.5273 24.3047Q36.9258 24.9297 36.9258 26.3281Q36.9258 26.5703 36.9141 27.0703Q36.9023 27.5703 36.9023 27.8203Q36.9023 28.3438 36.918 29.3828Q36.9336 30.4219 36.9336 30.9453ZM22.2148 25.6484Q22.7852 26.3359 22.7852 27.2969Q22.7852 28.2266 22.207 28.9219Q21.5898 29.6641 20.6758 29.6641Q19.7383 29.6641 19.1133 28.9375Q18.5117 28.2422 18.5117 27.2969Q18.5117 26.3438 19.1133 25.6406Q19.7383 24.9063 20.6758 24.9063Q21.6133 24.9063 22.2148 25.6484ZM47.3945 25.6641Q47.9727 26.375 47.9727 27.3125Q47.9727 28.2734 47.4102 28.9688Q46.8008 29.7109 45.8633 29.7109Q44.9336 29.7109 44.3008 28.9766Q43.6836 28.2813 43.6836 27.3438Q43.6836 26.3594 44.2773 25.6563Q44.9023 24.9063 45.8633 24.9063Q46.7773 24.9063 47.3945 25.6641ZM60.7461 27.3125Q60.7461 26.3594 60.1602 25.6875Q59.5508 24.9766 58.6133 24.9766Q57.6758 24.9766 57.0586 25.6797Q56.4727 26.3594 56.4727 27.3125Q56.4727 28.25 57.0664 28.9375Q57.6914 29.6641 58.6133 29.6641Q59.543 29.6641 60.1602 28.9375Q60.7461 28.25 60.7461 27.3125Z" />
        </g>
      </g>
    </g>
  </g>
</svg>