<?xml version="1.0" encoding="utf-8"?>
<svg width="1392px" height="295px" viewBox="0 0 1392 295" version="1.1" xmlns:xlink="http://www.w3.org/1999/xlink" xmlns="http://www.w3.org/2000/svg">
  <defs>
    <filter filterUnits="userSpaceOnUse" color-interpolation-filters="sRGB" id="filter_1">
      <feFlood flood-opacity="0" result="BackgroundImageFix" />
      <feColorMatrix in="SourceAlpha" type="matrix" values="0 0 0 0 0 0 0 0 0 0 0 0 0 0 0 0 0 0 127 0" />
      <feOffset dx="2" dy="8" />
      <feGaussianBlur stdDeviation="0" />
      <feColorMatrix type="matrix" values="0 0 0 0 0.023529412 0 0 0 0 0.019607844 0 0 0 0 0.019607844 0 0 0 0.49803922 0" />
      <feBlend mode="normal" in2="BackgroundImageFix" result="effect0_dropShadow" />
      <feBlend mode="normal" in="SourceGraphic" in2="effect0_dropShadow" result="shape" />
    </filter>
    <path d="M0 0L1351.84 0L1351.84 254.402L0 254.402L0 0Z" id="path_1" />
    <path d="M498.164 83.1445C498.164 91.1719 496.772 98.1006 493.989 103.931C491.206 109.761 487.397 114.565 482.563 118.345C477.729 122.124 472.075 124.907 465.601 126.694C459.126 128.481 452.168 129.375 444.727 129.375C441.855 129.375 438.706 128.994 435.278 128.232C431.851 127.471 428.379 126.519 424.863 125.376C421.348 124.233 417.964 123.003 414.712 121.685C411.46 120.366 408.574 119.121 406.055 117.949L409.922 83.4961C414.902 86.4844 420.425 88.7549 426.489 90.3076C432.554 91.8604 438.516 92.6367 444.375 92.6367C445.488 92.6367 446.836 92.5928 448.418 92.5049C450 92.417 451.509 92.1533 452.944 91.7139C454.38 91.2744 455.596 90.6152 456.592 89.7363C457.588 88.8574 458.086 87.5977 458.086 85.957C458.086 84.8438 457.734 83.8916 457.031 83.1006C456.328 82.3096 455.42 81.665 454.307 81.167C453.193 80.669 451.934 80.2881 450.527 80.0244C449.121 79.7607 447.744 79.5703 446.396 79.4531C445.049 79.3359 443.789 79.2774 442.617 79.2774C441.445 79.2774 440.508 79.2774 439.805 79.2774C434.766 79.2774 430.181 78.4863 426.05 76.9043C421.919 75.3223 418.374 73.0811 415.415 70.1807C412.456 67.2803 410.156 63.7647 408.516 59.6338C406.875 55.5029 406.055 50.918 406.055 45.8789C406.055 38.9648 407.446 32.7686 410.229 27.29C413.013 21.8115 416.733 17.1533 421.392 13.3154C426.05 9.47754 431.396 6.5332 437.432 4.48242C443.467 2.43164 449.707 1.40625 456.152 1.40625C459.023 1.40625 461.982 1.50879 465.029 1.71387C468.076 1.91895 471.108 2.28516 474.126 2.8125C477.144 3.33984 480.088 4.01367 482.959 4.83398C485.83 5.6543 488.555 6.67969 491.133 7.91016L487.793 43.5938C483.809 42.2461 479.634 41.1182 475.269 40.21C470.903 39.3018 466.641 38.8477 462.48 38.8477C461.719 38.8477 460.737 38.8623 459.536 38.8916C458.335 38.9209 457.075 39.0088 455.757 39.1553C454.438 39.3018 453.105 39.5215 451.758 39.8145C450.41 40.1074 449.209 40.5029 448.154 41.001C447.1 41.499 446.25 42.1582 445.605 42.9785C444.961 43.7988 444.668 44.7656 444.727 45.8789C444.785 47.168 445.269 48.1641 446.177 48.8672C447.085 49.5703 448.257 50.083 449.692 50.4053C451.128 50.7276 452.71 50.8887 454.438 50.8887C456.167 50.8887 457.881 50.8447 459.58 50.7568C461.279 50.669 462.861 50.5811 464.326 50.4932C465.791 50.4053 466.992 50.3906 467.93 50.4492C472.617 50.7422 476.836 51.7383 480.586 53.4375C484.336 55.1367 487.515 57.3926 490.122 60.2051C492.729 63.0176 494.722 66.3721 496.099 70.2686C497.476 74.165 498.164 78.457 498.164 83.1445L498.164 83.1445ZM402.451 83.1445C402.451 91.1719 401.06 98.1006 398.276 103.931C395.493 109.761 391.685 114.565 386.851 118.345C382.017 122.124 376.362 124.907 369.888 126.694C363.413 128.481 356.455 129.375 349.014 129.375C346.143 129.375 342.993 128.994 339.565 128.232C336.138 127.471 332.666 126.519 329.15 125.376C325.635 124.233 322.251 123.003 318.999 121.685C315.747 120.366 312.861 119.121 310.342 117.949L314.209 83.4961C319.189 86.4844 324.712 88.7549 330.776 90.3076C336.841 91.8604 342.803 92.6367 348.662 92.6367C349.775 92.6367 351.123 92.5928 352.705 92.5049C354.287 92.417 355.796 92.1533 357.231 91.7139C358.667 91.2744 359.883 90.6152 360.879 89.7363C361.875 88.8574 362.373 87.5977 362.373 85.957C362.373 84.8438 362.021 83.8916 361.318 83.1006C360.615 82.3096 359.707 81.665 358.594 81.167C357.48 80.669 356.221 80.2881 354.814 80.0244C353.408 79.7607 352.031 79.5703 350.684 79.4531C349.336 79.3359 348.076 79.2774 346.904 79.2774C345.732 79.2774 344.795 79.2774 344.092 79.2774C339.053 79.2774 334.468 78.4863 330.337 76.9043C326.206 75.3223 322.661 73.0811 319.702 70.1807C316.743 67.2803 314.443 63.7647 312.803 59.6338C311.162 55.5029 310.342 50.918 310.342 45.8789C310.342 38.9648 311.733 32.7686 314.517 27.29C317.3 21.8115 321.021 17.1533 325.679 13.3154C330.337 9.47754 335.684 6.5332 341.719 4.48242C347.754 2.43164 353.994 1.40625 360.439 1.40625C363.311 1.40625 366.27 1.50879 369.316 1.71387C372.363 1.91895 375.396 2.28516 378.413 2.8125C381.431 3.33984 384.375 4.01367 387.246 4.83398C390.117 5.6543 392.842 6.67969 395.42 7.91016L392.08 43.5938C388.096 42.2461 383.921 41.1182 379.556 40.21C375.19 39.3018 370.928 38.8477 366.768 38.8477C366.006 38.8477 365.024 38.8623 363.823 38.8916C362.622 38.9209 361.362 39.0088 360.044 39.1553C358.726 39.3018 357.393 39.5215 356.045 39.8145C354.697 40.1074 353.496 40.5029 352.441 41.001C351.387 41.499 350.537 42.1582 349.893 42.9785C349.248 43.7988 348.955 44.7656 349.014 45.8789C349.072 47.168 349.556 48.1641 350.464 48.8672C351.372 49.5703 352.544 50.083 353.979 50.4053C355.415 50.7276 356.997 50.8887 358.726 50.8887C360.454 50.8887 362.168 50.8447 363.867 50.7568C365.566 50.669 367.148 50.5811 368.613 50.4932C370.078 50.4053 371.279 50.3906 372.217 50.4492C376.904 50.7422 381.123 51.7383 384.873 53.4375C388.623 55.1367 391.802 57.3926 394.409 60.2051C397.017 63.0176 399.009 66.3721 400.386 70.2686C401.763 74.165 402.451 78.457 402.451 83.1445L402.451 83.1445ZM306.65 57.1289C306.65 62.2266 306.299 67.3242 305.596 72.4219C295.576 73.0664 285.615 74.1064 275.713 75.542C265.811 76.9775 255.908 78.3984 246.006 79.8047C247.529 84.0234 249.917 87.3926 253.169 89.9121C256.421 92.4316 260.303 93.6914 264.814 93.6914C267.158 93.6914 269.722 93.252 272.505 92.373C275.288 91.4941 278.057 90.3955 280.811 89.0771C283.564 87.7588 286.201 86.3379 288.721 84.8145C291.24 83.291 293.408 81.9141 295.225 80.6836L291.006 120.586C288.721 122.344 286.245 123.838 283.579 125.068C280.913 126.299 278.145 127.295 275.273 128.057C272.402 128.818 269.502 129.375 266.572 129.727C263.643 130.078 260.771 130.254 257.959 130.254C252.158 130.254 246.855 129.463 242.051 127.881C237.246 126.299 232.896 124.087 228.999 121.245C225.103 118.403 221.689 115.049 218.76 111.182C215.83 107.314 213.398 103.096 211.465 98.5254C209.531 93.9551 208.066 89.1211 207.07 84.0234C206.074 78.9258 205.576 73.7695 205.576 68.5547C205.576 63.1055 206.074 57.6563 207.07 52.207C208.066 46.7578 209.575 41.5137 211.597 36.4746C213.618 31.4356 216.167 26.7627 219.243 22.4561C222.319 18.1494 225.908 14.3848 230.01 11.1621C234.111 7.93945 238.755 5.41992 243.94 3.60352C249.126 1.78711 254.854 0.878906 261.123 0.878906C266.338 0.878906 271.099 1.59668 275.405 3.03223C279.712 4.46777 283.55 6.45996 286.919 9.00879C290.288 11.5576 293.218 14.5898 295.708 18.1055C298.198 21.6211 300.249 25.4736 301.86 29.6631C303.472 33.8525 304.673 38.2764 305.464 42.9346C306.255 47.5928 306.65 52.3242 306.65 57.1289L306.65 57.1289ZM271.494 52.5586C271.494 50.918 271.318 49.2334 270.967 47.5049C270.615 45.7764 270.044 44.209 269.253 42.8027C268.462 41.3965 267.422 40.2393 266.133 39.3311C264.844 38.4229 263.232 37.9688 261.299 37.9688C258.955 37.9688 256.89 38.5986 255.103 39.8584C253.315 41.1182 251.777 42.7002 250.488 44.6045C249.199 46.5088 248.145 48.5742 247.324 50.8008C246.504 53.0274 245.889 55.0781 245.479 56.9531L271.494 54.4922L271.494 52.5586ZM200.215 124.629L156.27 126.738L155.918 89.6484L135.703 89.6484L134.473 128.145L95.0977 128.145L98.4375 4.57031L140.273 6.50391L137.637 69.6094L157.148 69.6094L157.324 3.51563L197.402 4.57031L200.215 124.629ZM90.3516 4.57031L85.4297 41.6602C83.7305 41.1914 82.0312 40.8691 80.332 40.6934C78.6328 40.5176 76.9336 40.4297 75.2344 40.4297C70.8984 40.4297 66.7676 41.001 62.8418 42.1436C58.916 43.2861 55.4443 45.0293 52.4268 47.373C49.4092 49.7168 47.0068 52.6465 45.2197 56.1621C43.4326 59.6777 42.5391 63.8086 42.5391 68.5547C42.5391 71.6016 43.0225 74.2383 43.9893 76.4649C44.9561 78.6914 46.3184 80.5371 48.0762 82.002C49.834 83.4668 51.9141 84.5508 54.3164 85.2539C56.7188 85.957 59.3555 86.3086 62.2266 86.3086C64.3945 86.3086 66.6504 86.0742 68.9941 85.6055C71.3379 85.1367 73.6523 84.5215 75.9375 83.7598C78.2227 82.998 80.4492 82.1191 82.6172 81.123C84.7851 80.127 86.7773 79.1016 88.5938 78.0469L85.0781 119.355C82.793 120.527 80.3174 121.567 77.6514 122.476C74.9853 123.384 72.2461 124.175 69.4336 124.849C66.6211 125.522 63.8086 126.035 60.9961 126.387C58.1836 126.738 55.4883 126.914 52.9102 126.914C45.4687 126.914 38.5254 125.537 32.0801 122.783C25.6348 120.029 20.0391 116.25 15.293 111.445C10.5469 106.641 6.81152 100.972 4.08691 94.4385C1.3623 87.9053 0 80.8594 0 73.3008C0 63.2813 1.43555 53.833 4.30664 44.9561C7.17773 36.0791 11.3965 28.3008 16.9629 21.6211C22.5293 14.9414 29.4287 9.66797 37.6611 5.80078C45.8936 1.93359 55.3711 0 66.0938 0C70.1367 0 74.2822 0.322266 78.5303 0.966797C82.7783 1.61133 86.7188 2.8125 90.3516 4.57031L90.3516 4.57031Z" id="path_2" />
    <path d="M508.184 56.25C508.184 61.3477 507.832 66.4453 507.129 71.543C497.109 72.1875 487.148 73.2275 477.246 74.6631C467.344 76.0986 457.441 77.5195 447.539 78.9258C449.063 83.1445 451.45 86.5137 454.702 89.0332C457.954 91.5527 461.836 92.8125 466.348 92.8125C468.691 92.8125 471.255 92.373 474.038 91.4941C476.821 90.6152 479.59 89.5166 482.344 88.1982C485.098 86.8799 487.734 85.459 490.254 83.9355C492.773 82.4121 494.941 81.0352 496.758 79.8047L492.539 119.707C490.254 121.465 487.778 122.959 485.112 124.189C482.446 125.42 479.678 126.416 476.807 127.178C473.936 127.939 471.035 128.496 468.105 128.848C465.176 129.199 462.305 129.375 459.492 129.375C453.691 129.375 448.389 128.584 443.584 127.002C438.779 125.42 434.429 123.208 430.532 120.366C426.636 117.524 423.223 114.17 420.293 110.303C417.363 106.436 414.932 102.217 412.998 97.6465C411.064 93.0762 409.6 88.2422 408.604 83.1445C407.607 78.0469 407.109 72.8906 407.109 67.6758C407.109 62.2266 407.607 56.7774 408.604 51.3281C409.6 45.8789 411.108 40.6348 413.13 35.5957C415.151 30.5566 417.7 25.8838 420.776 21.5771C423.853 17.2705 427.441 13.5059 431.543 10.2832C435.645 7.06055 440.288 4.54102 445.474 2.72461C450.659 0.908203 456.387 0 462.656 0C467.871 0 472.632 0.717773 476.938 2.15332C481.245 3.58887 485.083 5.58105 488.452 8.12988C491.821 10.6787 494.751 13.7109 497.241 17.2266C499.731 20.7422 501.782 24.5947 503.394 28.7842C505.005 32.9736 506.206 37.3975 506.997 42.0557C507.788 46.7139 508.184 51.4453 508.184 56.25L508.184 56.25ZM473.027 51.6797C473.027 50.0391 472.852 48.3545 472.5 46.626C472.148 44.8975 471.577 43.3301 470.786 41.9238C469.995 40.5176 468.955 39.3604 467.666 38.4521C466.377 37.544 464.766 37.0899 462.832 37.0898C460.488 37.0898 458.423 37.7197 456.636 38.9795C454.849 40.2393 453.311 41.8213 452.021 43.7256C450.732 45.6299 449.678 47.6953 448.857 49.9219C448.037 52.1484 447.422 54.1992 447.012 56.0742L473.027 53.6133L473.027 51.6797ZM405.088 46.2305C405.088 51.9141 404.238 56.9531 402.539 61.3477C400.84 65.7422 398.511 69.5947 395.552 72.9053C392.593 76.2158 389.121 78.999 385.137 81.2549C381.152 83.5108 376.89 85.3565 372.349 86.792C367.808 88.2276 363.105 89.2822 358.242 89.9561C353.379 90.6299 348.604 90.9961 343.916 91.0547L343.916 128.496L302.959 128.496C302.959 121.816 302.974 115.313 303.003 108.984C303.032 102.656 303.062 96.3721 303.091 90.1319C303.12 83.8916 303.149 77.6074 303.179 71.2793C303.208 64.9512 303.252 58.418 303.311 51.6797C303.428 44.5313 303.457 37.3828 303.398 30.2344C303.34 23.086 303.486 15.8789 303.838 8.6133C311.338 6.38674 318.838 4.71682 326.338 3.60353C333.838 2.49025 341.572 1.93361 349.541 1.93361C354.053 1.93361 358.564 2.29982 363.076 3.03224C367.588 3.76466 371.909 4.92189 376.04 6.50392C380.171 8.08595 384.009 10.0635 387.554 12.4365C391.099 14.8096 394.16 17.6367 396.738 20.918C399.316 24.1992 401.353 27.9492 402.847 32.168C404.341 36.3867 405.088 41.0742 405.088 46.2305L405.088 46.2305ZM366.064 49.2188C366.064 45.4102 364.907 42.4365 362.593 40.2979C360.278 38.1592 357.275 37.0899 353.584 37.0898C352.354 37.0898 351.079 37.1924 349.761 37.3975C348.442 37.6025 347.197 37.8516 346.025 38.1445L344.971 63.8086C345.791 63.9258 346.582 63.9844 347.344 63.9844C348.105 63.9844 348.896 63.9844 349.717 63.9844C351.826 63.9844 353.862 63.6328 355.825 62.9297C357.788 62.2266 359.531 61.2158 361.055 59.8975C362.578 58.5791 363.794 57.0264 364.702 55.2393C365.61 53.4521 366.064 51.4453 366.064 49.2188L366.064 49.2188ZM300.85 119.707L257.256 125.332L251.982 105.469L231.943 105.469L227.549 125.332L182.725 120.938L217.705 3.8672L266.572 1.40627L300.85 119.707ZM248.818 78.5742L242.139 47.9883L235.635 78.5742L248.818 78.5742ZM181.582 7.20705L178.418 44.2969C176.719 43.8281 175.049 43.5059 173.408 43.3301C171.768 43.1543 170.098 43.0664 168.398 43.0664C164.238 43.0664 160.269 43.5938 156.489 44.6485C152.71 45.7031 149.37 47.3145 146.47 49.4824C143.569 51.6504 141.255 54.3897 139.526 57.7002C137.798 61.0108 136.934 64.9219 136.934 69.4336C136.934 72.7149 137.417 75.5713 138.384 78.0029C139.351 80.4346 140.728 82.4561 142.515 84.0674C144.302 85.6787 146.47 86.8945 149.019 87.7149C151.567 88.5352 154.395 88.9453 157.5 88.9453C159.668 88.9453 161.895 88.7256 164.18 88.2861C166.465 87.8467 168.75 87.2461 171.035 86.4844C173.32 85.7227 175.518 84.8438 177.627 83.8477C179.736 82.8516 181.699 81.7969 183.516 80.6836L182.109 121.992C179.824 123.164 177.363 124.204 174.727 125.112C172.09 126.021 169.38 126.812 166.597 127.485C163.813 128.159 161.03 128.672 158.247 129.023C155.464 129.375 152.813 129.551 150.293 129.551C141.973 129.551 134.399 127.998 127.573 124.893C120.747 121.787 114.888 117.554 109.995 112.192C105.103 106.831 101.309 100.605 98.6133 93.5156C95.918 86.4258 94.5703 78.8672 94.5703 70.8399C94.5703 61.2305 95.9326 52.2656 98.6572 43.9453C101.382 35.625 105.396 28.4033 110.698 22.2803C116.001 16.1572 122.563 11.3526 130.386 7.86623C138.208 4.3799 147.188 2.63673 157.324 2.63673C161.367 2.63673 165.469 2.959 169.629 3.60353C173.789 4.24806 177.773 5.44923 181.582 7.20705L181.582 7.20705ZM92.1094 82.2656C92.1094 90.293 90.7178 97.2217 87.9346 103.052C85.1514 108.882 81.3428 113.687 76.5088 117.466C71.6748 121.245 66.0205 124.028 59.5459 125.815C53.0713 127.603 46.1133 128.496 38.6719 128.496C35.8008 128.496 32.6514 128.115 29.2236 127.354C25.7959 126.592 22.3242 125.64 18.8086 124.497C15.293 123.354 11.9092 122.124 8.65723 120.806C5.40527 119.487 2.51953 118.242 0 117.07L3.86719 82.6172C8.84766 85.6055 14.3701 87.876 20.4346 89.4287C26.499 90.9815 32.4609 91.7578 38.3203 91.7578C39.4336 91.7578 40.7812 91.7139 42.3633 91.626C43.9453 91.5381 45.4541 91.2744 46.8897 90.835C48.3252 90.3955 49.541 89.7363 50.5371 88.8574C51.5332 87.9785 52.0313 86.7188 52.0313 85.0781C52.0313 83.9648 51.6797 83.0127 50.9766 82.2217C50.2734 81.4307 49.3652 80.7861 48.252 80.2881C47.1387 79.79 45.8789 79.4092 44.4727 79.1455C43.0664 78.8818 41.6895 78.6914 40.3418 78.5742C38.9941 78.457 37.7344 78.3984 36.5625 78.3984C35.3906 78.3984 34.4531 78.3984 33.75 78.3984C28.7109 78.3984 24.126 77.6074 19.9951 76.0254C15.8643 74.4434 12.3193 72.2022 9.36035 69.3018C6.40137 66.4014 4.10156 62.8857 2.46094 58.7549C0.820313 54.624 2.38419e-07 50.0391 0 45C0 38.0859 1.3916 31.8897 4.1748 26.4111C6.95801 20.9326 10.6787 16.2744 15.3369 12.4365C19.9951 8.59863 25.3418 5.6543 31.377 3.60352C37.4121 1.55274 43.6523 0.527348 50.0977 0.527344C52.9687 0.527344 55.9277 0.629883 58.9746 0.834961C62.0215 1.04004 65.0537 1.40625 68.0713 1.93359C71.0889 2.46094 74.0332 3.13477 76.9043 3.95508C79.7754 4.77539 82.5 5.80078 85.0781 7.03125L81.7383 42.7148C77.7539 41.3672 73.5791 40.2393 69.2139 39.3311C64.8486 38.4229 60.5859 37.9688 56.4258 37.9688C55.6641 37.9688 54.6826 37.9834 53.4814 38.0127C52.2803 38.042 51.0205 38.1299 49.7021 38.2764C48.3838 38.4229 47.0508 38.6426 45.7031 38.9355C44.3555 39.2285 43.1543 39.624 42.0996 40.1221C41.0449 40.6201 40.1953 41.2793 39.5508 42.0996C38.9063 42.9199 38.6133 43.8867 38.6719 45C38.7305 46.2891 39.2139 47.2852 40.1221 47.9883C41.0303 48.6914 42.2021 49.2041 43.6377 49.5264C45.0732 49.8486 46.6553 50.0098 48.3838 50.0098C50.1123 50.0098 51.8262 49.9658 53.5254 49.8779C55.2246 49.79 56.8066 49.7022 58.2715 49.6143C59.7363 49.5264 60.9375 49.5117 61.875 49.5703C66.5625 49.8633 70.7813 50.8594 74.5313 52.5586C78.2812 54.2578 81.46 56.5137 84.0674 59.3262C86.6748 62.1387 88.667 65.4932 90.0439 69.3897C91.4209 73.2861 92.1094 77.5781 92.1094 82.2656L92.1094 82.2656Z" id="path_3" />
    <path d="M63.8315 19.9678C63.8315 10.4749 65.0591 4.4191 67.596 1.88222C68.8235 0.654685 70.4602 1.19209e-07 72.4243 1.19209e-07C77.007 1.19209e-07 86.3363 5.15563 92.0647 10.9659C96.8112 15.6305 97.8751 17.3491 104.176 30.9338C104.831 32.2431 107.613 34.0435 112.605 36.4167C125.945 42.6362 133.146 49.183 138.956 60.3945C144.685 71.4422 147.304 84.1267 147.304 100.821C147.304 117.516 145.34 126.026 136.501 148.122C133.392 155.978 130.282 164.816 129.627 167.762C128.072 175.291 128.236 186.012 130.036 191.085L131.428 195.177L135.928 195.75C138.384 195.996 142.557 196.241 145.34 196.323C150.659 196.405 154.178 198.041 152.541 199.678C152.05 200.169 149.431 200.988 146.813 201.397C138.302 202.706 90.1007 203.197 68.8235 202.215C22.9957 200.006 -6.79233 195.586 24.1414 195.586L36.7441 195.586L34.78 191.74C31.9158 185.93 30.2791 178.565 30.2791 171.281C30.2791 154.751 37.8079 141.166 57.6121 121.525C70.6239 108.759 74.4701 102.949 74.4701 96.4838C74.4701 92.2284 73.6518 91.9829 56.3845 92.0647L40.5085 92.1466L31.1793 96.8112C18.4948 103.113 13.6665 103.031 6.13765 96.4838C2.12772 92.9649 0 88.3003 0 82.981C0 76.516 2.70056 73.3244 17.1854 63.0132C20.0497 60.9673 28.1514 53.6021 35.1892 46.4825C48.6102 33.1433 54.175 29.0515 60.3126 28.1513L63.8315 27.6603L63.8315 19.9678L63.8315 19.9678ZM64 42.1C58.4771 42.1 54 46.5772 54 52.1C54 57.6229 58.4771 62.1 64 62.1C69.5228 62.1 74 57.6229 74 52.1C74 46.5772 69.5228 42.1 64 42.1L64 42.1Z" transform="translate(497.16403 0)" id="path_4" />
    <clipPath id="mask_1">
      <use xlink:href="#path_1" />
    </clipPath>
    <clipPath id="mask_2">
      <use xlink:href="#path_2" />
    </clipPath>
    <clipPath id="mask_3">
      <use xlink:href="#path_3" />
    </clipPath>
    <clipPath id="mask_4">
      <use xlink:href="#path_4" />
    </clipPath>
  </defs>
  <g id="image" transform="translate(20 20)">
    <path d="M0 0L1351.84 0L1351.84 254.402L0 254.402L0 0Z" id="Background" fill="none" fill-rule="evenodd" stroke="none" />
    <g clip-path="url(#mask_1)">
      <g filter="url(#filter_1)">
        <g id="banner" transform="translate(87.83597 25.40245)">
          <g id="chess" transform="translate(0 45.171844)">
            <g id="text">
              <use xlink:href="#path_2" fill="none" stroke="#FFFEFD" stroke-width="40" />
              <use xlink:href="#path_2" fill="none" stroke="#32291D" stroke-width="30" />
              <use stroke="none" fill="#7DAA4A" xlink:href="#path_2" />
            </g>
            <g clip-path="url(#mask_2)">
              <path d="M0 0L0 259.42L53.9732 259.42L53.9732 0L0 0L0 0ZM85.3129 0L85.3129 259.42L139.286 259.42L139.286 0L85.3129 0L85.3129 0ZM255.938 3.05176e-05L255.938 259.42L309.911 259.42L309.911 3.05176e-05L255.938 3.05176e-05L255.938 3.05176e-05ZM341.25 7.62939e-05L341.25 259.42L395.224 259.42L395.224 7.62939e-05L341.25 7.62939e-05L341.25 7.62939e-05ZM511.875 3.8147e-05L511.875 259.42L565.848 259.42L565.848 3.8147e-05L511.875 3.8147e-05L511.875 3.8147e-05ZM170.626 0.580338L170.626 260L224.599 260L224.599 0.580338L170.626 0.580338L170.626 0.580338ZM426.563 0.580421L426.563 260L480.536 260L480.536 0.580421L426.563 0.580421L426.563 0.580421Z" transform="matrix(0.9563048 -0.2923717 0.2923717 0.9563048 -59.668877 23.775635)" id="overlay" fill="#253D0A" fill-opacity="0.047058824" fill-rule="evenodd" stroke="none" />
            </g>
          </g>
          <g id="scape" transform="translate(666.98047 45.200012)">
            <g id="text">
              <use xlink:href="#path_3" fill="none" stroke="#FFFFFF" stroke-width="40" />
              <use xlink:href="#path_3" fill="none" stroke="#32291D" stroke-width="30" />
              <use stroke="none" fill="#E3E3E3" xlink:href="#path_3" />
            </g>
            <g clip-path="url(#mask_3)">
              <path d="M0 0.000259399L0 259.42L53.9732 259.42L53.9732 0.000259399L0 0.000259399L0 0.000259399ZM85.3126 0.000112534L85.3126 259.42L139.286 259.42L139.286 0.000112534L85.3126 0.000112534L85.3126 0.000112534ZM255.938 0.000329971L255.938 259.42L309.911 259.42L309.911 0.000329971L255.938 0.000329971L255.938 0.000329971ZM341.25 4.57764e-05L341.25 259.42L395.223 259.42L395.223 4.57764e-05L341.25 4.57764e-05L341.25 4.57764e-05ZM511.875 0.000230789L511.875 259.42L565.848 259.42L565.848 0.000230789L511.875 0.000230789L511.875 0.000230789ZM170.625 0.580618L170.625 260L224.599 260L224.599 0.580618L170.625 0.580618L170.625 0.580618ZM426.562 0.580284L426.562 260L480.535 260L480.535 0.580284L426.562 0.580284L426.562 0.580284Z" transform="matrix(0.95105654 0.309017 -0.309017 0.95105654 24.509422 -147.15582)" id="overlay" fill="#C6C6C6" fill-opacity="0.24705882" fill-rule="evenodd" stroke="none" />
            </g>
          </g>
          <g id="Mask">
            <use xlink:href="#path_4" fill="none" stroke="#FFFEFD" stroke-width="40" />
            <use xlink:href="#path_4" fill="none" stroke="#32291D" stroke-width="30" />
            <use stroke="none" fill="#CFCC99" xlink:href="#path_4" fill-rule="evenodd" />
          </g>
        </g>
      </g>
    </g>
  </g>
</svg>