<?xml version="1.0" encoding="utf-8"?>
<svg viewBox="0 0 500 500" xmlns="http://www.w3.org/2000/svg">
  <defs>
    <linearGradient gradientUnits="userSpaceOnUse" x1="32" y1="18.401" x2="32" y2="45.598" id="gradient-0" gradientTransform="matrix(0.007323, -0.999993, 0.921145, 0.006746, -0.215742, 63.783395)">
      <stop offset="0" style="stop-color: rgb(177, 161, 85);"/>
      <stop offset="1" style="stop-color: rgb(111, 71, 32);"/>
    </linearGradient>
  </defs>
  <g id="box" transform="matrix(0, 7.161238, -7.161238, 0, 471.849715, 23.346688)" style="">
    <rect fill="none" height="64" width="64"/>
  </g>
  <g id="icon" transform="matrix(7.847278, 0, 0, 7.84712, 0.196621, -2.441449)" style="">
    <g>
      <path d="M15.2655,18.4517c-0.875,0.0026-1.0996,0.6283-1.3907,1.5815c-0.2589,0.8472-0.5206,2.0768-1.3646,2.0768    c-0.874,0-1.2814-1.5635-1.5167-2.1485c-0.2021-0.5027-0.5586-0.8999-0.6068-0.9095V19.04c0,0,0.0079,0.0051,0.0188,0.0149    c-0.3971-0.4031-0.9587-0.6536-1.5693-0.6536c-1.2092,0-2.1995,0.9803-2.1995,2.1897v22.8178    c0,1.2094,0.9911,2.1897,2.2004,2.1897c0.627,0,1.2402-0.2954,1.5464-0.6433c0,0,0.361-0.3036,0.6077-0.9168    c0.2354-0.585,0.6514-2.1486,1.5254-2.1486c0.844,0,1.0975,1.2296,1.3564,2.0769c0.2911,0.9532,0.5135,1.6166,1.3885,1.6193    c0,0,0.0262-0.0093,0.0402-0.0093h0.0045h0.0004h0.0034h0.001h22.3257c0-5.1771,0-4.0806,0-16.75h-20.25v-6h20.25v-4.375H15.3065    H15.2655z M15.3016,18.4044v0.0002l0.0049-0.0002H15.3016z M40.3866,18.4161v4.3793c5.1229,0.2996,10.6254,4.6487,12.2678,8.1267    c-2.3817-1.2552-5.8588-2.0954-10.9045-2.0954h-1.3633c0,8.4878,0,9.7971,0,16.7571c8.5242-0.3334,16.9768-8.5104,16.9768-13.5839    C57.3634,26.9263,48.9147,18.7493,40.3866,18.4161z" style="paint-order: fill; fill: url(#gradient-0);"/>
    </g>
  </g>
</svg>