<svg viewBox="0 0 64 64" xmlns="http://www.w3.org/2000/svg"><path d="M16.152 1.9zM29.582 36.529l1.953.407c.757-3.627 4.07-6.065 7.389-5.436l.372-1.96c-4.378-.823-8.735 2.304-9.714 6.989z"/><path d="M62.278 56.41l-9.298-9.288-.888.888-1.576-1.586a15.194 15.194 0 00-2.035-19.095c-4.2-4.21-10.276-5.427-15.573-3.681-.489-2.993-1.127-5.627-1.537-6.794C27.571 5.95 18.153.702 17.135.164a1.15 1.15 0 00-1.147-.02c-.35.2-.579.588-.579 1.007V6.3c-.26-.02-.538-.03-.808-.02-2.484.05-4.878 1.327-6.395 3.412-2.324 3.232-6.474 6.265-7.282 6.834l-.42.3v.398l-.08.33 3.004 5.836.289.429 1.037.239.41-.429c1.197-1.297 5.018-2.025 8.918-2.265-1.366 1.866-2.993 4.999-4.848 9.358a17.666 17.666 0 00-1.427 6.984c0 .459-.16 1.007-.449 1.616-.269.539-.648 1.127-1.047 1.656a2.903 2.903 0 01-1.776 1.087l-.818.16v3.87H1.253v7.433h35.506v-.17c3.222.2 6.474-.618 9.238-2.424l1.576 1.587-.888.888 9.308 9.298a4.462 4.462 0 006.285 0 4.467 4.467 0 000-6.295zM11.07 31.51c2.394-5.617 4.539-9.428 5.826-10.246.399-.3.548-.828.369-1.277-.17-.46-.629-.739-1.028-.689-2.065.02-8.43.25-11.542 2.175l-1.956-3.8c1.537-1.148 4.978-3.882 7.084-6.805 1.157-1.586 2.952-2.554 4.818-2.594.499-.02.958.03 1.387.12.339.08.688.01.958-.21.269-.209.419-.528.419-.877v-4.67c2.793 1.767 9.178 6.555 12.08 14.875.4 1.138 1.058 3.871 1.527 6.904a14.863 14.863 0 00-4.11 2.913c-2.853 2.844-4.32 6.555-4.44 10.296H9.813c.01-2.125.43-4.18 1.258-6.116zM5.712 43.8a4.987 4.987 0 002.185-1.606A13.68 13.68 0 009.154 40.2c.09-.2.17-.39.24-.579h13.118a15.24 15.24 0 002.185 6.475H5.712V43.8zm-2.464 7.732V48.09h22.916c.24.28.479.559.738.818a15.6 15.6 0 003.502 2.624H3.248zm41.741-6.185c-4.08 4.14-10.545 4.05-14.555.04a10.195 10.195 0 01-3.013-7.263c0-2.754 1.067-5.328 3.003-7.263 4.02-4.02 10.515-4.02 14.525-.01 4.16 4.14 3.971 10.645.04 14.496z"/><path d="M14.87 12.903a1.371 1.371 0 01-2.744 0c.001-.758.62-1.366 1.378-1.366.748 0 1.367.608 1.367 1.366z"/></svg>