<?xml version="1.0" encoding="utf-8"?>
<svg viewBox="0 0 500 500" xmlns="http://www.w3.org/2000/svg">
  <path d="M 483.841 250.41 C 483.677 255.677 459.976 263.577 412.737 274.112 L 325.83 282.013 L 270.527 297.815 L 254.726 297.815 L 182.388 384.724 L 199.422 384.724 C 203.702 384.724 207.406 385.094 210.533 385.835 C 213.66 386.575 215.224 387.523 215.224 388.675 C 215.224 389.828 213.66 390.774 210.533 391.514 C 207.406 392.254 203.702 392.626 199.422 392.626 L 120.417 392.626 L 120.417 384.724 L 136.219 384.724 L 136.219 282.013 L 96.716 282.013 L 49.314 337.318 L 25.612 337.318 L 17.712 329.418 L 17.712 282.013 L 25.612 282.013 L 25.612 274.112 L 57.214 274.112 L 57.214 272.138 L 9.81 266.211 L 9.81 234.608 L 57.214 228.681 L 57.214 226.706 L 25.612 226.706 L 25.612 218.806 L 17.712 218.806 L 17.712 171.4 L 25.612 163.5 L 49.314 163.5 L 96.716 218.806 L 136.219 218.806 L 136.219 116.095 L 120.417 116.095 L 120.417 108.193 L 199.422 108.193 C 203.702 108.193 207.406 108.564 210.533 109.305 C 213.66 110.047 215.224 110.993 215.224 112.145 C 215.224 113.297 213.66 114.243 210.533 114.984 C 207.406 115.725 203.702 116.095 199.422 116.095 L 182.388 116.095 L 254.726 203.004 L 270.527 203.004 L 325.83 218.806 L 412.737 226.706 C 455.696 236.255 479.315 243.908 483.594 249.668 Z" style="stroke: rgb(75, 85, 99); paint-order: stroke; fill: rgb(75, 85, 99);" transform="matrix(0, -1.000012, 0.999988, 0, -3.5809, 497.238068)"/>
</svg>