<?xml version="1.0" encoding="utf-8"?>
<svg width="347px" height="372px" viewBox="0 0 347 372" version="1.1" xmlns:xlink="http://www.w3.org/1999/xlink" xmlns="http://www.w3.org/2000/svg">
  <defs>
    <path d="M0 0L307 0L307 332L0 332L0 0Z" id="path_1" />
    <path d="M63.8315 19.9678C63.8315 10.4749 65.0591 4.4191 67.596 1.88222C68.8235 0.654685 70.4602 1.19209e-07 72.4243 1.19209e-07C77.007 1.19209e-07 86.3363 5.15563 92.0647 10.9659C96.8112 15.6305 97.8751 17.3491 104.176 30.9338C104.831 32.2431 107.613 34.0435 112.605 36.4167C125.945 42.6362 133.146 49.183 138.956 60.3945C144.685 71.4422 147.304 84.1267 147.304 100.821C147.304 117.516 145.34 126.026 136.501 148.122C133.392 155.978 130.282 164.816 129.627 167.762C128.072 175.291 128.236 186.012 130.036 191.085L131.428 195.177L135.928 195.75C138.384 195.996 142.557 196.241 145.34 196.323C150.659 196.405 154.178 198.041 152.541 199.678C152.05 200.169 149.431 200.988 146.813 201.397C138.302 202.706 90.1007 203.197 68.8235 202.215C22.9957 200.006 -6.79233 195.586 24.1414 195.586L36.7441 195.586L34.78 191.74C31.9158 185.93 30.2791 178.565 30.2791 171.281C30.2791 154.751 37.8079 141.166 57.6121 121.525C70.6239 108.759 74.4701 102.949 74.4701 96.4838C74.4701 92.2284 73.6518 91.9829 56.3845 92.0647L40.5085 92.1466L31.1793 96.8112C18.4948 103.113 13.6665 103.031 6.13765 96.4838C2.12772 92.9649 0 88.3003 0 82.981C0 76.516 2.70056 73.3244 17.1854 63.0132C20.0497 60.9673 28.1514 53.6021 35.1892 46.4825C48.6102 33.1433 54.175 29.0515 60.3126 28.1513L63.8315 27.6603L63.8315 19.9678L63.8315 19.9678ZM64 42.1C58.4771 42.1 54 46.5772 54 52.1C54 57.6229 58.4771 62.1 64 62.1C69.5228 62.1 74 57.6229 74 52.1C74 46.5772 69.5228 42.1 64 42.1L64 42.1Z" id="path_2" />
    <clipPath id="mask_1">
      <use xlink:href="#path_1" />
    </clipPath>
    <clipPath id="mask_2">
      <use xlink:href="#path_2" />
    </clipPath>
  </defs>
  <g id="logo" transform="translate(20 20)">
    <path d="M0 0L307 0L307 332L0 332L0 0Z" id="Background" fill="none" fill-rule="evenodd" stroke="none" />
    <g clip-path="url(#mask_1)">
      <g id="knight" transform="translate(60 43)">
        <g id="Mask">
          <use xlink:href="#path_2" fill="none" stroke="#FFFEFD" stroke-width="40" />
          <use xlink:href="#path_2" fill="none" stroke="#32291D" stroke-width="30" />
          <use stroke="none" fill="#CFCC99" xlink:href="#path_2" fill-rule="evenodd" />
        </g>
      </g>
    </g>
  </g>
</svg>