<?xml version="1.0" encoding="utf-8"?>
<svg width="347px" height="372px" viewBox="0 0 347 372" version="1.1" xmlns:xlink="http://www.w3.org/1999/xlink" xmlns="http://www.w3.org/2000/svg">
  <defs>
    <linearGradient x1="0" y1="0" x2="1" y2="1" id="gradient_1">
      <stop offset="0" stop-color="#FFFFFF" />
      <stop offset="1" stop-color="#CFCC99" />
    </linearGradient>
    <path d="M0 0L307 0L307 332L0 332L0 0Z" id="path_1" />
    <path d="M67.596 1.88222C65.0591 4.4191 63.8315 10.4749 63.8315 19.9678L63.8315 27.6603L60.3126 28.1513C54.175 29.0515 48.6102 33.1433 35.1892 46.4825C28.1514 53.6021 20.0497 60.9673 17.1854 63.0132C2.70056 73.3244 0 76.516 0 82.981C0 88.3003 2.12772 92.9649 6.13765 96.4838C13.6665 103.031 18.4948 103.113 31.1793 96.8112L40.5085 92.1466L56.3845 92.0647C73.6518 91.9829 74.4701 92.2284 74.4701 96.4838C74.4701 102.949 70.6239 108.759 57.6121 121.525C37.8079 141.166 30.2791 154.751 30.2791 171.281C30.2791 178.565 31.9158 185.93 34.78 191.74L36.7441 195.586L24.1414 195.586C-6.79233 195.586 22.9957 200.006 68.8235 202.215C90.1007 203.197 138.302 202.706 146.813 201.397C149.431 200.988 152.05 200.169 152.541 199.678C154.178 198.041 150.659 196.405 145.34 196.323C142.557 196.241 138.384 195.996 135.928 195.75L131.428 195.177L130.036 191.085C128.236 186.012 128.072 175.291 129.627 167.762C130.282 164.816 133.392 155.978 136.501 148.122C145.34 126.026 147.304 117.516 147.304 100.821C147.304 84.1267 144.685 71.4422 138.956 60.3945C133.146 49.183 125.945 42.6362 112.605 36.4167C107.613 34.0435 104.831 32.2431 104.176 30.9338C97.875 17.3491 96.8112 15.6305 92.0647 10.9659C86.3363 5.15563 77.007 0 72.4243 0C70.4602 0 68.8235 0.654685 67.596 1.88222L67.596 1.88222Z" id="path_2" />
    <clipPath id="mask_1">
      <use xlink:href="#path_1" />
    </clipPath>
    <clipPath id="mask_2">
      <use xlink:href="#path_2" />
    </clipPath>
  </defs>
  <g id="logo" transform="translate(20 20)">
    <path d="M0 0L307 0L307 332L0 332L0 0Z" id="Background" fill="none" fill-rule="evenodd" stroke="none" />
    <g clip-path="url(#mask_1)">
      <g id="knight" transform="translate(60 43)">
        <g id="piece">
          <use xlink:href="#path_2" fill="none" stroke="#FFFEFD" stroke-width="40" />
          <use xlink:href="#path_2" fill="none" stroke="#32291D" stroke-width="30" />
          <use stroke="none" fill="#CFCC99" xlink:href="#path_2" fill-rule="evenodd" />
        </g>
        <g clip-path="url(#mask_2)">
          <path d="M95.1238 0C112.671 97.4723 53.7636 117.796 27.6097 164.489C-14.8099 164.554 4.28666 166.944 4.28666 166.944L73.4376 174.718L140.952 170.627L144.634 168.581C144.634 168.581 163.072 5.58388 95.1238 0Z" transform="translate(9.216164 31.097427)" id="shadow" fill="url(#gradient_1)" fill-opacity="0.15" style="mix-blend-mode: hard-light;" fill-rule="evenodd" stroke="none" />
        </g>
      </g>
    </g>
  </g>
</svg>