<?xml version="1.0" encoding="utf-8"?>
<svg width="513px" height="513px" viewBox="0 0 513 513" version="1.1" xmlns:xlink="http://www.w3.org/1999/xlink" xmlns="http://www.w3.org/2000/svg">
  <defs>
    <filter id="filter_1">
      <feColorMatrix in="SourceGraphic" type="matrix" values="0 0 0 0 0.6431373 0 0 0 0 0.45882353 0 0 0 0 0.2627451 0 0 0 1 0" />
    </filter>
    <filter id="filter_2">
      <feColorMatrix in="SourceGraphic" type="matrix" values="0 0 0 0 0.54509807 0 0 0 0 0.3764706 0 0 0 0 0.2 0 0 0 1 0" />
    </filter>
    <path d="M0 0L512 0L512 512L0 512L0 0Z" id="path_1" />
    <clipPath id="mask_1">
      <use xlink:href="#path_1" />
    </clipPath>
  </defs>
  <g id="spankied" transform="translate(0.5 0.5)">
    <path d="M0 0L512 0L512 512L0 512L0 0Z" id="Background" fill="none" fill-rule="evenodd" stroke="none" />
    <g clip-path="url(#mask_1)">
      <g id="torso" transform="translate(30.265923 272.671)">
        <path d="M364.419 207.509C364.058 205.698 342.067 95.219 341.825 94.084C339.184 81.296 332.028 71.5 321.525 65.189C315.229 61.391 311.654 60.786 307.571 59.531C310.441 60.534 254.944 41.138 232.581 33.322C228.155 31.804 225.182 27.642 225.182 22.963L225.182 0C196.459 14.362 166.339 13.455 139.604 0.40799L139.604 22.963C139.604 27.642 136.631 31.805 132.205 33.322C129.053 34.403 143.623 29.407 101.378 43.892L101.349 43.892C101.35 43.895 101.352 43.898 101.352 43.898L101.349 43.903L57.2461 59.531C55.2101 60.132 51.1881 61.319 51.4441 61.243C40.9521 65.156 31.8541 72.587 26.7561 82.978C23.2271 90.136 24.2741 87.622 7.14909 173.587C0.808086 206.423 -0.591915 208.815 0.201086 216.151C2.40808 236.657 23.5001 234.517 24.0711 234.766C64.5131 234.766 186.381 234.766 182.543 234.766C182.968 234.766 201.194 234.766 200.061 234.766C228.223 234.766 328.06 234.766 340.741 234.766C340.967 234.69 368.556 236.79 364.419 207.509L364.419 207.509Z" transform="translate(0 3.5540466)" id="Shape" fill="#6C7D87" fill-rule="evenodd" stroke="none" />
        <g id="arm" transform="translate(0.0013389587 59.483)">
          <path d="M26.1527 151.58L48.7457 27.851C48.4327 29.354 50.4227 11.301 67.4067 0C48.4387 6.72101 54.3177 4.03201 48.4867 6.53101C37.4797 11.502 28.9437 19.948 24.7347 31.85C23.0507 36.63 24.1427 32.428 7.14874 117.657C0.807739 150.493 -0.591261 152.888 0.200739 160.221C2.40774 180.727 23.4997 178.587 24.0707 178.836C26.5847 178.836 46.7257 178.836 49.8287 178.836C31.6547 178.837 23.8017 168.209 26.1527 151.58L26.1527 151.58Z" id="Shape" fill="#566A75" fill-rule="evenodd" stroke="none" />
          <path d="M70.6661 63.013C55.9591 63.013 39.0191 63.013 24.0481 63.013C23.4511 62.752 -0.589905 65.167 0.011095 40.105C0.142096 34.761 0.811094 34.536 7.12609 1.83301L7.4911 0L70.6661 0L70.6661 63.013L70.6661 63.013Z" transform="translate(0.021644592 115.824005)" id="Shape" fill="#A47543" fill-rule="evenodd" stroke="none" />
          <path d="M32.659 0L7.49096 0L7.12596 1.832C0.787956 34.649 0.141954 34.752 0.0109558 40.104C-0.588045 65.083 23.574 62.805 24.048 63.012C26.562 63.012 46.703 63.012 49.806 63.012C33.067 63.012 25.431 54.206 25.769 40.104C25.809 38.467 26.419 35.044 32.659 0L32.659 0Z" transform="translate(0.022777557 115.82501)" id="Shape" fill="#8B6033" fill-rule="evenodd" stroke="none" />
        </g>
        <g id="neck" transform="translate(139.60309 0)">
          <path d="M0 0C0 64.056 0 -7.297 0.00100708 43.155L0.0279999 43.155L0.0279999 44.697C0.0279999 54.946 6.57401 64.056 16.292 67.31C31.888 72.532 51.912 73.127 69.285 67.31C79.004 64.056 85.549 54.947 85.549 44.697L85.549 43.155L85.576 43.155C85.576 33.116 85.577 5.37 85.577 0C57.852 14.783 26.589 14.178 0 0L0 0Z" transform="translate(0.0009918213 0)" id="Shape" fill="#A47543" fill-rule="evenodd" stroke="none" />
          <path d="M25.793 48.719L25.76 48.719C25.758 -4.91 25.759 12.959 25.758 9.21399C16.868 7.43198 8.19899 4.37198 0 0C0 64.056 0 -10.297 0.00100708 40.155L0.0279999 40.155L0.0279999 41.697C0.0279999 51.946 6.57401 61.056 16.292 64.31C21.098 65.919 26.173 67.082 31.442 67.754C24.892 58.86 25.893 49.4 25.793 48.719L25.793 48.719Z" transform="translate(0 3.0000305)" id="Shape" fill="#8B6033" fill-rule="evenodd" stroke="none" />
        </g>
        <path d="M7.728 0C3.46 0 0 3.45901 0 7.728L0 88.289C5.36 88.289 9.702 88.289 15.455 88.289L15.455 7.728C15.456 3.45901 11.996 0 7.728 0L7.728 0Z" transform="translate(62.961082 150.031)" id="Shape" fill="#566A75" fill-rule="evenodd" stroke="none" />
      </g>
      <g id="laptop" transform="translate(193.758 315.826)">
        <path d="M269.075 29.732L18.9 29.732C8.46199 29.732 0 21.27 0 10.832L0 10.832C0 4.85001 4.85001 0 10.832 0L277.143 0C283.125 0 287.975 4.85001 287.975 10.832L287.975 10.832C287.975 21.27 279.513 29.732 269.075 29.732L269.075 29.732Z" transform="translate(1.5258789E-05 165.43298)" id="Shape" fill="#4E4A4A" fill-rule="evenodd" stroke="none" />
        <path d="M48.682 10.832L48.682 10.832C48.682 4.85001 53.532 0 59.514 0L10.832 0C4.85001 0 0 4.85001 0 10.832L0 10.833C0 21.271 8.46201 29.733 18.9 29.733L67.581 29.733C57.143 29.732 48.682 21.27 48.682 10.832L48.682 10.832Z" transform="translate(0 165.43298)" id="Shape" fill="#343333" fill-rule="evenodd" stroke="none" />
        <g id="Group" transform="translate(22.873825 0)">
          <path d="M229.814 0L12.4132 0C5.61319 0 0.0491902 5.564 0.0491902 12.364L0.0491902 153.069C0.0491902 159.869 -0.931826 165.433 5.86818 165.433L236.368 165.433C243.168 165.433 242.178 159.869 242.178 153.069L242.178 12.364C242.178 5.56403 236.614 0 229.814 0L229.814 0Z" id="Shape" fill="#4E4A4A" fill-rule="evenodd" stroke="none" />
          <path d="M25.758 153.069L25.758 12.364C25.758 5.56403 31.322 0 38.122 0L12.364 0C5.56399 0 0 5.564 0 12.364L0 159.674C0 166.474 5.56399 165.433 12.364 165.433L38.122 165.433C31.322 165.433 25.758 159.869 25.758 153.069L25.758 153.069Z" transform="translate(0.050186157 0)" id="Shape" fill="#343333" fill-rule="evenodd" stroke="none" />
        </g>
        <g id="sticker" transform="matrix(0.8290376 -0.5591929 0.5591929 0.8290376 52.412563 120.66339)">
          <path d="M0 0L205.932 0L205.932 39.6447L0 39.6447L0 0Z" transform="translate(3.8747864 0)" id="Rectangle" fill="#FC4850" fill-rule="evenodd" stroke="#FFDEDE" stroke-width="1" />
          <g stroke="#FFFFFF" stroke-width="1" id="S-P-A-N-K-I-E-D" fill="#FFFFFF" transform="translate(7.6293945E-06 10.448853)">
            <path d="M17.46 18.996Q18.721 19.412 20.593 19.412Q24.415 19.412 26.3 18.086Q28.185 16.76 28.185 14.056Q28.185 12.158 27.301 11.066Q26.417 9.97399 25.091 9.47999Q23.765 8.98599 21.529 8.51799Q20.021 8.17999 19.059 7.64699Q18.097 7.114 18.097 5.96999Q18.097 4.74799 18.851 4.09799Q19.605 3.44799 21.087 3.44799Q22.075 3.44799 22.751 3.68199Q23.427 3.91599 23.96 4.34499Q24.493 4.77399 25.299 5.57999L27.717 3.60399Q26.755 2.12199 25.221 1.35499Q23.687 0.587994 21.087 0.587994Q19.085 0.587994 17.577 1.23799Q16.069 1.88799 15.25 3.08399Q14.431 4.27999 14.431 5.89199Q14.431 8.12799 15.64 9.46699Q16.849 10.806 19.345 11.326Q21.477 11.768 22.556 12.132Q23.635 12.496 24.077 12.925Q24.519 13.354 24.519 14.03Q24.519 15.356 23.583 15.954Q22.647 16.552 20.593 16.552Q19.111 16.552 18.11 15.941Q17.109 15.33 16.043 13.848L13.573 15.902Q14.483 17.124 15.341 17.852Q16.199 18.58 17.46 18.996ZM72.827 14.862L65.703 14.862L64.481 19.1L60.815 19.1L65.261 4.59199Q65.729 3.03199 66.249 2.17399Q66.769 1.316 67.484 0.951994Q68.199 0.587994 69.265 0.587994Q70.331 0.587994 71.033 0.951994Q71.735 1.316 72.268 2.17399Q72.801 3.03199 73.269 4.59199L77.715 19.1L74.049 19.1L72.827 14.862ZM45.995 0.899994L38.637 0.899994L38.637 19.1L42.303 19.1L42.303 12.496L45.995 12.496Q49.323 12.496 50.909 11.079Q52.495 9.66199 52.495 6.69799Q52.495 3.73399 50.909 2.31699Q49.323 0.899994 45.995 0.899994ZM102.701 14.81L102.701 0.899994L99.269 0.899994L99.269 14.238Q99.269 15.226 99.113 15.603Q98.957 15.98 98.515 15.98L98.463 15.98L91.859 0.899994L87.725 0.899994L87.725 19.1L91.157 19.1L91.157 6.69799L96.513 19.1L99.087 19.1Q100.985 19.1 101.843 18.008Q102.701 16.916 102.701 14.81ZM122.903 8.12799Q124.047 8.414 124.801 9.02499Q125.555 9.636 126.101 10.611Q126.647 11.586 127.245 13.276L129.325 19.1L125.633 19.1L123.657 13.64Q123.293 12.626 122.994 12.093Q122.695 11.56 122.149 11.196Q121.603 10.832 120.615 10.676L117.755 13.848L117.755 19.1L114.089 19.1L114.089 0.899994L117.755 0.899994L117.755 9.24599L125.113 0.899994L129.429 0.899994L122.903 8.12799ZM143.183 0.899994L139.517 0.899994L139.517 19.1L143.183 19.1L143.183 0.899994ZM160.525 19.1Q157.067 19.1 155.559 17.644Q154.051 16.188 154.051 13.432L154.051 6.56799Q154.051 3.81199 155.559 2.35599Q157.067 0.899994 160.525 0.899994L166.609 0.899994L166.609 3.75999L160.525 3.75999Q159.095 3.75999 158.406 4.43599Q157.717 5.11199 157.717 6.56799L157.717 8.56999L165.465 8.56999L165.465 11.43L157.717 11.43L157.717 13.432Q157.717 14.862 158.406 15.551Q159.095 16.24 160.525 16.24L166.661 16.24L166.661 19.1L160.525 19.1ZM183.821 0.899994L177.061 0.899994L177.061 19.1L183.821 19.1Q186.889 19.1 188.67 18.216Q190.451 17.332 191.244 15.369Q192.037 13.406 192.037 9.99999Q192.037 6.59399 191.244 4.63099Q190.451 2.668 188.67 1.78399Q186.889 0.899994 183.821 0.899994ZM48.062 8.90799Q47.295 9.63599 46.099 9.63599L42.303 9.63599L42.303 3.75999L46.099 3.75999Q47.295 3.76 48.062 4.48799Q48.829 5.21599 48.829 6.69799Q48.829 8.17999 48.062 8.90799ZM186.525 15.642Q185.537 16.24 183.821 16.24L180.727 16.24L180.727 3.75999L183.821 3.75999Q185.537 3.76 186.525 4.35799Q187.513 4.956 187.942 6.30799Q188.371 7.66 188.371 9.99999Q188.371 12.34 187.942 13.692Q187.513 15.044 186.525 15.642ZM72.021 12.132L69.837 4.64399Q69.655 3.968 69.265 3.96799Q68.875 3.96799 68.693 4.64399L66.509 12.132L72.021 12.132Z" />
          </g>
        </g>
      </g>
      <g id="hair" transform="translate(107.5 35.438553)">
        <path d="M116 2.56146C77.6929 -8.25647 6.5 14.5295 6.5 83.5614C6.5 83.5614 12.8582 131.078 0 139.561C25.8555 147.108 200.5 139.561 200.5 139.561C200.5 95.1644 200.5 114.28 200.5 74.5614C200.5 27.6883 154.307 13.3794 116 2.56146Z" id="Shape" fill="#4C4846" fill-rule="evenodd" stroke="none" />
        <path d="M59.2574 0C42.598 1.02037 7.3166 28.6143 4.16154 57.6957C1.00648 86.7771 0.00975254 110.389 0.00082229 137.087C-0.168537 142.065 25.8795 168.752 25.8795 168.752L30.4206 82.1034C30.4206 18.545 59.2574 0 59.2574 0Z" transform="matrix(0.9986295 -0.05233596 0.05233596 0.9986295 0.32461977 10.662645)" id="Shape" fill="#3D3938" fill-rule="evenodd" stroke="none" />
      </g>
      <g id="ears" transform="translate(100.7 156.00002)">
        <g id="Group" transform="translate(0.9805641 0)" filter="url(#filter_1)">
          <path d="M28.3301 1.54447C14.7462 -4.08998 0 6.38871 0 21.6769C0 36.9611 14.7445 47.4449 28.3301 41.8094L28.3301 1.54447L28.3301 1.54447Z" id="Shape" fill="#DD9A5E" fill-rule="evenodd" stroke="none" />
          <path d="M0 1.54447C13.5839 -4.08998 28.3301 6.38871 28.3301 21.6769C28.3301 36.9611 13.5856 47.4449 0 41.8094L0 1.54447L0 1.54447Z" transform="translate(191.57938 0)" id="Shape" fill="#DD9A5E" fill-rule="evenodd" stroke="none" />
        </g>
        <g id="Group" transform="translate(0.9351349 12.419769)" filter="url(#filter_2)">
          <path d="M2.02941 0C-5.90561 17.5345 10.801 36.68 28.3756 29.3907L28.3756 10.8753C18.1263 15.1251 6.66657 10.2493 2.02941 0L2.02941 0Z" id="Shape" fill="#D18C54" fill-rule="evenodd" stroke="none" />
          <path d="M0 10.8753L0 29.3907C17.5737 36.6799 34.2803 17.5355 26.3462 0C23.0281 7.33517 10.2527 15.1271 0 10.8753L0 10.8753Z" transform="translate(191.62482 0)" id="Shape" fill="#D18C54" fill-rule="evenodd" stroke="none" />
        </g>
      </g>
      <g id="face" transform="translate(117.01794 100.44456)">
        <path d="M188.252 42.0555C188.252 121.355 188.437 93.2627 188.252 96.9497C187.03 121.069 176.715 143.215 159.938 159.584C101.147 216.906 3.04309 176.254 0.0920983 95.8477C-0.0459025 92.3027 0.0120964 51.2306 0.0120964 51.3466C0.0120964 32.8796 2.81401 18.6845 27.4821 10.0554C40.9424 5.34692 55.4821 1.93044 89.9821 0.555448C124.482 -0.819544 141.915 -0.319579 166.482 10.0554C191.05 20.4305 188.252 39.6425 188.252 42.0555Z" id="face" fill="#A47543" fill-rule="evenodd" stroke="none" />
        <path d="M25.8621 84.7921C25.7441 81.7522 25.8521 15.717 25.8621 0C0.520672 8.7947 0.0120963 24.8981 0.0120963 40.2911C0.0120963 40.1751 -0.0459023 81.2471 0.0920982 84.7922C2.2671 144.076 56.1701 181.739 107.904 174.465C65.4261 168.592 27.6751 134.204 25.8621 84.7921L25.8621 84.7921Z" transform="translate(0.0009727478 11.055443)" id="Shape" fill="#8B6033" fill-rule="evenodd" stroke="none" />
      </g>
      <g id="glasses" transform="translate(118.830025 152.04163)">
        <path d="M10.9309 1.93968C4.54341 4.32623 0.829335 9.76136 0.164702 15.5113C-0.0434333 17.3181 -0.062673 19.6994 0.155082 22.3439L22.4981 0C17.7032 0.316568 13.5492 0.960213 10.9309 1.93968L10.9309 1.93968Z" transform="translate(13.407814 5.598587)" id="Shape" fill="#F2F2F2" fill-rule="evenodd" stroke="none" />
        <path d="M10.9309 1.93968C4.54341 4.32623 0.829335 9.76136 0.164702 15.5113C-0.0434333 17.3181 -0.062673 19.6994 0.155082 22.3439L22.4981 0C17.7032 0.316568 13.5492 0.960213 10.9309 1.93968L10.9309 1.93968Z" transform="translate(13.407814 5.598587)" id="Shape" fill="#05293D" fill-opacity="0.73" fill-rule="evenodd" stroke="none" />
        <path d="M49.6953 2.40492C47.3674 1.38436 44.0564 0.583303 40.254 0L0 40.2532C0.466119 40.9274 0.951475 41.5833 1.47968 42.1929C4.33761 45.481 7.42203 47.7819 10.844 49.2161C15.2603 51.071 19.7361 51.5546 19.7361 51.5546L26.2898 51.5546C26.2898 51.5546 39.5667 51.0587 48.2917 43.1303C55.9018 36.2147 59.1227 22.3396 59.0579 15.047C59.0273 11.8279 55.8738 5.11593 49.6953 2.40492L49.6953 2.40492Z" transform="translate(19.58046 6.535202)" id="Shape" fill="#F2F2F2" fill-rule="evenodd" stroke="none" />
        <path d="M49.6953 2.40492C47.3674 1.38436 44.0564 0.583303 40.254 0L0 40.2532C0.466119 40.9274 0.951475 41.5833 1.47968 42.1929C4.33761 45.481 7.42203 47.7819 10.844 49.2161C15.2603 51.071 19.7361 51.5546 19.7361 51.5546L26.2898 51.5546C26.2898 51.5546 39.5667 51.0587 48.2917 43.1303C55.9018 36.2147 59.1227 22.3396 59.0579 15.047C59.0273 11.8279 55.8738 5.11593 49.6953 2.40492L49.6953 2.40492Z" transform="translate(19.58046 6.535202)" id="Shape" fill="#05293D" fill-opacity="0.73" fill-rule="evenodd" stroke="none" />
        <path d="M30.9378 0L0 30.9396C0.351557 32.2706 0.770451 33.5981 1.25843 34.8968L35.9479 0.209008C34.2898 0.106686 32.6116 0.0367296 30.9378 0L30.9378 0Z" transform="translate(14.989235 5.3992004)" id="Shape" fill="#F2F2F2" fill-rule="evenodd" stroke="none" />
        <path d="M30.9378 0L0 30.9396C0.351557 32.2706 0.770451 33.5981 1.25843 34.8968L35.9479 0.209008C34.2898 0.106686 32.6116 0.0367296 30.9378 0L30.9378 0Z" transform="translate(14.989235 5.3992004)" id="Shape" fill="#05293D" fill-opacity="0.73" fill-rule="evenodd" stroke="none" />
        <path d="M9.36264 3.46833C3.1833 6.17934 0.029784 12.8913 0.000920742 16.1104C-0.0270618 19.3207 0.582476 23.807 1.92049 28.4131L30.3301 0C22.0117 0.338439 13.8585 1.4963 9.36264 3.46833L9.36264 3.46833Z" transform="translate(109.53069 5.4718018)" id="Shape" fill="#F2F2F2" fill-rule="evenodd" stroke="none" />
        <path d="M9.36264 3.46833C3.1833 6.17934 0.029784 12.8913 0.000920742 16.1104C-0.0270618 19.3207 0.582476 23.807 1.92049 28.4131L30.3301 0C22.0117 0.338439 13.8585 1.4963 9.36264 3.46833L9.36264 3.46833Z" transform="translate(109.53069 5.4718018)" id="Shape" fill="#05293D" fill-opacity="0.73" fill-rule="evenodd" stroke="none" />
        <path d="M35.543 0L0 35.5448C0.560571 36.7105 1.17798 37.8378 1.84873 38.9152L40.4438 0.320952C38.8898 0.176649 37.2457 0.0690823 35.543 0L35.543 0Z" transform="translate(114.15691 5.4604187)" id="Shape" fill="#F2F2F2" fill-rule="evenodd" stroke="none" />
        <path d="M35.543 0L0 35.5448C0.560571 36.7105 1.17798 37.8378 1.84873 38.9152L40.4438 0.320952C38.8898 0.176649 37.2457 0.0690823 35.543 0L35.543 0Z" transform="translate(114.15691 5.4604187)" id="Shape" fill="#05293D" fill-opacity="0.73" fill-rule="evenodd" stroke="none" />
        <path d="M54.1746 13.8672C53.5083 8.11815 49.7916 2.68301 43.4058 0.295585C43.1321 0.193269 42.8418 0.0953235 42.5365 0L0 42.5339C7.5672 49.3176 18.4602 50.5882 21.2167 50.8051C21.5079 50.7133 21.7431 50.7352 21.9198 50.848L28.4262 50.848C28.4262 50.848 32.9011 50.3644 37.3218 48.5095C40.7412 47.0744 43.8273 44.7745 46.6818 41.4863C53.3858 33.7704 54.9075 20.2774 54.1746 13.8672L54.1746 13.8672Z" transform="translate(120.42458 7.241806)" id="Shape" fill="#F2F2F2" fill-rule="evenodd" stroke="none" />
        <path d="M54.1746 13.8672C53.5083 8.11815 49.7916 2.68301 43.4058 0.295585C43.1321 0.193269 42.8418 0.0953235 42.5365 0L0 42.5339C7.5672 49.3176 18.4602 50.5882 21.2167 50.8051C21.5079 50.7133 21.7431 50.7352 21.9198 50.848L28.4262 50.848C28.4262 50.848 32.9011 50.3644 37.3218 48.5095C40.7412 47.0744 43.8273 44.7745 46.6818 41.4863C53.3858 33.7704 54.9075 20.2774 54.1746 13.8672L54.1746 13.8672Z" transform="translate(120.42458 7.241806)" id="Shape" fill="#05293D" fill-opacity="0.73" fill-rule="evenodd" stroke="none" />
        <path d="M22.3431 0.228477L0 22.5724C0.216006 25.1986 0.664634 28.0845 1.42721 30.9695L32.365 0.0299575C28.9116 -0.0452431 25.4904 0.0212171 22.3431 0.228477L22.3431 0.228477Z" transform="translate(13.562019 5.369232)" id="Shape" fill="#F2F2F2" fill-rule="evenodd" stroke="none" />
        <path d="M34.6895 0L0 34.6877C0.870146 37.0026 1.97466 39.2125 3.33279 41.1802L43.5868 0.926993C40.8199 0.501097 37.7949 0.192395 34.6895 0L34.6895 0Z" transform="translate(16.247665 5.609085)" id="Shape" fill="#F2F2F2" fill-rule="evenodd" stroke="none" />
        <path d="M28.4096 0.104477L0 28.5176C0.696995 30.9137 1.5995 33.3379 2.70576 35.6379L38.2488 0.0931083C35.09 -0.0345745 31.7371 -0.0310717 28.4096 0.104477L28.4096 0.104477Z" transform="translate(111.45205 5.3673096)" id="Shape" fill="#F2F2F2" fill-rule="evenodd" stroke="none" />
        <path d="M38.5951 0L0 38.5942C1.24007 40.5846 2.65853 42.401 4.29126 43.8842C4.33324 43.9218 4.37697 43.9567 4.41893 43.9944L46.9555 1.46045C44.819 0.796688 41.9174 0.311331 38.5951 0L38.5951 0Z" transform="translate(116.00567 5.7822266)" id="Shape" fill="#F2F2F2" fill-rule="evenodd" stroke="none" />
        <path d="M5.16293 2.87026C7.64394 2.64026 10.069 1.74388 9.8451 1.00229C9.60898 0.226589 7.39733 -0.166067 4.69332 0.0665536C1.98056 0.2983 -0.181244 1.18856 0.0120243 1.93802C0.248145 2.83353 2.4598 3.12911 5.16293 2.87026L5.16293 2.87026Z" transform="translate(4.197029 7.4717255)" id="Shape" fill="#F2F2F2" fill-rule="evenodd" stroke="none" />
        <path d="M4.92605 0.0470379C2.20893 -0.164593 -0.0700698 0.362739 0.00164132 1.13144C0.0890985 2.05231 2.22554 2.70557 4.93129 2.89272C7.41842 3.06325 9.95453 2.56827 9.85221 1.80132C9.7464 1.00114 7.63182 0.256053 4.92605 0.0470379L4.92605 0.0470379Z" transform="translate(174.11572 7.47287)" id="Shape" fill="#F2F2F2" fill-rule="evenodd" stroke="none" />
        <path d="M135.742 0.514147C118.272 1.34757 102.892 9.20161 93.6154 9.40887C84.1697 9.6205 74.3576 2.30428 51.4881 0.514147C23.591 -1.66603 -4.78676e-07 3.79271 -4.78676e-07 3.79271L0.93311 14.5606C0.93311 14.5606 5.66425 15.645 7.01801 21.1082C8.90172 28.7095 8.26507 42.205 14.9761 50.1325C22.8188 59.398 30.748 61.3762 38.8496 61.8362C46.7578 62.2804 64.5718 61.2424 74.4241 50.1325C78.1662 45.913 81.1745 40.1823 83.3188 34.685C85.764 28.4121 87.3293 21.6399 89.8725 19.7063C90.8047 18.9988 92.1138 19.2157 93.6154 19.2376C95.6819 19.2664 97.4554 19.2481 98.7654 20.642C101.95 24.0247 103.333 31.5971 106.254 38.4324C108.168 42.9081 111.277 47.3717 114.678 51.0683C123.439 60.5848 143.166 62.2612 150.255 61.8362C158.054 61.3657 166.82 58.6381 172.256 51.5388C174.9 48.0809 176.719 43.7914 177.873 39.3681C179.536 32.9736 180.003 26.3107 181.152 21.5813C182.675 15.297 186.766 15.0259 186.766 15.0259L188.17 3.79184C188.17 3.79271 164.527 -0.859726 135.742 0.514147L135.742 0.514147ZM67.8722 49.6655C59.1463 57.593 45.8702 58.0898 45.8702 58.0898L39.3166 58.0898C39.3166 58.0898 34.8408 57.6062 30.4245 55.7513C27.0025 54.3162 23.9181 52.0162 21.0601 48.7281C20.5319 48.1194 20.0457 47.4635 19.5805 46.7884C18.2223 44.8207 17.1187 42.6117 16.2477 40.2959C15.7597 38.9973 15.3408 37.6698 14.9892 36.3388C14.2267 33.4537 13.778 30.5678 13.562 27.9416C13.3443 25.2971 13.3635 22.9158 13.5716 21.109C14.2372 15.3599 17.9512 9.92482 24.3378 7.53739C26.9561 6.5588 31.1101 5.91515 35.9042 5.59771C39.0516 5.38957 42.4727 5.32398 45.9262 5.39919C47.6 5.43592 49.2782 5.50589 50.9363 5.6082C54.0408 5.80147 57.0667 6.11017 59.8328 6.53519C63.6352 7.11849 66.9461 7.91955 69.274 8.94011C75.4525 11.6511 78.606 18.363 78.6366 21.5821C78.7031 28.8747 75.4823 42.7498 67.8722 49.6655L67.8722 49.6655ZM4.20905 9.40886C4.01491 8.6594 6.17759 7.76914 8.89035 7.5374C11.5944 7.30478 13.806 7.69831 14.0421 8.47313C14.2669 9.21472 11.841 10.1111 9.35996 10.3411C6.65683 10.6008 4.44517 10.3052 4.20905 9.40886L4.20905 9.40886ZM179.047 10.3656C176.341 10.1784 174.205 9.52518 174.117 8.60431C174.046 7.83561 176.324 7.30827 179.042 7.51991C181.748 7.72892 183.862 8.47401 183.968 9.27419C184.07 10.0411 181.534 10.5361 179.047 10.3656L179.047 10.3656ZM157.746 55.7513C153.326 57.6062 148.851 58.0898 148.851 58.0898L142.344 58.0898C142.169 57.977 141.932 57.9551 141.641 58.0469C138.886 57.83 127.993 56.5594 120.425 49.7757C120.383 49.7381 120.339 49.7032 120.297 49.6655C118.664 48.1824 117.246 46.3669 116.006 44.3756C115.334 43.2973 114.717 42.1709 114.157 41.0052C113.051 38.7052 112.148 36.2819 111.451 33.8849C110.113 29.2779 109.503 24.7925 109.532 21.5822C109.56 18.3631 112.714 11.6511 118.893 8.94012C123.389 6.96809 131.542 5.81022 139.862 5.47178C143.19 5.33623 146.543 5.33274 149.7 5.46041C151.403 5.5295 153.047 5.63707 154.601 5.78223C157.923 6.09444 160.825 6.57979 162.961 7.24267C163.267 7.33712 163.558 7.43594 163.83 7.53826C170.217 9.92482 173.934 15.3599 174.599 21.1099C175.332 27.5201 173.81 41.0131 167.106 48.7289C164.252 52.0162 161.166 54.3171 157.746 55.7513L157.746 55.7513Z" id="Shape" fill="#05293D" fill-rule="evenodd" stroke="none" />
      </g>
    </g>
  </g>
</svg>