<?xml version="1.0" encoding="utf-8"?>
<svg width="447px" height="447px" viewBox="0 0 447 447" version="1.1" xmlns:xlink="http://www.w3.org/1999/xlink" xmlns="http://www.w3.org/2000/svg">
  <defs>
    <filter id="filter_1">
      <feColorMatrix in="SourceGraphic" type="matrix" values="0 0 0 0 0.9764706 0 0 0 0 0.9764706 0 0 0 0 0.9764706 0 0 0 1 0" />
    </filter>
  </defs>
  <g id="clock">
    <path d="M0 0L447 0L447 447L0 447L0 0L0 0Z" id="Background" fill="none" fill-rule="evenodd" stroke="none" />
    <g id="Layer_15" transform="translate(23 23.699997)" filter="url(#filter_1)">
      <path d="M0 200.5C0.000177233 311.233 89.7665 400.999 200.499 401L200.5 401C311.233 401 401 311.233 401 200.499C400.999 89.766 311.232 -0.000358159 200.499 0C89.7663 0.000369236 -0.000166156 89.7673 0 200.5ZM36.7181 200.693C36.7182 109.972 110.262 36.4286 200.982 36.4282L200.983 36.4282C291.704 36.4282 365.248 109.972 365.248 200.694C365.248 291.415 291.704 364.959 200.983 364.958C110.262 364.958 36.7179 291.414 36.7181 200.693Z" id="Shape" fill="#374151" fill-rule="evenodd" stroke="none" />
      <g id="hand" transform="translate(166.9902 92.84272)">
        <path d="M3.455e-05 19.1102C-0.0410747 -6.37021 36.6168 -6.36997 36.7184 19.1103C36.7838 35.5201 36.759 88.468 36.7373 119.779C61.473 130.802 100.096 148.007 113.357 153.882C133.519 162.813 118.608 196.302 98.4221 187.426C81.3088 179.9 8.46014 146.683 3.84547 144.569C1.45521 143.206 0.536808 143.337 0.463538 138.771C0.470571 132.982 0.0408478 44.4073 3.455e-05 19.1102L3.455e-05 19.1102Z" id="Vector-shape" fill="#D3D3D3" fill-rule="evenodd" stroke="none" />
      </g>
    </g>
  </g>
</svg>