<?xml version="1.0" encoding="utf-8"?>
<svg width="78px" height="78px" viewBox="0 0 78 78" version="1.1" xmlns:xlink="http://www.w3.org/1999/xlink" xmlns="http://www.w3.org/2000/svg">
  <defs>
    <path d="M0 0L78 0L78 78L0 78L0 0L0 0Z" id="path_1" />
    <clipPath id="mask_1">
      <use xlink:href="#path_1" />
    </clipPath>
  </defs>
  <g id="piece-white">
    <g id="chess_queen_white">
      <path d="M0 0L78 0L78 78L0 78L0 0L0 0Z" id="Background" fill="none" fill-rule="evenodd" stroke="none" />
      <g id="Mask-group">
        <path d="M0 0L78 0L78 78L0 78L0 0L0 0Z" id="path_1" fill="none" fill-rule="evenodd" stroke="none" />
        <g clip-path="url(#mask_1)">
          <g id="Group" transform="translate(7.38258 1.5258789E-05)">
            <g id="icon">
              <g id="piece">
                <path d="M31.6173 0C31.622 0.195312 31.6173 2.46837 31.6173 2.46837L31.6173 58.0081C31.6173 58.0081 8.88158 57.9813 6.3159 58.0081C3.75023 58.0349 13.1042 41.3461 13.1042 41.3461C13.1042 41.3461 -1.6063 7.9362 0.144778 6.1707C1.89586 4.40522 11.8699 14.8102 11.8699 14.8102C11.8699 14.8102 13.3873 2.78206 14.9554 2.46835C16.5236 2.15466 24.2122 14.8102 24.2122 14.8102C24.2122 14.8102 29.1032 0.207668 31.6173 0L31.6173 0Z" transform="translate(0 20.364408)" id="left" fill="#E5D1A0" fill-rule="evenodd" stroke="none" />
                <path d="M0.0020857 0C-0.0026036 0.195312 0.0020857 2.46837 0.0020857 2.46837L0.0020857 58.0081C0.0020857 58.0081 22.7378 57.9813 25.3035 58.0081C27.8692 58.0349 18.5152 41.3461 18.5152 41.3461C18.5152 41.3461 33.2257 7.9362 31.4746 6.1707C29.7235 4.40522 19.7495 14.8102 19.7495 14.8102C19.7495 14.8102 18.2321 2.78206 16.664 2.46835C15.0958 2.15466 7.40721 14.8102 7.40721 14.8102C7.40721 14.8102 2.51617 0.207669 0.0020857 0L0.0020857 0Z" transform="translate(31.617159 20.364033)" id="right" fill="#D2BF90" fill-rule="evenodd" stroke="none" />
                <path d="M0 8.02235C0 3.59173 3.59173 0 8.02235 0C12.4529 0 16.0447 3.59173 16.0447 8.02235C16.0447 12.4529 12.4529 16.0447 8.02235 16.0447C3.59173 16.0447 0 12.4529 0 8.02235L0 8.02235Z" transform="translate(23.598034 0)" id="halo" fill="#E5D1A0" fill-rule="evenodd" stroke="none" />
              </g>
            </g>
          </g>
        </g>
      </g>
    </g>
  </g>
</svg>