<?xml version="1.0" encoding="utf-8"?>
<svg width="78px" height="78px" viewBox="0 0 78 78" version="1.1" xmlns:xlink="http://www.w3.org/1999/xlink" xmlns="http://www.w3.org/2000/svg">
  <defs>
    <filter id="filter_1">
      <feColorMatrix in="SourceGraphic" type="matrix" values="0 0 0 0 0.9764706 0 0 0 0 0.9764706 0 0 0 0 0.9764706 0 0 0 1 0" />
    </filter>
    <path d="M0 0L78 0L78 78L0 78L0 0L0 0Z" id="path_1" />
    <clipPath id="mask_1">
      <use xlink:href="#path_1" />
    </clipPath>
  </defs>
  <g id="piece-random">
    <g id="chess_queen_black">
      <path d="M0 0L78 0L78 78L0 78L0 0L0 0Z" id="Background" fill="none" fill-rule="evenodd" stroke="none" />
      <g id="Mask-group">
        <path d="M0 0L78 0L78 78L0 78L0 0L0 0Z" id="path_1" fill="none" fill-rule="evenodd" stroke="none" />
        <g clip-path="url(#mask_1)">
          <g id="Group" transform="translate(7.38258 -3.0517578E-05)">
            <g id="icon">
              <g id="piece" transform="translate(0 20.364088)">
                <path d="M31.6173 0C31.622 0.195312 31.6173 2.46837 31.6173 2.46837L31.6173 58.0081C31.6173 58.0081 8.88158 57.9813 6.3159 58.0081C3.75023 58.0349 13.1042 41.3461 13.1042 41.3461C13.1042 41.3461 -1.6063 7.9362 0.144778 6.1707C1.89586 4.40522 11.8699 14.8102 11.8699 14.8102C11.8699 14.8102 13.3873 2.78206 14.9554 2.46835C16.5236 2.15466 24.2122 14.8102 24.2122 14.8102C24.2122 14.8102 29.1032 0.207669 31.6173 0L31.6173 0Z" transform="translate(0 0.00037574768)" id="left" fill="#322922" fill-rule="evenodd" stroke="none" />
                <path d="M0.0020857 0C-0.0026036 0.195312 0.0020857 2.46837 0.0020857 2.46837L0.0020857 58.0081C0.0020857 58.0081 22.7378 57.9813 25.3035 58.0081C27.8692 58.0349 18.5152 41.3461 18.5152 41.3461C18.5152 41.3461 33.2257 7.9362 31.4746 6.1707C29.7235 4.40522 19.7495 14.8102 19.7495 14.8102C19.7495 14.8102 18.2321 2.78206 16.664 2.46835C15.0958 2.15466 7.40721 14.8102 7.40721 14.8102C7.40721 14.8102 2.51617 0.207669 0.0020857 0L0.0020857 0Z" transform="translate(31.617159 0)" id="right" fill="#E5D1A0" fill-rule="evenodd" stroke="none" />
              </g>
              <g id="question" transform="translate(27.092142 0)" filter="url(#filter_1)">
                <path d="M10.5708 4.64418L10.5708 4.60056C10.5708 1.7526 8.31406 0 5.09398 0C3.23651 0 1.75992 0.523672 0.577099 1.33444C-0.110504 1.80567 -0.172407 2.83879 0.331349 3.50363L0.698696 3.98845C1.20245 4.653 2.1045 4.71618 2.83473 4.31283C3.5002 3.94519 4.17515 3.74619 4.80909 3.74619C5.86056 3.74619 6.45212 4.20604 6.45212 4.95114L6.45212 4.97291C6.45212 5.91509 5.55384 7.26149 3.01259 7.48041L2.92509 7.57895C2.87677 7.6333 2.93775 8.34617 3.06091 9.17082L3.162 9.84326C3.28518 10.6679 3.97875 11.3362 4.71061 11.3362C5.44246 11.3362 6.09493 11.0223 6.16699 10.6354C6.23993 10.2482 6.2987 9.9342 6.2987 9.9342C8.73001 9.34235 10.5708 7.40463 10.5708 4.64418L10.5708 4.64418L10.5708 4.64418Z" id="Shape" fill="#9695AE" fill-rule="evenodd" stroke="none" />
                <path d="M1.5094 0C0.675584 0 0 0.67593 0 1.50976L0 2.21471C0 3.04854 0.675932 3.72447 1.5094 3.72447L2.80564 3.72447C3.63946 3.72447 4.31538 3.04854 4.31538 2.21471L4.31538 1.50976C4.31538 0.675931 3.63916 0 2.80564 0L1.5094 0L1.5094 0L1.5094 0Z" transform="translate(2.4870596 13.801334)" id="Shape#1" fill="#2D22F8" fill-rule="evenodd" stroke="none" />
              </g>
            </g>
          </g>
        </g>
      </g>
    </g>
  </g>
</svg>