<?xml version="1.0" encoding="utf-8"?>
<svg width="513px" height="513px" viewBox="0 0 513 513" version="1.1" xmlns:xlink="http://www.w3.org/1999/xlink" xmlns="http://www.w3.org/2000/svg">
  <defs>
    <filter id="filter_1">
      <feColorMatrix in="SourceGraphic" type="matrix" values="0 0 0 0 0.6431373 0 0 0 0 0.45882353 0 0 0 0 0.2627451 0 0 0 1 0" />
    </filter>
    <filter id="filter_2">
      <feColorMatrix in="SourceGraphic" type="matrix" values="0 0 0 0 0.54509807 0 0 0 0 0.3764706 0 0 0 0 0.2 0 0 0 1 0" />
    </filter>
    <path d="M0 0L512 0L512 512L0 512L0 0Z" id="path_1" />
    <clipPath id="mask_1">
      <use xlink:href="#path_1" />
    </clipPath>
  </defs>
  <g id="programmer" transform="translate(0.5 0.5)">
    <path d="M0 0L512 0L512 512L0 512L0 0Z" id="Background" fill="none" fill-rule="evenodd" stroke="none" />
    <g clip-path="url(#mask_1)">
      <g id="torso" transform="translate(30.265923 272.671)">
        <path d="M364.419 207.509C364.058 205.698 342.067 95.219 341.825 94.084C339.184 81.296 332.028 71.5 321.525 65.189C315.229 61.391 311.654 60.786 307.571 59.531C310.441 60.534 254.944 41.138 232.581 33.322C228.155 31.804 225.182 27.642 225.182 22.963L225.182 0C196.459 14.362 166.339 13.455 139.604 0.40799L139.604 22.963C139.604 27.642 136.631 31.805 132.205 33.322C129.053 34.403 143.623 29.407 101.378 43.892L101.349 43.892C101.35 43.895 101.352 43.898 101.352 43.898L101.349 43.903L57.2461 59.531C55.2101 60.132 51.1881 61.319 51.4441 61.243C40.9521 65.156 31.8541 72.587 26.7561 82.978C23.2271 90.136 24.2741 87.622 7.14909 173.587C0.808086 206.423 -0.591915 208.815 0.201086 216.151C2.40808 236.657 23.5001 234.517 24.0711 234.766C64.5131 234.766 186.381 234.766 182.543 234.766C182.968 234.766 201.194 234.766 200.061 234.766C228.223 234.766 328.06 234.766 340.741 234.766C340.967 234.69 368.556 236.79 364.419 207.509L364.419 207.509Z" transform="translate(0 3.5540466)" id="Shape" fill="#6C7D87" fill-rule="evenodd" stroke="none" />
        <g id="arm" transform="translate(0.0013389587 59.483)">
          <path d="M26.1527 151.58L48.7457 27.851C48.4327 29.354 50.4227 11.301 67.4067 0C48.4387 6.72101 54.3177 4.03201 48.4867 6.53101C37.4797 11.502 28.9437 19.948 24.7347 31.85C23.0507 36.63 24.1427 32.428 7.14874 117.657C0.807739 150.493 -0.591261 152.888 0.200739 160.221C2.40774 180.727 23.4997 178.587 24.0707 178.836C26.5847 178.836 46.7257 178.836 49.8287 178.836C31.6547 178.837 23.8017 168.209 26.1527 151.58L26.1527 151.58Z" id="Shape" fill="#566A75" fill-rule="evenodd" stroke="none" />
          <path d="M70.6661 63.013C55.9591 63.013 39.0191 63.013 24.0481 63.013C23.4511 62.752 -0.589905 65.167 0.011095 40.105C0.142096 34.761 0.811094 34.536 7.12609 1.83301L7.4911 0L70.6661 0L70.6661 63.013L70.6661 63.013Z" transform="translate(0.021644592 115.824005)" id="Shape" fill="#A47543" fill-rule="evenodd" stroke="none" />
          <path d="M32.659 0L7.49096 0L7.12596 1.832C0.787956 34.649 0.141954 34.752 0.0109558 40.104C-0.588045 65.083 23.574 62.805 24.048 63.012C26.562 63.012 46.703 63.012 49.806 63.012C33.067 63.012 25.431 54.206 25.769 40.104C25.809 38.467 26.419 35.044 32.659 0L32.659 0Z" transform="translate(0.022777557 115.82501)" id="Shape" fill="#8B6033" fill-rule="evenodd" stroke="none" />
        </g>
        <g id="neck" transform="translate(139.60309 0)">
          <path d="M0 0C0 64.056 0 -7.297 0.00100708 43.155L0.0279999 43.155L0.0279999 44.697C0.0279999 54.946 6.57401 64.056 16.292 67.31C31.888 72.532 51.912 73.127 69.285 67.31C79.004 64.056 85.549 54.947 85.549 44.697L85.549 43.155L85.576 43.155C85.576 33.116 85.577 5.37 85.577 0C57.852 14.783 26.589 14.178 0 0L0 0Z" transform="translate(0.0009918213 0)" id="Shape" fill="#A47543" fill-rule="evenodd" stroke="none" />
          <path d="M25.793 48.719L25.76 48.719C25.758 -4.91 25.759 12.959 25.758 9.21399C16.868 7.43198 8.19899 4.37198 0 0C0 64.056 0 -10.297 0.00100708 40.155L0.0279999 40.155L0.0279999 41.697C0.0279999 51.946 6.57401 61.056 16.292 64.31C21.098 65.919 26.173 67.082 31.442 67.754C24.892 58.86 25.893 49.4 25.793 48.719L25.793 48.719Z" transform="translate(0 3.0000305)" id="Shape" fill="#8B6033" fill-rule="evenodd" stroke="none" />
        </g>
        <path d="M7.728 0C3.46 0 0 3.45901 0 7.728L0 88.289C5.36 88.289 9.702 88.289 15.455 88.289L15.455 7.728C15.456 3.45901 11.996 0 7.728 0L7.728 0Z" transform="translate(62.961082 150.031)" id="Shape" fill="#566A75" fill-rule="evenodd" stroke="none" />
      </g>
      <g id="laptop" transform="translate(193.758 315.826)">
        <path d="M269.075 29.732L18.9 29.732C8.46199 29.732 0 21.27 0 10.832L0 10.832C0 4.85001 4.85001 0 10.832 0L277.143 0C283.125 0 287.975 4.85001 287.975 10.832L287.975 10.832C287.975 21.27 279.513 29.732 269.075 29.732L269.075 29.732Z" transform="translate(1.5258789E-05 165.43298)" id="Shape" fill="#4E4A4A" fill-rule="evenodd" stroke="none" />
        <path d="M48.682 10.832L48.682 10.832C48.682 4.85001 53.532 0 59.514 0L10.832 0C4.85001 0 0 4.85001 0 10.832L0 10.833C0 21.271 8.46201 29.733 18.9 29.733L67.581 29.733C57.143 29.732 48.682 21.27 48.682 10.832L48.682 10.832Z" transform="translate(0 165.43298)" id="Shape" fill="#343333" fill-rule="evenodd" stroke="none" />
        <g id="Group" transform="translate(22.873825 0)">
          <path d="M229.814 0L12.4132 0C5.61319 0 0.0491902 5.564 0.0491902 12.364L0.0491902 153.069C0.0491902 159.869 -0.931826 165.433 5.86818 165.433L236.368 165.433C243.168 165.433 242.178 159.869 242.178 153.069L242.178 12.364C242.178 5.56403 236.614 0 229.814 0L229.814 0Z" id="Shape" fill="#4E4A4A" fill-rule="evenodd" stroke="none" />
          <path d="M25.758 153.069L25.758 12.364C25.758 5.56403 31.322 0 38.122 0L12.364 0C5.56399 0 0 5.564 0 12.364L0 159.674C0 166.474 5.56399 165.433 12.364 165.433L38.122 165.433C31.322 165.433 25.758 159.869 25.758 153.069L25.758 153.069Z" transform="translate(0.050186157 0)" id="Shape" fill="#343333" fill-rule="evenodd" stroke="none" />
        </g>
        <g id="sticker" transform="matrix(0.8290376 -0.5591929 0.5591929 0.8290376 52.412567 120.66339)">
          <path d="M0 0L205.932 0L205.932 39.6447L0 39.6447L0 0Z" transform="matrix(1 3.3330494E-08 -3.3330494E-08 1 3.8747864 0)" id="Rectangle" fill="#FC4850" fill-rule="evenodd" stroke="#FFDEDE" stroke-width="1" />
          <g stroke="#FFFFFF" stroke-width="1" id="S-P-A-N-K-I-E-D" fill="#FFFFFF" transform="matrix(1 4.631394E-07 -4.631394E-07 1 7.6293945E-06 10.448853)">
            <path d="M17.46 18.996Q18.721 19.412 20.593 19.412Q24.415 19.412 26.3 18.086Q28.185 16.76 28.185 14.056Q28.185 12.158 27.301 11.066Q26.417 9.97399 25.091 9.47999Q23.765 8.98599 21.529 8.51799Q20.021 8.17999 19.059 7.64699Q18.097 7.114 18.097 5.96999Q18.097 4.74799 18.851 4.09799Q19.605 3.44799 21.087 3.44799Q22.075 3.44799 22.751 3.68199Q23.427 3.91599 23.96 4.34499Q24.493 4.77399 25.299 5.57999L27.717 3.60399Q26.755 2.12199 25.221 1.35499Q23.687 0.587994 21.087 0.587994Q19.085 0.587994 17.577 1.23799Q16.069 1.88799 15.25 3.08399Q14.431 4.27999 14.431 5.89199Q14.431 8.12799 15.64 9.46699Q16.849 10.806 19.345 11.326Q21.477 11.768 22.556 12.132Q23.635 12.496 24.077 12.925Q24.519 13.354 24.519 14.03Q24.519 15.356 23.583 15.954Q22.647 16.552 20.593 16.552Q19.111 16.552 18.11 15.941Q17.109 15.33 16.043 13.848L13.573 15.902Q14.483 17.124 15.341 17.852Q16.199 18.58 17.46 18.996ZM72.827 14.862L65.703 14.862L64.481 19.1L60.815 19.1L65.261 4.59199Q65.729 3.03199 66.249 2.17399Q66.769 1.316 67.484 0.951994Q68.199 0.587994 69.265 0.587994Q70.331 0.587994 71.033 0.951994Q71.735 1.316 72.268 2.17399Q72.801 3.03199 73.269 4.59199L77.715 19.1L74.049 19.1L72.827 14.862ZM45.995 0.899994L38.637 0.899994L38.637 19.1L42.303 19.1L42.303 12.496L45.995 12.496Q49.323 12.496 50.909 11.079Q52.495 9.66199 52.495 6.69799Q52.495 3.73399 50.909 2.31699Q49.323 0.899994 45.995 0.899994ZM102.701 14.81L102.701 0.899994L99.269 0.899994L99.269 14.238Q99.269 15.226 99.113 15.603Q98.957 15.98 98.515 15.98L98.463 15.98L91.859 0.899994L87.725 0.899994L87.725 19.1L91.157 19.1L91.157 6.69799L96.513 19.1L99.087 19.1Q100.985 19.1 101.843 18.008Q102.701 16.916 102.701 14.81ZM122.903 8.12799Q124.047 8.414 124.801 9.02499Q125.555 9.636 126.101 10.611Q126.647 11.586 127.245 13.276L129.325 19.1L125.633 19.1L123.657 13.64Q123.293 12.626 122.994 12.093Q122.695 11.56 122.149 11.196Q121.603 10.832 120.615 10.676L117.755 13.848L117.755 19.1L114.089 19.1L114.089 0.899994L117.755 0.899994L117.755 9.24599L125.113 0.899994L129.429 0.899994L122.903 8.12799ZM143.183 0.899994L139.517 0.899994L139.517 19.1L143.183 19.1L143.183 0.899994ZM160.525 19.1Q157.067 19.1 155.559 17.644Q154.051 16.188 154.051 13.432L154.051 6.56799Q154.051 3.81199 155.559 2.35599Q157.067 0.899994 160.525 0.899994L166.609 0.899994L166.609 3.75999L160.525 3.75999Q159.095 3.75999 158.406 4.43599Q157.717 5.11199 157.717 6.56799L157.717 8.56999L165.465 8.56999L165.465 11.43L157.717 11.43L157.717 13.432Q157.717 14.862 158.406 15.551Q159.095 16.24 160.525 16.24L166.661 16.24L166.661 19.1L160.525 19.1ZM183.821 0.899994L177.061 0.899994L177.061 19.1L183.821 19.1Q186.889 19.1 188.67 18.216Q190.451 17.332 191.244 15.369Q192.037 13.406 192.037 9.99999Q192.037 6.59399 191.244 4.63099Q190.451 2.668 188.67 1.78399Q186.889 0.899994 183.821 0.899994ZM48.062 8.90799Q47.295 9.63599 46.099 9.63599L42.303 9.63599L42.303 3.75999L46.099 3.75999Q47.295 3.76 48.062 4.48799Q48.829 5.21599 48.829 6.69799Q48.829 8.17999 48.062 8.90799ZM186.525 15.642Q185.537 16.24 183.821 16.24L180.727 16.24L180.727 3.75999L183.821 3.75999Q185.537 3.76 186.525 4.35799Q187.513 4.956 187.942 6.30799Q188.371 7.66 188.371 9.99999Q188.371 12.34 187.942 13.692Q187.513 15.044 186.525 15.642ZM72.021 12.132L69.837 4.64399Q69.655 3.968 69.265 3.96799Q68.875 3.96799 68.693 4.64399L66.509 12.132L72.021 12.132Z" />
          </g>
        </g>
      </g>
      <g id="hair" transform="translate(107.5 35.438553)">
        <path d="M116 2.56146C77.6929 -8.25647 6.5 14.5295 6.5 83.5614C6.5 83.5614 12.8582 131.078 0 139.561C25.8555 147.108 200.5 139.561 200.5 139.561C200.5 95.1644 200.5 114.28 200.5 74.5614C200.5 27.6883 154.307 13.3794 116 2.56146Z" id="Shape" fill="#4C4846" fill-rule="evenodd" stroke="none" />
        <path d="M59.2574 0C42.598 1.02037 7.3166 28.6143 4.16154 57.6957C1.00648 86.7771 0.00975254 110.389 0.00082229 137.087C-0.168537 142.065 25.8795 168.752 25.8795 168.752L30.4206 82.1034C30.4206 18.545 59.2574 0 59.2574 0Z" transform="matrix(0.9986295 -0.05233596 0.05233596 0.9986295 0.32461786 10.662642)" id="Shape" fill="#3D3938" fill-rule="evenodd" stroke="none" />
      </g>
      <g id="ears" transform="translate(100.7 156.00002)">
        <g id="Group" transform="translate(0.9805641 0)" filter="url(#filter_1)">
          <path d="M28.3301 1.54447C14.7462 -4.08998 0 6.38871 0 21.6769C0 36.9611 14.7445 47.4449 28.3301 41.8094L28.3301 1.54447L28.3301 1.54447Z" id="Shape" fill="#DD9A5E" fill-rule="evenodd" stroke="none" />
          <path d="M0 1.54447C13.5839 -4.08998 28.3301 6.38871 28.3301 21.6769C28.3301 36.9611 13.5856 47.4449 0 41.8094L0 1.54447L0 1.54447Z" transform="translate(191.57938 0)" id="Shape" fill="#DD9A5E" fill-rule="evenodd" stroke="none" />
        </g>
        <g id="Group" transform="translate(0.9351349 12.419769)" filter="url(#filter_2)">
          <path d="M2.02941 0C-5.90561 17.5345 10.801 36.68 28.3756 29.3907L28.3756 10.8753C18.1263 15.1251 6.66657 10.2493 2.02941 0L2.02941 0Z" id="Shape" fill="#D18C54" fill-rule="evenodd" stroke="none" />
          <path d="M0 10.8753L0 29.3907C17.5737 36.6799 34.2803 17.5355 26.3462 0C23.0281 7.33517 10.2527 15.1271 0 10.8753L0 10.8753Z" transform="translate(191.62482 0)" id="Shape" fill="#D18C54" fill-rule="evenodd" stroke="none" />
        </g>
        <path d="M0 0L13 0L13 14L0 14L0 0Z" transform="translate(208.3 28.399979)" id="Rectangle" fill="#FFFFFF" fill-rule="evenodd" stroke="none" />
        <path d="M0 0L13 0L13 14L0 14L0 0Z" transform="translate(0 28.399979)" id="Rectangle-3" fill="#FFFFFF" fill-rule="evenodd" stroke="none" />
      </g>
      <g id="face" transform="translate(117.01794 100.44456)">
        <path d="M188.252 42.0555C188.252 121.355 188.437 93.2627 188.252 96.9497C187.03 121.069 176.715 143.215 159.938 159.584C101.147 216.906 3.04309 176.254 0.0920983 95.8477C-0.0459025 92.3027 0.0120964 51.2306 0.0120964 51.3466C0.0120964 32.8796 2.81401 18.6845 27.4821 10.0554C40.9424 5.34692 55.4821 1.93044 89.9821 0.555448C124.482 -0.819544 141.915 -0.319579 166.482 10.0554C191.05 20.4305 188.252 39.6425 188.252 42.0555Z" id="face" fill="#A47543" fill-rule="evenodd" stroke="none" />
        <path d="M25.8621 84.7921C25.7441 81.7522 25.8521 15.717 25.8621 0C0.520672 8.7947 0.0120963 24.8981 0.0120963 40.2911C0.0120963 40.1751 -0.0459023 81.2471 0.0920982 84.7922C2.2671 144.076 56.1701 181.739 107.904 174.465C65.4261 168.592 27.6751 134.204 25.8621 84.7921L25.8621 84.7921Z" transform="translate(0.0009727478 11.055443)" id="Shape" fill="#8B6033" fill-rule="evenodd" stroke="none" />
      </g>
    </g>
  </g>
</svg>