<?xml version="1.0" encoding="utf-8"?>
<svg width="350px" height="350px" viewBox="0 0 350 350" version="1.1" xmlns:xlink="http://www.w3.org/1999/xlink" xmlns="http://www.w3.org/2000/svg">
  <defs>
    <path d="M0 0L350 0L350 350L0 350L0 0Z" id="path_1" />
    <clipPath id="mask_1">
      <use xlink:href="#path_1" />
    </clipPath>
  </defs>
  <g id="man-user">
    <path d="M0 0L350 0L350 350L0 350L0 0Z" id="Background" fill="none" fill-rule="evenodd" stroke="none" />
    <g clip-path="url(#mask_1)">
      <g id="torso" transform="translate(41.90802 177.73999)">
        <path d="M266.027 120.657C264.722 38.315 253.968 14.852 171.675 0C171.675 0 160.091 14.761 133.091 14.761C106.091 14.761 94.505 0 94.505 0C13.11 14.69 1.702 37.805 0.202 117.982C0.0789986 124.529 0.0219994 124.873 0 124.113C0.00500107 125.537 0.0110016 128.171 0.0110016 132.764C2.86816 160.111 19.603 172.26 133.091 172.26C246.577 172.26 264.13 165.009 266.171 132.764C266.171 129.813 266.173 127.761 266.176 126.365C266.154 126.835 266.11 125.924 266.027 120.657L266.027 120.657Z" id="Shape" fill="#704E80" fill-rule="evenodd" stroke="none" />
      </g>
      <g id="head" transform="translate(104.535 1)">
        <path d="M70.465 171.173C109.379 171.173 140.928 132.855 140.928 85.587C140.928 38.318 130.57 0 70.465 0C10.36 0 0 38.318 0 85.587C0 132.855 31.549 171.173 70.465 171.173L70.465 171.173Z" id="Shape" fill="#704E80" fill-rule="evenodd" stroke="none" />
      </g>
    </g>
  </g>
  <path d="M23.1899 83.2607C23.1281 81.6693 19.7774 51.5652 19.7774 31.5002C19.7774 11.4349 27.2774 0 27.2774 0C27.2774 0 10.3914 9.27937 4.77734 31.5002C-1.68019 52.1276 0.236652 80.12 0.358914 83.2607C2.28586 135.784 46.0457 164.46 73.7773 160.501C47.2878 153.684 24.7961 127.038 23.1899 83.2607L23.1899 83.2607Z" transform="translate(104.72269 11.499992)" id="Shape" fill="#5B316E" fill-rule="evenodd" stroke="none" />
  <path d="M70.0002 0C49.6282 6.55454 19.3162 15.0767 9.00002 44.5001C-1.31622 73.9235 0.832337 94.6868 0 129.5C2.72553 156.885 36.0001 160.5 36.0001 160.5C36.0001 160.5 51.9101 163.789 68.0001 165C60.6881 153.177 48.7501 121.875 53.0001 81C57.2501 40.125 59.3762 36.8703 70.0002 0Z" transform="translate(41.99994 183)" id="New-shape" fill="#5B316E" fill-rule="evenodd" stroke="none" />
</svg>