<?xml version="1.0" encoding="utf-8"?>
<svg width="556px" height="517px" viewBox="0 0 556 517" version="1.1" xmlns:xlink="http://www.w3.org/1999/xlink" xmlns="http://www.w3.org/2000/svg">
  <defs>
    <filter filterUnits="userSpaceOnUse" color-interpolation-filters="sRGB" id="filter_1">
      <feFlood flood-opacity="0" result="BackgroundImageFix" />
      <feBlend mode="normal" in="SourceGraphic" in2="BackgroundImageFix" result="shape" />
      <feColorMatrix in="SourceAlpha" type="matrix" values="0 0 0 0 0 0 0 0 0 0 0 0 0 0 0 0 0 0 127 0" result="hardAlpha" />
      <feOffset dx="0" dy="1" />
      <feGaussianBlur stdDeviation="1.5" />
      <feComposite in2="hardAlpha" operator="arithmetic" k2="-1" k3="1" />
      <feColorMatrix type="matrix" values="0 0 0 0 0 0 0 0 0 0 0 0 0 0 0 0 0 0 0.2509804 0" />
      <feBlend mode="normal" in2="shape" result="effect0_innerShadow" />
    </filter>
    <path d="M0 0L556 0L556 517L0 517L0 0Z" id="path_1" />
    <path d="M0 0L0 53.242L351.731 53.242L351.731 0L0 0L0 0Z" transform="translate(0 37.526794)" id="path_2" />
    <clipPath id="mask_1">
      <use xlink:href="#path_1" />
    </clipPath>
  </defs>
  <g id="custom">
    <g id="icon">
      <path d="M0 0L556 0L556 517L0 517L0 0Z" id="Background" fill="none" fill-rule="evenodd" stroke="none" />
      <g clip-path="url(#mask_1)">
        <g id="tiles" transform="translate(-0.07360077 -3.8146973E-06)">
          <g id="top">
            <path d="M9.999 0L278.037 0L278.037 259L0 259L0 9.999Q0 9.75354 0.0120442 9.50837Q0.0240885 9.26321 0.0481479 9.01893Q0.0722074 8.77465 0.108224 8.53184Q0.144241 8.28904 0.192128 8.04829Q0.240015 7.80755 0.299657 7.56944Q0.3593 7.33134 0.430553 7.09644Q0.501807 6.86155 0.584501 6.63044Q0.667194 6.39932 0.761128 6.17255Q0.855062 5.94577 0.960011 5.72388Q1.06496 5.50198 1.18067 5.2855Q1.29638 5.06903 1.42257 4.85849Q1.54876 4.64795 1.68514 4.44385Q1.82151 4.23976 1.96773 4.0426Q2.11395 3.84545 2.26967 3.6557Q2.42539 3.46596 2.59023 3.28408Q2.75507 3.10221 2.92864 2.92864Q3.10221 2.75507 3.28408 2.59023Q3.46596 2.42539 3.6557 2.26967Q3.84545 2.11395 4.0426 1.96773Q4.23976 1.82151 4.44385 1.68514Q4.64795 1.54876 4.85849 1.42257Q5.06903 1.29638 5.2855 1.18067Q5.50198 1.06496 5.72388 0.960011Q5.94577 0.855062 6.17255 0.761128Q6.39932 0.667194 6.63044 0.584501Q6.86155 0.501807 7.09644 0.430553Q7.33134 0.3593 7.56944 0.299657Q7.80755 0.240015 8.04829 0.192128Q8.28904 0.144241 8.53184 0.108224Q8.77465 0.0722074 9.01893 0.0481479Q9.26321 0.0240885 9.50837 0.0120442Q9.75354 0 9.999 0Z" transform="translate(0 3.8146973E-06)" id="Rectangle" fill="#64533B" fill-rule="evenodd" stroke="none" />
            <path d="M278.037 9.999L278.037 259L0 259L0 0L268.038 0Q268.283 0 268.528 0.0120442Q268.774 0.0240885 269.018 0.0481479Q269.262 0.0722074 269.505 0.108224Q269.748 0.144241 269.988 0.192128Q270.229 0.240015 270.467 0.299657Q270.705 0.3593 270.94 0.430553Q271.175 0.501807 271.406 0.584501Q271.637 0.667194 271.864 0.761128Q272.091 0.855062 272.313 0.960011Q272.535 1.06496 272.751 1.18067Q272.968 1.29638 273.178 1.42257Q273.389 1.54876 273.593 1.68514Q273.797 1.82151 273.994 1.96773Q274.191 2.11395 274.381 2.26967Q274.571 2.42539 274.753 2.59023Q274.935 2.75507 275.108 2.92864Q275.282 3.10221 275.447 3.28408Q275.611 3.46596 275.767 3.6557Q275.923 3.84545 276.069 4.0426Q276.215 4.23976 276.352 4.44385Q276.488 4.64795 276.614 4.85849Q276.74 5.06903 276.856 5.2855Q276.972 5.50198 277.077 5.72388Q277.182 5.94577 277.276 6.17255Q277.37 6.39932 277.452 6.63044Q277.535 6.86155 277.606 7.09644Q277.677 7.33134 277.737 7.56944Q277.797 7.80755 277.845 8.04829Q277.892 8.28904 277.929 8.53184Q277.965 8.77465 277.989 9.01893Q278.013 9.26321 278.025 9.50837Q278.037 9.75354 278.037 9.999L278.037 9.999Z" transform="translate(278.0368 0)" id="Rectangle-2" fill="#65972B" fill-rule="evenodd" stroke="none" />
          </g>
          <g id="bot" transform="translate(0.036800385 258)">
            <path d="M0 0L278.037 0L278.037 259L9.999 259Q9.75354 259 9.50837 258.988Q9.26321 258.976 9.01893 258.952Q8.77465 258.928 8.53184 258.892Q8.28904 258.856 8.04829 258.808Q7.80755 258.76 7.56944 258.7Q7.33134 258.641 7.09644 258.569Q6.86155 258.498 6.63044 258.415Q6.39932 258.333 6.17255 258.239Q5.94577 258.145 5.72388 258.04Q5.50198 257.935 5.2855 257.819Q5.06903 257.704 4.85849 257.577Q4.64795 257.451 4.44385 257.315Q4.23976 257.178 4.0426 257.032Q3.84545 256.886 3.6557 256.73Q3.46596 256.575 3.28408 256.41Q3.10221 256.245 2.92864 256.071Q2.75507 255.898 2.59023 255.716Q2.42539 255.534 2.26967 255.344Q2.11395 255.155 1.96773 254.957Q1.82151 254.76 1.68514 254.556Q1.54876 254.352 1.42257 254.141Q1.29638 253.931 1.18067 253.714Q1.06496 253.498 0.960011 253.276Q0.855062 253.054 0.761128 252.827Q0.667194 252.601 0.584501 252.37Q0.501807 252.138 0.430553 251.904Q0.3593 251.669 0.299657 251.431Q0.240015 251.192 0.192128 250.952Q0.144241 250.711 0.108224 250.468Q0.0722074 250.225 0.0481479 249.981Q0.0240885 249.737 0.0120442 249.492Q0 249.246 0 249.001L0 0Z" id="Rectangle-3" fill="#65972B" fill-rule="evenodd" stroke="none" />
            <path d="M0 0L278.037 0L278.037 249.001Q278.037 249.246 278.025 249.492Q278.013 249.737 277.989 249.981Q277.965 250.225 277.929 250.468Q277.893 250.711 277.845 250.952Q277.797 251.192 277.737 251.431Q277.677 251.669 277.606 251.904Q277.535 252.138 277.452 252.37Q277.37 252.601 277.276 252.827Q277.182 253.054 277.077 253.276Q276.972 253.498 276.856 253.715Q276.74 253.931 276.614 254.142Q276.488 254.352 276.352 254.556Q276.215 254.76 276.069 254.957Q275.923 255.155 275.767 255.344Q275.611 255.534 275.447 255.716Q275.282 255.898 275.108 256.071Q274.935 256.245 274.753 256.41Q274.571 256.575 274.381 256.73Q274.191 256.886 273.994 257.032Q273.797 257.178 273.593 257.315Q273.389 257.451 273.178 257.577Q272.968 257.704 272.751 257.819Q272.535 257.935 272.313 258.04Q272.091 258.145 271.864 258.239Q271.637 258.333 271.406 258.415Q271.175 258.498 270.94 258.569Q270.705 258.641 270.467 258.7Q270.229 258.76 269.988 258.808Q269.748 258.856 269.505 258.892Q269.262 258.928 269.018 258.952Q268.774 258.976 268.528 258.988Q268.283 259 268.038 259L0 259L0 0Z" transform="translate(278 0)" id="Rectangle-4" fill="#64533B" fill-rule="evenodd" stroke="none" />
          </g>
        </g>
        <g id="toggles" transform="translate(30.350574 80.81241)">
          <g id="toggle-3" transform="translate(0.017608643 242.14102)">
            <path d="M0 0L0 53.242L497 53.242L497 0L0 0L0 0Z" transform="translate(0 37.526794)" id="track" fill="#262626" fill-rule="evenodd" stroke="none" />
            <g id="slid">
              <use stroke="none" fill="#FFBB00" xlink:href="#path_2" fill-rule="evenodd" filter="url(#filter_1)" />
            </g>
            <path d="M0 56.6938C0 25.3827 25.3827 0 56.6938 0C88.005 0 113.388 25.3827 113.388 56.6938C113.388 88.0049 88.005 113.388 56.6938 113.388C25.3827 113.388 0 88.0049 0 56.6938L0 56.6938Z" transform="translate(256.91122 0)" id="switch" fill="#EEEEEE" fill-rule="evenodd" stroke="none" />
          </g>
          <g id="toggle-3-2" transform="translate(0.017608643 0)">
            <path d="M0 0L0 53.242L497 53.242L497 0L0 0L0 0Z" transform="translate(0 37.526794)" id="track" fill="#262626" fill-rule="evenodd" stroke="none" />
            <g id="slid">
              <use stroke="none" fill="#FFBB00" xlink:href="#path_2" fill-rule="evenodd" filter="url(#filter_1)" />
            </g>
            <path d="M0 56.6938C0 25.3827 25.3827 0 56.6938 0C88.005 0 113.388 25.3827 113.388 56.6938C113.388 88.0049 88.005 113.388 56.6938 113.388C25.3827 113.388 0 88.0049 0 56.6938L0 56.6938Z" transform="translate(256.91122 0)" id="switch" fill="#EEEEEE" fill-rule="evenodd" stroke="none" />
          </g>
          <g id="toggle-2" transform="translate(0 128.48312)">
            <path d="M0 0L0 53.242L496 53.242L496 0L0 0L0 0Z" transform="translate(0 23.006104)" id="track" fill="#262626" fill-rule="evenodd" stroke="none" />
            <path d="M0 0L0 53.242L157.216 53.242L157.216 0L0 0L0 0Z" transform="translate(0 23.006104)" id="slid" fill="#FFBB00" fill-rule="evenodd" stroke="none" />
            <path d="M0 56.6938C0 25.3827 25.3827 0 56.6938 0C88.0049 0 113.388 25.3827 113.388 56.6938C113.388 88.0049 88.0049 113.388 56.6938 113.388C25.3827 113.388 0 88.0049 0 56.6938L0 56.6938Z" transform="translate(80.91376 0)" id="switch" fill="#EEEEEE" fill-rule="evenodd" stroke="none" />
          </g>
        </g>
      </g>
    </g>
  </g>
</svg>