<?xml version="1.0" encoding="utf-8"?>
<svg width="512px" height="512px" viewBox="0 0 512 512" version="1.1" xmlns:xlink="http://www.w3.org/1999/xlink" xmlns="http://www.w3.org/2000/svg">
  <defs>
    <filter id="filter_1">
      <feColorMatrix in="SourceGraphic" type="matrix" values="0 0 0 0 0.9529412 0 0 0 0 0.95686275 0 0 0 0 0.9647059 0 0 0 1 0" />
    </filter>
  </defs>
  <g id="chat" filter="url(#filter_1)">
    <g id="Group" transform="translate(96 96)">
      <g id="Group">
        <path d="M208 0L16 0C7.168 0 0 7.168 0 16C0 24.832 7.168 32 16 32L208 32C216.832 32 224 24.832 224 16C224 7.168 216.832 0 208 0L208 0Z" id="Shape" fill="#000000" fill-rule="evenodd" stroke="none" />
      </g>
    </g>
    <g id="Group" transform="translate(96 160)">
      <g id="Group">
        <path d="M144 0L16 0C7.168 0 0 7.168 0 16C0 24.832 7.168 32 16 32L144 32C152.832 32 160 24.832 160 16C160 7.168 152.832 0 144 0L144 0Z" id="Shape" fill="#000000" fill-rule="evenodd" stroke="none" />
      </g>
    </g>
    <g id="Group">
      <g id="Group">
        <path d="M352 0L64 0C28.704 0 0 28.704 0 64L0 384C0 390.208 3.584 395.872 9.216 398.496C11.36 399.488 13.696 400 16 400C19.68 400 23.328 398.72 26.24 396.288L117.792 320L352 320C387.296 320 416 291.296 416 256L416 64C416 28.704 387.296 0 352 0L352 0ZM384 256C384 273.632 369.664 288 352 288L112 288C108.256 288 104.64 289.312 101.76 291.712L32 349.856L32 64C32 46.368 46.336 32 64 32L352 32C369.664 32 384 46.368 384 64L384 256L384 256Z" id="Shape" fill="#000000" fill-rule="evenodd" stroke="none" />
      </g>
    </g>
    <g id="Group" transform="translate(128 128)">
      <g id="Group">
        <path d="M320 0C311.168 0 304 7.168 304 16C304 24.832 311.168 32 320 32C337.664 32 352 46.368 352 64L352 334.688L297.984 291.488C295.168 289.248 291.616 288 288 288L64 288C46.336 288 32 273.632 32 256L32 240C32 231.168 24.832 224 16 224C7.168 224 0 231.168 0 240L0 256C0 291.296 28.704 320 64 320L282.368 320L357.984 380.512C360.896 382.816 364.448 384 368 384C370.336 384 372.704 383.488 374.944 382.432C380.48 379.744 384 374.144 384 368L384 64C384 28.704 355.296 0 320 0L320 0Z" id="Shape" fill="#000000" fill-rule="evenodd" stroke="none" />
      </g>
    </g>
  </g>
</svg>