<?xml version="1.0" encoding="utf-8"?>
<svg width="512px" height="516px" viewBox="0 0 512 516" version="1.1" xmlns:xlink="http://www.w3.org/1999/xlink" xmlns="http://www.w3.org/2000/svg">
  <defs>
    <filter id="filter_1">
      <feColorMatrix in="SourceGraphic" type="matrix" values="0 0 0 0 0.9529412 0 0 0 0 0.95686275 0 0 0 0 0.9647059 0 0 0 1 0" />
    </filter>
    <path d="M0 0L512 0L512 516L0 516L0 0L0 0Z" id="path_1" />
    <clipPath id="mask_1">
      <use xlink:href="#path_1" />
    </clipPath>
  </defs>
  <g id="media" filter="url(#filter_1)">
    <path d="M0 0L512 0L512 516L0 516L0 0L0 0Z" id="path_1" fill="none" fill-rule="evenodd" stroke="none" />
    <g clip-path="url(#mask_1)">
      <g id="video" transform="translate(28 -0.30008316)">
        <path d="M25.7206 362.057C11.6305 362.057 0.167624 350.688 0.167624 336.715C0.167624 336.715 -0.209506 45.7705 0.167589 25.3436C0.544684 4.91662 25.7206 0 25.7206 0L431.407 0C445.495 0 456.957 11.3697 456.957 25.3435L456.957 336.715C456.957 350.688 445.495 362.057 431.407 362.057L422 362.057L422 335.324L430.002 335.324L430.002 26.7354C430.002 26.7354 41.2103 26.7337 27.1221 26.7354L27.1221 335.324L211 335.324L211 362.057L25.7206 362.057ZM275 362.057L359 362.057L359 335.324L275 335.324L275 362.057Z" id="box-Difference" fill="#000000" fill-rule="evenodd" stroke="none" />
        <path d="M17.185 153.203C14.0522 153.203 10.9343 152.232 8.15485 150.305C3.04784 146.765 0 140.629 0 133.891L0 19.3121C0 12.576 3.04932 6.44058 8.15485 2.89851C13.2589 -0.641884 19.5126 -0.958099 24.8851 2.05524L126.999 59.3457C132.862 62.6335 136.503 69.2458 136.503 76.6009C136.503 83.9578 132.862 90.5684 126.999 93.8578L24.8851 151.148C22.4367 152.522 19.8063 153.203 17.185 153.203Z" transform="translate(160.25659 96.76274)" id="play" fill="#000000" fill-rule="evenodd" stroke="none" />
      </g>
      <path d="M113.981 51.5166L113.981 215.455C113.981 246.303 88.4169 271.399 56.9897 271.399C25.5625 271.399 0 246.305 0 215.457C0 184.611 25.5647 159.517 56.9919 159.517C65.9108 159.517 74.3545 161.541 81.878 165.141L81.878 37.9945C81.878 30.2145 87.6613 23.6005 95.4951 22.4198L245.557 0C254.424 0 261.61 7.05517 261.61 15.7575L261.61 193.549C261.61 224.395 236.045 249.489 204.618 249.489C173.191 249.489 147.626 224.395 147.626 193.549C147.626 162.701 173.191 137.605 204.618 137.605C213.537 137.605 221.98 139.629 229.504 143.229L229.504 34.116L113.981 51.5166L113.981 51.5166Z" transform="translate(172.29013 244.60095)" id="music" fill="#000000" fill-rule="evenodd" stroke="none" />
    </g>
  </g>
</svg>