<?xml version="1.0" encoding="utf-8"?>
<svg width="512px" height="512px" viewBox="0 0 512 512" version="1.1" xmlns:xlink="http://www.w3.org/1999/xlink" xmlns="http://www.w3.org/2000/svg">
  <defs>
    <filter id="filter_1">
      <feColorMatrix in="SourceGraphic" type="matrix" values="0 0 0 0 0.9529412 0 0 0 0 0.95686275 0 0 0 0 0.9647059 0 0 0 1 0" />
    </filter>
    <path d="M0 0L512 0L512 512L0 512L0 0L0 0Z" id="path_1" />
    <clipPath id="mask_1">
      <use xlink:href="#path_1" />
    </clipPath>
  </defs>
  <g id="media">
    <g id="media-library" filter="url(#filter_1)">
      <path d="M0 0L512 0L512 512L0 512L0 0L0 0Z" id="Background" fill="none" fill-rule="evenodd" stroke="none" />
      <g id="Mask-group">
        <path d="M0 0L512 0L512 512L0 512L0 0L0 0Z" id="path_1" fill="none" fill-rule="evenodd" stroke="none" />
        <g clip-path="url(#mask_1)">
          <g id="Group" transform="translate(28 8.699917)" filter="url(#filter_1)">
            <g id="Group" filter="url(#filter_1)">
              <g id="Group#1" filter="url(#filter_1)">
                <path d="M0.167624 336.715C0.167624 350.688 11.6305 362.057 25.7206 362.057L431.407 362.057C445.495 362.057 456.957 350.688 456.957 336.715L456.957 25.3435C456.957 11.3697 445.495 0 431.407 0L25.7206 0C25.7206 0 0.544684 4.91662 0.167589 25.3436C-0.209506 45.7705 0.167624 336.715 0.167624 336.715L0.167624 336.715ZM430.002 26.7354L430.002 335.324L27.1221 335.324L27.1221 26.7354C41.2103 26.7337 430.002 26.7354 430.002 26.7354L430.002 26.7354Z" id="Shape" fill="#000000" fill-rule="evenodd" stroke="none" />
                <path d="M13.4773 62C20.9221 62 26.9545 53.336 26.9545 42.6492L26.9545 19.3508C26.9545 8.66402 20.9221 0 13.4773 0C6.03241 0 0 8.66402 0 19.3508L0 42.6492C0 53.336 6.03422 62 13.4773 62L13.4773 62L13.4773 62Z" transform="translate(56.399994 142.55405)" id="Shape#1" fill="#000000" fill-rule="evenodd" stroke="none" />
                <path d="M17.185 153.203C14.0522 153.203 10.9343 152.232 8.15485 150.305C3.04784 146.765 0 140.629 0 133.891L0 19.3121C0 12.576 3.04932 6.44058 8.15485 2.89851C13.2589 -0.641884 19.5126 -0.958099 24.8851 2.05524L126.999 59.3457C132.862 62.6335 136.503 69.2458 136.503 76.6009C136.503 83.9578 132.862 90.5684 126.999 93.8578L24.8851 151.148C22.4367 152.522 19.8063 153.203 17.185 153.203Z" transform="translate(160.25659 83.76274)" id="Shape#2" fill="#000000" fill-rule="evenodd" stroke="none" />
                <path d="M111.814 50.5371L111.814 211.359C111.814 241.62 86.7359 266.239 55.9062 266.239C25.0765 266.239 0 241.622 0 211.361C0 181.101 25.0786 156.484 55.9083 156.484C64.6577 156.484 72.9409 158.47 80.3213 162.001L80.3213 37.2721C80.3213 29.64 85.9947 23.1518 93.6795 21.9935L240.888 0C249.587 0 256.636 6.92104 256.636 15.4579L256.636 189.869C256.636 220.129 231.557 244.746 200.728 244.746C169.898 244.746 144.819 220.129 144.819 189.869C144.819 159.608 169.898 134.989 200.728 134.989C209.477 134.989 217.76 136.974 225.141 140.506L225.141 33.4674L111.814 50.5371L111.814 50.5371Z" transform="translate(149.26398 237.06107)" id="Shape#4" fill="#000000" fill-rule="evenodd" stroke="none" />
                <path d="M13.4773 62C20.9221 62 26.9545 53.336 26.9545 42.6492L26.9545 19.3508C26.9545 8.66402 20.9221 0 13.4773 0C6.03241 0 0 8.66402 0 19.3508L0 42.6492C0 53.336 6.03422 62 13.4773 62L13.4773 62L13.4773 62Z" transform="translate(56.359894 246.45395)" id="Shape#5" fill="#000000" fill-rule="evenodd" stroke="none" />
                <path d="M13.4773 62C20.9221 62 26.9545 53.336 26.9545 42.6492L26.9545 19.3508C26.9545 8.66401 20.9221 0 13.4773 0C6.03241 0 0 8.66401 0 19.3508L0 42.6492C0 53.336 6.03422 62 13.4773 62L13.4773 62L13.4773 62Z" transform="translate(56.345505 50.653904)" id="Shape-2" fill="#000000" fill-rule="evenodd" stroke="none" />
                <path d="M13.4773 62C20.9221 62 26.9545 53.336 26.9545 42.6492L26.9545 19.3508C26.9545 8.66401 20.9221 0 13.4773 0C6.03241 0 0 8.66401 0 19.3508L0 42.6492C0 53.336 6.03421 62 13.4773 62L13.4773 62L13.4773 62Z" transform="translate(378.9599 50.65401)" id="Shape-3" fill="#000000" fill-rule="evenodd" stroke="none" />
                <path d="M13.4773 62C20.9221 62 26.9545 53.336 26.9545 42.6492L26.9545 19.3508C26.9545 8.66402 20.9221 0 13.4773 0C6.03241 0 0 8.66402 0 19.3508L0 42.6492C0 53.336 6.03421 62 13.4773 62L13.4773 62L13.4773 62Z" transform="translate(379.6054 142.05402)" id="Shape-2#1" fill="#000000" fill-rule="evenodd" stroke="none" />
              </g>
            </g>
          </g>
        </g>
      </g>
    </g>
  </g>
</svg>