<?xml version="1.0" encoding="utf-8"?>
<svg width="55px" height="69px" viewBox="0 0 55 69" version="1.1" xmlns:xlink="http://www.w3.org/1999/xlink" xmlns="http://www.w3.org/2000/svg">
  <defs>
    <path d="M0 0L55 0L55 68.75L0 68.75L0 0Z" id="path_1" />
    <clipPath id="mask_1">
      <use xlink:href="#path_1" />
    </clipPath>
  </defs>
  <g id="noun_rematch_945427">
    <path d="M0 0L55 0L55 68.75L0 68.75L0 0Z" id="Background" fill="none" fill-rule="evenodd" stroke="none" />
    <g clip-path="url(#mask_1)">
      <path d="M47.5561 0L44.4073 1.33369C45.7325 4.27749 46.4063 7.41442 46.4063 10.6529C46.4063 23.507 35.6125 33.9635 22.3438 33.9635C15.9483 33.9635 10.01 31.5542 5.54297 27.3033L10.3125 27.3033L10.3125 23.9732L1.71875 23.9732C0.768279 23.9732 0 24.7175 0 25.6383L0 33.9635L3.4375 33.9635L3.4375 29.9507C8.50953 34.6378 15.1731 37.2935 22.3438 37.2935C37.5066 37.2935 49.8438 25.3419 49.8438 10.6529C49.8438 6.95154 49.0755 3.36837 47.5561 0L47.5561 0Z" transform="translate(5.15625 23.922089)" id="Shape" fill="#F3F4F6" fill-rule="evenodd" stroke="none" />
      <path d="M3.4375 26.6406C3.4375 13.7865 14.2312 3.33008 27.5 3.33008C33.8955 3.33008 39.8337 5.73939 44.3008 9.99024L39.5313 9.99024L39.5313 13.3203L48.125 13.3203C49.0755 13.3203 49.8438 12.576 49.8438 11.6553L49.8438 3.33008L46.4063 3.33008L46.4063 7.34282C41.3342 2.65574 34.6706 0 27.5 0C12.3372 0 0 11.9517 0 26.6406C0 30.3403 0.768282 33.9218 2.2825 37.2869L5.43469 35.9532C4.10953 33.0127 3.4375 29.8791 3.4375 26.6406L3.4375 26.6406Z" transform="translate(0 7.934387)" id="Shape" fill="#F3F4F6" fill-rule="evenodd" stroke="none" />
    </g>
  </g>
</svg>