<?xml version="1.0" encoding="utf-8"?>
<svg width="160px" height="200px" viewBox="0 0 160 200" version="1.1" xmlns:xlink="http://www.w3.org/1999/xlink" xmlns="http://www.w3.org/2000/svg">
  <defs>
    <filter id="filter_1">
      <feColorMatrix in="SourceGraphic" type="matrix" values="0 0 0 0 0.9529412 0 0 0 0 0.95686275 0 0 0 0 0.9647059 0 0 0 1 0" />
    </filter>
    <path d="M0 0L160 0L160 200L0 200L0 0Z" id="path_1" />
    <clipPath id="mask_1">
      <use xlink:href="#path_1" />
    </clipPath>
  </defs>
  <g id="noun_Chess_4220152">
    <path d="M0 0L160 0L160 200L0 200L0 0Z" id="Background" fill="none" fill-rule="evenodd" stroke="none" />
    <g clip-path="url(#mask_1)">
      <g id="Switch" transform="translate(0 19)" filter="url(#filter_1)">
        <g id="Group">
          <g id="Group">
            <path d="M154.611 0L5.38947 0C2.35789 0 0 2.35789 0 5.38947L0 154.611C0 157.642 2.35789 160 5.38947 160L154.611 160C157.642 160 160 157.642 160 154.611L160 5.38947C160 2.35789 157.642 0 154.611 0L154.611 0ZM149.221 149.221L10.7789 149.221L10.7789 10.7789L149.221 10.7789L149.221 149.221L149.221 149.221Z" id="Shape" fill="#000000" fill-rule="evenodd" stroke="none" />
            <path d="M0 0L30.3158 0L30.3158 30.3158L0 30.3158L0 0Z" transform="translate(19.199982 19.199997)" id="Rectangle" fill="#000000" fill-rule="evenodd" stroke="none" />
            <path d="M0 0L30.3158 0L30.3158 30.3158L0 30.3158L0 0Z" transform="translate(80 19.199997)" id="Rectangle" fill="#000000" fill-rule="evenodd" stroke="none" />
            <path d="M0 0L30.3158 0L30.3158 30.3158L0 30.3158L0 0Z" transform="translate(49.684235 49.684235)" id="Rectangle" fill="#000000" fill-rule="evenodd" stroke="none" />
            <path d="M0 0L30.3158 0L30.3158 30.3158L0 30.3158L0 0Z" transform="translate(110.315796 49.684235)" id="Rectangle" fill="#000000" fill-rule="evenodd" stroke="none" />
            <path d="M0 0L30.3158 0L30.3158 30.3158L0 30.3158L0 0Z" transform="translate(19.199982 80)" id="Rectangle" fill="#000000" fill-rule="evenodd" stroke="none" />
            <path d="M0 0L30.3158 0L30.3158 30.3158L0 30.3158L0 0Z" transform="translate(80 80)" id="Rectangle" fill="#000000" fill-rule="evenodd" stroke="none" />
            <path d="M0 0L30.3158 0L30.3158 30.3158L0 30.3158L0 0Z" transform="translate(49.684235 110.315796)" id="Rectangle" fill="#000000" fill-rule="evenodd" stroke="none" />
            <path d="M0 0L30.3158 0L30.3158 30.3158L0 30.3158L0 0Z" transform="translate(110.315796 110.315796)" id="Rectangle" fill="#000000" fill-rule="evenodd" stroke="none" />
          </g>
        </g>
      </g>
    </g>
  </g>
</svg>