<?xml version="1.0" encoding="utf-8"?>
<svg width="528px" height="528px" viewBox="0 0 528 528" version="1.1" xmlns:xlink="http://www.w3.org/1999/xlink" xmlns="http://www.w3.org/2000/svg">
  <defs>
    <filter id="filter_1">
      <feColorMatrix in="SourceGraphic" type="matrix" values="0 0 0 0 0.9529412 0 0 0 0 0.95686275 0 0 0 0 0.9647059 0 0 0 1 0" />
    </filter>
    <path d="M0 0L527.645 0L527.645 527.645L0 527.645L0 0Z" id="path_1" />
    <clipPath id="mask_1">
      <use xlink:href="#path_1" />
    </clipPath>
  </defs>
  <g id="rotate-camera" filter="url(#filter_1)">
    <path d="M0 0L527.645 0L527.645 527.645L0 527.645L0 0Z" id="Background" fill="none" fill-rule="evenodd" stroke="none" />
    <g clip-path="url(#mask_1)">
      <g id="Group" transform="translate(206.47244 367.07867)">
        <g id="Group">
          <path d="M65.4829 49.2398L19.5983 3.35528C15.1246 -1.11844 7.85157 -1.11844 3.37786 3.35528C-1.09586 7.82899 -1.09586 15.102 3.37786 19.5757L41.1409 57.3388L3.35528 95.1244C-1.11844 99.5981 -1.11844 106.871 3.35528 111.345C5.60396 113.57 8.53983 114.695 11.4768 114.695C14.4137 114.695 17.3496 113.571 19.5983 111.345L65.4828 65.4603C69.9566 60.9865 69.9566 53.7135 65.4829 49.2398L65.4829 49.2398Z" id="Shape" fill="#000000" fill-rule="evenodd" stroke="none" />
        </g>
      </g>
      <g id="Group" transform="translate(321.6574 258.32306)">
        <g id="Group">
          <path d="M129.821 0.796171C123.924 -1.54392 117.294 1.46185 115 7.35725C112.729 13.2537 115.666 19.9062 121.585 22.1775C160.656 37.2504 183.07 56.2691 183.07 74.3252C183.07 102.911 122.502 139.55 10.2693 151.204C3.9835 151.846 -0.5827 157.49 0.0603868 163.799C0.657232 169.696 5.63531 174.077 11.4393 174.077C11.8297 174.077 12.2426 174.055 12.6094 174.031C130.073 161.849 205.989 122.733 205.989 74.3478C205.988 45.4644 179.651 20.0224 129.821 0.796171L129.821 0.796171Z" id="Shape" fill="#000000" fill-rule="evenodd" stroke="none" />
        </g>
      </g>
      <g id="Group" transform="translate(-7.6293945E-06 258.32855)">
        <g id="Group">
          <path d="M263.834 154.618C121.891 154.618 22.9417 112.289 22.9417 74.3198C22.9417 56.2647 45.3565 37.245 84.4036 22.1495C90.3227 19.8782 93.2597 13.2483 90.9884 7.32923C88.7171 1.43274 82.041 -1.50312 76.1681 0.768144C26.3379 19.9932 8.20474e-06 45.4364 8.20474e-06 74.3209C8.20474e-06 141.38 135.932 177.56 263.834 177.56C270.166 177.56 275.305 172.421 275.305 166.089C275.305 159.757 270.166 154.618 263.834 154.618L263.834 154.618Z" id="Shape" fill="#000000" fill-rule="evenodd" stroke="none" />
        </g>
      </g>
      <g id="Group" transform="translate(68.82631 45.872726)">
        <g id="Group">
          <path d="M259.452 45.8846L332.66 45.8846C364.298 45.8846 390.016 71.6256 390.015 103.239L390.015 240.892C390.015 272.506 364.298 298.247 332.66 298.247L57.3549 298.247C25.7185 298.247 0 272.506 0 240.892L0 103.239C0 71.6256 25.7185 45.8846 57.3549 45.8835L130.564 45.8835L143.985 19.0186C149.835 7.29559 161.649 0 174.773 0L215.242 0C228.365 0 240.18 7.29559 246.03 19.0423L259.452 45.8846ZM195.007 91.7681C150.73 91.7681 114.71 127.787 114.71 172.066C114.71 216.345 150.728 252.363 195.007 252.363C239.286 252.363 275.305 216.344 275.305 172.066C275.305 127.788 239.286 91.7681 195.007 91.7681Z" id="Shape" fill="#000000" fill-rule="evenodd" stroke="none" />
        </g>
        <g id="Group" transform="translate(137.65257 114.710846)" />
      </g>
    </g>
  </g>
</svg>