<?xml version="1.0" encoding="utf-8"?>
<svg width="78px" height="78px" viewBox="0 0 78 78" version="1.1" xmlns:xlink="http://www.w3.org/1999/xlink" xmlns="http://www.w3.org/2000/svg">
  <defs>
    <linearGradient x1="0.5" y1="0.6147109" x2="0.50042695" y2="0.6147109" id="gradient_1">
      <stop offset="0" stop-color="#E5D1A0" />
      <stop offset="1" stop-color="#1D1711" />
    </linearGradient>
    <path d="M0 0L78 0L78 78L0 78L0 0L0 0Z" id="path_1" />
    <clipPath id="mask_1">
      <use xlink:href="#path_1" />
    </clipPath>
  </defs>
  <g id="piece-random">
    <g id="chess_queen_black">
      <path d="M0 0L78 0L78 78L0 78L0 0L0 0Z" id="Background" fill="none" fill-rule="evenodd" stroke="none" />
      <g id="Mask-group">
        <path d="M0 0L78 0L78 78L0 78L0 0L0 0Z" id="path_1" fill="none" fill-rule="evenodd" stroke="none" />
        <g clip-path="url(#mask_1)">
          <g id="Group" transform="translate(8.400002 -5)">
            <g id="icon">
              <g id="piece" transform="translate(0 24.092775)">
                <path d="M30.8009 0C30.8006 0.0155852 30.8002 0.044752 30.8 0.0851706C30.7997 0.0449423 30.7994 0.0159049 30.799 0.000366902C28.35 0.202661 23.5856 14.4273 23.5856 14.4273C23.5856 14.4273 16.0959 2.09926 14.5683 2.40484C13.0409 2.71043 11.5627 14.4273 11.5627 14.4273C11.5627 14.4273 1.8468 4.29158 0.141039 6.01137C-1.56472 7.73118 12.7651 40.2764 12.7651 40.2764C12.7651 40.2764 3.65318 56.5333 6.15245 56.5072C8.65173 56.4811 30.799 56.5072 30.799 56.5072L30.799 2.40485C30.799 2.40485 30.7995 2.1808 30.8 1.86912C30.8005 2.18061 30.8009 2.40448 30.8009 2.40448L30.8009 56.5069C30.8009 56.5069 52.9483 56.4808 55.4475 56.5069C57.9468 56.533 48.8349 40.276 48.8349 40.276C48.8349 40.276 63.1647 7.73081 61.459 6.011C59.7532 4.29121 50.0373 14.427 50.0373 14.427C50.0373 14.427 48.5591 2.71006 47.0317 2.40447C45.5041 2.09889 38.0144 14.427 38.0144 14.427C38.0144 14.427 33.25 0.202294 30.8009 0L30.8009 0Z" id="Vector-shape" fill="url(#gradient_1)" fill-rule="evenodd" stroke="none" />
              </g>
              <g id="" fill="#E7F1EC" transform="translate(25.6 0)">
                <path d="M6.9502 17.0127L3.31934 17.0127Q3.24414 15.874 3.44824 15.106Q3.65234 14.3379 4.00146 13.8276Q4.35059 13.3174 4.78564 13.0005Q5.2207 12.6836 5.63428 12.4526Q6.04785 12.2217 6.36475 12.0068Q6.68164 11.792 6.7998 11.4697Q6.875 11.2764 6.84277 11.0239Q6.81055 10.7715 6.62256 10.5459Q6.43457 10.3203 6.06396 10.1646Q5.69336 10.0088 5.10254 10.0088Q4.71582 10.0088 4.18408 10.0786Q3.65234 10.1484 3.07227 10.2935Q2.49219 10.4385 1.92822 10.6479Q1.36426 10.8574 0.913086 11.126L0.44043 6.91504Q0.837891 6.67871 1.3374 6.42627Q1.83691 6.17383 2.43848 5.9751Q3.04004 5.77637 3.74902 5.64746Q4.45801 5.51855 5.27441 5.51855Q6.5957 5.51855 7.77197 5.88379Q8.94824 6.24902 9.8291 6.95801Q10.71 7.66699 11.2256 8.70361Q11.7412 9.74023 11.7412 11.083Q11.7412 12.1035 11.4512 12.7212Q11.1611 13.3389 10.71 13.7363Q10.2588 14.1338 9.7002 14.4023Q9.1416 14.6709 8.60986 14.9878Q8.07813 15.3047 7.63232 15.7666Q7.18652 16.2285 6.9502 17.0127ZM7.4873 19.8486Q7.4873 20.3213 7.30469 20.7295Q7.12207 21.1377 6.81592 21.4438Q6.50977 21.75 6.10156 21.9272Q5.69336 22.1045 5.23145 22.1045Q4.75879 22.1045 4.35059 21.9272Q3.94238 21.75 3.63623 21.4438Q3.33008 21.1377 3.15283 20.7295Q2.97559 20.3213 2.97559 19.8486Q2.97559 19.3867 3.15283 18.9678Q3.33008 18.5488 3.63623 18.2427Q3.94238 17.9365 4.35059 17.7539Q4.75879 17.5713 5.23145 17.5713Q5.69336 17.5713 6.10156 17.7539Q6.50977 17.9365 6.81592 18.2427Q7.12207 18.5488 7.30469 18.9678Q7.4873 19.3867 7.4873 19.8486Z" />
              </g>
            </g>
          </g>
        </g>
      </g>
    </g>
  </g>
</svg>