<?xml version="1.0" standalone="no"?>
<!DOCTYPE svg PUBLIC "-//W3C//DTD SVG 20010904//EN"
 "http://www.w3.org/TR/2001/REC-SVG-20010904/DTD/svg10.dtd">
<svg version="1.0" xmlns="http://www.w3.org/2000/svg"
 width="384.000000pt" height="384.000000pt" viewBox="0 0 384.000000 384.000000"
 preserveAspectRatio="xMidYMid meet">
<metadata>
Created by potrace 1.10, written by Peter Selinger 2001-2011
</metadata>
<g transform="translate(0.000000,384.000000) scale(0.100000,-0.100000)"
fill="#000000" stroke="none">
<path d="M710 3440 c-70 -11 -118 -37 -174 -93 -63 -63 -84 -102 -101 -187
-31 -156 46 -309 197 -391 37 -20 57 -23 148 -23 94 0 110 3 156 27 76 39 139
108 177 190 23 50 24 224 2 253 -8 10 -15 27 -15 36 0 28 -120 143 -171 165
-52 23 -154 34 -219 23z"/>
<path d="M2642 3437 c-6 -7 -12 -40 -14 -72 l-3 -60 -127 -5 c-69 -3 -130 -9
-135 -13 -4 -5 -8 -66 -8 -135 0 -111 3 -133 23 -173 47 -96 153 -188 235
-203 29 -5 46 -18 78 -59 43 -55 134 -117 172 -117 38 0 50 -16 55 -73 5 -68
-9 -97 -48 -97 -52 0 -60 -8 -60 -60 0 -26 -6 -52 -13 -58 -7 -6 -40 -12 -72
-14 l-60 -3 -3 -91 c-2 -69 1 -94 11 -103 11 -8 100 -11 328 -9 l314 3 0 100
0 100 -62 5 c-34 3 -64 8 -68 12 -4 4 -10 31 -14 60 l-6 53 -45 5 -45 5 -3 68
c-3 74 7 97 41 97 52 0 150 71 200 143 11 17 31 29 55 33 87 16 174 87 226
184 27 50 30 64 33 179 3 76 0 132 -6 141 -8 12 -38 16 -133 18 -79 3 -126 8
-130 15 -4 7 -8 37 -8 68 0 43 -4 58 -16 63 -9 3 -165 6 -349 6 -259 0 -335
-3 -343 -13z m383 -228 c27 -51 51 -69 94 -69 52 0 59 -21 21 -64 -26 -29 -30
-42 -30 -89 0 -31 -5 -59 -10 -62 -6 -4 -31 3 -56 16 l-46 22 -40 -21 c-58
-29 -72 -21 -64 40 7 47 5 52 -29 89 -20 22 -34 46 -32 52 2 7 22 15 45 18 39
5 81 38 82 65 0 14 21 34 37 34 7 0 20 -14 28 -31z m-397 -163 c1 -74 -2 -134
-7 -139 -13 -13 -86 45 -115 92 -28 44 -43 145 -25 167 9 11 29 14 78 12 l66
-3 3 -129z m872 119 c16 -19 4 -129 -16 -146 -8 -6 -14 -17 -14 -23 0 -15 -52
-66 -67 -66 -6 0 -16 -7 -23 -15 -7 -8 -16 -12 -21 -9 -10 6 -12 257 -2 267
13 14 130 7 143 -8z"/>
<path d="M1345 3056 c-22 -6 -55 -21 -72 -34 -38 -27 -103 -113 -143 -187 -6
-11 -19 -33 -30 -50 -20 -32 -90 -172 -90 -181 0 -3 -16 -30 -36 -59 -58 -88
-78 -95 -262 -95 -91 0 -195 6 -247 15 -122 20 -161 19 -201 -6 -51 -31 -64
-56 -64 -120 0 -49 4 -60 32 -92 29 -32 42 -38 113 -51 44 -8 165 -20 268 -27
270 -18 361 -1 477 87 50 38 85 74 124 129 18 24 26 17 50 -45 10 -25 24 -60
32 -78 8 -18 14 -42 14 -53 0 -11 6 -32 14 -47 7 -15 16 -43 19 -62 3 -19 8
-43 12 -52 11 -28 -28 -23 -78 9 -63 41 -80 51 -104 62 -11 5 -24 15 -28 20
-9 15 -52 14 -83 -3 -81 -43 -115 -49 -296 -53 -180 -3 -180 -3 -208 -30 -15
-15 -37 -45 -49 -67 -11 -23 -30 -59 -42 -81 -24 -45 -44 -94 -57 -140 -5 -16
-13 -43 -19 -60 -36 -105 -71 -293 -71 -378 0 -60 4 -77 20 -95 20 -21 29 -22
176 -22 l155 0 19 43 c11 23 20 59 20 80 0 40 21 140 44 217 8 25 17 60 21 77
4 18 11 35 16 38 5 4 9 14 9 23 0 35 65 142 85 142 17 0 52 -15 87 -38 61 -40
176 -108 215 -127 41 -21 52 -22 345 -19 167 2 308 4 315 4 16 0 123 99 123
114 0 7 5 17 11 23 7 7 20 36 30 65 23 65 25 214 4 273 -8 22 -15 50 -15 62 0
13 -6 40 -14 60 -7 21 -21 65 -31 98 -9 33 -23 72 -31 87 -8 14 -14 35 -14 45
0 11 -7 28 -15 39 -8 10 -15 27 -15 36 0 9 -6 29 -14 45 -8 15 -21 44 -29 63
-36 82 -84 179 -116 233 -81 137 -233 203 -376 163z"/>
<path d="M2312 1947 c-57 -18 -65 -48 -66 -247 l-1 -175 -505 -5 c-537 -5
-528 -4 -561 -54 -10 -15 -15 -71 -19 -206 l-5 -185 -504 -3 c-463 -2 -506 -4
-524 -20 -44 -40 -47 -58 -47 -332 0 -295 5 -321 66 -346 50 -21 3478 -21
3528 0 68 28 66 4 66 788 0 663 -1 705 -18 738 -12 21 -31 38 -53 46 -45 16
-1307 18 -1357 1z"/>
</g>
</svg>
