<?xml version="1.0" encoding="utf-8"?>
<svg width="500px" height="500px" viewBox="0 0 500 500" version="1.1" xmlns:xlink="http://www.w3.org/1999/xlink" xmlns="http://www.w3.org/2000/svg">
  <defs>
    <path d="M0 0L500 0L500 500L0 500L0 0Z" id="path_1" />
    <clipPath id="mask_1">
      <use xlink:href="#path_1" />
    </clipPath>
  </defs>
  <g id="back">
    <path d="M0 0L500 0L500 500L0 500L0 0Z" id="Background" fill="none" fill-rule="evenodd" stroke="none" />
    <g clip-path="url(#mask_1)">
      <path d="M441.466 395.797C436.594 395.81 432.01 393.49 429.136 389.556L396.863 345.105C352.848 284.761 286.837 244.181 213.122 232.15L213.122 289.237C213.122 295.003 209.864 300.274 204.707 302.852C199.549 305.431 193.378 304.875 188.765 301.415L6.08919 164.408C2.25596 161.533 0 157.021 0 152.23C0 147.438 2.25596 142.926 6.08919 140.051L188.765 3.04469C193.378 -0.414936 199.549 -0.971432 204.707 1.60722C209.864 4.18588 213.122 9.45704 213.122 15.2231L213.122 79.7685C353.441 102.206 456.677 223.25 456.689 365.351L456.689 380.574C456.684 387.16 452.445 392.995 446.185 395.036C444.655 395.51 443.067 395.767 441.466 395.797L441.466 395.797Z" transform="translate(13.264053 48.759674)" id="Shape-path" fill="#F3F4F6" fill-rule="evenodd" stroke="none" />
    </g>
  </g>
</svg>