<?xml version="1.0" encoding="utf-8"?>
<svg width="443px" height="443px" viewBox="0 0 443 443" version="1.1" xmlns:xlink="http://www.w3.org/1999/xlink" xmlns="http://www.w3.org/2000/svg">
  <defs>
    <filter id="filter_1">
      <feColorMatrix in="SourceGraphic" type="matrix" values="0 0 0 0 0.9529412 0 0 0 0 0.95686275 0 0 0 0 0.9647059 0 0 0 1 0" />
    </filter>
    <path d="M0 0L442.645 0L442.645 442.645L0 442.645L0 0Z" id="path_1" />
    <clipPath id="mask_1">
      <use xlink:href="#path_1" />
    </clipPath>
  </defs>
  <path d="M0 0L442.645 0L442.645 442.645L0 442.645L0 0Z" id="Background" fill="none" fill-rule="evenodd" stroke="none" />
  <g clip-path="url(#mask_1)">
    <g id="Group-2" transform="translate(0.4000244 0.3449707)">
      <g id="Group" transform="translate(0 189.3724)" filter="url(#filter_1)">
        <path d="M47.9207 90.9284C53.8681 97.8157 84.3916 122.665 108.6 129.274L111.418 102.456C111.703 99.7471 113.494 97.4316 116.044 96.4748C118.594 95.5181 121.466 96.0844 123.462 97.9373L202.514 171.32C204.173 172.86 205.01 175.091 204.773 177.342C204.537 179.593 203.254 181.601 201.311 182.762L108.73 238.105C106.392 239.503 103.465 239.46 101.169 237.993C98.874 236.527 97.6039 233.89 97.8886 231.181L101.076 200.859C38.377 183.96 -3.46103 125.421 0.225565 61.1828C0.287336 60.1068 4.32924 23.826 23.8127 0C23.8127 0 23.6015 60.8876 47.9207 90.9284Z" transform="matrix(-0.9975644 0.069751225 0.069751225 0.9975644 425.31378 0.2999859)" id="Path-4" fill="#F3F4F6" fill-rule="evenodd" stroke="none" />
        <path d="M47.9207 90.9284C53.8681 97.8157 84.3916 122.665 108.6 129.274L111.418 102.456C111.703 99.7471 113.494 97.4316 116.044 96.4748C118.594 95.5181 121.466 96.0844 123.462 97.9373L202.514 171.32C204.173 172.86 205.01 175.091 204.773 177.342C204.537 179.593 203.254 181.601 201.311 182.762L108.73 238.105C106.392 239.503 103.465 239.46 101.169 237.993C98.874 236.527 97.6039 233.89 97.8886 231.181L101.076 200.859C38.377 183.96 -3.46103 125.421 0.225565 61.1828C0.287336 60.1068 4.32924 23.826 23.8127 0C23.8127 0 23.6015 60.8876 47.9207 90.9284Z" transform="matrix(0.9975644 0.06975137 -0.06975137 0.9975644 16.67923 0)" id="Path-5" fill="#F3F4F6" fill-rule="evenodd" stroke="none" />
      </g>
      <path d="M320.093 44.1512L249.65 44.1512L236.736 18.3229C231.107 7.01998 219.738 0 207.111 0L168.17 0C155.543 0 144.174 7.01998 138.545 18.3002L125.631 44.1501L55.1882 44.1501C24.7469 44.1512 0 68.9198 0 99.3394L0 231.792C0 262.211 24.7469 286.98 55.1882 286.98L320.093 286.98C350.535 286.98 375.281 262.211 375.281 231.792L375.281 99.3394C375.282 68.9198 350.535 44.1512 320.093 44.1512L320.093 44.1512ZM187.641 220.754C157.198 220.754 132.452 195.985 132.452 165.566C132.452 135.146 157.199 110.377 187.641 110.377C218.082 110.377 242.829 135.146 242.829 165.566C242.829 195.985 218.083 220.754 187.641 220.754L187.641 220.754Z" transform="translate(32.51857 0)" id="Shape-4-Union" fill="#F3F4F6" fill-rule="evenodd" stroke="none" />
    </g>
  </g>
</svg>