<?xml version="1.0" encoding="utf-8"?>
<svg width="497px" height="542px" viewBox="0 0 497 542" version="1.1" xmlns:xlink="http://www.w3.org/1999/xlink" xmlns="http://www.w3.org/2000/svg">
  <defs>
    <path d="M0 0L496.645 0L496.645 541.645L0 541.645L0 0Z" id="path_1" />
    <clipPath id="mask_1">
      <use xlink:href="#path_1" />
    </clipPath>
  </defs>
  <path d="M0 0L496.645 0L496.645 541.645L0 541.645L0 0Z" id="Background" fill="none" fill-rule="evenodd" stroke="none" />
  <g clip-path="url(#mask_1)">
    <g id="Group" transform="translate(43.187317 0.87599945)">
      <path d="M300.026 109.85C320.762 115.511 350.228 130.801 361.918 151.883C363.973 155.962 366.166 160.903 367.114 164.173C367.653 166.033 367.348 164.648 368.033 167.699C358.798 158.753 340.292 155.068 332.101 155.068L264.026 155.068L251.546 130.108C246.106 119.185 235.119 112.401 222.917 112.401L185.285 112.401C173.082 112.401 162.096 119.185 156.656 130.086L144.176 155.067L76.1008 155.067C46.6828 155.068 22.7677 179.004 22.7677 208.401L22.7677 302.908C4.18393 326.73 0.286221 361.726 0.22557 362.783C-3.46102 427.021 38.377 485.56 101.076 502.459L97.8886 532.781C97.6039 535.49 98.874 538.127 101.169 539.593C103.465 541.06 106.392 541.103 108.73 539.705L201.311 484.362C203.254 483.201 204.537 481.193 204.773 478.942C205.01 476.691 204.173 474.46 202.514 472.92L123.462 399.537C121.466 397.684 118.594 397.118 116.044 398.075C113.494 399.032 111.703 401.347 111.418 404.056L108.6 430.874C87.9141 425.227 58.2744 403.891 51.9827 396.564C45.6911 389.238 42.8315 382.816 40.7146 378.267C40.6947 378.224 40.7743 377.553 40.8262 377.588C40.8263 377.588 40.8264 377.588 40.8265 377.588C47.8129 382.286 62.3034 389.022 76.1008 388.6C100.949 388.802 332.101 388.6 332.101 388.6C361.52 388.6 385.434 365.798 385.434 336.401L385.434 238.354C404.382 214.524 408.339 179.006 408.4 177.941C412.086 113.703 370.248 55.1643 307.55 38.2647L310.737 7.94255C311.021 5.23384 309.751 2.59677 307.456 1.13069C305.16 -0.335546 302.234 -0.37885 299.896 1.01881L207.314 56.3617C205.371 57.523 204.089 59.5312 203.852 61.7821C203.615 64.0331 204.453 66.264 206.111 67.8039L285.163 141.187C287.16 143.04 290.031 143.606 292.581 142.649C295.131 141.692 296.922 139.377 297.207 136.668L300.026 109.85L300.026 109.85ZM144.813 276.8C144.813 244.049 171.362 217.5 204.113 217.5C236.863 217.5 263.413 244.049 263.413 276.8C263.413 309.55 236.863 336.1 204.113 336.1C171.362 336.1 144.813 309.55 144.813 276.8L144.813 276.8Z" id="Vector" fill="#F3F4F6" fill-rule="evenodd" stroke="none" />
    </g>
  </g>
</svg>