<?xml version="1.0" encoding="utf-8"?>
<svg viewBox="0 0 500 500" xmlns="http://www.w3.org/2000/svg" xmlns:bx="https://boxy-svg.com">
  <title/>
  <path d="M 438.375 136.992 L 158.884 136.992 C 137.358 136.992 123.929 113.696 134.683 95.06 C 139.663 86.416 148.907 81.097 158.884 81.097 L 438.375 81.097 C 459.895 81.097 473.32 104.361 462.579 123.01 C 457.586 131.655 448.345 136.992 438.375 136.992 Z" style="fill: rgb(243, 244, 246);" bx:origin="-0.331273 -0.011895"/>
  <path d="M 438.375 276.729 L 158.884 276.729 C 137.358 276.729 123.929 253.432 134.683 234.797 C 139.663 226.151 148.907 220.834 158.884 220.834 L 438.375 220.834 C 459.895 220.834 473.32 244.131 462.579 262.765 C 457.586 271.41 448.345 276.729 438.375 276.729 Z" style="fill: rgb(243, 244, 246);" bx:origin="-0.331273 -2.51191"/>
  <path d="M 438.375 416.483 L 158.884 416.483 C 137.358 416.483 123.929 393.19 134.683 374.556 C 139.663 365.907 148.907 360.569 158.884 360.569 L 438.375 360.569 C 459.895 360.569 473.32 383.866 462.579 402.501 C 457.586 411.146 448.345 416.483 438.375 416.483 Z" style="fill: rgb(243, 244, 246);" bx:origin="-0.331273 -5.009955"/>
  <circle cx="47.114" cy="109.044" r="27.947" style="fill: rgb(243, 244, 246);" bx:origin="0.010712 -0.011895"/>
  <circle cx="47.114" cy="248.782" r="27.947" style="fill: rgb(243, 244, 246);" bx:origin="0.010712 -2.511898"/>
  <circle cx="47.114" cy="388.538" r="27.947" style="fill: rgb(243, 244, 246);" bx:origin="0.010712 -5.0123"/>
</svg>