<?xml version="1.0" encoding="utf-8"?>
<svg width="49px" height="49px" viewBox="0 0 49 49" version="1.1" xmlns:xlink="http://www.w3.org/1999/xlink" xmlns="http://www.w3.org/2000/svg">
  <defs>
    <path d="M0 0L48 0L48 48L0 48L0 0Z" id="path_1" />
    <clipPath id="mask_1">
      <use xlink:href="#path_1" />
    </clipPath>
  </defs>
  <g id="2403262_expand_panel_right_window_configuration_icon" transform="translate(0.5 0.5)">
    <path d="M0 0L48 0L48 48L0 48L0 0Z" id="Background" fill="none" fill-rule="evenodd" stroke="none" />
    <g clip-path="url(#mask_1)">
      <g id="icon" transform="translate(11.4939995 12.884001)">
        <g id="Group">
          <path d="M23.9 22.232L1.112 22.232C0.498 22.232 0 21.734 0 21.12L0 1.112C0 0.497999 0.498 0 1.112 0L23.899 0C24.513 0 25.011 0.498 25.011 1.112L25.011 21.12C25.011 21.734 24.514 22.232 23.9 22.232L23.9 22.232Z" id="Shape" fill="none" fill-rule="evenodd" stroke="#FFFFFF" stroke-width="1" stroke-linejoin="round" />
          <path d="M0 1L24.871 1" transform="translate(0.0010004044 3.1689987)" id="Line" fill="none" fill-rule="evenodd" stroke="#FFFFFF" stroke-width="1" />
          <path d="M1 0L1 17.785" transform="translate(18.453001 4.3079987)" id="Line" fill="none" fill-rule="evenodd" stroke="#FFFFFF" stroke-width="1" stroke-linecap="round" stroke-linejoin="round" />
          <path d="M0 3.656L7.225 3.656M7.396 3.659L3.694 7.328M7.396 3.659L3.694 0" transform="translate(10.283001 8.849998)" id="Shape" fill="none" fill-rule="evenodd" stroke="#FFFFFF" stroke-width="1" stroke-linecap="round" />
        </g>
      </g>
    </g>
  </g>
</svg>