<?xml version="1.0" encoding="utf-8"?>
<svg width="406px" height="578px" viewBox="0 0 406 578" version="1.1" xmlns:xlink="http://www.w3.org/1999/xlink" xmlns="http://www.w3.org/2000/svg">
  <path d="M0 0L406 0L406 578L0 578L0 0L0 0Z" id="Background" fill="none" fill-rule="evenodd" stroke="none" />
  <path d="M297.264 1.76668C292.273 -0.309416 281.3 0.0189648 281.3 0.0189648L281.3 0.0311299C278.45 0.00881011 270.431 0.106451 266.371 1.79539C261.214 4.37342 257.956 9.64441 257.956 15.4104L257.968 271.511C257.349 270.814 247.517 260.316 213.122 254.816L213.122 190.271C213.122 184.505 209.864 179.234 204.707 176.655C199.549 174.076 193.378 174.633 188.765 178.093L6.08919 315.099C2.25596 317.974 0 322.486 0 327.278C0 332.069 2.25596 336.581 6.08919 339.456L188.765 476.463C193.378 479.923 199.549 480.479 204.707 477.9C209.864 475.322 213.122 470.051 213.122 464.285L213.122 407.198C246.619 412.665 257.386 419.164 257.974 419.531L257.975 419.532L257.978 479.295C257.978 485.061 261.236 490.332 266.393 492.91C271.551 495.489 282.335 495.048 282.335 495.048L282.335 495.043C285.157 495.078 293.054 494.976 297.242 492.882C302.399 490.304 305.657 485.033 305.657 479.267L305.679 15.3817C305.679 9.61571 302.421 4.34472 297.264 1.76668L297.264 1.76668Z" transform="translate(42.5 41.952362)" id="Vector-shape" fill="#F3F4F6" fill-rule="evenodd" stroke="none" />
</svg>