<?xml version="1.0" encoding="utf-8"?>
<svg width="500px" height="500px" viewBox="0 0 500 500" version="1.1" xmlns:xlink="http://www.w3.org/1999/xlink" xmlns="http://www.w3.org/2000/svg">
  <defs>
    <linearGradient x1="0" y1="0" x2="1" y2="1" id="gradient_1">
      <stop offset="0.06790123" stop-color="#FBD592" />
      <stop offset="1" stop-color="#E5E3E3" />
    </linearGradient>
  </defs>
  <g id="bullet">
    <g id="bullet">
      <g id="icon">
        <path d="M0 0L500 0L500 500L0 500L0 0L0 0L0 0Z" id="Background" fill="none" fill-rule="evenodd" stroke="none" />
        <path d="M0 0C0 0 0 158.572 0 213.188C66.8918 210.572 133.222 146.406 133.222 106.594C133.222 66.7806 66.9224 2.61467 0 0L0 0L0 0L0 0Z" transform="translate(294.14487 143.00003)" id="Head" fill="#784F2B" fill-rule="evenodd" stroke="none" />
        <g id="Jacket" transform="translate(51 143)">
          <path d="M67.7126 0.395508C60.8462 0.415894 59.0837 5.32584 56.7994 12.8057C54.7677 19.4538 52.7141 29.1026 46.091 29.1026C39.2325 29.1026 36.0355 16.8336 34.189 12.2431C32.6031 8.29831 29.8055 5.18144 29.4273 5.10611L29.4273 5.01196C29.4273 5.01196 29.4893 5.05199 29.5748 5.12889C26.4587 1.96573 22.0516 0 17.2601 0C7.77116 0 0 7.69255 0 17.1828L0 81.7938L0 196.237C0 205.727 7.77744 213.42 17.2672 213.42C22.1874 213.42 26.9994 211.102 29.4022 208.372C29.4022 208.372 32.2351 205.989 34.171 201.177C36.0182 196.587 39.2827 184.317 46.1412 184.317C52.7643 184.317 54.7536 193.966 56.7853 200.615C59.0696 208.095 60.8148 213.3 67.6812 213.322C67.6812 213.322 67.8868 213.249 67.9967 213.249L68.032 213.249L68.0351 213.249L68.0618 213.249L68.0697 213.249L243.266 213.249C243.266 172.623 243.266 0.395493 243.266 0.395493L68.0343 0.395493L67.7126 0.395493L67.7126 0.395508L67.7126 0.395508L67.7126 0.395508Z" id="Shape-path" fill="#DB9E30" fill-rule="evenodd" stroke="none" />
          <path d="M0 0L0 27L158.5 27C158.5 27 206.139 25.9959 254.5 34C223.352 2.65985 158.5 0 158.5 0L0 0Z" transform="translate(81.5 24)" id="shine" fill="url(#gradient_1)" fill-rule="evenodd" stroke="none" />
        </g>
      </g>
    </g>
  </g>
</svg>