<?xml version="1.0" encoding="utf-8"?>
<svg width="268px" height="250px" viewBox="0 0 268 250" version="1.1" xmlns:xlink="http://www.w3.org/1999/xlink" xmlns="http://www.w3.org/2000/svg">
  <g id="half">
    <g id="Group">
      <path d="M45.5687 1.02627C40.5341 -1.05995 34.7397 0.0940746 30.8879 3.94591L3.94569 30.8881C-1.31523 36.149 -1.31523 44.678 3.94569 49.9389C9.20571 55.1999 17.7356 55.1999 22.9965 49.9389L26.9427 45.9928L26.9427 121.241C26.9427 128.68 32.9741 134.712 40.4138 134.712C47.8534 134.712 53.8849 128.68 53.8849 121.241L53.8849 13.4718C53.8849 8.02316 50.6024 3.1116 45.5687 1.02627L45.5687 1.02627Z" id="Shape" fill="#F3F4F6" fill-rule="evenodd" stroke="none" />
      <path d="M48.496 91.6035C62.9002 80.8006 80.8266 67.3555 80.8266 40.4133C80.8266 18.1294 62.6972 0 40.4133 0C18.1294 0 0 18.1294 0 40.4133C0 47.8529 6.03147 53.8844 13.4711 53.8844C20.9107 53.8844 26.9422 47.8529 26.9422 40.4133C26.9422 32.9853 32.9854 26.9422 40.4133 26.9422C47.8413 26.9422 53.8844 32.9853 53.8844 40.4133C53.8844 53.2585 46.0963 59.7255 32.3307 70.0497C17.9264 80.8527 0 94.2977 0 121.24C0 128.68 6.03147 134.711 13.4711 134.711L67.3555 134.711C74.7952 134.711 80.8266 128.68 80.8266 121.24C80.8266 113.8 74.7952 107.769 67.3555 107.769L30.865 107.769C34.4672 102.338 40.4636 97.6278 48.496 91.6035L48.496 91.6035Z" transform="translate(186.79971 114.953445)" id="Shape" fill="#F3F4F6" fill-rule="evenodd" stroke="none" />
      <path d="M128.713 2.26388C122.525 -1.86277 114.159 -0.190561 110.032 5.99986L2.26359 167.653C-1.86306 173.844 -0.189944 182.207 6.00047 186.335C12.164 190.444 20.5358 188.816 24.6813 182.598L132.45 20.9447C136.577 14.7543 134.904 6.39143 128.713 2.26389L128.713 2.26388Z" transform="translate(52.08737 41.3098)" id="Shape" fill="#F3F4F6" fill-rule="evenodd" stroke="none" />
    </g>
  </g>
</svg>