<?xml version="1.0" encoding="utf-8"?>
<svg width="500px" height="500px" viewBox="0 0 500 500" version="1.1" xmlns:xlink="http://www.w3.org/1999/xlink" xmlns="http://www.w3.org/2000/svg">
  <defs>
    <path d="M0 0L500 0L500 500L0 500L0 0Z" id="path_1" />
    <clipPath id="mask_1">
      <use xlink:href="#path_1" />
    </clipPath>
  </defs>
  <g id="back">
    <path d="M0 0L500 0L500 500L0 500L0 0Z" id="Background" fill="none" fill-rule="evenodd" stroke="none" />
    <g clip-path="url(#mask_1)">
      <g id="Group" transform="translate(4.9999695 58.800568)">
        <g id="menu">
          <g id="options" transform="translate(131.36975 0)">
            <path d="M348.994 90.4921C353.193 90.4921 357.031 88.1196 358.909 84.3642C360.787 80.608 360.018 72.755 360.018 72.755L360.011 17.737C360.011 17.737 360.779 9.88394 358.901 6.12789C357.024 2.37242 353.185 0 348.986 0L11.18 0.0163563C6.98109 0.0163563 3.14268 2.38883 1.26535 6.14425C-0.612696 9.9003 0.155585 17.7533 0.155585 17.7533L0.162919 72.7394C0.162919 72.7394 -0.60534 80.5924 1.27273 84.3485C3.15008 88.104 6.98849 90.4765 11.1874 90.4765L348.994 90.4921L348.994 90.4921L348.994 90.4921Z" transform="translate(1.4564209 292.88718)" id="3" fill="#F3F4F6" fill-rule="evenodd" stroke="none" />
            <path d="M348.994 90.4921C353.193 90.4921 357.031 88.1195 358.909 84.3642C360.787 80.608 360.018 72.755 360.018 72.755L360.011 17.737C360.011 17.737 360.779 9.88394 358.901 6.12785C357.024 2.37243 353.185 -2.22233e-05 348.986 0L11.18 0.0163341C6.98109 0.0163341 3.14268 2.38878 1.26535 6.14423C-0.612696 9.9003 0.155585 17.7534 0.155585 17.7534L0.162919 72.7395C0.162919 72.7395 -0.60534 80.5924 1.27273 84.3486C3.15008 88.1039 6.98849 90.4765 11.1874 90.4765L348.994 90.4921L348.994 90.4921L348.994 90.4921Z" transform="translate(0 146.17677)" id="2" fill="#F3F4F6" fill-rule="evenodd" stroke="none" />
            <path d="M348.994 90.4921C353.193 90.4921 357.031 88.1196 358.909 84.3642C360.787 80.608 360.018 72.755 360.018 72.755L360.011 17.737C360.011 17.737 360.779 9.88395 358.901 6.12786C357.024 2.37244 353.185 0 348.986 0L11.18 0.0163452C6.98109 0.0163563 3.14268 2.3888 1.26535 6.14423C-0.612696 9.90031 0.155585 17.7534 0.155585 17.7534L0.162919 72.7395C0.162919 72.7395 -0.60534 80.5924 1.27273 84.3485C3.15008 88.104 6.98849 90.4765 11.1874 90.4764L348.994 90.4921L348.994 90.4921L348.994 90.4921Z" transform="translate(0.72821045 0)" id="1" fill="#F3F4F6" fill-rule="evenodd" stroke="none" />
          </g>
          <g id="pre" transform="translate(0 0.33039856)">
            <path d="M49.1546 0L76.206 0.0163563C80.4049 0.0163563 84.2433 2.38883 86.1206 6.14425C87.9987 9.90034 87.2304 17.7533 87.2304 17.7533L87.2224 72.7394C87.2224 72.7394 87.9907 80.5928 86.1126 84.3489C84.2353 88.1043 80.3969 90.4768 76.198 90.4768L49.8826 90.4775L11.1875 90.4775C6.98858 90.4775 3.15017 88.105 1.27283 84.3496C-0.605185 80.5935 0.163086 72.7407 0.163086 72.7407L0.155607 17.7546C0.155607 17.7546 -0.612752 9.90159 1.26532 6.14549C3.1426 2.39007 6.98101 0.0176008 11.1799 0.0176008L49.1546 0.0176008L49.1546 0L49.1546 0L49.1546 0Z" transform="translate(0.00045776367 293.32407)" id="icon-3" fill="#F3F4F6" fill-rule="evenodd" stroke="none" />
            <path d="M49.1546 0L76.206 0.0163563C80.4049 0.0163563 84.2433 2.3888 86.1206 6.14423C87.9987 9.90034 87.2304 17.7533 87.2304 17.7533L87.2224 72.7394C87.2224 72.7394 87.9907 80.5927 86.1126 84.3489C84.2353 88.1043 80.3969 90.4768 76.198 90.4768L49.8826 90.4775L11.1875 90.4775C6.98858 90.4775 3.15017 88.105 1.27283 84.3496C-0.605185 80.5935 0.163086 72.7407 0.163086 72.7407L0.155607 17.7546C0.155607 17.7546 -0.612752 9.90158 1.26532 6.14549C3.1426 2.39007 6.98101 0.0176008 11.1799 0.0176008L49.1546 0.0176008L49.1546 0L49.1546 0L49.1546 0Z" transform="translate(9.1552734E-05 146.40448)" id="icon-2" fill="#F3F4F6" fill-rule="evenodd" stroke="none" />
            <path d="M49.1546 0L76.206 0.0163452C80.4049 0.0163563 84.2433 2.3888 86.1206 6.14424C87.9987 9.90034 87.2304 17.7533 87.2304 17.7533L87.2224 72.7394C87.2224 72.7394 87.9907 80.5928 86.1126 84.3489C84.2353 88.1043 80.3969 90.4768 76.198 90.4768L49.8826 90.4775L11.1875 90.4775C6.98858 90.4775 3.15017 88.105 1.27283 84.3496C-0.605185 80.5935 0.163086 72.7407 0.163086 72.7407L0.155607 17.7546C0.155607 17.7546 -0.612752 9.90159 1.26532 6.14549C3.1426 2.39007 6.98101 0.017612 11.1799 0.0176008L49.1546 0.0175897L49.1546 0L49.1546 0L49.1546 0Z" id="icon" fill="#F3F4F6" fill-rule="evenodd" stroke="none" />
          </g>
        </g>
      </g>
    </g>
  </g>
</svg>