<?xml version="1.0" encoding="utf-8"?>
<svg width="24px" height="24px" viewBox="0 0 24 24" version="1.1" xmlns:xlink="http://www.w3.org/1999/xlink" xmlns="http://www.w3.org/2000/svg">
  <defs>
    <path d="M0 0L24 0L24 24L0 24L0 0Z" id="path_1" />
    <clipPath id="mask_1">
      <use xlink:href="#path_1" />
    </clipPath>
  </defs>
  <g id="Synchronize-icon">
    <path d="M0 0L24 0L24 24L0 24L0 0Z" id="Background" fill="none" fill-rule="evenodd" stroke="none" />
    <g clip-path="url(#mask_1)">
      <path d="M13.985 0.000343442C13.7902 0.00602007 13.6053 0.0872749 13.4694 0.226906L11.5339 2.16245C11.4805 2.20311 11.4329 2.25074 11.3923 2.30405L11.2194 2.47691C10.9266 2.7698 10.9266 3.24456 11.2194 3.53745L13.4694 5.78745C13.6575 5.98338 13.9368 6.0623 14.1997 5.99378C14.4625 5.92526 14.6678 5.72001 14.7363 5.45718C14.8048 5.19436 14.7259 4.91502 14.5299 4.72691L13.3268 3.52378C17.3243 3.69547 20.4997 6.96642 20.4997 11.0072C20.4997 13.5452 19.2413 15.7744 17.3171 17.1332C17.098 17.2877 16.9781 17.5473 17.0025 17.8143C17.0268 18.0812 17.1918 18.3149 17.4352 18.4272C17.6786 18.5395 17.9634 18.5134 18.1823 18.3587C20.4881 16.7305 21.9997 14.0422 21.9997 11.0072C21.9997 6.30572 18.3727 2.43965 13.7712 2.04624L14.5299 1.28745C14.7514 1.07178 14.8179 0.742338 14.6973 0.457677C14.5768 0.173017 14.294 -0.00855565 13.985 0.000343442L13.985 0.000343442ZM4.28906 2.49481C4.12027 2.48786 3.95407 2.5381 3.81738 2.63738C1.51161 4.2656 0 6.95393 0 9.98895C0 14.6904 3.62702 18.5565 8.22852 18.9499L7.46973 19.7087C7.2738 19.8968 7.19488 20.1761 7.2634 20.4389C7.33192 20.7018 7.53717 20.907 7.8 20.9755C8.06282 21.0441 8.34216 20.9651 8.53027 20.7692L10.4658 18.8337C10.5191 18.793 10.5668 18.7454 10.6074 18.6921L10.7803 18.5192C11.073 18.2263 11.073 17.7516 10.7803 17.4587L8.53027 15.2087C8.38903 15.0632 8.19493 14.9811 7.99219 14.9811C7.68686 14.9812 7.41206 15.1663 7.2973 15.4493C7.18253 15.7322 7.25073 16.0565 7.46973 16.2692L8.67285 17.4723C4.6754 17.3007 1.5 14.0297 1.5 9.98895C1.5 7.45097 2.75839 5.22176 4.68262 3.86297C4.94916 3.68029 5.06875 3.34745 4.97942 3.03691C4.89009 2.72637 4.61193 2.50794 4.28906 2.49481L4.28906 2.49481Z" transform="matrix(1.1483816E-06 1 -1 1.1483816E-06 22.499786 1.5001831)" id="Shape" fill="#D3D3D3" fill-rule="evenodd" stroke="none" />
    </g>
  </g>
</svg>