<?xml version="1.0" encoding="utf-8"?>
<svg width="494px" height="598px" viewBox="0 0 494 598" version="1.1" xmlns:xlink="http://www.w3.org/1999/xlink" xmlns="http://www.w3.org/2000/svg">
  <defs>
    <filter id="filter_1">
      <feColorMatrix in="SourceGraphic" type="matrix" values="0 0 0 0 0.827451 0 0 0 0 0.827451 0 0 0 0 0.827451 0 0 0 1 0" />
    </filter>
    <path d="M0 0L494 0L494 598L0 598L0 0Z" id="path_1" />
    <clipPath id="mask_1">
      <use xlink:href="#path_1" />
    </clipPath>
  </defs>
  <g id="noun_resign-flag_3841203" filter="url(#filter_1)">
    <path d="M0 0L494 0L494 598L0 598L0 0Z" id="Background" fill="none" fill-rule="evenodd" stroke="none" />
    <g clip-path="url(#mask_1)">
      <path d="M290.959 243.079C368.023 249.418 421.67 207.236 436.277 194.155C440.292 190.56 441.056 183.615 438.138 177.272L361.363 10.4324C359.011 5.32145 354.731 1.56042 349.907 0.374057C347.003 -0.434254 343.86 0.0836068 341.428 1.77114C280.915 44.6295 227.68 50.2947 193.679 47.4906C148.726 43.7965 110.44 57.0606 79.9 86.9326C68.9431 97.7246 59.6521 109.889 52.2953 123.073L146.139 314.042C152.373 303.84 159.81 294.321 168.313 285.661C190.23 263.431 229.293 238.008 290.959 243.079ZM208.179 528.34C211.852 529.613 215.917 529.472 219.479 527.949C226.888 524.77 230.141 516.597 226.752 509.678L36.8335 123.213C36.6912 123.268 36.5406 123.312 36.4018 123.371C36.4806 123.211 36.5759 123.024 36.6582 122.858L28.2025 105.65C24.7967 98.7388 16.0329 95.7082 8.62083 98.8781C1.20874 102.048 -2.04911 110.22 1.34153 117.137L199.892 521.164C201.525 524.487 204.506 527.068 208.179 528.34Z" transform="translate(26.950745 35.057163)" id="Shape" fill="#F3F4F6" fill-rule="evenodd" stroke="none" />
    </g>
  </g>
</svg>