<?xml version="1.0" encoding="utf-8"?>
<svg width="78px" height="78px" viewBox="0 0 78 78" version="1.1" xmlns:xlink="http://www.w3.org/1999/xlink" xmlns="http://www.w3.org/2000/svg">
  <defs>
    <path d="M0 0L78 0L78 78L0 78L0 0Z" id="path_1" />
    <clipPath id="mask_1">
      <use xlink:href="#path_1" />
    </clipPath>
  </defs>
  <g id="chess_queen_white">
    <path d="M0 0L78 0L78 78L0 78L0 0Z" id="Background" fill="none" fill-rule="evenodd" stroke="none" />
    <g clip-path="url(#mask_1)">
      <g id="icon" transform="translate(12.382568 1.5258789E-05)">
        <g id="piece">
          <path d="M25.6175 0C25.6213 0.158249 25.6175 1.99996 25.6175 1.99996L25.6175 47.0003C25.6175 47.0003 7.19619 46.9786 5.11738 47.0003C3.03858 47.022 10.6175 33.5001 10.6175 33.5001C10.6175 33.5001 -1.30147 6.4302 0.117314 4.99973C1.5361 3.56927 9.61743 11.9998 9.61743 11.9998C9.61743 11.9998 10.8469 2.25413 12.1174 1.99995C13.388 1.74578 19.6176 11.9998 19.6176 11.9998C19.6176 11.9998 23.5805 0.16826 25.6175 0Z" transform="translate(0 16.499985)" id="left" fill="#E5D1A0" fill-rule="evenodd" stroke="none" />
          <path d="M25.6175 0C25.6213 0.158249 25.6175 1.99996 25.6175 1.99996L25.6175 47.0003C25.6175 47.0003 7.19619 46.9786 5.11738 47.0003C3.03858 47.022 10.6175 33.5001 10.6175 33.5001C10.6175 33.5001 -1.30147 6.4302 0.117314 4.99973C1.5361 3.56927 9.61743 11.9998 9.61743 11.9998C9.61743 11.9998 10.8469 2.25413 12.1174 1.99995C13.388 1.74578 19.6176 11.9998 19.6176 11.9998C19.6176 11.9998 23.5805 0.16826 25.6175 0Z" transform="matrix(-1 0 0 1 51.236572 16.49968)" id="right" fill="#D2BF90" fill-rule="evenodd" stroke="none" />
          <path d="M0 6.5C0 2.91015 2.91015 0 6.5 0C10.0898 0 13 2.91015 13 6.5C13 10.0898 10.0898 13 6.5 13C2.91015 13 0 10.0898 0 6.5Z" transform="translate(19.119995 0)" id="halo" fill="#E5D1A0" fill-rule="evenodd" stroke="none" />
        </g>
      </g>
    </g>
  </g>
</svg>