<?xml version="1.0" encoding="utf-8"?>
<svg width="81px" height="73px" viewBox="0 0 81 73" version="1.1" xmlns:xlink="http://www.w3.org/1999/xlink" xmlns="http://www.w3.org/2000/svg">
  <g id="empty">
    <path d="M0 0L64 0L64 64L0 64L0 0L0 0Z" id="Background" fill="none" fill-rule="evenodd" stroke="none" />
    <g id="icons" transform="translate(7.2690887 1.4999657)">
      <g id="knight">
        <path d="M14.5153 0.0031774C15.174 0.291237 16.6541 0.514333 18.0177 1.54885C19.3813 2.58337 19.7554 4.60038 20.2895 5.19149C20.428 5.46843 22.0647 5.42292 24.5177 7.04888C26.9708 8.67484 28.1606 10.0364 29.3895 12.4076C30.6011 14.7442 31.1549 17.4271 31.1549 20.958C31.1549 24.4889 22.7311 42.3956 22.7311 42.3956L21.8598 42.397C21.8598 42.397 4.49318 42.3837 3.68091 42.4034C3.74212 41.5344 4.58775 40.466 5.42967 40.0442C6.22267 39.6469 6.86255 39.1196 6.8804 39.001L6.88285 39.0009C6.57355 38.0247 6.40407 36.9384 6.40407 35.8606C6.40407 32.3643 7.99644 29.491 12.185 25.337C14.9371 22.6369 15.7506 21.408 15.7506 20.0406C15.7506 19.1406 15.5775 19.0887 11.9254 19.106L8.56761 19.1233L6.59446 20.1098C3.91168 21.4425 2.89049 21.4253 1.29812 20.0406C0.450016 19.2964 0 18.3098 0 17.1848C0 15.8174 0.571174 15.1423 3.63474 12.9615C4.24053 12.5287 5.95406 10.971 7.44257 9.46519C10.2811 6.64391 11.4581 5.7785 12.7562 5.58811C12.7562 5.58811 14.2905 5.34973 14.2967 5.04888C14.4935 3.54212 14.3816 2.25754 14.3035 1.36119C14.2253 0.463066 14.181 -0.0452845 14.5153 0.0031774L14.5153 0.0031774ZM13.1539 9.62681C13.1539 10.1174 12.8922 10.5708 12.4673 10.8161C12.0424 11.0614 11.5189 11.0614 11.094 10.8161C10.6691 10.5708 10.4074 10.1174 10.4074 9.62681C10.4084 8.8681 11.0279 8.25953 11.7866 8.25953C12.5353 8.25953 13.1549 8.8681 13.1549 9.62681L13.1539 9.62681L13.1539 9.62681Z" id="Vector" fill="#CFCC99" fill-rule="evenodd" stroke="none" />
        <path d="M0.145089 4.58839L28.6967 4.58839C28.3531 4.1258 22.3419 0 22.3419 0L4.849 0C4.849 0 0.197048 0.0190392 0.1451 0.146381C-0.123883 0.803654 0.0356988 1.66922 0.186552 2.48743C0.34223 3.33183 0.488612 4.1258 0.145089 4.58839L0.145089 4.58839Z" transform="translate(2.8891144 43.91166)" id="Vector-shape" fill="#8E7049" fill-rule="evenodd" stroke="none" />
      </g>
      <g id="knight-close" transform="translate(20.777967 21.144926)">
        <path d="M1.45294 6.3551C4.64321 1.60902 7.33335 0.149773 12.7138 0C12.261 1.37667 11.6747 2.93331 10.9203 4.82243C9.99315 7.169 9.82625 9.79728 9.71851 10.5938C9.61076 11.3903 9.41713 15.2545 9.71851 16.1732L9.71839 16.1744L9.72339 16.1745C9.74856 16.342 10.6506 17.0867 11.7685 17.6477C12.9553 18.2433 14.1474 19.7521 14.2337 20.9793C13.0887 20.9515 7.84548 20.9693 1.45294 20.9793C0.87617 20.8076 -1.50612 10.7572 1.45294 6.3551Z" id="Vector" fill="#CFCC99" fill-rule="evenodd" stroke="none" />
        <path d="M4.99979 3.40578C4.99979 3.40578 10.2305 3.86449 10.2952 3.51266C10.5079 2.3572 10.6744 1.13488 10.2952 0.206714C10.222 0.0268864 3.66414 0 3.66414 0L0 0L4.99979 3.40578Z" transform="translate(4.4531527 23.109186)" id="Vector-shape" fill="#8E7049" fill-rule="evenodd" stroke="none" />
      </g>
      <g id="magnify" transform="matrix(0.65605956 -0.75470906 0.75470906 0.65605956 8.730783 36.432644)">
        <path d="M0.00308167 0L8.98162 0L8.98162 11.9613C8.98162 11.9613 9.53085 17.4679 4.62457 17.5C-0.2817 17.5321 0.00308047 11.9613 0.00308047 11.9613L0.00308167 0Z" transform="matrix(1 -5.8799685E-09 5.8799685E-09 1 13.6356 35.558243)" id="Rectangle-2" fill="#623626" fill-rule="evenodd" stroke="none" />
        <path d="M0.584944 10.8693C2.8684 2.90596 11.1751 -1.69851 19.1384 0.584943C27.1018 2.8684 31.7062 11.1751 29.4228 19.1384C27.3838 26.2494 20.5419 30.682 13.4305 29.9236L12.8173 32.062L7.04975 30.4082L7.70769 28.1136C1.74327 24.801 -1.37617 17.7085 0.584944 10.8693L0.584944 10.8693ZM21.2872 26.3736C14.8912 29.9811 7.07229 27.6207 3.59945 21.3543C1.91859 18.3478 1.51192 14.7931 2.47025 11.4842C3.42934 8.13949 5.62138 5.38485 8.64608 3.70892C14.9275 0.226286 22.8142 2.48777 26.287 8.75415C29.8966 15.2308 27.4017 23.0653 21.2872 26.3736L21.2872 26.3736L21.2872 26.3736Z" transform="matrix(0.96126175 -0.27563706 0.27563706 0.96126175 0 8.271246)" id="Vector-shape-Union" fill="#32291D" fill-rule="evenodd" stroke="none" />
        <path d="M22.1922 22.1133C17.0383 27.344 8.87162 27.2302 3.80607 22.1638C1.36161 19.7371 -0.00910311 16.4322 4.45851e-05 12.9873C4.45851e-05 9.50779 1.34789 6.25565 3.79347 3.81093C8.87162 -1.26819 17.0762 -1.26819 22.1416 3.79823C27.3966 9.02901 27.1579 17.2477 22.1922 22.1133L22.1922 22.1133L22.1922 22.1133Z" transform="matrix(0.99999994 1.173126E-07 -1.173126E-07 0.99999994 5.540001 5.642381)" id="Shape-path-3" fill="#AFCCDC" fill-opacity="0.69803923" fill-rule="evenodd" stroke="none" />
        <path d="M0 7.12045L1.953 7.52745C2.71 3.90045 6.023 1.46245 9.342 2.09145L9.714 0.131449C5.336 -0.691551 0.979 2.43545 0 7.12045L0 7.12045L0 7.12045Z" transform="matrix(-0.034898296 0.9993909 -0.9993909 -0.034898296 29.21682 8.499144)" id="Shape#1" fill="#FFFFFF" fill-opacity="0.49803922" fill-rule="evenodd" stroke="none" />
      </g>
    </g>
  </g>
</svg>