<?xml version="1.0" encoding="utf-8"?>
<svg width="512px" height="512px" viewBox="0 0 512 512" version="1.1" xmlns:xlink="http://www.w3.org/1999/xlink" xmlns="http://www.w3.org/2000/svg">
  <path d="M0 0L512 0L512 512L0 512L0 0L0 0Z" id="Background" fill="none" fill-rule="evenodd" stroke="none" />
  <path d="M192.853 87.1645L192.853 364.544C192.853 416.737 149.599 459.199 96.4249 459.199C43.251 459.199 0 416.74 0 364.547C0 312.356 43.2546 269.898 96.4285 269.898C111.519 269.898 125.806 273.323 138.535 279.413L138.535 64.2855C138.535 51.122 148.32 39.9313 161.575 37.9336L415.474 0C430.478 0 442.636 11.9371 442.636 26.6612L442.636 327.479C442.636 379.67 399.381 422.129 346.208 422.129C293.034 422.129 249.778 379.67 249.778 327.479C249.778 275.286 293.034 232.824 346.208 232.824C361.298 232.824 375.584 236.248 388.315 242.339L388.315 57.7233L192.853 87.1645L192.853 87.1645Z" transform="translate(35 27)" id="icon" fill="#F3F4F6" fill-rule="evenodd" stroke="none" />
</svg>