<?xml version="1.0" encoding="utf-8"?>
<svg width="558px" height="579px" viewBox="0 0 558 579" version="1.1" xmlns:xlink="http://www.w3.org/1999/xlink" xmlns="http://www.w3.org/2000/svg">
  <path d="M0 0L547 0L547 579L0 579L0 0L0 0Z" transform="translate(10.735992 0)" id="Background" fill="none" fill-rule="evenodd" stroke="none" />
  <path d="M448.887 1.76669C443.897 -0.309414 432.924 0.0189667 432.924 0.0189667L397.758 0.0189667L397.758 0.0476685L375.571 0.0476685C375.571 0.0476685 364.597 -0.280712 359.607 1.79539C354.45 4.37342 351.192 9.64442 351.192 15.4104L351.202 227.794C312.619 196.023 265.449 173.943 213.122 165.576L213.122 101.03C213.122 95.2644 209.864 89.9932 204.707 87.4145C199.549 84.8359 193.378 85.3924 188.765 88.852L6.08919 225.858C2.25596 228.733 0 233.245 0 238.037C0 242.828 2.25596 247.34 6.08919 250.215L188.765 387.222C193.378 390.682 199.549 391.238 204.707 388.659C209.864 386.081 213.122 380.81 213.122 375.044L213.122 317.957C264.337 326.316 311.833 348.455 350.817 381.429C350.887 403.142 351.02 419.413 351.211 419.532L351.214 479.296C351.214 485.061 354.472 490.332 359.629 492.91C364.787 495.489 375.571 495.048 375.571 495.048L410.736 495.048L410.736 495.019L432.924 495.019C432.924 495.019 443.708 495.461 448.865 492.882C454.022 490.304 457.28 485.033 457.28 479.267L457.283 419.504C457.861 419.143 457.91 270.786 457.29 271.483L457.302 15.3817C457.302 9.61572 454.044 4.34472 448.887 1.76669L448.887 1.76669Z" transform="translate(0 41.952362)" id="Vector-shape" fill="#F3F4F6" fill-rule="evenodd" stroke="none" />
</svg>