<?xml version="1.0" encoding="utf-8"?>
<svg width="267px" height="284px" viewBox="0 0 267 284" version="1.1" xmlns:xlink="http://www.w3.org/1999/xlink" xmlns="http://www.w3.org/2000/svg">
  <defs>
    <path d="M0 0L267 0L267 284L0 284L0 0Z" id="path_1" />
    <clipPath id="mask_1">
      <use xlink:href="#path_1" />
    </clipPath>
  </defs>
  <path d="M0 0L267 0L267 284L0 284L0 0Z" id="Background" fill="none" fill-rule="evenodd" stroke="none" />
  <g clip-path="url(#mask_1)">
    <g id="Group" transform="translate(79 46.99991)">
      <path d="M11.667 0L96.333 0C102.961 0 108 5.37299 108 12L108 180C108 186.627 102.96 192 96.333 192L11.667 192C5.03998 192 0 186.627 0 180L0 12C0 5.37299 5.039 0 11.667 0L11.667 0Z" id="Vector-shape" fill="#F3F4F6" fill-rule="evenodd" stroke="none" />
      <path d="M77 120L0 120L0 96L0 44L0 0L24.333 0L54.333 0L77 0L77 120L77 120Z" transform="translate(15 28.999985)" id="Shape-path" fill="#1F1F1F" fill-rule="evenodd" stroke="none" />
      <path d="M9.634 19.268C4.314 19.268 0 14.955 0 9.634C0 4.314 4.313 0 9.634 0C14.954 0 19.268 4.313 19.268 9.634C19.268 14.954 14.954 19.268 9.634 19.268L9.634 19.268Z" transform="translate(44.440002 161.33896)" id="Shape-path" fill="#1F1F1F" fill-rule="evenodd" stroke="none" />
    </g>
    <path d="M65.5813 58.797C64.8576 58.799 64.1766 58.4543 63.7497 57.8699L58.9554 51.2666C52.4168 42.3023 42.6107 36.274 31.66 34.4867L31.66 42.9672C31.66 43.8237 31.176 44.6068 30.4099 44.9897C29.6437 45.3729 28.727 45.2903 28.0417 44.7763L0.904571 24.4234C0.335131 23.9963 0 23.326 0 22.6143C0 21.9024 0.335131 21.2322 0.904571 20.8051L28.0417 0.452299C28.727 -0.0616402 29.6437 -0.14431 30.4099 0.238758C31.176 0.621827 31.66 1.40488 31.66 2.26145L31.66 11.8499C52.5049 15.1831 67.841 33.1646 67.8428 54.2742L67.8428 56.5356C67.842 57.514 67.2123 58.3808 66.2824 58.684C66.0551 58.7544 65.8192 58.7926 65.5813 58.797L65.5813 58.797L65.5813 58.797Z" transform="matrix(-0.32556668 -0.9455189 -0.9455189 0.32556668 251.00003 75.14661)" id="Shape-path" fill="#F3F4F6" fill-rule="evenodd" stroke="none" />
  </g>
</svg>